G04 #@! TF.GenerationSoftware,KiCad,Pcbnew,8.0.4*
G04 #@! TF.CreationDate,2024-09-14T16:47:45+09:00*
G04 #@! TF.ProjectId,100base-t1-converter,31303062-6173-4652-9d74-312d636f6e76,rev?*
G04 #@! TF.SameCoordinates,Original*
G04 #@! TF.FileFunction,Copper,L4,Bot*
G04 #@! TF.FilePolarity,Positive*
%FSLAX46Y46*%
G04 Gerber Fmt 4.6, Leading zero omitted, Abs format (unit mm)*
G04 Created by KiCad (PCBNEW 8.0.4) date 2024-09-14 16:47:45*
%MOMM*%
%LPD*%
G01*
G04 APERTURE LIST*
G04 Aperture macros list*
%AMRoundRect*
0 Rectangle with rounded corners*
0 $1 Rounding radius*
0 $2 $3 $4 $5 $6 $7 $8 $9 X,Y pos of 4 corners*
0 Add a 4 corners polygon primitive as box body*
4,1,4,$2,$3,$4,$5,$6,$7,$8,$9,$2,$3,0*
0 Add four circle primitives for the rounded corners*
1,1,$1+$1,$2,$3*
1,1,$1+$1,$4,$5*
1,1,$1+$1,$6,$7*
1,1,$1+$1,$8,$9*
0 Add four rect primitives between the rounded corners*
20,1,$1+$1,$2,$3,$4,$5,0*
20,1,$1+$1,$4,$5,$6,$7,0*
20,1,$1+$1,$6,$7,$8,$9,0*
20,1,$1+$1,$8,$9,$2,$3,0*%
G04 Aperture macros list end*
G04 #@! TA.AperFunction,ComponentPad*
%ADD10C,1.500000*%
G04 #@! TD*
G04 #@! TA.AperFunction,ComponentPad*
%ADD11C,2.500000*%
G04 #@! TD*
G04 #@! TA.AperFunction,ComponentPad*
%ADD12RoundRect,0.250500X0.499500X-0.499500X0.499500X0.499500X-0.499500X0.499500X-0.499500X-0.499500X0*%
G04 #@! TD*
G04 #@! TA.AperFunction,ComponentPad*
%ADD13C,2.000000*%
G04 #@! TD*
G04 #@! TA.AperFunction,ComponentPad*
%ADD14O,1.700000X1.700000*%
G04 #@! TD*
G04 #@! TA.AperFunction,ComponentPad*
%ADD15R,1.700000X1.700000*%
G04 #@! TD*
G04 #@! TA.AperFunction,ComponentPad*
%ADD16C,0.600000*%
G04 #@! TD*
G04 #@! TA.AperFunction,SMDPad,CuDef*
%ADD17RoundRect,0.250000X-1.000000X-1.000000X1.000000X-1.000000X1.000000X1.000000X-1.000000X1.000000X0*%
G04 #@! TD*
G04 #@! TA.AperFunction,ComponentPad*
%ADD18R,1.600000X1.600000*%
G04 #@! TD*
G04 #@! TA.AperFunction,ComponentPad*
%ADD19O,1.600000X1.600000*%
G04 #@! TD*
G04 #@! TA.AperFunction,SMDPad,CuDef*
%ADD20RoundRect,0.250000X1.000000X1.000000X-1.000000X1.000000X-1.000000X-1.000000X1.000000X-1.000000X0*%
G04 #@! TD*
G04 #@! TA.AperFunction,ViaPad*
%ADD21C,0.600000*%
G04 #@! TD*
G04 #@! TA.AperFunction,ViaPad*
%ADD22C,0.800000*%
G04 #@! TD*
G04 #@! TA.AperFunction,Conductor*
%ADD23C,0.250000*%
G04 #@! TD*
G04 #@! TA.AperFunction,Conductor*
%ADD24C,0.152400*%
G04 #@! TD*
G04 APERTURE END LIST*
D10*
G04 #@! TO.P,J5,11*
G04 #@! TO.N,Net-(J5-Pad11)*
X246210000Y-98155000D03*
G04 #@! TO.P,J5,12*
G04 #@! TO.N,Net-(J5-Pad12)*
X246210000Y-95615000D03*
G04 #@! TO.P,J5,10*
G04 #@! TO.N,Net-(J5-Pad10)*
X246210000Y-106325000D03*
G04 #@! TO.P,J5,9*
G04 #@! TO.N,+3V3*
X246210000Y-108865000D03*
D11*
G04 #@! TO.P,J5,SH*
G04 #@! TO.N,GND*
X238260000Y-94495000D03*
D10*
G04 #@! TO.P,J5,8*
X232410000Y-97800000D03*
D11*
G04 #@! TO.P,J5,SH*
X238260000Y-109985000D03*
D10*
G04 #@! TO.P,J5,7*
G04 #@! TO.N,Net-(J5-Pad7)*
X234950000Y-99060000D03*
G04 #@! TO.P,J5,6*
G04 #@! TO.N,/tx_mac/MDI1-*
X232410000Y-100340000D03*
G04 #@! TO.P,J5,5*
G04 #@! TO.N,Net-(C20-Pad2)*
X234950000Y-101600000D03*
G04 #@! TO.P,J5,4*
G04 #@! TO.N,Net-(C19-Pad2)*
X232410000Y-102880000D03*
G04 #@! TO.P,J5,3*
G04 #@! TO.N,/tx_mac/MDI1+*
X234950000Y-104140000D03*
G04 #@! TO.P,J5,2*
G04 #@! TO.N,/tx_mac/MDI0-*
X232410000Y-105420000D03*
D12*
G04 #@! TO.P,J5,1*
G04 #@! TO.N,/tx_mac/MDI0+*
X234950000Y-106680000D03*
G04 #@! TD*
D13*
G04 #@! TO.P,J1,1*
G04 #@! TO.N,/TRX+*
X171600000Y-111100000D03*
G04 #@! TO.P,J1,2*
G04 #@! TO.N,/TRX-*
X171600000Y-116100000D03*
G04 #@! TD*
D14*
G04 #@! TO.P,J2,3*
G04 #@! TO.N,+3V3*
X209540000Y-118800000D03*
G04 #@! TO.P,J2,2*
G04 #@! TO.N,Net-(J2-Pad2)*
X207000000Y-118800000D03*
D15*
G04 #@! TO.P,J2,1*
G04 #@! TO.N,GND*
X204460000Y-118800000D03*
G04 #@! TD*
G04 #@! TO.P,J3,1*
G04 #@! TO.N,GND*
X204460000Y-115000000D03*
D14*
G04 #@! TO.P,J3,2*
G04 #@! TO.N,Net-(J3-Pad2)*
X207000000Y-115000000D03*
G04 #@! TO.P,J3,3*
G04 #@! TO.N,+3V3*
X209540000Y-115000000D03*
G04 #@! TD*
D15*
G04 #@! TO.P,J4,1*
G04 #@! TO.N,Net-(J4-Pad1)*
X228600000Y-79200000D03*
D14*
G04 #@! TO.P,J4,2*
G04 #@! TO.N,+5V*
X231140000Y-79200000D03*
G04 #@! TD*
D16*
G04 #@! TO.P,U2,37*
G04 #@! TO.N,GND*
X201600000Y-100000000D03*
X202600000Y-100000000D03*
X203600000Y-100000000D03*
X201600000Y-101000000D03*
X202600000Y-101000000D03*
X203600000Y-101000000D03*
X201600000Y-102000000D03*
X202600000Y-102000000D03*
X203600000Y-102000000D03*
D17*
X202600000Y-101000000D03*
G04 #@! TD*
D18*
G04 #@! TO.P,U3,1*
G04 #@! TO.N,Net-(U3-Pad1)*
X168400000Y-88800000D03*
D19*
G04 #@! TO.P,U3,21*
G04 #@! TO.N,Net-(U3-Pad21)*
X216660000Y-73560000D03*
G04 #@! TO.P,U3,2*
G04 #@! TO.N,Net-(U3-Pad2)*
X170940000Y-88800000D03*
G04 #@! TO.P,U3,22*
G04 #@! TO.N,Net-(U3-Pad22)*
X214120000Y-73560000D03*
G04 #@! TO.P,U3,3*
G04 #@! TO.N,Net-(U3-Pad3)*
X173480000Y-88800000D03*
G04 #@! TO.P,U3,23*
G04 #@! TO.N,Net-(U3-Pad23)*
X211580000Y-73560000D03*
G04 #@! TO.P,U3,4*
G04 #@! TO.N,Net-(U3-Pad4)*
X176020000Y-88800000D03*
G04 #@! TO.P,U3,24*
G04 #@! TO.N,Net-(U3-Pad24)*
X209040000Y-73560000D03*
G04 #@! TO.P,U3,5*
G04 #@! TO.N,Net-(U3-Pad5)*
X178560000Y-88800000D03*
G04 #@! TO.P,U3,25*
G04 #@! TO.N,Net-(U3-Pad25)*
X206500000Y-73560000D03*
G04 #@! TO.P,U3,6*
G04 #@! TO.N,Net-(U3-Pad6)*
X181100000Y-88800000D03*
G04 #@! TO.P,U3,26*
G04 #@! TO.N,Net-(U3-Pad26)*
X203960000Y-73560000D03*
G04 #@! TO.P,U3,7*
G04 #@! TO.N,Net-(U3-Pad7)*
X183640000Y-88800000D03*
G04 #@! TO.P,U3,27*
G04 #@! TO.N,Net-(U3-Pad27)*
X201420000Y-73560000D03*
G04 #@! TO.P,U3,8*
G04 #@! TO.N,Net-(U3-Pad8)*
X186180000Y-88800000D03*
G04 #@! TO.P,U3,28*
G04 #@! TO.N,Net-(U3-Pad28)*
X198880000Y-73560000D03*
G04 #@! TO.P,U3,9*
G04 #@! TO.N,Net-(U3-Pad9)*
X188720000Y-88800000D03*
G04 #@! TO.P,U3,29*
G04 #@! TO.N,Net-(U3-Pad29)*
X196340000Y-73560000D03*
G04 #@! TO.P,U3,10*
G04 #@! TO.N,Net-(U3-Pad10)*
X191260000Y-88800000D03*
G04 #@! TO.P,U3,30*
G04 #@! TO.N,Net-(U3-Pad30)*
X193800000Y-73560000D03*
G04 #@! TO.P,U3,11*
G04 #@! TO.N,/micro/INH*
X193800000Y-88800000D03*
G04 #@! TO.P,U3,31*
G04 #@! TO.N,Net-(U3-Pad31)*
X191260000Y-73560000D03*
G04 #@! TO.P,U3,12*
G04 #@! TO.N,/micro/~{INT}*
X196340000Y-88800000D03*
G04 #@! TO.P,U3,32*
G04 #@! TO.N,Net-(U3-Pad32)*
X188720000Y-73560000D03*
G04 #@! TO.P,U3,13*
G04 #@! TO.N,/micro/WAKE_IN_OUT*
X198880000Y-88800000D03*
G04 #@! TO.P,U3,33*
G04 #@! TO.N,Net-(U3-Pad33)*
X186180000Y-73560000D03*
G04 #@! TO.P,U3,14*
G04 #@! TO.N,/micro/MDIO*
X201420000Y-88800000D03*
G04 #@! TO.P,U3,34*
G04 #@! TO.N,Net-(U3-Pad34)*
X183640000Y-73560000D03*
G04 #@! TO.P,U3,15*
G04 #@! TO.N,/micro/MDC*
X203960000Y-88800000D03*
G04 #@! TO.P,U3,35*
G04 #@! TO.N,Net-(U3-Pad35)*
X181100000Y-73560000D03*
G04 #@! TO.P,U3,16*
G04 #@! TO.N,Net-(U3-Pad16)*
X206500000Y-88800000D03*
G04 #@! TO.P,U3,36*
G04 #@! TO.N,Net-(U3-Pad36)*
X178560000Y-73560000D03*
G04 #@! TO.P,U3,17*
G04 #@! TO.N,Net-(U3-Pad17)*
X209040000Y-88800000D03*
G04 #@! TO.P,U3,37*
G04 #@! TO.N,Net-(U3-Pad37)*
X176020000Y-73560000D03*
G04 #@! TO.P,U3,18*
G04 #@! TO.N,Net-(J4-Pad1)*
X211580000Y-88800000D03*
G04 #@! TO.P,U3,38*
G04 #@! TO.N,Net-(U3-Pad38)*
X173480000Y-73560000D03*
G04 #@! TO.P,U3,19*
G04 #@! TO.N,GND*
X214120000Y-88800000D03*
G04 #@! TO.P,U3,39*
X170940000Y-73560000D03*
G04 #@! TO.P,U3,20*
G04 #@! TO.N,Net-(U3-Pad20)*
X216660000Y-88800000D03*
G04 #@! TO.P,U3,40*
G04 #@! TO.N,GND*
X168400000Y-73560000D03*
G04 #@! TD*
D16*
G04 #@! TO.P,U4,33*
G04 #@! TO.N,GND*
X224000000Y-104000000D03*
X223000000Y-104000000D03*
X222000000Y-104000000D03*
X224000000Y-103000000D03*
X223000000Y-103000000D03*
X222000000Y-103000000D03*
X224000000Y-102000000D03*
X223000000Y-102000000D03*
X222000000Y-102000000D03*
D20*
X223000000Y-103000000D03*
G04 #@! TD*
D21*
G04 #@! TO.N,+5V*
X192200000Y-104400000D03*
X228800000Y-81400000D03*
D22*
G04 #@! TO.N,GND*
X235500000Y-88500000D03*
X245500000Y-82000000D03*
X243000000Y-82000000D03*
X240500000Y-82000000D03*
X238000000Y-82000000D03*
X235500000Y-82000000D03*
X235500000Y-91500000D03*
X238000000Y-91500000D03*
X240500000Y-91500000D03*
X245500000Y-91500000D03*
X243000000Y-91500000D03*
X245500000Y-86500000D03*
X243000000Y-86000000D03*
X240500000Y-85000000D03*
X237000000Y-84500000D03*
X230000000Y-110000000D03*
X228750000Y-114000000D03*
X221000000Y-88000000D03*
D21*
X220000000Y-107200000D03*
X220000000Y-108800000D03*
X220000000Y-110400000D03*
X210200000Y-103400000D03*
X207980845Y-104423790D03*
X219000000Y-97400000D03*
X206670572Y-99423790D03*
X217800000Y-98200000D03*
X214600000Y-97000000D03*
X209200000Y-96800000D03*
X216600000Y-90400000D03*
X197000000Y-105800000D03*
X202000000Y-107800000D03*
X201800000Y-111800000D03*
X213681259Y-107748941D03*
X194800000Y-103800000D03*
X195400000Y-110600000D03*
X195000000Y-102200000D03*
X181800000Y-100600000D03*
X191000000Y-96600000D03*
X198000000Y-96800000D03*
X173200000Y-105600000D03*
X173200000Y-103800000D03*
X210800000Y-108400000D03*
X226600000Y-99000000D03*
D22*
X224200000Y-119000000D03*
G04 #@! TO.N,+3V3*
X231000000Y-87000000D03*
D21*
X221953957Y-99417513D03*
D22*
X228800000Y-86600000D03*
D21*
X220000000Y-112000000D03*
X213600000Y-109400000D03*
X209000000Y-109000000D03*
X216400000Y-98200000D03*
X212200000Y-96400000D03*
X202400000Y-92800000D03*
X199800000Y-111800000D03*
X213588956Y-106222623D03*
X189600000Y-102200000D03*
X192600000Y-96600000D03*
X205200000Y-93000000D03*
X197800000Y-90800000D03*
X194976210Y-96092558D03*
X208200000Y-110600000D03*
G04 #@! TO.N,Net-(C4-Pad2)*
X207180832Y-104423790D03*
X207618977Y-98818977D03*
G04 #@! TO.N,Net-(C11-Pad2)*
X203000000Y-106000000D03*
X201000000Y-105200000D03*
X200000000Y-106400000D03*
X198800000Y-109800000D03*
D22*
G04 #@! TO.N,VDDA*
X226750000Y-101575000D03*
D21*
X224000000Y-107400000D03*
D22*
G04 #@! TO.N,Net-(C19-Pad2)*
X228515000Y-98985000D03*
D21*
G04 #@! TO.N,Net-(C22-Pad1)*
X217600000Y-107200000D03*
X217600000Y-105800000D03*
G04 #@! TO.N,Net-(J5-Pad12)*
X240400000Y-93000000D03*
X220012741Y-105006727D03*
G04 #@! TO.N,/micro/MDC*
X219000000Y-103600000D03*
X199600000Y-95400000D03*
G04 #@! TO.N,/micro/MDIO*
X200400000Y-96000000D03*
X219154045Y-104464534D03*
G04 #@! TO.N,Net-(R13-Pad1)*
X206000000Y-104400000D03*
X214200000Y-105000000D03*
G04 #@! TO.N,/micro/INH*
X199400000Y-104000000D03*
X196600000Y-93200000D03*
G04 #@! TO.N,Net-(R23-Pad1)*
X240800000Y-111800000D03*
X220600000Y-105550000D03*
G04 #@! TO.N,/tx_mac/RXER*
X210200000Y-105600000D03*
X201676210Y-96592558D03*
X213400000Y-107000000D03*
G04 #@! TO.N,/tx_mac/RXDV*
X219400000Y-91200000D03*
X205469942Y-96469942D03*
G04 #@! TO.N,/micro/WAKE_IN_OUT*
X194400000Y-103000000D03*
G04 #@! TD*
D23*
G04 #@! TO.N,+5V*
X192200000Y-104400000D02*
X193400000Y-103200000D01*
X195214999Y-88259999D02*
X202074998Y-81400000D01*
X195214999Y-89050003D02*
X195214999Y-88259999D01*
X193400000Y-90865002D02*
X195214999Y-89050003D01*
X193400000Y-103200000D02*
X193400000Y-90865002D01*
X202074998Y-81400000D02*
X228800000Y-81400000D01*
G04 #@! TO.N,Net-(C4-Pad2)*
X207180832Y-104423790D02*
X207180832Y-103999526D01*
X207180832Y-103999526D02*
X207918976Y-103261382D01*
X207918976Y-103261382D02*
X207918976Y-99118976D01*
X207918976Y-99118976D02*
X207618977Y-98818977D01*
G04 #@! TO.N,Net-(C11-Pad2)*
X203000000Y-106000000D02*
X202200000Y-105200000D01*
X202200000Y-105200000D02*
X201000000Y-105200000D01*
X200000000Y-108600000D02*
X198800000Y-109800000D01*
X200000000Y-106400000D02*
X200000000Y-108600000D01*
G04 #@! TO.N,VDDA*
X226750000Y-101575000D02*
X226350001Y-101974999D01*
X224575010Y-103174990D02*
X224575010Y-106174990D01*
X226350001Y-101974999D02*
X225775001Y-101974999D01*
X225775001Y-101974999D02*
X224575010Y-103174990D01*
X224299999Y-106450001D02*
X224575010Y-106174990D01*
X224299999Y-107100001D02*
X224299999Y-106450001D01*
X224000000Y-107400000D02*
X224299999Y-107100001D01*
G04 #@! TO.N,Net-(C19-Pad2)*
X228500000Y-98970000D02*
X228515000Y-98985000D01*
X232410000Y-102880000D02*
X228515000Y-98985000D01*
D24*
G04 #@! TO.N,Net-(C22-Pad1)*
X217600000Y-107200000D02*
X217600000Y-105800000D01*
G04 #@! TO.N,Net-(J5-Pad12)*
X220376201Y-104643267D02*
X220012741Y-105006727D01*
X220376201Y-102879623D02*
X220376201Y-104643267D01*
X240100001Y-92700001D02*
X230555823Y-92700001D01*
X230555823Y-92700001D02*
X220376201Y-102879623D01*
X240400000Y-93000000D02*
X240100001Y-92700001D01*
G04 #@! TO.N,/micro/MDC*
X219000000Y-103600000D02*
X213400000Y-98000000D01*
X213400000Y-98000000D02*
X209000000Y-98000000D01*
X209000000Y-98000000D02*
X208200000Y-97200000D01*
X208200000Y-97200000D02*
X203800000Y-97200000D01*
X202000000Y-95400000D02*
X199600000Y-95400000D01*
X203800000Y-97200000D02*
X202000000Y-95400000D01*
G04 #@! TO.N,/micro/MDIO*
X200400000Y-96000000D02*
X202101616Y-96000000D01*
X202101616Y-96000000D02*
X203701616Y-97600000D01*
X203701616Y-97600000D02*
X208101616Y-97600000D01*
X208101616Y-97600000D02*
X209054027Y-98552411D01*
X218423799Y-103734288D02*
X218423799Y-104158552D01*
X218423799Y-104158552D02*
X218729781Y-104464534D01*
X213241922Y-98552411D02*
X218423799Y-103734288D01*
X209054027Y-98552411D02*
X213241922Y-98552411D01*
X218729781Y-104464534D02*
X219154045Y-104464534D01*
G04 #@! TO.N,Net-(R13-Pad1)*
X206000000Y-104400000D02*
X206600000Y-105000000D01*
X206600000Y-105000000D02*
X214200000Y-105000000D01*
G04 #@! TO.N,/micro/INH*
X199400000Y-104000000D02*
X196600000Y-101200000D01*
X196600000Y-101200000D02*
X196600000Y-93200000D01*
G04 #@! TO.N,Net-(R23-Pad1)*
X226850000Y-111800000D02*
X220600000Y-105550000D01*
X240800000Y-111800000D02*
X226850000Y-111800000D01*
G04 #@! TO.N,/tx_mac/RXER*
X204126210Y-103378988D02*
X204126210Y-99042558D01*
X206347222Y-105600000D02*
X204126210Y-103378988D01*
X210200000Y-105600000D02*
X206347222Y-105600000D01*
X204126210Y-99042558D02*
X201676210Y-96592558D01*
X212000000Y-105600000D02*
X210200000Y-105600000D01*
X213400000Y-107000000D02*
X212000000Y-105600000D01*
G04 #@! TO.N,/tx_mac/RXDV*
X210739884Y-91200000D02*
X205769941Y-96169943D01*
X205769941Y-96169943D02*
X205469942Y-96469942D01*
X219400000Y-91200000D02*
X210739884Y-91200000D01*
G04 #@! TO.N,/micro/WAKE_IN_OUT*
X194400000Y-103000000D02*
X194400000Y-93200000D01*
X194400000Y-93200000D02*
X198800000Y-88800000D01*
G04 #@! TD*
M02*
