G04 #@! TF.GenerationSoftware,KiCad,Pcbnew,8.0.4*
G04 #@! TF.CreationDate,2024-09-14T16:47:45+09:00*
G04 #@! TF.ProjectId,100base-t1-converter,31303062-6173-4652-9d74-312d636f6e76,rev?*
G04 #@! TF.SameCoordinates,Original*
G04 #@! TF.FileFunction,Copper,L1,Top*
G04 #@! TF.FilePolarity,Positive*
%FSLAX46Y46*%
G04 Gerber Fmt 4.6, Leading zero omitted, Abs format (unit mm)*
G04 Created by KiCad (PCBNEW 8.0.4) date 2024-09-14 16:47:45*
%MOMM*%
%LPD*%
G01*
G04 APERTURE LIST*
G04 Aperture macros list*
%AMRoundRect*
0 Rectangle with rounded corners*
0 $1 Rounding radius*
0 $2 $3 $4 $5 $6 $7 $8 $9 X,Y pos of 4 corners*
0 Add a 4 corners polygon primitive as box body*
4,1,4,$2,$3,$4,$5,$6,$7,$8,$9,$2,$3,0*
0 Add four circle primitives for the rounded corners*
1,1,$1+$1,$2,$3*
1,1,$1+$1,$4,$5*
1,1,$1+$1,$6,$7*
1,1,$1+$1,$8,$9*
0 Add four rect primitives between the rounded corners*
20,1,$1+$1,$2,$3,$4,$5,0*
20,1,$1+$1,$4,$5,$6,$7,0*
20,1,$1+$1,$6,$7,$8,$9,0*
20,1,$1+$1,$8,$9,$2,$3,0*%
G04 Aperture macros list end*
G04 #@! TA.AperFunction,ComponentPad*
%ADD10C,1.500000*%
G04 #@! TD*
G04 #@! TA.AperFunction,ComponentPad*
%ADD11C,2.500000*%
G04 #@! TD*
G04 #@! TA.AperFunction,ComponentPad*
%ADD12RoundRect,0.250500X0.499500X-0.499500X0.499500X0.499500X-0.499500X0.499500X-0.499500X-0.499500X0*%
G04 #@! TD*
G04 #@! TA.AperFunction,SMDPad,CuDef*
%ADD13RoundRect,0.237500X0.237500X-0.287500X0.237500X0.287500X-0.237500X0.287500X-0.237500X-0.287500X0*%
G04 #@! TD*
G04 #@! TA.AperFunction,SMDPad,CuDef*
%ADD14RoundRect,0.237500X-0.287500X-0.237500X0.287500X-0.237500X0.287500X0.237500X-0.287500X0.237500X0*%
G04 #@! TD*
G04 #@! TA.AperFunction,SMDPad,CuDef*
%ADD15RoundRect,0.237500X-0.237500X0.287500X-0.237500X-0.287500X0.237500X-0.287500X0.237500X0.287500X0*%
G04 #@! TD*
G04 #@! TA.AperFunction,SMDPad,CuDef*
%ADD16RoundRect,0.237500X0.287500X0.237500X-0.287500X0.237500X-0.287500X-0.237500X0.287500X-0.237500X0*%
G04 #@! TD*
G04 #@! TA.AperFunction,SMDPad,CuDef*
%ADD17RoundRect,0.250000X-0.325000X-0.450000X0.325000X-0.450000X0.325000X0.450000X-0.325000X0.450000X0*%
G04 #@! TD*
G04 #@! TA.AperFunction,SMDPad,CuDef*
%ADD18R,1.050000X0.600000*%
G04 #@! TD*
G04 #@! TA.AperFunction,ComponentPad*
%ADD19C,2.000000*%
G04 #@! TD*
G04 #@! TA.AperFunction,ComponentPad*
%ADD20O,1.700000X1.700000*%
G04 #@! TD*
G04 #@! TA.AperFunction,ComponentPad*
%ADD21R,1.700000X1.700000*%
G04 #@! TD*
G04 #@! TA.AperFunction,SMDPad,CuDef*
%ADD22R,1.800000X0.400000*%
G04 #@! TD*
G04 #@! TA.AperFunction,SMDPad,CuDef*
%ADD23R,1.400000X1.500000*%
G04 #@! TD*
G04 #@! TA.AperFunction,SMDPad,CuDef*
%ADD24R,1.500000X1.350000*%
G04 #@! TD*
G04 #@! TA.AperFunction,SMDPad,CuDef*
%ADD25R,1.000000X1.100000*%
G04 #@! TD*
G04 #@! TA.AperFunction,SMDPad,CuDef*
%ADD26R,2.000000X3.800000*%
G04 #@! TD*
G04 #@! TA.AperFunction,SMDPad,CuDef*
%ADD27R,2.000000X1.500000*%
G04 #@! TD*
G04 #@! TA.AperFunction,SMDPad,CuDef*
%ADD28RoundRect,0.250002X-1.799998X-1.799998X1.799998X-1.799998X1.799998X1.799998X-1.799998X1.799998X0*%
G04 #@! TD*
G04 #@! TA.AperFunction,ComponentPad*
%ADD29C,0.600000*%
G04 #@! TD*
G04 #@! TA.AperFunction,SMDPad,CuDef*
%ADD30RoundRect,0.062500X-0.475000X-0.062500X0.475000X-0.062500X0.475000X0.062500X-0.475000X0.062500X0*%
G04 #@! TD*
G04 #@! TA.AperFunction,SMDPad,CuDef*
%ADD31RoundRect,0.062500X-0.062500X-0.475000X0.062500X-0.475000X0.062500X0.475000X-0.062500X0.475000X0*%
G04 #@! TD*
G04 #@! TA.AperFunction,ComponentPad*
%ADD32R,1.600000X1.600000*%
G04 #@! TD*
G04 #@! TA.AperFunction,ComponentPad*
%ADD33O,1.600000X1.600000*%
G04 #@! TD*
G04 #@! TA.AperFunction,SMDPad,CuDef*
%ADD34RoundRect,0.249998X1.550002X1.550002X-1.550002X1.550002X-1.550002X-1.550002X1.550002X-1.550002X0*%
G04 #@! TD*
G04 #@! TA.AperFunction,SMDPad,CuDef*
%ADD35RoundRect,0.062500X0.337500X0.062500X-0.337500X0.062500X-0.337500X-0.062500X0.337500X-0.062500X0*%
G04 #@! TD*
G04 #@! TA.AperFunction,SMDPad,CuDef*
%ADD36RoundRect,0.062500X0.062500X0.337500X-0.062500X0.337500X-0.062500X-0.337500X0.062500X-0.337500X0*%
G04 #@! TD*
G04 #@! TA.AperFunction,SMDPad,CuDef*
%ADD37R,2.000000X7.875000*%
G04 #@! TD*
G04 #@! TA.AperFunction,SMDPad,CuDef*
%ADD38R,7.875000X2.000000*%
G04 #@! TD*
G04 #@! TA.AperFunction,SMDPad,CuDef*
%ADD39R,0.800000X0.500000*%
G04 #@! TD*
G04 #@! TA.AperFunction,SMDPad,CuDef*
%ADD40R,0.800000X0.400000*%
G04 #@! TD*
G04 #@! TA.AperFunction,ViaPad*
%ADD41C,0.600000*%
G04 #@! TD*
G04 #@! TA.AperFunction,ViaPad*
%ADD42C,0.800000*%
G04 #@! TD*
G04 #@! TA.AperFunction,Conductor*
%ADD43C,0.250000*%
G04 #@! TD*
G04 #@! TA.AperFunction,Conductor*
%ADD44C,0.152400*%
G04 #@! TD*
G04 #@! TA.AperFunction,Conductor*
%ADD45C,0.203200*%
G04 #@! TD*
G04 #@! TA.AperFunction,Conductor*
%ADD46C,0.254000*%
G04 #@! TD*
G04 #@! TA.AperFunction,Conductor*
%ADD47C,0.200000*%
G04 #@! TD*
G04 APERTURE END LIST*
D10*
G04 #@! TO.P,J5,11*
G04 #@! TO.N,Net-(J5-Pad11)*
X246210000Y-98155000D03*
G04 #@! TO.P,J5,12*
G04 #@! TO.N,Net-(J5-Pad12)*
X246210000Y-95615000D03*
G04 #@! TO.P,J5,10*
G04 #@! TO.N,Net-(J5-Pad10)*
X246210000Y-106325000D03*
G04 #@! TO.P,J5,9*
G04 #@! TO.N,+3V3*
X246210000Y-108865000D03*
D11*
G04 #@! TO.P,J5,SH*
G04 #@! TO.N,GND*
X238260000Y-94495000D03*
D10*
G04 #@! TO.P,J5,8*
X232410000Y-97800000D03*
D11*
G04 #@! TO.P,J5,SH*
X238260000Y-109985000D03*
D10*
G04 #@! TO.P,J5,7*
G04 #@! TO.N,Net-(J5-Pad7)*
X234950000Y-99060000D03*
G04 #@! TO.P,J5,6*
G04 #@! TO.N,/tx_mac/MDI1-*
X232410000Y-100340000D03*
G04 #@! TO.P,J5,5*
G04 #@! TO.N,Net-(C20-Pad2)*
X234950000Y-101600000D03*
G04 #@! TO.P,J5,4*
G04 #@! TO.N,Net-(C19-Pad2)*
X232410000Y-102880000D03*
G04 #@! TO.P,J5,3*
G04 #@! TO.N,/tx_mac/MDI1+*
X234950000Y-104140000D03*
G04 #@! TO.P,J5,2*
G04 #@! TO.N,/tx_mac/MDI0-*
X232410000Y-105420000D03*
D12*
G04 #@! TO.P,J5,1*
G04 #@! TO.N,/tx_mac/MDI0+*
X234950000Y-106680000D03*
G04 #@! TD*
D13*
G04 #@! TO.P,R4,1*
G04 #@! TO.N,/tja1101/RXD0*
X213600000Y-99150000D03*
G04 #@! TO.P,R4,2*
G04 #@! TO.N,GND*
X213600000Y-97400000D03*
G04 #@! TD*
D14*
G04 #@! TO.P,C21,1*
G04 #@! TO.N,GND*
X220250000Y-98600000D03*
G04 #@! TO.P,C21,2*
G04 #@! TO.N,+3V3*
X222000000Y-98600000D03*
G04 #@! TD*
D15*
G04 #@! TO.P,C19,2*
G04 #@! TO.N,Net-(C19-Pad2)*
X227000000Y-97000000D03*
G04 #@! TO.P,C19,1*
G04 #@! TO.N,GND*
X227000000Y-95250000D03*
G04 #@! TD*
D13*
G04 #@! TO.P,C1,1*
G04 #@! TO.N,+5V*
X238760000Y-88110000D03*
G04 #@! TO.P,C1,2*
G04 #@! TO.N,GND*
X238760000Y-86360000D03*
G04 #@! TD*
D14*
G04 #@! TO.P,C2,1*
G04 #@! TO.N,+3V3*
X229390000Y-91440000D03*
G04 #@! TO.P,C2,2*
G04 #@! TO.N,GND*
X231140000Y-91440000D03*
G04 #@! TD*
D13*
G04 #@! TO.P,C3,2*
G04 #@! TO.N,GND*
X198000000Y-97850000D03*
G04 #@! TO.P,C3,1*
G04 #@! TO.N,Net-(C3-Pad1)*
X198000000Y-99600000D03*
G04 #@! TD*
D16*
G04 #@! TO.P,C4,1*
G04 #@! TO.N,GND*
X208950000Y-106200000D03*
G04 #@! TO.P,C4,2*
G04 #@! TO.N,Net-(C4-Pad2)*
X207200000Y-106200000D03*
G04 #@! TD*
D14*
G04 #@! TO.P,C5,1*
G04 #@! TO.N,GND*
X196125000Y-103800000D03*
G04 #@! TO.P,C5,2*
G04 #@! TO.N,Net-(C5-Pad2)*
X197875000Y-103800000D03*
G04 #@! TD*
G04 #@! TO.P,C6,2*
G04 #@! TO.N,Net-(C6-Pad2)*
X197950000Y-102200000D03*
G04 #@! TO.P,C6,1*
G04 #@! TO.N,GND*
X196200000Y-102200000D03*
G04 #@! TD*
D16*
G04 #@! TO.P,C7,2*
G04 #@! TO.N,Net-(C4-Pad2)*
X207200000Y-103400000D03*
G04 #@! TO.P,C7,1*
G04 #@! TO.N,GND*
X208950000Y-103400000D03*
G04 #@! TD*
D14*
G04 #@! TO.P,C8,1*
G04 #@! TO.N,Net-(C4-Pad2)*
X207050000Y-98000000D03*
G04 #@! TO.P,C8,2*
G04 #@! TO.N,GND*
X208800000Y-98000000D03*
G04 #@! TD*
G04 #@! TO.P,C9,2*
G04 #@! TO.N,Net-(C10-Pad2)*
X203550000Y-109000000D03*
G04 #@! TO.P,C9,1*
G04 #@! TO.N,GND*
X201800000Y-109000000D03*
G04 #@! TD*
G04 #@! TO.P,C10,1*
G04 #@! TO.N,GND*
X201800000Y-110600000D03*
G04 #@! TO.P,C10,2*
G04 #@! TO.N,Net-(C10-Pad2)*
X203550000Y-110600000D03*
G04 #@! TD*
D13*
G04 #@! TO.P,C11,1*
G04 #@! TO.N,GND*
X203000000Y-107150000D03*
G04 #@! TO.P,C11,2*
G04 #@! TO.N,Net-(C11-Pad2)*
X203000000Y-105400000D03*
G04 #@! TD*
D16*
G04 #@! TO.P,C12,1*
G04 #@! TO.N,Net-(C11-Pad2)*
X200150000Y-105400000D03*
G04 #@! TO.P,C12,2*
G04 #@! TO.N,GND*
X198400000Y-105400000D03*
G04 #@! TD*
D15*
G04 #@! TO.P,C13,1*
G04 #@! TO.N,GND*
X180200000Y-101450000D03*
G04 #@! TO.P,C13,2*
G04 #@! TO.N,Net-(C13-Pad2)*
X180200000Y-103200000D03*
G04 #@! TD*
D13*
G04 #@! TO.P,C14,2*
G04 #@! TO.N,Net-(C14-Pad2)*
X180200000Y-98000000D03*
G04 #@! TO.P,C14,1*
G04 #@! TO.N,GND*
X180200000Y-99750000D03*
G04 #@! TD*
D14*
G04 #@! TO.P,C15,2*
G04 #@! TO.N,/tja1101/CMC_TRX+*
X186800000Y-113000000D03*
G04 #@! TO.P,C15,1*
G04 #@! TO.N,/TRX+*
X185050000Y-113000000D03*
G04 #@! TD*
D16*
G04 #@! TO.P,C16,1*
G04 #@! TO.N,/tja1101/CMC_TRX-*
X186800000Y-114600000D03*
G04 #@! TO.P,C16,2*
G04 #@! TO.N,/TRX-*
X185050000Y-114600000D03*
G04 #@! TD*
D14*
G04 #@! TO.P,C17,1*
G04 #@! TO.N,Net-(C17-Pad1)*
X169850000Y-103800000D03*
G04 #@! TO.P,C17,2*
G04 #@! TO.N,GND*
X171600000Y-103800000D03*
G04 #@! TD*
G04 #@! TO.P,C18,2*
G04 #@! TO.N,VDDA*
X222800000Y-110400000D03*
G04 #@! TO.P,C18,1*
G04 #@! TO.N,GND*
X221050000Y-110400000D03*
G04 #@! TD*
D15*
G04 #@! TO.P,C20,1*
G04 #@! TO.N,GND*
X228500000Y-95250000D03*
G04 #@! TO.P,C20,2*
G04 #@! TO.N,Net-(C20-Pad2)*
X228500000Y-97000000D03*
G04 #@! TD*
D16*
G04 #@! TO.P,C22,1*
G04 #@! TO.N,Net-(C22-Pad1)*
X216400000Y-107800000D03*
G04 #@! TO.P,C22,2*
G04 #@! TO.N,GND*
X214650000Y-107800000D03*
G04 #@! TD*
D14*
G04 #@! TO.P,C23,1*
G04 #@! TO.N,GND*
X221050000Y-108800000D03*
G04 #@! TO.P,C23,2*
G04 #@! TO.N,VDDA*
X222800000Y-108800000D03*
G04 #@! TD*
G04 #@! TO.P,C24,1*
G04 #@! TO.N,GND*
X221050000Y-107200000D03*
G04 #@! TO.P,C24,2*
G04 #@! TO.N,Net-(C24-Pad2)*
X222800000Y-107200000D03*
G04 #@! TD*
D15*
G04 #@! TO.P,C25,1*
G04 #@! TO.N,Net-(C25-Pad1)*
X228750000Y-107250000D03*
G04 #@! TO.P,C25,2*
G04 #@! TO.N,GND*
X228750000Y-109000000D03*
G04 #@! TD*
D16*
G04 #@! TO.P,C26,2*
G04 #@! TO.N,Net-(C26-Pad2)*
X221400000Y-120000000D03*
G04 #@! TO.P,C26,1*
G04 #@! TO.N,GND*
X223150000Y-120000000D03*
G04 #@! TD*
D14*
G04 #@! TO.P,C27,1*
G04 #@! TO.N,GND*
X225050000Y-120000000D03*
G04 #@! TO.P,C27,2*
G04 #@! TO.N,Net-(C27-Pad2)*
X226800000Y-120000000D03*
G04 #@! TD*
D17*
G04 #@! TO.P,F1,1*
G04 #@! TO.N,+5V*
X241545000Y-88900000D03*
G04 #@! TO.P,F1,2*
G04 #@! TO.N,Net-(F1-Pad2)*
X243595000Y-88900000D03*
G04 #@! TD*
D16*
G04 #@! TO.P,FB1,2*
G04 #@! TO.N,+5V*
X194050000Y-105400000D03*
G04 #@! TO.P,FB1,1*
G04 #@! TO.N,Net-(C5-Pad2)*
X195800000Y-105400000D03*
G04 #@! TD*
G04 #@! TO.P,FB2,1*
G04 #@! TO.N,Net-(C6-Pad2)*
X192600000Y-102200000D03*
G04 #@! TO.P,FB2,2*
G04 #@! TO.N,+3V3*
X190850000Y-102200000D03*
G04 #@! TD*
D14*
G04 #@! TO.P,FB3,1*
G04 #@! TO.N,Net-(C4-Pad2)*
X207200000Y-107800000D03*
G04 #@! TO.P,FB3,2*
G04 #@! TO.N,+3V3*
X208950000Y-107800000D03*
G04 #@! TD*
D13*
G04 #@! TO.P,FB4,1*
G04 #@! TO.N,+3V3*
X199800000Y-110550000D03*
G04 #@! TO.P,FB4,2*
G04 #@! TO.N,Net-(C11-Pad2)*
X199800000Y-108800000D03*
G04 #@! TD*
D16*
G04 #@! TO.P,FB5,2*
G04 #@! TO.N,+3V3*
X221050000Y-112000000D03*
G04 #@! TO.P,FB5,1*
G04 #@! TO.N,VDDA*
X222800000Y-112000000D03*
G04 #@! TD*
D18*
G04 #@! TO.P,FL1,4*
G04 #@! TO.N,/tja1101/CMC_TRX-*
X189075000Y-114300000D03*
G04 #@! TO.P,FL1,1*
G04 #@! TO.N,/tja1101/CHIP_TRX-*
X192125000Y-114300000D03*
G04 #@! TO.P,FL1,3*
G04 #@! TO.N,/tja1101/CMC_TRX+*
X189075000Y-113300000D03*
G04 #@! TO.P,FL1,2*
G04 #@! TO.N,/tja1101/CHIP_TRX+*
X192125000Y-113300000D03*
G04 #@! TD*
D19*
G04 #@! TO.P,J1,1*
G04 #@! TO.N,/TRX+*
X171600000Y-111100000D03*
G04 #@! TO.P,J1,2*
G04 #@! TO.N,/TRX-*
X171600000Y-116100000D03*
G04 #@! TD*
D20*
G04 #@! TO.P,J2,3*
G04 #@! TO.N,+3V3*
X209540000Y-118800000D03*
G04 #@! TO.P,J2,2*
G04 #@! TO.N,Net-(J2-Pad2)*
X207000000Y-118800000D03*
D21*
G04 #@! TO.P,J2,1*
G04 #@! TO.N,GND*
X204460000Y-118800000D03*
G04 #@! TD*
G04 #@! TO.P,J3,1*
G04 #@! TO.N,GND*
X204460000Y-115000000D03*
D20*
G04 #@! TO.P,J3,2*
G04 #@! TO.N,Net-(J3-Pad2)*
X207000000Y-115000000D03*
G04 #@! TO.P,J3,3*
G04 #@! TO.N,+3V3*
X209540000Y-115000000D03*
G04 #@! TD*
D21*
G04 #@! TO.P,J4,1*
G04 #@! TO.N,Net-(J4-Pad1)*
X228600000Y-79200000D03*
D20*
G04 #@! TO.P,J4,2*
G04 #@! TO.N,+5V*
X231140000Y-79200000D03*
G04 #@! TD*
D22*
G04 #@! TO.P,J6,5*
G04 #@! TO.N,GND*
X247400000Y-84120000D03*
D23*
G04 #@! TO.P,J6,6*
X247570000Y-88670000D03*
X247570000Y-82170000D03*
D24*
X250270000Y-90170000D03*
X250270000Y-80670000D03*
D25*
X251420000Y-83920000D03*
X251420000Y-86920000D03*
D22*
G04 #@! TO.P,J6,4*
G04 #@! TO.N,Net-(J6-Pad4)*
X247400000Y-84770000D03*
G04 #@! TO.P,J6,3*
G04 #@! TO.N,Net-(J6-Pad3)*
X247400000Y-85420000D03*
G04 #@! TO.P,J6,2*
G04 #@! TO.N,Net-(J6-Pad2)*
X247400000Y-86070000D03*
G04 #@! TO.P,J6,1*
G04 #@! TO.N,Net-(F1-Pad2)*
X247400000Y-86720000D03*
G04 #@! TD*
D15*
G04 #@! TO.P,R1,2*
G04 #@! TO.N,+3V3*
X204000000Y-92800000D03*
G04 #@! TO.P,R1,1*
G04 #@! TO.N,/micro/MDC*
X204000000Y-91050000D03*
G04 #@! TD*
D14*
G04 #@! TO.P,R2,1*
G04 #@! TO.N,+3V3*
X199050000Y-90800000D03*
G04 #@! TO.P,R2,2*
G04 #@! TO.N,/micro/MDIO*
X200800000Y-90800000D03*
G04 #@! TD*
D13*
G04 #@! TO.P,R3,1*
G04 #@! TO.N,Net-(J2-Pad2)*
X215200000Y-102750000D03*
G04 #@! TO.P,R3,2*
G04 #@! TO.N,/tja1101/RXD2*
X215200000Y-101000000D03*
G04 #@! TD*
G04 #@! TO.P,R5,2*
G04 #@! TO.N,+3V3*
X212000000Y-97400000D03*
G04 #@! TO.P,R5,1*
G04 #@! TO.N,/tja1101/RXD0*
X212000000Y-99150000D03*
G04 #@! TD*
G04 #@! TO.P,R6,1*
G04 #@! TO.N,Net-(J3-Pad2)*
X213600000Y-103550000D03*
G04 #@! TO.P,R6,2*
G04 #@! TO.N,/tja1101/RXD3*
X213600000Y-101800000D03*
G04 #@! TD*
G04 #@! TO.P,R7,1*
G04 #@! TO.N,/tja1101/RXD1*
X218600000Y-100950000D03*
G04 #@! TO.P,R7,2*
G04 #@! TO.N,GND*
X218600000Y-99200000D03*
G04 #@! TD*
G04 #@! TO.P,R8,2*
G04 #@! TO.N,+3V3*
X217000000Y-99200000D03*
G04 #@! TO.P,R8,1*
G04 #@! TO.N,/tja1101/RXD1*
X217000000Y-100950000D03*
G04 #@! TD*
G04 #@! TO.P,R9,2*
G04 #@! TO.N,+3V3*
X201200000Y-92850000D03*
G04 #@! TO.P,R9,1*
G04 #@! TO.N,Net-(R9-Pad1)*
X201200000Y-94600000D03*
G04 #@! TD*
D14*
G04 #@! TO.P,R10,1*
G04 #@! TO.N,+3V3*
X214650000Y-106200000D03*
G04 #@! TO.P,R10,2*
G04 #@! TO.N,/tja1101/RXDV*
X216400000Y-106200000D03*
G04 #@! TD*
D16*
G04 #@! TO.P,R11,1*
G04 #@! TO.N,+3V3*
X207000000Y-110600000D03*
G04 #@! TO.P,R11,2*
G04 #@! TO.N,/tja1101/RXER*
X205250000Y-110600000D03*
G04 #@! TD*
D13*
G04 #@! TO.P,R12,1*
G04 #@! TO.N,Net-(C3-Pad1)*
X196400000Y-98600000D03*
G04 #@! TO.P,R12,2*
G04 #@! TO.N,+3V3*
X196400000Y-96850000D03*
G04 #@! TD*
D14*
G04 #@! TO.P,R13,1*
G04 #@! TO.N,Net-(R13-Pad1)*
X215250000Y-104400000D03*
G04 #@! TO.P,R13,2*
G04 #@! TO.N,/tja1101/RXDV*
X217000000Y-104400000D03*
G04 #@! TD*
D15*
G04 #@! TO.P,R14,1*
G04 #@! TO.N,Net-(R14-Pad1)*
X205200000Y-105600000D03*
G04 #@! TO.P,R14,2*
G04 #@! TO.N,/tja1101/RXER*
X205200000Y-107350000D03*
G04 #@! TD*
D13*
G04 #@! TO.P,R15,2*
G04 #@! TO.N,GND*
X191000000Y-97850000D03*
G04 #@! TO.P,R15,1*
G04 #@! TO.N,Net-(R15-Pad1)*
X191000000Y-99600000D03*
G04 #@! TD*
D15*
G04 #@! TO.P,R16,1*
G04 #@! TO.N,+3V3*
X192600000Y-97850000D03*
G04 #@! TO.P,R16,2*
G04 #@! TO.N,Net-(R15-Pad1)*
X192600000Y-99600000D03*
G04 #@! TD*
G04 #@! TO.P,R17,2*
G04 #@! TO.N,GND*
X196600000Y-110600000D03*
G04 #@! TO.P,R17,1*
G04 #@! TO.N,/micro/INH*
X196600000Y-108850000D03*
G04 #@! TD*
D16*
G04 #@! TO.P,R18,1*
G04 #@! TO.N,GND*
X171600000Y-105600000D03*
G04 #@! TO.P,R18,2*
G04 #@! TO.N,Net-(C17-Pad1)*
X169850000Y-105600000D03*
G04 #@! TD*
D14*
G04 #@! TO.P,R19,1*
G04 #@! TO.N,Net-(C17-Pad1)*
X169800000Y-119600000D03*
G04 #@! TO.P,R19,2*
G04 #@! TO.N,/TRX-*
X171550000Y-119600000D03*
G04 #@! TD*
G04 #@! TO.P,R20,2*
G04 #@! TO.N,/TRX+*
X171600000Y-107400000D03*
G04 #@! TO.P,R20,1*
G04 #@! TO.N,Net-(C17-Pad1)*
X169850000Y-107400000D03*
G04 #@! TD*
D16*
G04 #@! TO.P,R21,1*
G04 #@! TO.N,GND*
X249400000Y-92710000D03*
G04 #@! TO.P,R21,2*
G04 #@! TO.N,Net-(J5-Pad11)*
X247650000Y-92710000D03*
G04 #@! TD*
D13*
G04 #@! TO.P,R22,2*
G04 #@! TO.N,GND*
X242000000Y-91250000D03*
G04 #@! TO.P,R22,1*
G04 #@! TO.N,Net-(J5-Pad12)*
X242000000Y-93000000D03*
G04 #@! TD*
D14*
G04 #@! TO.P,R23,2*
G04 #@! TO.N,Net-(J5-Pad10)*
X244000000Y-111760000D03*
G04 #@! TO.P,R23,1*
G04 #@! TO.N,Net-(R23-Pad1)*
X242250000Y-111760000D03*
G04 #@! TD*
D13*
G04 #@! TO.P,R24,2*
G04 #@! TO.N,Net-(R24-Pad2)*
X228750000Y-110750000D03*
G04 #@! TO.P,R24,1*
G04 #@! TO.N,GND*
X228750000Y-112500000D03*
G04 #@! TD*
D16*
G04 #@! TO.P,R25,1*
G04 #@! TO.N,+3V3*
X243950000Y-113600000D03*
G04 #@! TO.P,R25,2*
G04 #@! TO.N,Net-(R23-Pad1)*
X242200000Y-113600000D03*
G04 #@! TD*
G04 #@! TO.P,R26,1*
G04 #@! TO.N,Net-(C22-Pad1)*
X216400000Y-109400000D03*
G04 #@! TO.P,R26,2*
G04 #@! TO.N,+3V3*
X214650000Y-109400000D03*
G04 #@! TD*
D14*
G04 #@! TO.P,R27,1*
G04 #@! TO.N,/tx_mac/RXC*
X220200000Y-97000000D03*
G04 #@! TO.P,R27,2*
G04 #@! TO.N,Net-(R27-Pad2)*
X221950000Y-97000000D03*
G04 #@! TD*
G04 #@! TO.P,R28,2*
G04 #@! TO.N,Net-(R28-Pad2)*
X217600000Y-96800000D03*
G04 #@! TO.P,R28,1*
G04 #@! TO.N,/tja1101/RXC*
X215850000Y-96800000D03*
G04 #@! TD*
D13*
G04 #@! TO.P,R29,2*
G04 #@! TO.N,/tx_mac/RXER*
X211600000Y-105600000D03*
G04 #@! TO.P,R29,1*
G04 #@! TO.N,GND*
X211600000Y-107350000D03*
G04 #@! TD*
D15*
G04 #@! TO.P,R30,1*
G04 #@! TO.N,GND*
X216600000Y-91650000D03*
G04 #@! TO.P,R30,2*
G04 #@! TO.N,/tx_mac/RXD1*
X216600000Y-93400000D03*
G04 #@! TD*
G04 #@! TO.P,R31,2*
G04 #@! TO.N,/tx_mac/RXDV*
X221000000Y-91200000D03*
G04 #@! TO.P,R31,1*
G04 #@! TO.N,GND*
X221000000Y-89450000D03*
G04 #@! TD*
D13*
G04 #@! TO.P,R32,2*
G04 #@! TO.N,/tx_mac/RXD3*
X210400000Y-95200000D03*
G04 #@! TO.P,R32,1*
G04 #@! TO.N,GND*
X210400000Y-96950000D03*
G04 #@! TD*
D14*
G04 #@! TO.P,R33,2*
G04 #@! TO.N,Net-(R33-Pad2)*
X225000000Y-91200000D03*
G04 #@! TO.P,R33,1*
G04 #@! TO.N,/tx_mac/RXDV*
X223250000Y-91200000D03*
G04 #@! TD*
D26*
G04 #@! TO.P,U1,2*
G04 #@! TO.N,+3V3*
X226720000Y-86360000D03*
D27*
X233020000Y-86360000D03*
G04 #@! TO.P,U1,3*
G04 #@! TO.N,+5V*
X233020000Y-84060000D03*
G04 #@! TO.P,U1,1*
G04 #@! TO.N,GND*
X233020000Y-88660000D03*
G04 #@! TD*
D28*
G04 #@! TO.P,U2,37*
G04 #@! TO.N,GND*
X202600000Y-101000000D03*
D29*
X201600000Y-100000000D03*
X202600000Y-100000000D03*
X203600000Y-100000000D03*
X201600000Y-101000000D03*
X202600000Y-101000000D03*
X203600000Y-101000000D03*
X201600000Y-102000000D03*
X202600000Y-102000000D03*
X203600000Y-102000000D03*
D30*
G04 #@! TO.P,U2,1*
G04 #@! TO.N,/micro/MDC*
X199762500Y-99000000D03*
G04 #@! TO.P,U2,2*
G04 #@! TO.N,/micro/~{INT}*
X199762500Y-99500000D03*
G04 #@! TO.P,U2,3*
G04 #@! TO.N,Net-(C3-Pad1)*
X199762500Y-100000000D03*
G04 #@! TO.P,U2,4*
G04 #@! TO.N,Net-(R15-Pad1)*
X199762500Y-100500000D03*
G04 #@! TO.P,U2,5*
G04 #@! TO.N,Net-(C14-Pad2)*
X199762500Y-101000000D03*
G04 #@! TO.P,U2,6*
G04 #@! TO.N,Net-(C13-Pad2)*
X199762500Y-101500000D03*
G04 #@! TO.P,U2,7*
G04 #@! TO.N,Net-(C6-Pad2)*
X199762500Y-102000000D03*
G04 #@! TO.P,U2,8*
G04 #@! TO.N,/micro/WAKE_IN_OUT*
X199762500Y-102500000D03*
G04 #@! TO.P,U2,9*
G04 #@! TO.N,Net-(C5-Pad2)*
X199762500Y-103000000D03*
D31*
G04 #@! TO.P,U2,10*
G04 #@! TO.N,/micro/INH*
X200600000Y-103837500D03*
G04 #@! TO.P,U2,11*
G04 #@! TO.N,Net-(C11-Pad2)*
X201100000Y-103837500D03*
G04 #@! TO.P,U2,12*
G04 #@! TO.N,/tja1101/CHIP_TRX+*
X201600000Y-103837500D03*
G04 #@! TO.P,U2,13*
G04 #@! TO.N,/tja1101/CHIP_TRX-*
X202100000Y-103837500D03*
G04 #@! TO.P,U2,14*
G04 #@! TO.N,Net-(C11-Pad2)*
X202600000Y-103837500D03*
G04 #@! TO.P,U2,15*
X203100000Y-103837500D03*
G04 #@! TO.P,U2,16*
G04 #@! TO.N,Net-(C10-Pad2)*
X203600000Y-103837500D03*
G04 #@! TO.P,U2,17*
G04 #@! TO.N,Net-(R14-Pad1)*
X204100000Y-103837500D03*
G04 #@! TO.P,U2,18*
G04 #@! TO.N,Net-(R13-Pad1)*
X204600000Y-103837500D03*
D30*
G04 #@! TO.P,U2,19*
G04 #@! TO.N,Net-(C4-Pad2)*
X205437500Y-103000000D03*
G04 #@! TO.P,U2,20*
G04 #@! TO.N,/tja1101/CLK_IN_OUT*
X205437500Y-102500000D03*
G04 #@! TO.P,U2,21*
G04 #@! TO.N,Net-(RN1-Pad5)*
X205437500Y-102000000D03*
G04 #@! TO.P,U2,22*
G04 #@! TO.N,Net-(RN1-Pad6)*
X205437500Y-101500000D03*
G04 #@! TO.P,U2,23*
G04 #@! TO.N,Net-(RN1-Pad7)*
X205437500Y-101000000D03*
G04 #@! TO.P,U2,24*
G04 #@! TO.N,Net-(RN1-Pad8)*
X205437500Y-100500000D03*
G04 #@! TO.P,U2,25*
G04 #@! TO.N,/tja1101/RXC*
X205437500Y-100000000D03*
G04 #@! TO.P,U2,26*
G04 #@! TO.N,GND*
X205437500Y-99500000D03*
G04 #@! TO.P,U2,27*
G04 #@! TO.N,Net-(C4-Pad2)*
X205437500Y-99000000D03*
D31*
G04 #@! TO.P,U2,28*
G04 #@! TO.N,/tx_mac/RXC*
X204600000Y-98162500D03*
G04 #@! TO.P,U2,29*
G04 #@! TO.N,/tx_mac/RXDV*
X204100000Y-98162500D03*
G04 #@! TO.P,U2,30*
G04 #@! TO.N,/tx_mac/RXD3*
X203600000Y-98162500D03*
G04 #@! TO.P,U2,31*
G04 #@! TO.N,/tx_mac/RXD2*
X203100000Y-98162500D03*
G04 #@! TO.P,U2,32*
G04 #@! TO.N,/tx_mac/RXD1*
X202600000Y-98162500D03*
G04 #@! TO.P,U2,33*
G04 #@! TO.N,/tx_mac/RXD0*
X202100000Y-98162500D03*
G04 #@! TO.P,U2,34*
G04 #@! TO.N,/tx_mac/RXER*
X201600000Y-98162500D03*
G04 #@! TO.P,U2,35*
G04 #@! TO.N,Net-(R9-Pad1)*
X201100000Y-98162500D03*
G04 #@! TO.P,U2,36*
G04 #@! TO.N,/micro/MDIO*
X200600000Y-98162500D03*
G04 #@! TD*
D32*
G04 #@! TO.P,U3,1*
G04 #@! TO.N,Net-(U3-Pad1)*
X168400000Y-88800000D03*
D33*
G04 #@! TO.P,U3,21*
G04 #@! TO.N,Net-(U3-Pad21)*
X216660000Y-73560000D03*
G04 #@! TO.P,U3,2*
G04 #@! TO.N,Net-(U3-Pad2)*
X170940000Y-88800000D03*
G04 #@! TO.P,U3,22*
G04 #@! TO.N,Net-(U3-Pad22)*
X214120000Y-73560000D03*
G04 #@! TO.P,U3,3*
G04 #@! TO.N,Net-(U3-Pad3)*
X173480000Y-88800000D03*
G04 #@! TO.P,U3,23*
G04 #@! TO.N,Net-(U3-Pad23)*
X211580000Y-73560000D03*
G04 #@! TO.P,U3,4*
G04 #@! TO.N,Net-(U3-Pad4)*
X176020000Y-88800000D03*
G04 #@! TO.P,U3,24*
G04 #@! TO.N,Net-(U3-Pad24)*
X209040000Y-73560000D03*
G04 #@! TO.P,U3,5*
G04 #@! TO.N,Net-(U3-Pad5)*
X178560000Y-88800000D03*
G04 #@! TO.P,U3,25*
G04 #@! TO.N,Net-(U3-Pad25)*
X206500000Y-73560000D03*
G04 #@! TO.P,U3,6*
G04 #@! TO.N,Net-(U3-Pad6)*
X181100000Y-88800000D03*
G04 #@! TO.P,U3,26*
G04 #@! TO.N,Net-(U3-Pad26)*
X203960000Y-73560000D03*
G04 #@! TO.P,U3,7*
G04 #@! TO.N,Net-(U3-Pad7)*
X183640000Y-88800000D03*
G04 #@! TO.P,U3,27*
G04 #@! TO.N,Net-(U3-Pad27)*
X201420000Y-73560000D03*
G04 #@! TO.P,U3,8*
G04 #@! TO.N,Net-(U3-Pad8)*
X186180000Y-88800000D03*
G04 #@! TO.P,U3,28*
G04 #@! TO.N,Net-(U3-Pad28)*
X198880000Y-73560000D03*
G04 #@! TO.P,U3,9*
G04 #@! TO.N,Net-(U3-Pad9)*
X188720000Y-88800000D03*
G04 #@! TO.P,U3,29*
G04 #@! TO.N,Net-(U3-Pad29)*
X196340000Y-73560000D03*
G04 #@! TO.P,U3,10*
G04 #@! TO.N,Net-(U3-Pad10)*
X191260000Y-88800000D03*
G04 #@! TO.P,U3,30*
G04 #@! TO.N,Net-(U3-Pad30)*
X193800000Y-73560000D03*
G04 #@! TO.P,U3,11*
G04 #@! TO.N,/micro/INH*
X193800000Y-88800000D03*
G04 #@! TO.P,U3,31*
G04 #@! TO.N,Net-(U3-Pad31)*
X191260000Y-73560000D03*
G04 #@! TO.P,U3,12*
G04 #@! TO.N,/micro/~{INT}*
X196340000Y-88800000D03*
G04 #@! TO.P,U3,32*
G04 #@! TO.N,Net-(U3-Pad32)*
X188720000Y-73560000D03*
G04 #@! TO.P,U3,13*
G04 #@! TO.N,/micro/WAKE_IN_OUT*
X198880000Y-88800000D03*
G04 #@! TO.P,U3,33*
G04 #@! TO.N,Net-(U3-Pad33)*
X186180000Y-73560000D03*
G04 #@! TO.P,U3,14*
G04 #@! TO.N,/micro/MDIO*
X201420000Y-88800000D03*
G04 #@! TO.P,U3,34*
G04 #@! TO.N,Net-(U3-Pad34)*
X183640000Y-73560000D03*
G04 #@! TO.P,U3,15*
G04 #@! TO.N,/micro/MDC*
X203960000Y-88800000D03*
G04 #@! TO.P,U3,35*
G04 #@! TO.N,Net-(U3-Pad35)*
X181100000Y-73560000D03*
G04 #@! TO.P,U3,16*
G04 #@! TO.N,Net-(U3-Pad16)*
X206500000Y-88800000D03*
G04 #@! TO.P,U3,36*
G04 #@! TO.N,Net-(U3-Pad36)*
X178560000Y-73560000D03*
G04 #@! TO.P,U3,17*
G04 #@! TO.N,Net-(U3-Pad17)*
X209040000Y-88800000D03*
G04 #@! TO.P,U3,37*
G04 #@! TO.N,Net-(U3-Pad37)*
X176020000Y-73560000D03*
G04 #@! TO.P,U3,18*
G04 #@! TO.N,Net-(J4-Pad1)*
X211580000Y-88800000D03*
G04 #@! TO.P,U3,38*
G04 #@! TO.N,Net-(U3-Pad38)*
X173480000Y-73560000D03*
G04 #@! TO.P,U3,19*
G04 #@! TO.N,GND*
X214120000Y-88800000D03*
G04 #@! TO.P,U3,39*
X170940000Y-73560000D03*
G04 #@! TO.P,U3,20*
G04 #@! TO.N,Net-(U3-Pad20)*
X216660000Y-88800000D03*
G04 #@! TO.P,U3,40*
G04 #@! TO.N,GND*
X168400000Y-73560000D03*
G04 #@! TD*
D34*
G04 #@! TO.P,U4,33*
G04 #@! TO.N,GND*
X223000000Y-103000000D03*
D29*
X224000000Y-104000000D03*
X223000000Y-104000000D03*
X222000000Y-104000000D03*
X224000000Y-103000000D03*
X223000000Y-103000000D03*
X222000000Y-103000000D03*
X224000000Y-102000000D03*
X223000000Y-102000000D03*
X222000000Y-102000000D03*
D35*
G04 #@! TO.P,U4,1*
G04 #@! TO.N,Net-(R24-Pad2)*
X225450000Y-104750000D03*
G04 #@! TO.P,U4,2*
G04 #@! TO.N,Net-(C25-Pad1)*
X225450000Y-104250000D03*
G04 #@! TO.P,U4,3*
G04 #@! TO.N,/tx_mac/MDI0+*
X225450000Y-103750000D03*
G04 #@! TO.P,U4,4*
G04 #@! TO.N,/tx_mac/MDI0-*
X225450000Y-103250000D03*
G04 #@! TO.P,U4,5*
G04 #@! TO.N,/tx_mac/MDI1+*
X225450000Y-102750000D03*
G04 #@! TO.P,U4,6*
G04 #@! TO.N,/tx_mac/MDI1-*
X225450000Y-102250000D03*
G04 #@! TO.P,U4,7*
G04 #@! TO.N,VDDA*
X225450000Y-101750000D03*
G04 #@! TO.P,U4,8*
G04 #@! TO.N,Net-(R33-Pad2)*
X225450000Y-101250000D03*
D36*
G04 #@! TO.P,U4,9*
G04 #@! TO.N,Net-(RN2-Pad1)*
X224750000Y-100550000D03*
G04 #@! TO.P,U4,10*
G04 #@! TO.N,Net-(RN2-Pad2)*
X224250000Y-100550000D03*
G04 #@! TO.P,U4,11*
G04 #@! TO.N,Net-(RN2-Pad3)*
X223750000Y-100550000D03*
G04 #@! TO.P,U4,12*
G04 #@! TO.N,Net-(RN2-Pad4)*
X223250000Y-100550000D03*
G04 #@! TO.P,U4,13*
G04 #@! TO.N,Net-(R27-Pad2)*
X222750000Y-100550000D03*
G04 #@! TO.P,U4,14*
G04 #@! TO.N,+3V3*
X222250000Y-100550000D03*
G04 #@! TO.P,U4,15*
G04 #@! TO.N,Net-(R28-Pad2)*
X221750000Y-100550000D03*
G04 #@! TO.P,U4,16*
G04 #@! TO.N,/tja1101/RXD0*
X221250000Y-100550000D03*
D35*
G04 #@! TO.P,U4,17*
G04 #@! TO.N,/tja1101/RXD1*
X220550000Y-101250000D03*
G04 #@! TO.P,U4,18*
G04 #@! TO.N,/tja1101/RXD2*
X220550000Y-101750000D03*
G04 #@! TO.P,U4,19*
G04 #@! TO.N,/tja1101/RXD3*
X220550000Y-102250000D03*
G04 #@! TO.P,U4,20*
G04 #@! TO.N,/tja1101/RXDV*
X220550000Y-102750000D03*
G04 #@! TO.P,U4,21*
G04 #@! TO.N,Net-(C22-Pad1)*
X220550000Y-103250000D03*
G04 #@! TO.P,U4,22*
G04 #@! TO.N,/micro/MDC*
X220550000Y-103750000D03*
G04 #@! TO.P,U4,23*
G04 #@! TO.N,/micro/MDIO*
X220550000Y-104250000D03*
G04 #@! TO.P,U4,24*
G04 #@! TO.N,Net-(J5-Pad12)*
X220550000Y-104750000D03*
D36*
G04 #@! TO.P,U4,25*
G04 #@! TO.N,Net-(R23-Pad1)*
X221250000Y-105450000D03*
G04 #@! TO.P,U4,26*
G04 #@! TO.N,/tx_mac/CRS*
X221750000Y-105450000D03*
G04 #@! TO.P,U4,27*
G04 #@! TO.N,/tx_mac/COL*
X222250000Y-105450000D03*
G04 #@! TO.P,U4,28*
G04 #@! TO.N,/tx_mac/RXER*
X222750000Y-105450000D03*
G04 #@! TO.P,U4,29*
G04 #@! TO.N,Net-(C24-Pad2)*
X223250000Y-105450000D03*
G04 #@! TO.P,U4,30*
G04 #@! TO.N,VDDA*
X223750000Y-105450000D03*
G04 #@! TO.P,U4,31*
G04 #@! TO.N,Net-(C26-Pad2)*
X224250000Y-105450000D03*
G04 #@! TO.P,U4,32*
G04 #@! TO.N,Net-(C27-Pad2)*
X224750000Y-105450000D03*
G04 #@! TD*
D37*
G04 #@! TO.P,Y1,2*
G04 #@! TO.N,Net-(C13-Pad2)*
X183800000Y-106875000D03*
G04 #@! TO.P,Y1,1*
G04 #@! TO.N,Net-(C14-Pad2)*
X183800000Y-95000000D03*
G04 #@! TD*
D38*
G04 #@! TO.P,Y2,1*
G04 #@! TO.N,Net-(C26-Pad2)*
X217925000Y-116200000D03*
G04 #@! TO.P,Y2,2*
G04 #@! TO.N,Net-(C27-Pad2)*
X229800000Y-116200000D03*
G04 #@! TD*
D14*
G04 #@! TO.P,C28,1*
G04 #@! TO.N,GND*
X227250000Y-100250000D03*
G04 #@! TO.P,C28,2*
G04 #@! TO.N,VDDA*
X229000000Y-100250000D03*
G04 #@! TD*
D39*
G04 #@! TO.P,RN1,8*
G04 #@! TO.N,Net-(RN1-Pad8)*
X208800000Y-99600000D03*
D40*
G04 #@! TO.P,RN1,7*
G04 #@! TO.N,Net-(RN1-Pad7)*
X208800000Y-100400000D03*
D39*
G04 #@! TO.P,RN1,5*
G04 #@! TO.N,Net-(RN1-Pad5)*
X208800000Y-102000000D03*
D40*
G04 #@! TO.P,RN1,6*
G04 #@! TO.N,Net-(RN1-Pad6)*
X208800000Y-101200000D03*
D39*
G04 #@! TO.P,RN1,1*
G04 #@! TO.N,/tja1101/RXD0*
X210600000Y-99600000D03*
D40*
G04 #@! TO.P,RN1,3*
G04 #@! TO.N,/tja1101/RXD2*
X210600000Y-101200000D03*
G04 #@! TO.P,RN1,2*
G04 #@! TO.N,/tja1101/RXD1*
X210600000Y-100400000D03*
D39*
G04 #@! TO.P,RN1,4*
G04 #@! TO.N,/tja1101/RXD3*
X210600000Y-102000000D03*
G04 #@! TD*
G04 #@! TO.P,RN2,8*
G04 #@! TO.N,/tx_mac/RXD0*
X220600000Y-92800000D03*
D40*
G04 #@! TO.P,RN2,7*
G04 #@! TO.N,/tx_mac/RXD1*
X220600000Y-93600000D03*
D39*
G04 #@! TO.P,RN2,5*
G04 #@! TO.N,/tx_mac/RXD3*
X220600000Y-95200000D03*
D40*
G04 #@! TO.P,RN2,6*
G04 #@! TO.N,/tx_mac/RXD2*
X220600000Y-94400000D03*
D39*
G04 #@! TO.P,RN2,1*
G04 #@! TO.N,Net-(RN2-Pad1)*
X222400000Y-92800000D03*
D40*
G04 #@! TO.P,RN2,3*
G04 #@! TO.N,Net-(RN2-Pad3)*
X222400000Y-94400000D03*
G04 #@! TO.P,RN2,2*
G04 #@! TO.N,Net-(RN2-Pad2)*
X222400000Y-93600000D03*
D39*
G04 #@! TO.P,RN2,4*
G04 #@! TO.N,Net-(RN2-Pad4)*
X222400000Y-95200000D03*
G04 #@! TD*
D41*
G04 #@! TO.N,+5V*
X192200000Y-104400000D03*
X228800000Y-81400000D03*
D42*
G04 #@! TO.N,GND*
X235500000Y-88500000D03*
X245500000Y-82000000D03*
X243000000Y-82000000D03*
X240500000Y-82000000D03*
X238000000Y-82000000D03*
X235500000Y-82000000D03*
X235500000Y-91500000D03*
X238000000Y-91500000D03*
X240500000Y-91500000D03*
X245500000Y-91500000D03*
X243000000Y-91500000D03*
X245500000Y-86500000D03*
X243000000Y-86000000D03*
X240500000Y-85000000D03*
X237000000Y-84500000D03*
X230000000Y-110000000D03*
X228750000Y-114000000D03*
X221000000Y-88000000D03*
D41*
X220000000Y-107200000D03*
X220000000Y-108800000D03*
X220000000Y-110400000D03*
X210200000Y-103400000D03*
X207980845Y-104423790D03*
X219000000Y-97400000D03*
X206670572Y-99423790D03*
X217800000Y-98200000D03*
X214600000Y-97000000D03*
X209200000Y-96800000D03*
X216600000Y-90400000D03*
X197000000Y-105800000D03*
X202000000Y-107800000D03*
X201800000Y-111800000D03*
X213681259Y-107748941D03*
X194800000Y-103800000D03*
X195400000Y-110600000D03*
X195000000Y-102200000D03*
X181800000Y-100600000D03*
X191000000Y-96600000D03*
X198000000Y-96800000D03*
X173200000Y-105600000D03*
X173200000Y-103800000D03*
X210800000Y-108400000D03*
X226600000Y-99000000D03*
D42*
X224200000Y-119000000D03*
G04 #@! TO.N,+3V3*
X231000000Y-87000000D03*
D41*
X221953957Y-99417513D03*
D42*
X228800000Y-86600000D03*
D41*
X220000000Y-112000000D03*
X213600000Y-109400000D03*
X209000000Y-109000000D03*
X216400000Y-98200000D03*
X212200000Y-96400000D03*
X202400000Y-92800000D03*
X199800000Y-111800000D03*
X213588956Y-106222623D03*
X189600000Y-102200000D03*
X192600000Y-96600000D03*
X205200000Y-93000000D03*
X197800000Y-90800000D03*
X194976210Y-96092558D03*
X208200000Y-110600000D03*
G04 #@! TO.N,Net-(C4-Pad2)*
X207180832Y-104423790D03*
X207618977Y-98818977D03*
G04 #@! TO.N,Net-(C11-Pad2)*
X203000000Y-106000000D03*
X201000000Y-105200000D03*
X200000000Y-106400000D03*
X198800000Y-109800000D03*
D42*
G04 #@! TO.N,VDDA*
X226750000Y-101575000D03*
D41*
X224000000Y-107400000D03*
D42*
G04 #@! TO.N,Net-(C19-Pad2)*
X228515000Y-98985000D03*
D41*
G04 #@! TO.N,Net-(C22-Pad1)*
X217600000Y-107200000D03*
X217600000Y-105800000D03*
G04 #@! TO.N,Net-(J5-Pad12)*
X240400000Y-93000000D03*
X220012741Y-105006727D03*
G04 #@! TO.N,/micro/MDC*
X219000000Y-103600000D03*
X199600000Y-95400000D03*
G04 #@! TO.N,/micro/MDIO*
X200400000Y-96000000D03*
X219154045Y-104464534D03*
G04 #@! TO.N,Net-(R13-Pad1)*
X206000000Y-104400000D03*
X214200000Y-105000000D03*
G04 #@! TO.N,/micro/INH*
X199400000Y-104000000D03*
X196600000Y-93200000D03*
G04 #@! TO.N,Net-(R23-Pad1)*
X240800000Y-111800000D03*
X220600000Y-105550000D03*
G04 #@! TO.N,/tx_mac/RXER*
X210200000Y-105600000D03*
X201676210Y-96592558D03*
X213400000Y-107000000D03*
G04 #@! TO.N,/tx_mac/RXDV*
X219400000Y-91200000D03*
X205469942Y-96469942D03*
G04 #@! TO.N,/micro/WAKE_IN_OUT*
X194400000Y-103000000D03*
G04 #@! TD*
D43*
G04 #@! TO.N,+5V*
X234710000Y-84060000D02*
X238760000Y-88110000D01*
X233020000Y-84060000D02*
X234710000Y-84060000D01*
X239550000Y-88900000D02*
X241545000Y-88900000D01*
X238760000Y-88110000D02*
X239550000Y-88900000D01*
X233020000Y-83060000D02*
X231200000Y-81240000D01*
X233020000Y-84060000D02*
X233020000Y-83060000D01*
X231200000Y-81240000D02*
X231200000Y-79400000D01*
X193200000Y-105400000D02*
X192200000Y-104400000D01*
X194050000Y-105400000D02*
X193200000Y-105400000D01*
X231040000Y-81400000D02*
X231200000Y-81240000D01*
X228800000Y-81400000D02*
X231040000Y-81400000D01*
G04 #@! TO.N,GND*
X232770000Y-88660000D02*
X233020000Y-88660000D01*
X231140000Y-90290000D02*
X232770000Y-88660000D01*
X231140000Y-91440000D02*
X231140000Y-90290000D01*
X235340000Y-88660000D02*
X235500000Y-88500000D01*
X233020000Y-88660000D02*
X235340000Y-88660000D01*
X229735000Y-95125000D02*
X232410000Y-97800000D01*
X228500000Y-95125000D02*
X229735000Y-95125000D01*
X229000000Y-109000000D02*
X230000000Y-110000000D01*
X228750000Y-109000000D02*
X229000000Y-109000000D01*
X228750000Y-112500000D02*
X228750000Y-114000000D01*
X227575000Y-95250000D02*
X227625000Y-95200000D01*
X227000000Y-95250000D02*
X227575000Y-95250000D01*
X227625000Y-95200000D02*
X228600000Y-95200000D01*
D44*
X221000000Y-89450000D02*
X221000000Y-88000000D01*
D43*
X221050000Y-107200000D02*
X220000000Y-107200000D01*
X221050000Y-108800000D02*
X220000000Y-108800000D01*
X221050000Y-110400000D02*
X220000000Y-110400000D01*
X208950000Y-103400000D02*
X210200000Y-103400000D01*
X208950000Y-106200000D02*
X207980845Y-105230845D01*
X207980845Y-105230845D02*
X207980845Y-104423790D01*
D45*
X220200000Y-98600000D02*
X219000000Y-97400000D01*
X220250000Y-98600000D02*
X220200000Y-98600000D01*
D43*
X205437500Y-99500000D02*
X206594362Y-99500000D01*
X206594362Y-99500000D02*
X206670572Y-99423790D01*
D44*
X218600000Y-99000000D02*
X217800000Y-98200000D01*
X218600000Y-99200000D02*
X218600000Y-99000000D01*
X214200000Y-97400000D02*
X214600000Y-97000000D01*
X213600000Y-97400000D02*
X214200000Y-97400000D01*
X209350000Y-96950000D02*
X209200000Y-96800000D01*
X210400000Y-96950000D02*
X209350000Y-96950000D01*
D43*
X208800000Y-97200000D02*
X209200000Y-96800000D01*
X208800000Y-98000000D02*
X208800000Y-97200000D01*
D44*
X216600000Y-91650000D02*
X216600000Y-90400000D01*
D43*
X197400000Y-105400000D02*
X197000000Y-105800000D01*
X198400000Y-105400000D02*
X197400000Y-105400000D01*
X202650000Y-107150000D02*
X202000000Y-107800000D01*
X203000000Y-107150000D02*
X202650000Y-107150000D01*
X201800000Y-108000000D02*
X202000000Y-107800000D01*
X201800000Y-109000000D02*
X201800000Y-108000000D01*
X201800000Y-110600000D02*
X201800000Y-111800000D01*
D44*
X211600000Y-107434210D02*
X211775000Y-107609210D01*
X211600000Y-107350000D02*
X211600000Y-107434210D01*
X214501059Y-107748941D02*
X213681259Y-107748941D01*
X214650000Y-107600000D02*
X214501059Y-107748941D01*
D43*
X196125000Y-103800000D02*
X194800000Y-103800000D01*
D44*
X196600000Y-110600000D02*
X195400000Y-110600000D01*
D43*
X196200000Y-102200000D02*
X195000000Y-102200000D01*
D44*
X180200000Y-100600000D02*
X181800000Y-100600000D01*
X180200000Y-101450000D02*
X180200000Y-100600000D01*
X180200000Y-100600000D02*
X180200000Y-99800000D01*
X191000000Y-97850000D02*
X191000000Y-96600000D01*
D43*
X198000000Y-97850000D02*
X198000000Y-96800000D01*
D44*
X171600000Y-105600000D02*
X173200000Y-105600000D01*
X171600000Y-103800000D02*
X173200000Y-103800000D01*
X211600000Y-107600000D02*
X210800000Y-108400000D01*
X211600000Y-107350000D02*
X211600000Y-107600000D01*
D43*
X245500000Y-83370000D02*
X245500000Y-82000000D01*
X246250000Y-84120000D02*
X245500000Y-83370000D01*
X247400000Y-84120000D02*
X246250000Y-84120000D01*
X227250000Y-99650000D02*
X226600000Y-99000000D01*
X227250000Y-100250000D02*
X227250000Y-99650000D01*
D44*
X223150000Y-120000000D02*
X224200000Y-120000000D01*
D43*
X224200000Y-120000000D02*
X224200000Y-119000000D01*
D44*
X224200000Y-120000000D02*
X225000000Y-120000000D01*
D43*
G04 #@! TO.N,+3V3*
X233020000Y-86360000D02*
X231640000Y-86360000D01*
X231640000Y-86360000D02*
X231000000Y-87000000D01*
X226720000Y-88770000D02*
X229390000Y-91440000D01*
X226720000Y-86360000D02*
X226720000Y-88770000D01*
D44*
X222250000Y-99713556D02*
X221953957Y-99417513D01*
X222250000Y-100550000D02*
X222250000Y-99713556D01*
X221800000Y-99263556D02*
X221953957Y-99417513D01*
X221800000Y-98600000D02*
X221800000Y-99263556D01*
D46*
X227974000Y-86360000D02*
X228214000Y-86600000D01*
X226720000Y-86360000D02*
X227974000Y-86360000D01*
X228214000Y-86600000D02*
X228800000Y-86600000D01*
D44*
X243950000Y-113600000D02*
X246200000Y-111350000D01*
X246200000Y-111350000D02*
X246200000Y-108800000D01*
D43*
X221050000Y-112000000D02*
X220000000Y-112000000D01*
D44*
X214650000Y-109400000D02*
X213600000Y-109400000D01*
D43*
X208950000Y-108950000D02*
X209000000Y-109000000D01*
X208950000Y-107800000D02*
X208950000Y-108950000D01*
D44*
X217000000Y-98800000D02*
X216400000Y-98200000D01*
X217000000Y-99200000D02*
X217000000Y-98800000D01*
X212000000Y-96600000D02*
X212200000Y-96400000D01*
X212000000Y-97400000D02*
X212000000Y-96600000D01*
X202350000Y-92850000D02*
X202400000Y-92800000D01*
X201200000Y-92850000D02*
X202350000Y-92850000D01*
D43*
X199800000Y-110550000D02*
X199800000Y-111800000D01*
D44*
X213611579Y-106200000D02*
X213588956Y-106222623D01*
X214650000Y-106200000D02*
X213611579Y-106200000D01*
D43*
X190850000Y-102200000D02*
X189600000Y-102200000D01*
D44*
X192600000Y-97850000D02*
X192600000Y-96600000D01*
X205000000Y-92800000D02*
X205200000Y-93000000D01*
X204000000Y-92800000D02*
X205000000Y-92800000D01*
X199050000Y-90800000D02*
X197800000Y-90800000D01*
D43*
X196400000Y-96850000D02*
X195733652Y-96850000D01*
X195733652Y-96850000D02*
X194976210Y-96092558D01*
X207000000Y-110600000D02*
X208200000Y-110600000D01*
G04 #@! TO.N,Net-(C3-Pad1)*
X199762500Y-100000000D02*
X198400000Y-100000000D01*
X198400000Y-100000000D02*
X198000000Y-99600000D01*
X198000000Y-99600000D02*
X197400000Y-99600000D01*
X197400000Y-99600000D02*
X196400000Y-98600000D01*
G04 #@! TO.N,Net-(C4-Pad2)*
X207200000Y-107800000D02*
X207200000Y-106200000D01*
X205437500Y-103000000D02*
X206800000Y-103000000D01*
X206800000Y-103000000D02*
X207200000Y-103400000D01*
X207200000Y-103400000D02*
X207200000Y-104404622D01*
X207200000Y-106200000D02*
X207200000Y-104442958D01*
X207200000Y-104404622D02*
X207180832Y-104423790D01*
X207200000Y-104442958D02*
X207180832Y-104423790D01*
X205437500Y-99000000D02*
X206437500Y-98000000D01*
X206800000Y-98000000D02*
X207618977Y-98818977D01*
X206437500Y-98000000D02*
X206800000Y-98000000D01*
G04 #@! TO.N,Net-(C5-Pad2)*
X196299072Y-104900928D02*
X195800000Y-105400000D01*
X199762500Y-103000000D02*
X198968896Y-103000000D01*
X198968896Y-103000000D02*
X198168896Y-103800000D01*
X198168896Y-103800000D02*
X197800000Y-103800000D01*
X196699072Y-104900928D02*
X196299072Y-104900928D01*
X197800000Y-103800000D02*
X196699072Y-104900928D01*
G04 #@! TO.N,Net-(C6-Pad2)*
X199762500Y-102000000D02*
X198200000Y-102000000D01*
X198200000Y-102000000D02*
X198000000Y-102200000D01*
X196720510Y-101400000D02*
X193400000Y-101400000D01*
X197450928Y-101700928D02*
X197021438Y-101700928D01*
X193400000Y-101400000D02*
X192600000Y-102200000D01*
X197021438Y-101700928D02*
X196720510Y-101400000D01*
X197950000Y-102200000D02*
X197450928Y-101700928D01*
G04 #@! TO.N,Net-(C10-Pad2)*
X203600000Y-109000000D02*
X203600000Y-110600000D01*
X203800010Y-104879500D02*
X203800010Y-108799990D01*
X203600000Y-104679490D02*
X203800010Y-104879500D01*
X203600000Y-103837500D02*
X203600000Y-104679490D01*
X203800010Y-108799990D02*
X203600000Y-109000000D01*
G04 #@! TO.N,Net-(C11-Pad2)*
X202600000Y-105200000D02*
X202800000Y-105400000D01*
X203100000Y-103837500D02*
X203100000Y-105300000D01*
X203100000Y-105300000D02*
X203000000Y-105400000D01*
X202600000Y-103837500D02*
X202600000Y-105000000D01*
X202600000Y-105000000D02*
X203000000Y-105400000D01*
X201100000Y-103837500D02*
X201100000Y-104500000D01*
X201100000Y-104500000D02*
X200200000Y-105400000D01*
X203000000Y-105400000D02*
X203000000Y-106000000D01*
X201000000Y-105200000D02*
X200400000Y-105200000D01*
X200400000Y-105200000D02*
X200200000Y-105400000D01*
X200150000Y-108450000D02*
X199800000Y-108800000D01*
X200150000Y-106250000D02*
X200000000Y-106400000D01*
X200150000Y-105400000D02*
X200150000Y-106250000D01*
X198800000Y-109800000D02*
X199800000Y-108800000D01*
D44*
G04 #@! TO.N,Net-(C13-Pad2)*
X180200000Y-103200000D02*
X183600000Y-103200000D01*
X198829822Y-101204822D02*
X197092730Y-101204822D01*
X197092730Y-101204822D02*
X196886687Y-100998779D01*
X196886687Y-100998779D02*
X185601221Y-100998779D01*
X199762500Y-101500000D02*
X199125000Y-101500000D01*
X185601221Y-100998779D02*
X183600000Y-103000000D01*
X183600000Y-103000000D02*
X183600000Y-106800000D01*
X199125000Y-101500000D02*
X198829822Y-101204822D01*
G04 #@! TO.N,Net-(C14-Pad2)*
X180200000Y-98000000D02*
X182800000Y-98000000D01*
X182800000Y-98000000D02*
X183600000Y-98800000D01*
X197238703Y-100852411D02*
X199098401Y-100852411D01*
X199245990Y-101000000D02*
X199600000Y-101000000D01*
X196986292Y-100600000D02*
X197238703Y-100852411D01*
X184952400Y-95000000D02*
X190552400Y-100600000D01*
X190552400Y-100600000D02*
X196986292Y-100600000D01*
X199098401Y-100852411D02*
X199245990Y-101000000D01*
X183800000Y-95000000D02*
X184952400Y-95000000D01*
G04 #@! TO.N,Net-(C17-Pad1)*
X169800000Y-119600000D02*
X169800000Y-107200000D01*
X169850000Y-107400000D02*
X169850000Y-105650000D01*
X169850000Y-105650000D02*
X169800000Y-105600000D01*
X169850000Y-104375000D02*
X169800000Y-104425000D01*
X169850000Y-103800000D02*
X169850000Y-104375000D01*
X169800000Y-104425000D02*
X169800000Y-105600000D01*
D43*
G04 #@! TO.N,VDDA*
X225450000Y-101750000D02*
X226750000Y-101750000D01*
X226750000Y-101750000D02*
X226750000Y-101575000D01*
X222800000Y-108800000D02*
X222800000Y-110400000D01*
X222800000Y-110400000D02*
X222800000Y-112000000D01*
X223750000Y-107150000D02*
X224000000Y-107400000D01*
X223750000Y-105450000D02*
X223750000Y-107150000D01*
X222800000Y-108600000D02*
X224000000Y-107400000D01*
X222800000Y-108800000D02*
X222800000Y-108600000D01*
X227149999Y-101175001D02*
X228024999Y-101175001D01*
X226750000Y-101575000D02*
X227149999Y-101175001D01*
X228024999Y-101175001D02*
X229000000Y-100200000D01*
G04 #@! TO.N,Net-(C19-Pad2)*
X228515000Y-98515000D02*
X228515000Y-98985000D01*
X227000000Y-97000000D02*
X228515000Y-98515000D01*
G04 #@! TO.N,Net-(C20-Pad2)*
X230500001Y-98875001D02*
X228500000Y-96875000D01*
X232536003Y-98875001D02*
X230500001Y-98875001D01*
X234200001Y-100538999D02*
X232536003Y-98875001D01*
X234200001Y-100850001D02*
X234200001Y-100538999D01*
X234950000Y-101600000D02*
X234200001Y-100850001D01*
D44*
G04 #@! TO.N,Net-(C22-Pad1)*
X216400000Y-109400000D02*
X216400000Y-107800000D01*
X217000000Y-107800000D02*
X217600000Y-107200000D01*
X216400000Y-107800000D02*
X217000000Y-107800000D01*
X219902780Y-103250000D02*
X219676578Y-103023798D01*
X220550000Y-103250000D02*
X219902780Y-103250000D01*
X217899999Y-105500001D02*
X217600000Y-105800000D01*
X218723422Y-103023798D02*
X217899999Y-103847221D01*
X219676578Y-103023798D02*
X218723422Y-103023798D01*
X217899999Y-103847221D02*
X217899999Y-105500001D01*
D45*
G04 #@! TO.N,Net-(C24-Pad2)*
X223148399Y-106711231D02*
X223148399Y-106851601D01*
X223250000Y-106609630D02*
X223148399Y-106711231D01*
X223250000Y-105450000D02*
X223250000Y-106609630D01*
X223148399Y-106851601D02*
X222800000Y-107200000D01*
D43*
G04 #@! TO.N,Net-(C25-Pad1)*
X226000000Y-104250000D02*
X225450000Y-104250000D01*
X226700010Y-105200010D02*
X226700010Y-104950010D01*
X226700010Y-104950010D02*
X226000000Y-104250000D01*
X228750000Y-107250000D02*
X226700010Y-105200010D01*
D44*
G04 #@! TO.N,Net-(C26-Pad2)*
X221400000Y-120000000D02*
X221400000Y-116400000D01*
X221400000Y-116400000D02*
X221200000Y-116200000D01*
X224250000Y-105450000D02*
X224250000Y-106797220D01*
X224250000Y-106797220D02*
X224576202Y-107123422D01*
X221800000Y-116200000D02*
X217800000Y-116200000D01*
X224576202Y-107123422D02*
X224576202Y-107876578D01*
X224576202Y-107876578D02*
X224326201Y-108126579D01*
X224326201Y-108126579D02*
X224326201Y-113673799D01*
X224326201Y-113673799D02*
X221800000Y-116200000D01*
G04 #@! TO.N,Net-(C27-Pad2)*
X224945710Y-105645710D02*
X224945710Y-114283210D01*
X224750000Y-105450000D02*
X224945710Y-105645710D01*
X224945710Y-114283210D02*
X226862500Y-116200000D01*
X226800000Y-120000000D02*
X226800000Y-116200000D01*
D43*
G04 #@! TO.N,Net-(F1-Pad2)*
X246700000Y-86720000D02*
X247400000Y-86720000D01*
X246250000Y-87170000D02*
X246700000Y-86720000D01*
X245220000Y-88900000D02*
X246250000Y-87870000D01*
X246250000Y-87870000D02*
X246250000Y-87170000D01*
X243595000Y-88900000D02*
X245220000Y-88900000D01*
D44*
G04 #@! TO.N,Net-(J2-Pad2)*
X208256777Y-117950001D02*
X207849999Y-117950001D01*
X212703620Y-105643602D02*
X212703620Y-107996262D01*
X215200000Y-102800000D02*
X214351210Y-103648790D01*
X214123423Y-104423799D02*
X213923423Y-104423799D01*
X212351210Y-108348672D02*
X212351210Y-113855568D01*
X213923423Y-104423799D02*
X212703620Y-105643602D01*
X214351210Y-103648790D02*
X214351210Y-104196012D01*
X207849999Y-117950001D02*
X207000000Y-118800000D01*
X212703620Y-107996262D02*
X212351210Y-108348672D01*
X214351210Y-104196012D02*
X214123423Y-104423799D01*
X212351210Y-113855568D02*
X208256777Y-117950001D01*
G04 #@! TO.N,Net-(J3-Pad2)*
X213600000Y-103550000D02*
X212351210Y-104798790D01*
X207000000Y-113201498D02*
X207000000Y-115000000D01*
X212351210Y-104798790D02*
X212351210Y-107850288D01*
X212351210Y-107850288D02*
X207000000Y-113201498D01*
D43*
G04 #@! TO.N,Net-(J4-Pad1)*
X221180000Y-79200000D02*
X228600000Y-79200000D01*
X211580000Y-88800000D02*
X221180000Y-79200000D01*
G04 #@! TO.N,Net-(J5-Pad10)*
X244000000Y-108535000D02*
X246210000Y-106325000D01*
X244000000Y-111760000D02*
X244000000Y-108535000D01*
D44*
G04 #@! TO.N,Net-(J5-Pad12)*
X240400000Y-93000000D02*
X242000000Y-93000000D01*
X243600000Y-94600000D02*
X245000000Y-94600000D01*
X242000000Y-93000000D02*
X243600000Y-94600000D01*
X245000000Y-94600000D02*
X246200000Y-95800000D01*
X220550000Y-104750000D02*
X220293273Y-105006727D01*
X220293273Y-105006727D02*
X220012741Y-105006727D01*
D43*
G04 #@! TO.N,Net-(J5-Pad11)*
X247650000Y-96715000D02*
X247650000Y-92710000D01*
X246210000Y-98155000D02*
X247650000Y-96715000D01*
D44*
G04 #@! TO.N,/micro/MDC*
X219150000Y-103750000D02*
X219000000Y-103600000D01*
X220550000Y-103750000D02*
X219150000Y-103750000D01*
X199762500Y-95562500D02*
X199600000Y-95400000D01*
X199762500Y-99000000D02*
X199762500Y-95562500D01*
X199956201Y-95043799D02*
X199600000Y-95400000D01*
X199956201Y-88671021D02*
X199956201Y-95043799D01*
X200903423Y-87723799D02*
X199956201Y-88671021D01*
X202883799Y-87723799D02*
X200903423Y-87723799D01*
X203960000Y-88800000D02*
X202883799Y-87723799D01*
X204000000Y-91050000D02*
X204000000Y-89000000D01*
G04 #@! TO.N,/micro/MDIO*
X200600000Y-96200000D02*
X200400000Y-96000000D01*
X200600000Y-98162500D02*
X200600000Y-96200000D01*
X220550000Y-104250000D02*
X220202780Y-104250000D01*
X219578309Y-104464534D02*
X219154045Y-104464534D01*
X220076578Y-104376202D02*
X219666641Y-104376202D01*
X219666641Y-104376202D02*
X219578309Y-104464534D01*
X220202780Y-104250000D02*
X220076578Y-104376202D01*
X201420000Y-88800000D02*
X201420000Y-90180000D01*
X201420000Y-90180000D02*
X200800000Y-90800000D01*
X200400000Y-91775000D02*
X200400000Y-96000000D01*
X200800000Y-91375000D02*
X200400000Y-91775000D01*
X200800000Y-90800000D02*
X200800000Y-91375000D01*
G04 #@! TO.N,/tja1101/RXD2*
X220050000Y-101750000D02*
X220048790Y-101751210D01*
X220550000Y-101750000D02*
X220050000Y-101750000D01*
X215798502Y-101000000D02*
X215200000Y-101000000D01*
X216549712Y-101751210D02*
X215798502Y-101000000D01*
X220048790Y-101751210D02*
X216549712Y-101751210D01*
X214623790Y-100998790D02*
X211353610Y-100998790D01*
X211353610Y-100998790D02*
X211152400Y-101200000D01*
X214625000Y-101000000D02*
X214623790Y-100998790D01*
X215200000Y-101000000D02*
X214625000Y-101000000D01*
X211152400Y-101200000D02*
X210600000Y-101200000D01*
G04 #@! TO.N,/tja1101/RXD0*
X220848790Y-100148790D02*
X216549712Y-100148790D01*
X216549712Y-100148790D02*
X215600922Y-99200000D01*
X221250000Y-100550000D02*
X220848790Y-100148790D01*
X215600922Y-99200000D02*
X213600000Y-99200000D01*
X213600000Y-99200000D02*
X212000000Y-99200000D01*
X212000000Y-99200000D02*
X211600000Y-99600000D01*
X211600000Y-99600000D02*
X210600000Y-99600000D01*
G04 #@! TO.N,/tja1101/RXD3*
X213400000Y-102000000D02*
X213600000Y-101800000D01*
X216550118Y-102250000D02*
X216248908Y-101948790D01*
X220550000Y-102250000D02*
X216550118Y-102250000D01*
X214323790Y-101948790D02*
X214175000Y-101800000D01*
X216248908Y-101948790D02*
X214323790Y-101948790D01*
X214175000Y-101800000D02*
X213600000Y-101800000D01*
X213600000Y-101800000D02*
X210800000Y-101800000D01*
X210800000Y-101800000D02*
X210600000Y-102000000D01*
G04 #@! TO.N,/tja1101/RXD1*
X220354290Y-101054290D02*
X218654290Y-101054290D01*
X220550000Y-101250000D02*
X220354290Y-101054290D01*
X218654290Y-101054290D02*
X218600000Y-101000000D01*
X216852538Y-100950000D02*
X216101328Y-100198790D01*
X218600000Y-100950000D02*
X216852538Y-100950000D01*
X211353610Y-100198790D02*
X211152400Y-100400000D01*
X216101328Y-100198790D02*
X211353610Y-100198790D01*
X211152400Y-100400000D02*
X210600000Y-100400000D01*
G04 #@! TO.N,Net-(R9-Pad1)*
X201100000Y-98162500D02*
X201100000Y-94700000D01*
X201100000Y-94700000D02*
X201200000Y-94600000D01*
G04 #@! TO.N,/tja1101/RXDV*
X217000000Y-104400000D02*
X217000000Y-105600000D01*
X217000000Y-105600000D02*
X216400000Y-106200000D01*
X220050000Y-102750000D02*
X219971388Y-102671388D01*
X220550000Y-102750000D02*
X220050000Y-102750000D01*
X219971388Y-102671388D02*
X218153612Y-102671388D01*
X217000000Y-103825000D02*
X217000000Y-104400000D01*
X218153612Y-102671388D02*
X217000000Y-103825000D01*
G04 #@! TO.N,/tja1101/RXER*
X205200000Y-107350000D02*
X205200000Y-110000000D01*
X205200000Y-110000000D02*
X205400000Y-110200000D01*
G04 #@! TO.N,Net-(R13-Pad1)*
X205437500Y-103837500D02*
X206000000Y-104400000D01*
X204600000Y-103837500D02*
X205437500Y-103837500D01*
X215304182Y-104504182D02*
X215304182Y-104839752D01*
X215200000Y-104400000D02*
X215304182Y-104504182D01*
X214200000Y-105000000D02*
X214800000Y-104400000D01*
X214800000Y-104400000D02*
X215200000Y-104400000D01*
G04 #@! TO.N,Net-(R14-Pad1)*
X204100000Y-103837500D02*
X204100000Y-104500000D01*
X204100000Y-104500000D02*
X205200000Y-105600000D01*
G04 #@! TO.N,Net-(R15-Pad1)*
X196484676Y-99600000D02*
X191000000Y-99600000D01*
X197384676Y-100500000D02*
X196484676Y-99600000D01*
X199762500Y-100500000D02*
X197384676Y-100500000D01*
G04 #@! TO.N,/micro/INH*
X199348790Y-104863710D02*
X199348790Y-106051210D01*
X200375000Y-103837500D02*
X199348790Y-104863710D01*
X200600000Y-103837500D02*
X200375000Y-103837500D01*
X199348790Y-106051210D02*
X196600000Y-108800000D01*
X199562500Y-103837500D02*
X199400000Y-104000000D01*
X200600000Y-103837500D02*
X199562500Y-103837500D01*
X196600000Y-93200000D02*
X196000000Y-93200000D01*
X196000000Y-93200000D02*
X193800000Y-91000000D01*
X193800000Y-91000000D02*
X193800000Y-88800000D01*
G04 #@! TO.N,Net-(R23-Pad1)*
X240800000Y-111800000D02*
X242200000Y-111800000D01*
X242200000Y-111800000D02*
X242200000Y-113400000D01*
X221250000Y-105450000D02*
X220700000Y-105450000D01*
X220700000Y-105450000D02*
X220600000Y-105550000D01*
D43*
G04 #@! TO.N,Net-(R24-Pad2)*
X228250928Y-109821438D02*
X228250928Y-110250928D01*
X225450000Y-107020510D02*
X228250928Y-109821438D01*
X228250928Y-110250928D02*
X228750000Y-110750000D01*
X225450000Y-104750000D02*
X225450000Y-107020510D01*
D44*
G04 #@! TO.N,/tx_mac/RXC*
X206761290Y-96001210D02*
X210001210Y-96001210D01*
X210001210Y-96001210D02*
X209601210Y-96001210D01*
X204600000Y-98162500D02*
X206761290Y-96001210D01*
X220200000Y-97000000D02*
X219023798Y-95823798D01*
X219023798Y-95823798D02*
X211923422Y-95823798D01*
X211923422Y-95823798D02*
X211746010Y-96001210D01*
X211746010Y-96001210D02*
X210001210Y-96001210D01*
G04 #@! TO.N,Net-(R27-Pad2)*
X222801210Y-99998790D02*
X222801210Y-97801210D01*
X222750000Y-100050000D02*
X222801210Y-99998790D01*
X222750000Y-100550000D02*
X222750000Y-100050000D01*
X222801210Y-97801210D02*
X222000000Y-97000000D01*
G04 #@! TO.N,Net-(R28-Pad2)*
X221750000Y-100550000D02*
X221750000Y-100170990D01*
X218099072Y-97447574D02*
X218099072Y-97299072D01*
X219351210Y-98699712D02*
X218099072Y-97447574D01*
X219351210Y-99151210D02*
X219351210Y-98699712D01*
X221051210Y-99351210D02*
X219551210Y-99351210D01*
X219551210Y-99351210D02*
X219351210Y-99151210D01*
X221750000Y-100050000D02*
X221051210Y-99351210D01*
X221750000Y-100550000D02*
X221750000Y-100050000D01*
X218099072Y-97299072D02*
X217600000Y-96800000D01*
G04 #@! TO.N,/tja1101/RXC*
X209300288Y-98751210D02*
X208501628Y-98751210D01*
X209850288Y-98201210D02*
X209300288Y-98751210D01*
X215850000Y-96800000D02*
X214448790Y-98201210D01*
X208501628Y-98751210D02*
X207252838Y-100000000D01*
X214448790Y-98201210D02*
X209850288Y-98201210D01*
X207252838Y-100000000D02*
X205400000Y-100000000D01*
G04 #@! TO.N,/tx_mac/RXER*
X211600000Y-105600000D02*
X210200000Y-105600000D01*
X201676210Y-98123790D02*
X201676210Y-96592558D01*
X201600000Y-98200000D02*
X201676210Y-98123790D01*
X222251210Y-106448790D02*
X217402708Y-106448790D01*
X222750000Y-105950000D02*
X222251210Y-106448790D01*
X217402708Y-106448790D02*
X216851498Y-107000000D01*
X222750000Y-105450000D02*
X222750000Y-105950000D01*
X216851498Y-107000000D02*
X213400000Y-107000000D01*
G04 #@! TO.N,/tx_mac/RXDV*
X223250000Y-91200000D02*
X221000000Y-91200000D01*
X219400000Y-91200000D02*
X220800000Y-91200000D01*
X204100000Y-98162500D02*
X204100000Y-97525000D01*
X204100000Y-97525000D02*
X205155058Y-96469942D01*
X205155058Y-96469942D02*
X205469942Y-96469942D01*
G04 #@! TO.N,Net-(RN1-Pad5)*
X208800000Y-102000000D02*
X205400000Y-102000000D01*
G04 #@! TO.N,Net-(RN1-Pad6)*
X207947600Y-101500000D02*
X208247600Y-101200000D01*
X205437500Y-101500000D02*
X207947600Y-101500000D01*
X208247600Y-101200000D02*
X208800000Y-101200000D01*
G04 #@! TO.N,Net-(RN1-Pad8)*
X207602838Y-100500000D02*
X208502838Y-99600000D01*
X205437500Y-100500000D02*
X207602838Y-100500000D01*
X208502838Y-99600000D02*
X208800000Y-99600000D01*
G04 #@! TO.N,Net-(RN1-Pad7)*
X207902838Y-101000000D02*
X208502838Y-100400000D01*
X205437500Y-101000000D02*
X207902838Y-101000000D01*
X208502838Y-100400000D02*
X208800000Y-100400000D01*
G04 #@! TO.N,Net-(RN2-Pad1)*
X224945710Y-94793310D02*
X222952400Y-92800000D01*
X224945710Y-100354290D02*
X224945710Y-94793310D01*
X224750000Y-100550000D02*
X224945710Y-100354290D01*
X222952400Y-92800000D02*
X222400000Y-92800000D01*
G04 #@! TO.N,Net-(RN2-Pad3)*
X223750000Y-95197600D02*
X222952400Y-94400000D01*
X223750000Y-100550000D02*
X223750000Y-95197600D01*
X222952400Y-94400000D02*
X222400000Y-94400000D01*
G04 #@! TO.N,/tx_mac/RXD1*
X205229819Y-94895179D02*
X206725000Y-93400000D01*
X216225000Y-93600000D02*
X220047600Y-93600000D01*
X220047600Y-93600000D02*
X220600000Y-93600000D01*
X206725000Y-93400000D02*
X216025000Y-93400000D01*
X216025000Y-93400000D02*
X216225000Y-93600000D01*
X202600000Y-97403232D02*
X205108053Y-94895179D01*
X205108053Y-94895179D02*
X205229819Y-94895179D01*
X202600000Y-98162500D02*
X202600000Y-97403232D01*
G04 #@! TO.N,/tx_mac/RXD0*
X205082232Y-94542768D02*
X207173790Y-92451210D01*
X204578778Y-94542768D02*
X205082232Y-94542768D01*
X207173790Y-92451210D02*
X219698810Y-92451210D01*
X202100000Y-97021546D02*
X204578778Y-94542768D01*
X202100000Y-98162500D02*
X202100000Y-97021546D01*
X220047600Y-92800000D02*
X220600000Y-92800000D01*
X219698810Y-92451210D02*
X220047600Y-92800000D01*
G04 #@! TO.N,/tx_mac/RXD2*
X219848810Y-94201210D02*
X220047600Y-94400000D01*
X220047600Y-94400000D02*
X220600000Y-94400000D01*
X205254026Y-95247590D02*
X205377410Y-95247590D01*
X206423790Y-94201210D02*
X219848810Y-94201210D01*
X203100000Y-97401616D02*
X205254026Y-95247590D01*
X205377410Y-95247590D02*
X206423790Y-94201210D01*
X203100000Y-98162500D02*
X203100000Y-97401616D01*
G04 #@! TO.N,/tx_mac/RXD3*
X205925000Y-95200000D02*
X209825000Y-95200000D01*
X203600000Y-97525000D02*
X205925000Y-95200000D01*
X203600000Y-98162500D02*
X203600000Y-97525000D01*
X209825000Y-95200000D02*
X210400000Y-95200000D01*
X210400000Y-95200000D02*
X220600000Y-95200000D01*
G04 #@! TO.N,/micro/~{INT}*
X198751210Y-99126210D02*
X198751210Y-93751210D01*
X199125000Y-99500000D02*
X198751210Y-99126210D01*
X199762500Y-99500000D02*
X199125000Y-99500000D01*
X198751210Y-93751210D02*
X196400000Y-91400000D01*
X196400000Y-91400000D02*
X196400000Y-88800000D01*
G04 #@! TO.N,/micro/WAKE_IN_OUT*
X198901498Y-102500000D02*
X198401498Y-103000000D01*
X198401498Y-103000000D02*
X194400000Y-103000000D01*
X199762500Y-102500000D02*
X198901498Y-102500000D01*
D47*
G04 #@! TO.N,/tx_mac/MDI1+*
X231710998Y-101195000D02*
X231123200Y-101195000D01*
X232474003Y-101390001D02*
X231905999Y-101390001D01*
X231905999Y-101390001D02*
X231710998Y-101195000D01*
X233460001Y-102375999D02*
X232474003Y-101390001D01*
X233460001Y-102650001D02*
X233460001Y-102375999D01*
X234950000Y-104140000D02*
X233460001Y-102650001D01*
X225475000Y-102725000D02*
X225450000Y-102750000D01*
X229593200Y-102725000D02*
X225475000Y-102725000D01*
X231123200Y-101195000D02*
X229593200Y-102725000D01*
G04 #@! TO.N,/tx_mac/MDI1-*
X232005000Y-100745000D02*
X230936800Y-100745000D01*
X232410000Y-100340000D02*
X232005000Y-100745000D01*
X225475000Y-102275000D02*
X225450000Y-102250000D01*
X230936800Y-100745000D02*
X229406800Y-102275000D01*
X229406800Y-102275000D02*
X225475000Y-102275000D01*
G04 #@! TO.N,/tx_mac/MDI0+*
X225475000Y-103725000D02*
X225450000Y-103750000D01*
X227906800Y-103725000D02*
X225475000Y-103725000D01*
X230861800Y-106680000D02*
X227906800Y-103725000D01*
X234950000Y-106680000D02*
X230861800Y-106680000D01*
G04 #@! TO.N,/tx_mac/MDI0-*
X231600000Y-106230000D02*
X231048200Y-106230000D01*
X232410000Y-105420000D02*
X231600000Y-106230000D01*
X225475000Y-103275000D02*
X225450000Y-103250000D01*
X228093200Y-103275000D02*
X225475000Y-103275000D01*
X231048200Y-106230000D02*
X228093200Y-103275000D01*
D44*
G04 #@! TO.N,Net-(R33-Pad2)*
X225450000Y-101250000D02*
X225450000Y-91650000D01*
X225450000Y-91650000D02*
X225000000Y-91200000D01*
G04 #@! TO.N,Net-(RN2-Pad2)*
X224250000Y-94897600D02*
X222952400Y-93600000D01*
X224250000Y-100550000D02*
X224250000Y-94897600D01*
X222952400Y-93600000D02*
X222400000Y-93600000D01*
G04 #@! TO.N,Net-(RN2-Pad4)*
X223250000Y-95900000D02*
X222550000Y-95200000D01*
X223250000Y-100550000D02*
X223250000Y-95900000D01*
X222550000Y-95200000D02*
X222400000Y-95200000D01*
D47*
G04 #@! TO.N,/tja1101/CMC_TRX+*
X186800000Y-113000000D02*
X187375000Y-113575000D01*
X188012499Y-113575000D02*
X187375000Y-113575000D01*
X188287499Y-113300000D02*
X188012499Y-113575000D01*
X189075000Y-113300000D02*
X188287499Y-113300000D01*
G04 #@! TO.N,/tja1101/CMC_TRX-*
X186800000Y-114600000D02*
X187375000Y-114025000D01*
X189075000Y-114300000D02*
X188287499Y-114300000D01*
X188012499Y-114025000D02*
X187375000Y-114025000D01*
X188287499Y-114300000D02*
X188012499Y-114025000D01*
G04 #@! TO.N,/tja1101/CHIP_TRX-*
X202075000Y-106043199D02*
X202075000Y-103862500D01*
X200143209Y-107974990D02*
X202075000Y-106043199D01*
X199339854Y-107974990D02*
X200143209Y-107974990D01*
X197825001Y-109489843D02*
X199339854Y-107974990D01*
X197825001Y-111296538D02*
X197825001Y-109489843D01*
X197246538Y-111875001D02*
X197825001Y-111296538D01*
X196243198Y-111875001D02*
X197246538Y-111875001D01*
X194093199Y-114025000D02*
X196243198Y-111875001D01*
X192912501Y-114300000D02*
X193187501Y-114025000D01*
X192125000Y-114300000D02*
X192912501Y-114300000D01*
X193187501Y-114025000D02*
X194093199Y-114025000D01*
X202075000Y-103862500D02*
X202100000Y-103837500D01*
G04 #@! TO.N,/tja1101/CHIP_TRX+*
X193906801Y-113575000D02*
X196056791Y-111425010D01*
X201625000Y-103862500D02*
X201600000Y-103837500D01*
X201625000Y-105856801D02*
X201625000Y-103862500D01*
X199956802Y-107524999D02*
X201625000Y-105856801D01*
X199153462Y-107524999D02*
X199956802Y-107524999D01*
X197375010Y-109303451D02*
X199153462Y-107524999D01*
X197060146Y-111425010D02*
X197375010Y-111110146D01*
X196056791Y-111425010D02*
X197060146Y-111425010D01*
X193187501Y-113575000D02*
X193906801Y-113575000D01*
X192125000Y-113300000D02*
X192912501Y-113300000D01*
X197375010Y-111110146D02*
X197375010Y-109303451D01*
X192912501Y-113300000D02*
X193187501Y-113575000D01*
G04 #@! TO.N,/TRX+*
X185050000Y-113000000D02*
X184475000Y-113575000D01*
X184475000Y-113575000D02*
X173975000Y-113575000D01*
X173975000Y-113575000D02*
X171600000Y-111200000D01*
D44*
X171600000Y-107400000D02*
X171600000Y-111200000D01*
D47*
G04 #@! TO.N,/TRX-*
X185050000Y-114600000D02*
X184475000Y-114025000D01*
X184475000Y-114025000D02*
X173775000Y-114025000D01*
X173775000Y-114025000D02*
X171600000Y-116200000D01*
D44*
X171600000Y-116100000D02*
X171600000Y-119600000D01*
G04 #@! TD*
G04 #@! TA.AperFunction,Conductor*
G04 #@! TO.N,GND*
G36*
X252316621Y-70845502D02*
G01*
X252363114Y-70899158D01*
X252374500Y-70951500D01*
X252374500Y-82823947D01*
X252354498Y-82892068D01*
X252300842Y-82938561D01*
X252230568Y-82948665D01*
X252172992Y-82924816D01*
X252165964Y-82919555D01*
X252029093Y-82868505D01*
X251968597Y-82862000D01*
X251674000Y-82862000D01*
X251674000Y-84978000D01*
X251968585Y-84978000D01*
X251968597Y-84977999D01*
X252029093Y-84971494D01*
X252165964Y-84920444D01*
X252172987Y-84915187D01*
X252239507Y-84890373D01*
X252308881Y-84905462D01*
X252359085Y-84955663D01*
X252374500Y-85016052D01*
X252374500Y-85823947D01*
X252354498Y-85892068D01*
X252300842Y-85938561D01*
X252230568Y-85948665D01*
X252172992Y-85924816D01*
X252165964Y-85919555D01*
X252029093Y-85868505D01*
X251968597Y-85862000D01*
X251674000Y-85862000D01*
X251674000Y-87978000D01*
X251968585Y-87978000D01*
X251968597Y-87977999D01*
X252029093Y-87971494D01*
X252165964Y-87920444D01*
X252172987Y-87915187D01*
X252239507Y-87890373D01*
X252308881Y-87905462D01*
X252359085Y-87955663D01*
X252374500Y-88016052D01*
X252374500Y-93374000D01*
X252354498Y-93442121D01*
X252300842Y-93488614D01*
X252248500Y-93500000D01*
X250448380Y-93500000D01*
X250380259Y-93479998D01*
X250333766Y-93426342D01*
X250323662Y-93356068D01*
X250341139Y-93307854D01*
X250367750Y-93264709D01*
X250422568Y-93099276D01*
X250422569Y-93099273D01*
X250432999Y-92997184D01*
X250433000Y-92997184D01*
X250433000Y-92964000D01*
X249272000Y-92964000D01*
X249203879Y-92943998D01*
X249157386Y-92890342D01*
X249146000Y-92838000D01*
X249146000Y-92456000D01*
X249654000Y-92456000D01*
X250433000Y-92456000D01*
X250433000Y-92422815D01*
X250422569Y-92320726D01*
X250422568Y-92320723D01*
X250367751Y-92155292D01*
X250276262Y-92006966D01*
X250276257Y-92006960D01*
X250153039Y-91883742D01*
X250153033Y-91883737D01*
X250004707Y-91792248D01*
X249839276Y-91737431D01*
X249839273Y-91737430D01*
X249737184Y-91727000D01*
X249654000Y-91727000D01*
X249654000Y-92456000D01*
X249146000Y-92456000D01*
X249146000Y-91727000D01*
X249062815Y-91727000D01*
X248960726Y-91737430D01*
X248960723Y-91737431D01*
X248795292Y-91792248D01*
X248646966Y-91883737D01*
X248614447Y-91916256D01*
X248552135Y-91950280D01*
X248481319Y-91945214D01*
X248436258Y-91916254D01*
X248403346Y-91883342D01*
X248254920Y-91791791D01*
X248089381Y-91736938D01*
X248089379Y-91736937D01*
X248089377Y-91736937D01*
X247987221Y-91726500D01*
X247312787Y-91726500D01*
X247210619Y-91736937D01*
X247045079Y-91791791D01*
X246896653Y-91883342D01*
X246896647Y-91883347D01*
X246773347Y-92006647D01*
X246773342Y-92006653D01*
X246681791Y-92155080D01*
X246626937Y-92320622D01*
X246616500Y-92422778D01*
X246616500Y-92997212D01*
X246626937Y-93099380D01*
X246681791Y-93264920D01*
X246708273Y-93307853D01*
X246727010Y-93376332D01*
X246705751Y-93444071D01*
X246651244Y-93489563D01*
X246601032Y-93500000D01*
X243379080Y-93500000D01*
X243310959Y-93479998D01*
X243289985Y-93463095D01*
X243020404Y-93193514D01*
X242986378Y-93131202D01*
X242983499Y-93104419D01*
X242983499Y-92662787D01*
X242973062Y-92560619D01*
X242950563Y-92492720D01*
X242918209Y-92395080D01*
X242826658Y-92246654D01*
X242793744Y-92213740D01*
X242759720Y-92151431D01*
X242764784Y-92080615D01*
X242793746Y-92035549D01*
X242826262Y-92003033D01*
X242917751Y-91854707D01*
X242972568Y-91689276D01*
X242972569Y-91689273D01*
X242982999Y-91587184D01*
X242983000Y-91587184D01*
X242983000Y-91504000D01*
X241017000Y-91504000D01*
X241017000Y-91587184D01*
X241027430Y-91689273D01*
X241027431Y-91689276D01*
X241082248Y-91854707D01*
X241173737Y-92003033D01*
X241173742Y-92003039D01*
X241206254Y-92035551D01*
X241240280Y-92097863D01*
X241235215Y-92168678D01*
X241206254Y-92213741D01*
X241173347Y-92246647D01*
X241173340Y-92246655D01*
X241110771Y-92348096D01*
X241057985Y-92395573D01*
X240987910Y-92406976D01*
X240922795Y-92378683D01*
X240914436Y-92371043D01*
X240907281Y-92363888D01*
X240907279Y-92363887D01*
X240753018Y-92266958D01*
X240753015Y-92266957D01*
X240581050Y-92206784D01*
X240581049Y-92206783D01*
X240581047Y-92206783D01*
X240400000Y-92186384D01*
X240218953Y-92206783D01*
X240218950Y-92206783D01*
X240218949Y-92206784D01*
X240046984Y-92266957D01*
X240046981Y-92266958D01*
X239892720Y-92363887D01*
X239892718Y-92363888D01*
X239763888Y-92492718D01*
X239763887Y-92492720D01*
X239666958Y-92646981D01*
X239666957Y-92646984D01*
X239661428Y-92662787D01*
X239606783Y-92818953D01*
X239592694Y-92943998D01*
X239586384Y-93000000D01*
X239589573Y-93028302D01*
X239577323Y-93098234D01*
X239529211Y-93150442D01*
X239460510Y-93168350D01*
X239393033Y-93146273D01*
X239378664Y-93134775D01*
X239359167Y-93116685D01*
X239359162Y-93116681D01*
X239141474Y-92968263D01*
X239141467Y-92968259D01*
X238904076Y-92853937D01*
X238652295Y-92776271D01*
X238652287Y-92776270D01*
X238391740Y-92737000D01*
X238128260Y-92737000D01*
X237867712Y-92776270D01*
X237867704Y-92776271D01*
X237615923Y-92853937D01*
X237378532Y-92968259D01*
X237378525Y-92968263D01*
X237208438Y-93084227D01*
X237208438Y-93084229D01*
X237624209Y-93500000D01*
X236905791Y-93500000D01*
X236849671Y-93443880D01*
X236842751Y-93452559D01*
X236784640Y-93493347D01*
X236744239Y-93500000D01*
X233626000Y-93500000D01*
X233557879Y-93479998D01*
X233511386Y-93426342D01*
X233500000Y-93374000D01*
X233500000Y-90044000D01*
X233520002Y-89975879D01*
X233573658Y-89929386D01*
X233626000Y-89918000D01*
X234068585Y-89918000D01*
X234068597Y-89917999D01*
X234129093Y-89911494D01*
X234265964Y-89860444D01*
X234265965Y-89860444D01*
X234382904Y-89772904D01*
X234470444Y-89655965D01*
X234470444Y-89655964D01*
X234521494Y-89519093D01*
X234527999Y-89458597D01*
X234528000Y-89458585D01*
X234528000Y-88914000D01*
X233500000Y-88914000D01*
X233500000Y-88406000D01*
X234528000Y-88406000D01*
X234528000Y-87861414D01*
X234527999Y-87861402D01*
X234521494Y-87800906D01*
X234470445Y-87664036D01*
X234411971Y-87585926D01*
X234387160Y-87519406D01*
X234402251Y-87450031D01*
X234411959Y-87434924D01*
X234470889Y-87356204D01*
X234521989Y-87219201D01*
X234525063Y-87190615D01*
X234528499Y-87158649D01*
X234528500Y-87158632D01*
X234528500Y-85561367D01*
X234528499Y-85561350D01*
X234521990Y-85500803D01*
X234521988Y-85500795D01*
X234470889Y-85363797D01*
X234470889Y-85363796D01*
X234451152Y-85337431D01*
X234412283Y-85285508D01*
X234387473Y-85218989D01*
X234402564Y-85149615D01*
X234412279Y-85134496D01*
X234470889Y-85056204D01*
X234494578Y-84992690D01*
X234537122Y-84935858D01*
X234603643Y-84911047D01*
X234673017Y-84926138D01*
X234701727Y-84947631D01*
X237739595Y-87985499D01*
X237773621Y-88047811D01*
X237776500Y-88074594D01*
X237776500Y-88447212D01*
X237786937Y-88549380D01*
X237841791Y-88714920D01*
X237933342Y-88863346D01*
X237933347Y-88863352D01*
X238056647Y-88986652D01*
X238056653Y-88986657D01*
X238056654Y-88986658D01*
X238205080Y-89078209D01*
X238370619Y-89133062D01*
X238472787Y-89143500D01*
X238845404Y-89143499D01*
X238913524Y-89163501D01*
X238934499Y-89180404D01*
X239146167Y-89392072D01*
X239249925Y-89461401D01*
X239331447Y-89495168D01*
X239365215Y-89509155D01*
X239487606Y-89533500D01*
X239487607Y-89533500D01*
X239612394Y-89533500D01*
X240390761Y-89533500D01*
X240458882Y-89553502D01*
X240505375Y-89607158D01*
X240510365Y-89619867D01*
X240527883Y-89672734D01*
X240620970Y-89823652D01*
X240620975Y-89823658D01*
X240746341Y-89949024D01*
X240746347Y-89949029D01*
X240746348Y-89949030D01*
X240897262Y-90042115D01*
X241065574Y-90097887D01*
X241169455Y-90108500D01*
X241282695Y-90108499D01*
X241350814Y-90128500D01*
X241397307Y-90182156D01*
X241407412Y-90252430D01*
X241377919Y-90317011D01*
X241348842Y-90341739D01*
X241296969Y-90373735D01*
X241296960Y-90373742D01*
X241173742Y-90496960D01*
X241173737Y-90496966D01*
X241082248Y-90645292D01*
X241027431Y-90810723D01*
X241027430Y-90810726D01*
X241017000Y-90912815D01*
X241017000Y-90996000D01*
X242983000Y-90996000D01*
X242983000Y-90912815D01*
X242981036Y-90893597D01*
X249012000Y-90893597D01*
X249018505Y-90954093D01*
X249069555Y-91090964D01*
X249069555Y-91090965D01*
X249157095Y-91207904D01*
X249274034Y-91295444D01*
X249410906Y-91346494D01*
X249471402Y-91352999D01*
X249471415Y-91353000D01*
X250016000Y-91353000D01*
X250524000Y-91353000D01*
X251068585Y-91353000D01*
X251068597Y-91352999D01*
X251129093Y-91346494D01*
X251265964Y-91295444D01*
X251265965Y-91295444D01*
X251382904Y-91207904D01*
X251470444Y-91090965D01*
X251470444Y-91090964D01*
X251521494Y-90954093D01*
X251527999Y-90893597D01*
X251528000Y-90893585D01*
X251528000Y-90424000D01*
X250524000Y-90424000D01*
X250524000Y-91353000D01*
X250016000Y-91353000D01*
X250016000Y-90424000D01*
X249012000Y-90424000D01*
X249012000Y-90893597D01*
X242981036Y-90893597D01*
X242972569Y-90810726D01*
X242972568Y-90810723D01*
X242917751Y-90645292D01*
X242826262Y-90496966D01*
X242826257Y-90496960D01*
X242703039Y-90373742D01*
X242703033Y-90373737D01*
X242554707Y-90282248D01*
X242389276Y-90227431D01*
X242389273Y-90227430D01*
X242332174Y-90221596D01*
X242266439Y-90194773D01*
X242225641Y-90136670D01*
X242222733Y-90065733D01*
X242258638Y-90004484D01*
X242278822Y-89989017D01*
X242343652Y-89949030D01*
X242469030Y-89823652D01*
X242469031Y-89823649D01*
X242471162Y-89820956D01*
X242473098Y-89819584D01*
X242474220Y-89818463D01*
X242474411Y-89818654D01*
X242529101Y-89779925D01*
X242600026Y-89776733D01*
X242661418Y-89812392D01*
X242668838Y-89820956D01*
X242670971Y-89823654D01*
X242796341Y-89949024D01*
X242796347Y-89949029D01*
X242796348Y-89949030D01*
X242947262Y-90042115D01*
X243115574Y-90097887D01*
X243219455Y-90108500D01*
X243970544Y-90108499D01*
X244074426Y-90097887D01*
X244242738Y-90042115D01*
X244393652Y-89949030D01*
X244519030Y-89823652D01*
X244612115Y-89672738D01*
X244620000Y-89648942D01*
X244629635Y-89619867D01*
X244670049Y-89561496D01*
X244735605Y-89534240D01*
X244749239Y-89533500D01*
X245282393Y-89533500D01*
X245282394Y-89533500D01*
X245404785Y-89509155D01*
X245520075Y-89461400D01*
X245623833Y-89392071D01*
X246146905Y-88868999D01*
X246209217Y-88834973D01*
X246280032Y-88840038D01*
X246336868Y-88882585D01*
X246361679Y-88949105D01*
X246362000Y-88958094D01*
X246362000Y-89468597D01*
X246368505Y-89529093D01*
X246419555Y-89665964D01*
X246419555Y-89665965D01*
X246507095Y-89782904D01*
X246624034Y-89870444D01*
X246760906Y-89921494D01*
X246821402Y-89927999D01*
X246821415Y-89928000D01*
X247316000Y-89928000D01*
X247824000Y-89928000D01*
X248318585Y-89928000D01*
X248318597Y-89927999D01*
X248379093Y-89921494D01*
X248515964Y-89870444D01*
X248515965Y-89870444D01*
X248632904Y-89782904D01*
X248720444Y-89665965D01*
X248720444Y-89665964D01*
X248767944Y-89538613D01*
X248810491Y-89481777D01*
X248877011Y-89456966D01*
X248946385Y-89472057D01*
X248996587Y-89522260D01*
X249012000Y-89582645D01*
X249012000Y-89916000D01*
X250016000Y-89916000D01*
X250524000Y-89916000D01*
X251528000Y-89916000D01*
X251528000Y-89446414D01*
X251527999Y-89446402D01*
X251521494Y-89385906D01*
X251470444Y-89249035D01*
X251470444Y-89249034D01*
X251382904Y-89132095D01*
X251265965Y-89044555D01*
X251129093Y-88993505D01*
X251068597Y-88987000D01*
X250524000Y-88987000D01*
X250524000Y-89916000D01*
X250016000Y-89916000D01*
X250016000Y-88987000D01*
X249471402Y-88987000D01*
X249410906Y-88993505D01*
X249274035Y-89044555D01*
X249274034Y-89044555D01*
X249157095Y-89132095D01*
X249069556Y-89249033D01*
X249022056Y-89376387D01*
X248979509Y-89433222D01*
X248912989Y-89458033D01*
X248843614Y-89442941D01*
X248793412Y-89392739D01*
X248778000Y-89332354D01*
X248778000Y-88924000D01*
X247824000Y-88924000D01*
X247824000Y-89928000D01*
X247316000Y-89928000D01*
X247316000Y-88542000D01*
X247336002Y-88473879D01*
X247389658Y-88427386D01*
X247442000Y-88416000D01*
X248778000Y-88416000D01*
X248778000Y-87871414D01*
X248777999Y-87871402D01*
X248771494Y-87810906D01*
X248720444Y-87674035D01*
X248720444Y-87674034D01*
X248645135Y-87573434D01*
X248624682Y-87518597D01*
X250412000Y-87518597D01*
X250418505Y-87579093D01*
X250469555Y-87715964D01*
X250469555Y-87715965D01*
X250557095Y-87832904D01*
X250674034Y-87920444D01*
X250810906Y-87971494D01*
X250871402Y-87977999D01*
X250871415Y-87978000D01*
X251166000Y-87978000D01*
X251166000Y-87174000D01*
X250412000Y-87174000D01*
X250412000Y-87518597D01*
X248624682Y-87518597D01*
X248620324Y-87506914D01*
X248620704Y-87494151D01*
X248620500Y-87494151D01*
X248620500Y-87378213D01*
X248640502Y-87310092D01*
X248657405Y-87289118D01*
X248663259Y-87283263D01*
X248663259Y-87283261D01*
X248663261Y-87283261D01*
X248750889Y-87166204D01*
X248801989Y-87029201D01*
X248808445Y-86969155D01*
X248808499Y-86968649D01*
X248808500Y-86968632D01*
X248808500Y-86471367D01*
X248808499Y-86471350D01*
X248801739Y-86408468D01*
X248801739Y-86381532D01*
X248808203Y-86321402D01*
X250412000Y-86321402D01*
X250412000Y-86666000D01*
X251166000Y-86666000D01*
X251166000Y-85862000D01*
X250871402Y-85862000D01*
X250810906Y-85868505D01*
X250674035Y-85919555D01*
X250674034Y-85919555D01*
X250557095Y-86007095D01*
X250469555Y-86124034D01*
X250469555Y-86124035D01*
X250418505Y-86260906D01*
X250412000Y-86321402D01*
X248808203Y-86321402D01*
X248808499Y-86318649D01*
X248808500Y-86318632D01*
X248808500Y-85821367D01*
X248808499Y-85821350D01*
X248801739Y-85758468D01*
X248801739Y-85731532D01*
X248808499Y-85668649D01*
X248808500Y-85668632D01*
X248808500Y-85171367D01*
X248808499Y-85171350D01*
X248801739Y-85108468D01*
X248801739Y-85081532D01*
X248808499Y-85018649D01*
X248808500Y-85018632D01*
X248808500Y-84521367D01*
X248808499Y-84521352D01*
X248808203Y-84518597D01*
X250412000Y-84518597D01*
X250418505Y-84579093D01*
X250469555Y-84715964D01*
X250469555Y-84715965D01*
X250557095Y-84832904D01*
X250674034Y-84920444D01*
X250810906Y-84971494D01*
X250871402Y-84977999D01*
X250871415Y-84978000D01*
X251166000Y-84978000D01*
X251166000Y-84174000D01*
X250412000Y-84174000D01*
X250412000Y-84518597D01*
X248808203Y-84518597D01*
X248801485Y-84456114D01*
X248801485Y-84429173D01*
X248807999Y-84368592D01*
X248808000Y-84368585D01*
X248808000Y-84319999D01*
X248806705Y-84318704D01*
X248742997Y-84299998D01*
X248710250Y-84269509D01*
X248663261Y-84206738D01*
X248583284Y-84146868D01*
X248540737Y-84090032D01*
X248535673Y-84019216D01*
X248569698Y-83956904D01*
X248632010Y-83922879D01*
X248658793Y-83920000D01*
X248808000Y-83920000D01*
X248808000Y-83871414D01*
X248807999Y-83871402D01*
X248801494Y-83810906D01*
X248750444Y-83674035D01*
X248750444Y-83674034D01*
X248662902Y-83557093D01*
X248657405Y-83551596D01*
X248623379Y-83489284D01*
X248620500Y-83462501D01*
X248620500Y-83345850D01*
X248623061Y-83345850D01*
X248626868Y-83321402D01*
X250412000Y-83321402D01*
X250412000Y-83666000D01*
X251166000Y-83666000D01*
X251166000Y-82862000D01*
X250871402Y-82862000D01*
X250810906Y-82868505D01*
X250674035Y-82919555D01*
X250674034Y-82919555D01*
X250557095Y-83007095D01*
X250469555Y-83124034D01*
X250469555Y-83124035D01*
X250418505Y-83260906D01*
X250412000Y-83321402D01*
X248626868Y-83321402D01*
X248632007Y-83288398D01*
X248645135Y-83266564D01*
X248720443Y-83165966D01*
X248720444Y-83165964D01*
X248771494Y-83029093D01*
X248777999Y-82968597D01*
X248778000Y-82968585D01*
X248778000Y-82424000D01*
X247824000Y-82424000D01*
X247824000Y-82955995D01*
X247803998Y-83024116D01*
X247787095Y-83045090D01*
X247719505Y-83112679D01*
X247719497Y-83112689D01*
X247653610Y-83226809D01*
X247653607Y-83226816D01*
X247642957Y-83266564D01*
X247628264Y-83321402D01*
X247619500Y-83354109D01*
X247619500Y-83399309D01*
X247600000Y-83465720D01*
X247600000Y-83935500D01*
X247579998Y-84003621D01*
X247526342Y-84050114D01*
X247474000Y-84061500D01*
X247326000Y-84061500D01*
X247257879Y-84041498D01*
X247211386Y-83987842D01*
X247200000Y-83935500D01*
X247200000Y-83495000D01*
X247220002Y-83426879D01*
X247273658Y-83380386D01*
X247313221Y-83371779D01*
X247316000Y-83369001D01*
X247316000Y-82424000D01*
X246362000Y-82424000D01*
X246362000Y-82968597D01*
X246368505Y-83029093D01*
X246419554Y-83165963D01*
X246460663Y-83220876D01*
X246485474Y-83287396D01*
X246470383Y-83356770D01*
X246420181Y-83406973D01*
X246398164Y-83415411D01*
X246398291Y-83415751D01*
X246254035Y-83469555D01*
X246254034Y-83469555D01*
X246137095Y-83557095D01*
X246049555Y-83674034D01*
X246049555Y-83674035D01*
X245998505Y-83810906D01*
X245992000Y-83871402D01*
X245992000Y-83920000D01*
X246141207Y-83920000D01*
X246209328Y-83940002D01*
X246255821Y-83993658D01*
X246265925Y-84063932D01*
X246236431Y-84128512D01*
X246216716Y-84146868D01*
X246136738Y-84206738D01*
X246089750Y-84269509D01*
X246032915Y-84312056D01*
X245992685Y-84319313D01*
X245992000Y-84319999D01*
X245992000Y-84368585D01*
X245992001Y-84368605D01*
X245998513Y-84429182D01*
X245998513Y-84456116D01*
X245991501Y-84521347D01*
X245991500Y-84521367D01*
X245991500Y-85018649D01*
X245998261Y-85081532D01*
X245998261Y-85108468D01*
X245991500Y-85171350D01*
X245991500Y-85668649D01*
X245998261Y-85731532D01*
X245998261Y-85758468D01*
X245991500Y-85821350D01*
X245991500Y-86318649D01*
X245998261Y-86381532D01*
X245998261Y-86408468D01*
X245991500Y-86471350D01*
X245991500Y-86480406D01*
X245971498Y-86548527D01*
X245954595Y-86569501D01*
X245757931Y-86766164D01*
X245757926Y-86766171D01*
X245688601Y-86869923D01*
X245640846Y-86985212D01*
X245616500Y-87107603D01*
X245616500Y-87555406D01*
X245596498Y-87623527D01*
X245579595Y-87644501D01*
X244994501Y-88229595D01*
X244932189Y-88263621D01*
X244905406Y-88266500D01*
X244749239Y-88266500D01*
X244681118Y-88246498D01*
X244634625Y-88192842D01*
X244629635Y-88180133D01*
X244612116Y-88127265D01*
X244612115Y-88127264D01*
X244612115Y-88127262D01*
X244519030Y-87976348D01*
X244519029Y-87976347D01*
X244519024Y-87976341D01*
X244393658Y-87850975D01*
X244393652Y-87850970D01*
X244242738Y-87757885D01*
X244150479Y-87727314D01*
X244074427Y-87702113D01*
X244074420Y-87702112D01*
X243970553Y-87691500D01*
X243219455Y-87691500D01*
X243115574Y-87702112D01*
X242947261Y-87757885D01*
X242796347Y-87850970D01*
X242796341Y-87850975D01*
X242670972Y-87976344D01*
X242668834Y-87979049D01*
X242666895Y-87980421D01*
X242665780Y-87981537D01*
X242665589Y-87981346D01*
X242610892Y-88020076D01*
X242539967Y-88023264D01*
X242478577Y-87987602D01*
X242471166Y-87979049D01*
X242469027Y-87976344D01*
X242343658Y-87850975D01*
X242343652Y-87850970D01*
X242192738Y-87757885D01*
X242100479Y-87727314D01*
X242024427Y-87702113D01*
X242024420Y-87702112D01*
X241920553Y-87691500D01*
X241169455Y-87691500D01*
X241065574Y-87702112D01*
X240897261Y-87757885D01*
X240746347Y-87850970D01*
X240746341Y-87850975D01*
X240620975Y-87976341D01*
X240620970Y-87976347D01*
X240527883Y-88127265D01*
X240510365Y-88180133D01*
X240469951Y-88238504D01*
X240404395Y-88265760D01*
X240390761Y-88266500D01*
X239869499Y-88266500D01*
X239801378Y-88246498D01*
X239754885Y-88192842D01*
X239743499Y-88140500D01*
X239743499Y-87772787D01*
X239733062Y-87670619D01*
X239730881Y-87664036D01*
X239678209Y-87505080D01*
X239586658Y-87356654D01*
X239553744Y-87323740D01*
X239519720Y-87261431D01*
X239524784Y-87190615D01*
X239553746Y-87145549D01*
X239586262Y-87113033D01*
X239677751Y-86964707D01*
X239732568Y-86799276D01*
X239732569Y-86799273D01*
X239742999Y-86697184D01*
X239743000Y-86697184D01*
X239743000Y-86614000D01*
X238632000Y-86614000D01*
X238563879Y-86593998D01*
X238517386Y-86540342D01*
X238506000Y-86488000D01*
X238506000Y-86106000D01*
X239014000Y-86106000D01*
X239743000Y-86106000D01*
X239743000Y-86022815D01*
X239732569Y-85920726D01*
X239732568Y-85920723D01*
X239677751Y-85755292D01*
X239586262Y-85606966D01*
X239586257Y-85606960D01*
X239463039Y-85483742D01*
X239463033Y-85483737D01*
X239314707Y-85392248D01*
X239149276Y-85337431D01*
X239149273Y-85337430D01*
X239047184Y-85327000D01*
X239014000Y-85327000D01*
X239014000Y-86106000D01*
X238506000Y-86106000D01*
X238506000Y-85327000D01*
X238472815Y-85327000D01*
X238370726Y-85337430D01*
X238370723Y-85337431D01*
X238205292Y-85392248D01*
X238056966Y-85483737D01*
X238056960Y-85483742D01*
X237933742Y-85606960D01*
X237933737Y-85606966D01*
X237842248Y-85755292D01*
X237787431Y-85920723D01*
X237787430Y-85920724D01*
X237784642Y-85948012D01*
X237757818Y-86013746D01*
X237699713Y-86054542D01*
X237628776Y-86057449D01*
X237570200Y-86024296D01*
X235113835Y-83567931D01*
X235113833Y-83567929D01*
X235010075Y-83498600D01*
X234894785Y-83450845D01*
X234821086Y-83436185D01*
X234772396Y-83426500D01*
X234772394Y-83426500D01*
X234654500Y-83426500D01*
X234586379Y-83406498D01*
X234539886Y-83352842D01*
X234528500Y-83300500D01*
X234528500Y-83261367D01*
X234528499Y-83261350D01*
X234521990Y-83200803D01*
X234521988Y-83200795D01*
X234470889Y-83063797D01*
X234470887Y-83063792D01*
X234383261Y-82946738D01*
X234266207Y-82859112D01*
X234266202Y-82859110D01*
X234129204Y-82808011D01*
X234129196Y-82808009D01*
X234068649Y-82801500D01*
X234068638Y-82801500D01*
X233676529Y-82801500D01*
X233608408Y-82781498D01*
X233571764Y-82745502D01*
X233521235Y-82669880D01*
X233500020Y-82602127D01*
X233500000Y-82599878D01*
X233500000Y-81371402D01*
X246362000Y-81371402D01*
X246362000Y-81916000D01*
X247316000Y-81916000D01*
X247824000Y-81916000D01*
X248778000Y-81916000D01*
X248778000Y-81507645D01*
X248798002Y-81439524D01*
X248851658Y-81393031D01*
X248921932Y-81382927D01*
X248986512Y-81412421D01*
X249022056Y-81463613D01*
X249069555Y-81590964D01*
X249069555Y-81590965D01*
X249157095Y-81707904D01*
X249274034Y-81795444D01*
X249410906Y-81846494D01*
X249471402Y-81852999D01*
X249471415Y-81853000D01*
X250016000Y-81853000D01*
X250524000Y-81853000D01*
X251068585Y-81853000D01*
X251068597Y-81852999D01*
X251129093Y-81846494D01*
X251265964Y-81795444D01*
X251265965Y-81795444D01*
X251382904Y-81707904D01*
X251470444Y-81590965D01*
X251470444Y-81590964D01*
X251521494Y-81454093D01*
X251527999Y-81393597D01*
X251528000Y-81393585D01*
X251528000Y-80924000D01*
X250524000Y-80924000D01*
X250524000Y-81853000D01*
X250016000Y-81853000D01*
X250016000Y-80924000D01*
X249012000Y-80924000D01*
X249012000Y-81257354D01*
X248991998Y-81325475D01*
X248938342Y-81371968D01*
X248868068Y-81382072D01*
X248803488Y-81352578D01*
X248767944Y-81301387D01*
X248720443Y-81174033D01*
X248632904Y-81057095D01*
X248515965Y-80969555D01*
X248379093Y-80918505D01*
X248318597Y-80912000D01*
X247824000Y-80912000D01*
X247824000Y-81916000D01*
X247316000Y-81916000D01*
X247316000Y-80912000D01*
X246821402Y-80912000D01*
X246760906Y-80918505D01*
X246624035Y-80969555D01*
X246624034Y-80969555D01*
X246507095Y-81057095D01*
X246419555Y-81174034D01*
X246419555Y-81174035D01*
X246368505Y-81310906D01*
X246362000Y-81371402D01*
X233500000Y-81371402D01*
X233500000Y-79946402D01*
X249012000Y-79946402D01*
X249012000Y-80416000D01*
X250016000Y-80416000D01*
X250524000Y-80416000D01*
X251528000Y-80416000D01*
X251528000Y-79946414D01*
X251527999Y-79946402D01*
X251521494Y-79885906D01*
X251470444Y-79749035D01*
X251470444Y-79749034D01*
X251382904Y-79632095D01*
X251265965Y-79544555D01*
X251129093Y-79493505D01*
X251068597Y-79487000D01*
X250524000Y-79487000D01*
X250524000Y-80416000D01*
X250016000Y-80416000D01*
X250016000Y-79487000D01*
X249471402Y-79487000D01*
X249410906Y-79493505D01*
X249274035Y-79544555D01*
X249274034Y-79544555D01*
X249157095Y-79632095D01*
X249069555Y-79749034D01*
X249069555Y-79749035D01*
X249018505Y-79885906D01*
X249012000Y-79946402D01*
X233500000Y-79946402D01*
X233500000Y-70951500D01*
X233520002Y-70883379D01*
X233573658Y-70836886D01*
X233626000Y-70825500D01*
X252248500Y-70825500D01*
X252316621Y-70845502D01*
G37*
G04 #@! TD.AperFunction*
G04 #@! TD*
M02*
