%TF.GenerationSoftware,KiCad,Pcbnew,8.0.4*%
%TF.CreationDate,2024-09-14T16:47:45+09:00*%
%TF.ProjectId,100base-t1-converter,31303062-6173-4652-9d74-312d636f6e76,rev?*%
%TF.SameCoordinates,Original*%
%TF.FileFunction,Drillmap*%
%TF.FilePolarity,Positive*%
%FSLAX45Y45*%
G04 Gerber Fmt 4.5, Leading zero omitted, Abs format (unit mm)*
G04 Created by KiCad (PCBNEW 8.0.4) date 2024-09-14 16:47:45*
%MOMM*%
%LPD*%
G01*
G04 APERTURE LIST*
%ADD10C,0.050000*%
%ADD11C,0.200000*%
%ADD12C,0.100000*%
%ADD13C,0.325000*%
G04 APERTURE END LIST*
D10*
X16480000Y-12160000D02*
X25240000Y-12160000D01*
X16480000Y-7080000D02*
X16480000Y-12160000D01*
X25240000Y-7080000D02*
X16480000Y-7080000D01*
X25240000Y-12160000D02*
X25240000Y-7080000D01*
D11*
D12*
X24787000Y-8317000D02*
X24837000Y-8367000D01*
X24837000Y-8317000D02*
X24787000Y-8367000D01*
X24787000Y-8717000D02*
X24837000Y-8767000D01*
X24837000Y-8717000D02*
X24787000Y-8767000D01*
D13*
X24293500Y-9652500D02*
G75*
G02*
X23968500Y-9652500I-162500J0D01*
G01*
X23968500Y-9652500D02*
G75*
G02*
X24293500Y-9652500I162500J0D01*
G01*
X24293500Y-10795500D02*
G75*
G02*
X23968500Y-10795500I-162500J0D01*
G01*
X23968500Y-10795500D02*
G75*
G02*
X24293500Y-10795500I162500J0D01*
G01*
D11*
X16738277Y-12473984D02*
X16738277Y-12273984D01*
X16738277Y-12273984D02*
X16785896Y-12273984D01*
X16785896Y-12273984D02*
X16814467Y-12283508D01*
X16814467Y-12283508D02*
X16833515Y-12302555D01*
X16833515Y-12302555D02*
X16843039Y-12321603D01*
X16843039Y-12321603D02*
X16852563Y-12359698D01*
X16852563Y-12359698D02*
X16852563Y-12388269D01*
X16852563Y-12388269D02*
X16843039Y-12426365D01*
X16843039Y-12426365D02*
X16833515Y-12445412D01*
X16833515Y-12445412D02*
X16814467Y-12464460D01*
X16814467Y-12464460D02*
X16785896Y-12473984D01*
X16785896Y-12473984D02*
X16738277Y-12473984D01*
X16938277Y-12473984D02*
X16938277Y-12340650D01*
X16938277Y-12378746D02*
X16947801Y-12359698D01*
X16947801Y-12359698D02*
X16957324Y-12350174D01*
X16957324Y-12350174D02*
X16976372Y-12340650D01*
X16976372Y-12340650D02*
X16995420Y-12340650D01*
X17062086Y-12473984D02*
X17062086Y-12340650D01*
X17062086Y-12273984D02*
X17052563Y-12283508D01*
X17052563Y-12283508D02*
X17062086Y-12293031D01*
X17062086Y-12293031D02*
X17071610Y-12283508D01*
X17071610Y-12283508D02*
X17062086Y-12273984D01*
X17062086Y-12273984D02*
X17062086Y-12293031D01*
X17185896Y-12473984D02*
X17166848Y-12464460D01*
X17166848Y-12464460D02*
X17157324Y-12445412D01*
X17157324Y-12445412D02*
X17157324Y-12273984D01*
X17290658Y-12473984D02*
X17271610Y-12464460D01*
X17271610Y-12464460D02*
X17262086Y-12445412D01*
X17262086Y-12445412D02*
X17262086Y-12273984D01*
X17519229Y-12473984D02*
X17519229Y-12273984D01*
X17519229Y-12273984D02*
X17585896Y-12416841D01*
X17585896Y-12416841D02*
X17652563Y-12273984D01*
X17652563Y-12273984D02*
X17652563Y-12473984D01*
X17833515Y-12473984D02*
X17833515Y-12369222D01*
X17833515Y-12369222D02*
X17823991Y-12350174D01*
X17823991Y-12350174D02*
X17804944Y-12340650D01*
X17804944Y-12340650D02*
X17766848Y-12340650D01*
X17766848Y-12340650D02*
X17747801Y-12350174D01*
X17833515Y-12464460D02*
X17814467Y-12473984D01*
X17814467Y-12473984D02*
X17766848Y-12473984D01*
X17766848Y-12473984D02*
X17747801Y-12464460D01*
X17747801Y-12464460D02*
X17738277Y-12445412D01*
X17738277Y-12445412D02*
X17738277Y-12426365D01*
X17738277Y-12426365D02*
X17747801Y-12407317D01*
X17747801Y-12407317D02*
X17766848Y-12397793D01*
X17766848Y-12397793D02*
X17814467Y-12397793D01*
X17814467Y-12397793D02*
X17833515Y-12388269D01*
X17928753Y-12340650D02*
X17928753Y-12540650D01*
X17928753Y-12350174D02*
X17947801Y-12340650D01*
X17947801Y-12340650D02*
X17985896Y-12340650D01*
X17985896Y-12340650D02*
X18004944Y-12350174D01*
X18004944Y-12350174D02*
X18014467Y-12359698D01*
X18014467Y-12359698D02*
X18023991Y-12378746D01*
X18023991Y-12378746D02*
X18023991Y-12435888D01*
X18023991Y-12435888D02*
X18014467Y-12454936D01*
X18014467Y-12454936D02*
X18004944Y-12464460D01*
X18004944Y-12464460D02*
X17985896Y-12473984D01*
X17985896Y-12473984D02*
X17947801Y-12473984D01*
X17947801Y-12473984D02*
X17928753Y-12464460D01*
X18109705Y-12454936D02*
X18119229Y-12464460D01*
X18119229Y-12464460D02*
X18109705Y-12473984D01*
X18109705Y-12473984D02*
X18100182Y-12464460D01*
X18100182Y-12464460D02*
X18109705Y-12454936D01*
X18109705Y-12454936D02*
X18109705Y-12473984D01*
X18109705Y-12350174D02*
X18119229Y-12359698D01*
X18119229Y-12359698D02*
X18109705Y-12369222D01*
X18109705Y-12369222D02*
X18100182Y-12359698D01*
X18100182Y-12359698D02*
X18109705Y-12350174D01*
X18109705Y-12350174D02*
X18109705Y-12369222D01*
D12*
X16427500Y-12777500D02*
X16477500Y-12827500D01*
X16477500Y-12777500D02*
X16427500Y-12827500D01*
D11*
X16776372Y-12693984D02*
X16795420Y-12693984D01*
X16795420Y-12693984D02*
X16814467Y-12703508D01*
X16814467Y-12703508D02*
X16823991Y-12713031D01*
X16823991Y-12713031D02*
X16833515Y-12732079D01*
X16833515Y-12732079D02*
X16843039Y-12770174D01*
X16843039Y-12770174D02*
X16843039Y-12817793D01*
X16843039Y-12817793D02*
X16833515Y-12855888D01*
X16833515Y-12855888D02*
X16823991Y-12874936D01*
X16823991Y-12874936D02*
X16814467Y-12884460D01*
X16814467Y-12884460D02*
X16795420Y-12893984D01*
X16795420Y-12893984D02*
X16776372Y-12893984D01*
X16776372Y-12893984D02*
X16757324Y-12884460D01*
X16757324Y-12884460D02*
X16747801Y-12874936D01*
X16747801Y-12874936D02*
X16738277Y-12855888D01*
X16738277Y-12855888D02*
X16728753Y-12817793D01*
X16728753Y-12817793D02*
X16728753Y-12770174D01*
X16728753Y-12770174D02*
X16738277Y-12732079D01*
X16738277Y-12732079D02*
X16747801Y-12713031D01*
X16747801Y-12713031D02*
X16757324Y-12703508D01*
X16757324Y-12703508D02*
X16776372Y-12693984D01*
X16928753Y-12874936D02*
X16938277Y-12884460D01*
X16938277Y-12884460D02*
X16928753Y-12893984D01*
X16928753Y-12893984D02*
X16919229Y-12884460D01*
X16919229Y-12884460D02*
X16928753Y-12874936D01*
X16928753Y-12874936D02*
X16928753Y-12893984D01*
X17119229Y-12693984D02*
X17023991Y-12693984D01*
X17023991Y-12693984D02*
X17014467Y-12789222D01*
X17014467Y-12789222D02*
X17023991Y-12779698D01*
X17023991Y-12779698D02*
X17043039Y-12770174D01*
X17043039Y-12770174D02*
X17090658Y-12770174D01*
X17090658Y-12770174D02*
X17109705Y-12779698D01*
X17109705Y-12779698D02*
X17119229Y-12789222D01*
X17119229Y-12789222D02*
X17128753Y-12808269D01*
X17128753Y-12808269D02*
X17128753Y-12855888D01*
X17128753Y-12855888D02*
X17119229Y-12874936D01*
X17119229Y-12874936D02*
X17109705Y-12884460D01*
X17109705Y-12884460D02*
X17090658Y-12893984D01*
X17090658Y-12893984D02*
X17043039Y-12893984D01*
X17043039Y-12893984D02*
X17023991Y-12884460D01*
X17023991Y-12884460D02*
X17014467Y-12874936D01*
X17252563Y-12693984D02*
X17271610Y-12693984D01*
X17271610Y-12693984D02*
X17290658Y-12703508D01*
X17290658Y-12703508D02*
X17300182Y-12713031D01*
X17300182Y-12713031D02*
X17309705Y-12732079D01*
X17309705Y-12732079D02*
X17319229Y-12770174D01*
X17319229Y-12770174D02*
X17319229Y-12817793D01*
X17319229Y-12817793D02*
X17309705Y-12855888D01*
X17309705Y-12855888D02*
X17300182Y-12874936D01*
X17300182Y-12874936D02*
X17290658Y-12884460D01*
X17290658Y-12884460D02*
X17271610Y-12893984D01*
X17271610Y-12893984D02*
X17252563Y-12893984D01*
X17252563Y-12893984D02*
X17233515Y-12884460D01*
X17233515Y-12884460D02*
X17223991Y-12874936D01*
X17223991Y-12874936D02*
X17214467Y-12855888D01*
X17214467Y-12855888D02*
X17204944Y-12817793D01*
X17204944Y-12817793D02*
X17204944Y-12770174D01*
X17204944Y-12770174D02*
X17214467Y-12732079D01*
X17214467Y-12732079D02*
X17223991Y-12713031D01*
X17223991Y-12713031D02*
X17233515Y-12703508D01*
X17233515Y-12703508D02*
X17252563Y-12693984D01*
X17443039Y-12693984D02*
X17462086Y-12693984D01*
X17462086Y-12693984D02*
X17481134Y-12703508D01*
X17481134Y-12703508D02*
X17490658Y-12713031D01*
X17490658Y-12713031D02*
X17500182Y-12732079D01*
X17500182Y-12732079D02*
X17509705Y-12770174D01*
X17509705Y-12770174D02*
X17509705Y-12817793D01*
X17509705Y-12817793D02*
X17500182Y-12855888D01*
X17500182Y-12855888D02*
X17490658Y-12874936D01*
X17490658Y-12874936D02*
X17481134Y-12884460D01*
X17481134Y-12884460D02*
X17462086Y-12893984D01*
X17462086Y-12893984D02*
X17443039Y-12893984D01*
X17443039Y-12893984D02*
X17423991Y-12884460D01*
X17423991Y-12884460D02*
X17414467Y-12874936D01*
X17414467Y-12874936D02*
X17404944Y-12855888D01*
X17404944Y-12855888D02*
X17395420Y-12817793D01*
X17395420Y-12817793D02*
X17395420Y-12770174D01*
X17395420Y-12770174D02*
X17404944Y-12732079D01*
X17404944Y-12732079D02*
X17414467Y-12713031D01*
X17414467Y-12713031D02*
X17423991Y-12703508D01*
X17423991Y-12703508D02*
X17443039Y-12693984D01*
X17595420Y-12893984D02*
X17595420Y-12760650D01*
X17595420Y-12779698D02*
X17604944Y-12770174D01*
X17604944Y-12770174D02*
X17623991Y-12760650D01*
X17623991Y-12760650D02*
X17652563Y-12760650D01*
X17652563Y-12760650D02*
X17671610Y-12770174D01*
X17671610Y-12770174D02*
X17681134Y-12789222D01*
X17681134Y-12789222D02*
X17681134Y-12893984D01*
X17681134Y-12789222D02*
X17690658Y-12770174D01*
X17690658Y-12770174D02*
X17709705Y-12760650D01*
X17709705Y-12760650D02*
X17738277Y-12760650D01*
X17738277Y-12760650D02*
X17757325Y-12770174D01*
X17757325Y-12770174D02*
X17766848Y-12789222D01*
X17766848Y-12789222D02*
X17766848Y-12893984D01*
X17862086Y-12893984D02*
X17862086Y-12760650D01*
X17862086Y-12779698D02*
X17871610Y-12770174D01*
X17871610Y-12770174D02*
X17890658Y-12760650D01*
X17890658Y-12760650D02*
X17919229Y-12760650D01*
X17919229Y-12760650D02*
X17938277Y-12770174D01*
X17938277Y-12770174D02*
X17947801Y-12789222D01*
X17947801Y-12789222D02*
X17947801Y-12893984D01*
X17947801Y-12789222D02*
X17957325Y-12770174D01*
X17957325Y-12770174D02*
X17976372Y-12760650D01*
X17976372Y-12760650D02*
X18004944Y-12760650D01*
X18004944Y-12760650D02*
X18023991Y-12770174D01*
X18023991Y-12770174D02*
X18033515Y-12789222D01*
X18033515Y-12789222D02*
X18033515Y-12893984D01*
X18423991Y-12684460D02*
X18252563Y-12941603D01*
X18681134Y-12693984D02*
X18700182Y-12693984D01*
X18700182Y-12693984D02*
X18719229Y-12703508D01*
X18719229Y-12703508D02*
X18728753Y-12713031D01*
X18728753Y-12713031D02*
X18738277Y-12732079D01*
X18738277Y-12732079D02*
X18747801Y-12770174D01*
X18747801Y-12770174D02*
X18747801Y-12817793D01*
X18747801Y-12817793D02*
X18738277Y-12855888D01*
X18738277Y-12855888D02*
X18728753Y-12874936D01*
X18728753Y-12874936D02*
X18719229Y-12884460D01*
X18719229Y-12884460D02*
X18700182Y-12893984D01*
X18700182Y-12893984D02*
X18681134Y-12893984D01*
X18681134Y-12893984D02*
X18662087Y-12884460D01*
X18662087Y-12884460D02*
X18652563Y-12874936D01*
X18652563Y-12874936D02*
X18643039Y-12855888D01*
X18643039Y-12855888D02*
X18633515Y-12817793D01*
X18633515Y-12817793D02*
X18633515Y-12770174D01*
X18633515Y-12770174D02*
X18643039Y-12732079D01*
X18643039Y-12732079D02*
X18652563Y-12713031D01*
X18652563Y-12713031D02*
X18662087Y-12703508D01*
X18662087Y-12703508D02*
X18681134Y-12693984D01*
X18833515Y-12874936D02*
X18843039Y-12884460D01*
X18843039Y-12884460D02*
X18833515Y-12893984D01*
X18833515Y-12893984D02*
X18823991Y-12884460D01*
X18823991Y-12884460D02*
X18833515Y-12874936D01*
X18833515Y-12874936D02*
X18833515Y-12893984D01*
X18966848Y-12693984D02*
X18985896Y-12693984D01*
X18985896Y-12693984D02*
X19004944Y-12703508D01*
X19004944Y-12703508D02*
X19014468Y-12713031D01*
X19014468Y-12713031D02*
X19023991Y-12732079D01*
X19023991Y-12732079D02*
X19033515Y-12770174D01*
X19033515Y-12770174D02*
X19033515Y-12817793D01*
X19033515Y-12817793D02*
X19023991Y-12855888D01*
X19023991Y-12855888D02*
X19014468Y-12874936D01*
X19014468Y-12874936D02*
X19004944Y-12884460D01*
X19004944Y-12884460D02*
X18985896Y-12893984D01*
X18985896Y-12893984D02*
X18966848Y-12893984D01*
X18966848Y-12893984D02*
X18947801Y-12884460D01*
X18947801Y-12884460D02*
X18938277Y-12874936D01*
X18938277Y-12874936D02*
X18928753Y-12855888D01*
X18928753Y-12855888D02*
X18919229Y-12817793D01*
X18919229Y-12817793D02*
X18919229Y-12770174D01*
X18919229Y-12770174D02*
X18928753Y-12732079D01*
X18928753Y-12732079D02*
X18938277Y-12713031D01*
X18938277Y-12713031D02*
X18947801Y-12703508D01*
X18947801Y-12703508D02*
X18966848Y-12693984D01*
X19223991Y-12893984D02*
X19109706Y-12893984D01*
X19166848Y-12893984D02*
X19166848Y-12693984D01*
X19166848Y-12693984D02*
X19147801Y-12722555D01*
X19147801Y-12722555D02*
X19128753Y-12741603D01*
X19128753Y-12741603D02*
X19109706Y-12751127D01*
X19319229Y-12893984D02*
X19357325Y-12893984D01*
X19357325Y-12893984D02*
X19376372Y-12884460D01*
X19376372Y-12884460D02*
X19385896Y-12874936D01*
X19385896Y-12874936D02*
X19404944Y-12846365D01*
X19404944Y-12846365D02*
X19414468Y-12808269D01*
X19414468Y-12808269D02*
X19414468Y-12732079D01*
X19414468Y-12732079D02*
X19404944Y-12713031D01*
X19404944Y-12713031D02*
X19395420Y-12703508D01*
X19395420Y-12703508D02*
X19376372Y-12693984D01*
X19376372Y-12693984D02*
X19338277Y-12693984D01*
X19338277Y-12693984D02*
X19319229Y-12703508D01*
X19319229Y-12703508D02*
X19309706Y-12713031D01*
X19309706Y-12713031D02*
X19300182Y-12732079D01*
X19300182Y-12732079D02*
X19300182Y-12779698D01*
X19300182Y-12779698D02*
X19309706Y-12798746D01*
X19309706Y-12798746D02*
X19319229Y-12808269D01*
X19319229Y-12808269D02*
X19338277Y-12817793D01*
X19338277Y-12817793D02*
X19376372Y-12817793D01*
X19376372Y-12817793D02*
X19395420Y-12808269D01*
X19395420Y-12808269D02*
X19404944Y-12798746D01*
X19404944Y-12798746D02*
X19414468Y-12779698D01*
X19481134Y-12693984D02*
X19614468Y-12693984D01*
X19614468Y-12693984D02*
X19528753Y-12893984D01*
X19681134Y-12693984D02*
X19681134Y-12732079D01*
X19757325Y-12693984D02*
X19757325Y-12732079D01*
X20052563Y-12970174D02*
X20043039Y-12960650D01*
X20043039Y-12960650D02*
X20023991Y-12932079D01*
X20023991Y-12932079D02*
X20014468Y-12913031D01*
X20014468Y-12913031D02*
X20004944Y-12884460D01*
X20004944Y-12884460D02*
X19995420Y-12836841D01*
X19995420Y-12836841D02*
X19995420Y-12798746D01*
X19995420Y-12798746D02*
X20004944Y-12751127D01*
X20004944Y-12751127D02*
X20014468Y-12722555D01*
X20014468Y-12722555D02*
X20023991Y-12703508D01*
X20023991Y-12703508D02*
X20043039Y-12674936D01*
X20043039Y-12674936D02*
X20052563Y-12665412D01*
X20119230Y-12713031D02*
X20128753Y-12703508D01*
X20128753Y-12703508D02*
X20147801Y-12693984D01*
X20147801Y-12693984D02*
X20195420Y-12693984D01*
X20195420Y-12693984D02*
X20214468Y-12703508D01*
X20214468Y-12703508D02*
X20223991Y-12713031D01*
X20223991Y-12713031D02*
X20233515Y-12732079D01*
X20233515Y-12732079D02*
X20233515Y-12751127D01*
X20233515Y-12751127D02*
X20223991Y-12779698D01*
X20223991Y-12779698D02*
X20109706Y-12893984D01*
X20109706Y-12893984D02*
X20233515Y-12893984D01*
X20471611Y-12893984D02*
X20471611Y-12693984D01*
X20557325Y-12893984D02*
X20557325Y-12789222D01*
X20557325Y-12789222D02*
X20547801Y-12770174D01*
X20547801Y-12770174D02*
X20528753Y-12760650D01*
X20528753Y-12760650D02*
X20500182Y-12760650D01*
X20500182Y-12760650D02*
X20481134Y-12770174D01*
X20481134Y-12770174D02*
X20471611Y-12779698D01*
X20681134Y-12893984D02*
X20662087Y-12884460D01*
X20662087Y-12884460D02*
X20652563Y-12874936D01*
X20652563Y-12874936D02*
X20643039Y-12855888D01*
X20643039Y-12855888D02*
X20643039Y-12798746D01*
X20643039Y-12798746D02*
X20652563Y-12779698D01*
X20652563Y-12779698D02*
X20662087Y-12770174D01*
X20662087Y-12770174D02*
X20681134Y-12760650D01*
X20681134Y-12760650D02*
X20709706Y-12760650D01*
X20709706Y-12760650D02*
X20728753Y-12770174D01*
X20728753Y-12770174D02*
X20738277Y-12779698D01*
X20738277Y-12779698D02*
X20747801Y-12798746D01*
X20747801Y-12798746D02*
X20747801Y-12855888D01*
X20747801Y-12855888D02*
X20738277Y-12874936D01*
X20738277Y-12874936D02*
X20728753Y-12884460D01*
X20728753Y-12884460D02*
X20709706Y-12893984D01*
X20709706Y-12893984D02*
X20681134Y-12893984D01*
X20862087Y-12893984D02*
X20843039Y-12884460D01*
X20843039Y-12884460D02*
X20833515Y-12865412D01*
X20833515Y-12865412D02*
X20833515Y-12693984D01*
X21014468Y-12884460D02*
X20995420Y-12893984D01*
X20995420Y-12893984D02*
X20957325Y-12893984D01*
X20957325Y-12893984D02*
X20938277Y-12884460D01*
X20938277Y-12884460D02*
X20928753Y-12865412D01*
X20928753Y-12865412D02*
X20928753Y-12789222D01*
X20928753Y-12789222D02*
X20938277Y-12770174D01*
X20938277Y-12770174D02*
X20957325Y-12760650D01*
X20957325Y-12760650D02*
X20995420Y-12760650D01*
X20995420Y-12760650D02*
X21014468Y-12770174D01*
X21014468Y-12770174D02*
X21023992Y-12789222D01*
X21023992Y-12789222D02*
X21023992Y-12808269D01*
X21023992Y-12808269D02*
X20928753Y-12827317D01*
X21100182Y-12884460D02*
X21119230Y-12893984D01*
X21119230Y-12893984D02*
X21157325Y-12893984D01*
X21157325Y-12893984D02*
X21176373Y-12884460D01*
X21176373Y-12884460D02*
X21185896Y-12865412D01*
X21185896Y-12865412D02*
X21185896Y-12855888D01*
X21185896Y-12855888D02*
X21176373Y-12836841D01*
X21176373Y-12836841D02*
X21157325Y-12827317D01*
X21157325Y-12827317D02*
X21128753Y-12827317D01*
X21128753Y-12827317D02*
X21109706Y-12817793D01*
X21109706Y-12817793D02*
X21100182Y-12798746D01*
X21100182Y-12798746D02*
X21100182Y-12789222D01*
X21100182Y-12789222D02*
X21109706Y-12770174D01*
X21109706Y-12770174D02*
X21128753Y-12760650D01*
X21128753Y-12760650D02*
X21157325Y-12760650D01*
X21157325Y-12760650D02*
X21176373Y-12770174D01*
X21252563Y-12970174D02*
X21262087Y-12960650D01*
X21262087Y-12960650D02*
X21281134Y-12932079D01*
X21281134Y-12932079D02*
X21290658Y-12913031D01*
X21290658Y-12913031D02*
X21300182Y-12884460D01*
X21300182Y-12884460D02*
X21309706Y-12836841D01*
X21309706Y-12836841D02*
X21309706Y-12798746D01*
X21309706Y-12798746D02*
X21300182Y-12751127D01*
X21300182Y-12751127D02*
X21290658Y-12722555D01*
X21290658Y-12722555D02*
X21281134Y-12703508D01*
X21281134Y-12703508D02*
X21262087Y-12674936D01*
X21262087Y-12674936D02*
X21252563Y-12665412D01*
X21614468Y-12970174D02*
X21604944Y-12960650D01*
X21604944Y-12960650D02*
X21585896Y-12932079D01*
X21585896Y-12932079D02*
X21576373Y-12913031D01*
X21576373Y-12913031D02*
X21566849Y-12884460D01*
X21566849Y-12884460D02*
X21557325Y-12836841D01*
X21557325Y-12836841D02*
X21557325Y-12798746D01*
X21557325Y-12798746D02*
X21566849Y-12751127D01*
X21566849Y-12751127D02*
X21576373Y-12722555D01*
X21576373Y-12722555D02*
X21585896Y-12703508D01*
X21585896Y-12703508D02*
X21604944Y-12674936D01*
X21604944Y-12674936D02*
X21614468Y-12665412D01*
X21690658Y-12760650D02*
X21690658Y-12893984D01*
X21690658Y-12779698D02*
X21700182Y-12770174D01*
X21700182Y-12770174D02*
X21719230Y-12760650D01*
X21719230Y-12760650D02*
X21747801Y-12760650D01*
X21747801Y-12760650D02*
X21766849Y-12770174D01*
X21766849Y-12770174D02*
X21776373Y-12789222D01*
X21776373Y-12789222D02*
X21776373Y-12893984D01*
X21900182Y-12893984D02*
X21881134Y-12884460D01*
X21881134Y-12884460D02*
X21871611Y-12874936D01*
X21871611Y-12874936D02*
X21862087Y-12855888D01*
X21862087Y-12855888D02*
X21862087Y-12798746D01*
X21862087Y-12798746D02*
X21871611Y-12779698D01*
X21871611Y-12779698D02*
X21881134Y-12770174D01*
X21881134Y-12770174D02*
X21900182Y-12760650D01*
X21900182Y-12760650D02*
X21928754Y-12760650D01*
X21928754Y-12760650D02*
X21947801Y-12770174D01*
X21947801Y-12770174D02*
X21957325Y-12779698D01*
X21957325Y-12779698D02*
X21966849Y-12798746D01*
X21966849Y-12798746D02*
X21966849Y-12855888D01*
X21966849Y-12855888D02*
X21957325Y-12874936D01*
X21957325Y-12874936D02*
X21947801Y-12884460D01*
X21947801Y-12884460D02*
X21928754Y-12893984D01*
X21928754Y-12893984D02*
X21900182Y-12893984D01*
X22023992Y-12760650D02*
X22100182Y-12760650D01*
X22052563Y-12693984D02*
X22052563Y-12865412D01*
X22052563Y-12865412D02*
X22062087Y-12884460D01*
X22062087Y-12884460D02*
X22081134Y-12893984D01*
X22081134Y-12893984D02*
X22100182Y-12893984D01*
X22319230Y-12760650D02*
X22319230Y-12960650D01*
X22319230Y-12770174D02*
X22338277Y-12760650D01*
X22338277Y-12760650D02*
X22376373Y-12760650D01*
X22376373Y-12760650D02*
X22395420Y-12770174D01*
X22395420Y-12770174D02*
X22404944Y-12779698D01*
X22404944Y-12779698D02*
X22414468Y-12798746D01*
X22414468Y-12798746D02*
X22414468Y-12855888D01*
X22414468Y-12855888D02*
X22404944Y-12874936D01*
X22404944Y-12874936D02*
X22395420Y-12884460D01*
X22395420Y-12884460D02*
X22376373Y-12893984D01*
X22376373Y-12893984D02*
X22338277Y-12893984D01*
X22338277Y-12893984D02*
X22319230Y-12884460D01*
X22528753Y-12893984D02*
X22509706Y-12884460D01*
X22509706Y-12884460D02*
X22500182Y-12865412D01*
X22500182Y-12865412D02*
X22500182Y-12693984D01*
X22690658Y-12893984D02*
X22690658Y-12789222D01*
X22690658Y-12789222D02*
X22681134Y-12770174D01*
X22681134Y-12770174D02*
X22662087Y-12760650D01*
X22662087Y-12760650D02*
X22623992Y-12760650D01*
X22623992Y-12760650D02*
X22604944Y-12770174D01*
X22690658Y-12884460D02*
X22671611Y-12893984D01*
X22671611Y-12893984D02*
X22623992Y-12893984D01*
X22623992Y-12893984D02*
X22604944Y-12884460D01*
X22604944Y-12884460D02*
X22595420Y-12865412D01*
X22595420Y-12865412D02*
X22595420Y-12846365D01*
X22595420Y-12846365D02*
X22604944Y-12827317D01*
X22604944Y-12827317D02*
X22623992Y-12817793D01*
X22623992Y-12817793D02*
X22671611Y-12817793D01*
X22671611Y-12817793D02*
X22690658Y-12808269D01*
X22757325Y-12760650D02*
X22833515Y-12760650D01*
X22785896Y-12693984D02*
X22785896Y-12865412D01*
X22785896Y-12865412D02*
X22795420Y-12884460D01*
X22795420Y-12884460D02*
X22814468Y-12893984D01*
X22814468Y-12893984D02*
X22833515Y-12893984D01*
X22976373Y-12884460D02*
X22957325Y-12893984D01*
X22957325Y-12893984D02*
X22919230Y-12893984D01*
X22919230Y-12893984D02*
X22900182Y-12884460D01*
X22900182Y-12884460D02*
X22890658Y-12865412D01*
X22890658Y-12865412D02*
X22890658Y-12789222D01*
X22890658Y-12789222D02*
X22900182Y-12770174D01*
X22900182Y-12770174D02*
X22919230Y-12760650D01*
X22919230Y-12760650D02*
X22957325Y-12760650D01*
X22957325Y-12760650D02*
X22976373Y-12770174D01*
X22976373Y-12770174D02*
X22985896Y-12789222D01*
X22985896Y-12789222D02*
X22985896Y-12808269D01*
X22985896Y-12808269D02*
X22890658Y-12827317D01*
X23157325Y-12893984D02*
X23157325Y-12693984D01*
X23157325Y-12884460D02*
X23138277Y-12893984D01*
X23138277Y-12893984D02*
X23100182Y-12893984D01*
X23100182Y-12893984D02*
X23081134Y-12884460D01*
X23081134Y-12884460D02*
X23071611Y-12874936D01*
X23071611Y-12874936D02*
X23062087Y-12855888D01*
X23062087Y-12855888D02*
X23062087Y-12798746D01*
X23062087Y-12798746D02*
X23071611Y-12779698D01*
X23071611Y-12779698D02*
X23081134Y-12770174D01*
X23081134Y-12770174D02*
X23100182Y-12760650D01*
X23100182Y-12760650D02*
X23138277Y-12760650D01*
X23138277Y-12760650D02*
X23157325Y-12770174D01*
X23233515Y-12970174D02*
X23243039Y-12960650D01*
X23243039Y-12960650D02*
X23262087Y-12932079D01*
X23262087Y-12932079D02*
X23271611Y-12913031D01*
X23271611Y-12913031D02*
X23281134Y-12884460D01*
X23281134Y-12884460D02*
X23290658Y-12836841D01*
X23290658Y-12836841D02*
X23290658Y-12798746D01*
X23290658Y-12798746D02*
X23281134Y-12751127D01*
X23281134Y-12751127D02*
X23271611Y-12722555D01*
X23271611Y-12722555D02*
X23262087Y-12703508D01*
X23262087Y-12703508D02*
X23243039Y-12674936D01*
X23243039Y-12674936D02*
X23233515Y-12665412D01*
X16477500Y-13066500D02*
G75*
G02*
X16277500Y-13066500I-100000J0D01*
G01*
X16277500Y-13066500D02*
G75*
G02*
X16477500Y-13066500I100000J0D01*
G01*
X16719229Y-12957984D02*
X16843039Y-12957984D01*
X16843039Y-12957984D02*
X16776372Y-13034174D01*
X16776372Y-13034174D02*
X16804944Y-13034174D01*
X16804944Y-13034174D02*
X16823991Y-13043698D01*
X16823991Y-13043698D02*
X16833515Y-13053222D01*
X16833515Y-13053222D02*
X16843039Y-13072269D01*
X16843039Y-13072269D02*
X16843039Y-13119888D01*
X16843039Y-13119888D02*
X16833515Y-13138936D01*
X16833515Y-13138936D02*
X16823991Y-13148460D01*
X16823991Y-13148460D02*
X16804944Y-13157984D01*
X16804944Y-13157984D02*
X16747801Y-13157984D01*
X16747801Y-13157984D02*
X16728753Y-13148460D01*
X16728753Y-13148460D02*
X16719229Y-13138936D01*
X16928753Y-13138936D02*
X16938277Y-13148460D01*
X16938277Y-13148460D02*
X16928753Y-13157984D01*
X16928753Y-13157984D02*
X16919229Y-13148460D01*
X16919229Y-13148460D02*
X16928753Y-13138936D01*
X16928753Y-13138936D02*
X16928753Y-13157984D01*
X17014467Y-12977031D02*
X17023991Y-12967508D01*
X17023991Y-12967508D02*
X17043039Y-12957984D01*
X17043039Y-12957984D02*
X17090658Y-12957984D01*
X17090658Y-12957984D02*
X17109705Y-12967508D01*
X17109705Y-12967508D02*
X17119229Y-12977031D01*
X17119229Y-12977031D02*
X17128753Y-12996079D01*
X17128753Y-12996079D02*
X17128753Y-13015127D01*
X17128753Y-13015127D02*
X17119229Y-13043698D01*
X17119229Y-13043698D02*
X17004944Y-13157984D01*
X17004944Y-13157984D02*
X17128753Y-13157984D01*
X17309705Y-12957984D02*
X17214467Y-12957984D01*
X17214467Y-12957984D02*
X17204944Y-13053222D01*
X17204944Y-13053222D02*
X17214467Y-13043698D01*
X17214467Y-13043698D02*
X17233515Y-13034174D01*
X17233515Y-13034174D02*
X17281134Y-13034174D01*
X17281134Y-13034174D02*
X17300182Y-13043698D01*
X17300182Y-13043698D02*
X17309705Y-13053222D01*
X17309705Y-13053222D02*
X17319229Y-13072269D01*
X17319229Y-13072269D02*
X17319229Y-13119888D01*
X17319229Y-13119888D02*
X17309705Y-13138936D01*
X17309705Y-13138936D02*
X17300182Y-13148460D01*
X17300182Y-13148460D02*
X17281134Y-13157984D01*
X17281134Y-13157984D02*
X17233515Y-13157984D01*
X17233515Y-13157984D02*
X17214467Y-13148460D01*
X17214467Y-13148460D02*
X17204944Y-13138936D01*
X17443039Y-12957984D02*
X17462086Y-12957984D01*
X17462086Y-12957984D02*
X17481134Y-12967508D01*
X17481134Y-12967508D02*
X17490658Y-12977031D01*
X17490658Y-12977031D02*
X17500182Y-12996079D01*
X17500182Y-12996079D02*
X17509705Y-13034174D01*
X17509705Y-13034174D02*
X17509705Y-13081793D01*
X17509705Y-13081793D02*
X17500182Y-13119888D01*
X17500182Y-13119888D02*
X17490658Y-13138936D01*
X17490658Y-13138936D02*
X17481134Y-13148460D01*
X17481134Y-13148460D02*
X17462086Y-13157984D01*
X17462086Y-13157984D02*
X17443039Y-13157984D01*
X17443039Y-13157984D02*
X17423991Y-13148460D01*
X17423991Y-13148460D02*
X17414467Y-13138936D01*
X17414467Y-13138936D02*
X17404944Y-13119888D01*
X17404944Y-13119888D02*
X17395420Y-13081793D01*
X17395420Y-13081793D02*
X17395420Y-13034174D01*
X17395420Y-13034174D02*
X17404944Y-12996079D01*
X17404944Y-12996079D02*
X17414467Y-12977031D01*
X17414467Y-12977031D02*
X17423991Y-12967508D01*
X17423991Y-12967508D02*
X17443039Y-12957984D01*
X17595420Y-13157984D02*
X17595420Y-13024650D01*
X17595420Y-13043698D02*
X17604944Y-13034174D01*
X17604944Y-13034174D02*
X17623991Y-13024650D01*
X17623991Y-13024650D02*
X17652563Y-13024650D01*
X17652563Y-13024650D02*
X17671610Y-13034174D01*
X17671610Y-13034174D02*
X17681134Y-13053222D01*
X17681134Y-13053222D02*
X17681134Y-13157984D01*
X17681134Y-13053222D02*
X17690658Y-13034174D01*
X17690658Y-13034174D02*
X17709705Y-13024650D01*
X17709705Y-13024650D02*
X17738277Y-13024650D01*
X17738277Y-13024650D02*
X17757325Y-13034174D01*
X17757325Y-13034174D02*
X17766848Y-13053222D01*
X17766848Y-13053222D02*
X17766848Y-13157984D01*
X17862086Y-13157984D02*
X17862086Y-13024650D01*
X17862086Y-13043698D02*
X17871610Y-13034174D01*
X17871610Y-13034174D02*
X17890658Y-13024650D01*
X17890658Y-13024650D02*
X17919229Y-13024650D01*
X17919229Y-13024650D02*
X17938277Y-13034174D01*
X17938277Y-13034174D02*
X17947801Y-13053222D01*
X17947801Y-13053222D02*
X17947801Y-13157984D01*
X17947801Y-13053222D02*
X17957325Y-13034174D01*
X17957325Y-13034174D02*
X17976372Y-13024650D01*
X17976372Y-13024650D02*
X18004944Y-13024650D01*
X18004944Y-13024650D02*
X18023991Y-13034174D01*
X18023991Y-13034174D02*
X18033515Y-13053222D01*
X18033515Y-13053222D02*
X18033515Y-13157984D01*
X18423991Y-12948460D02*
X18252563Y-13205603D01*
X18681134Y-12957984D02*
X18700182Y-12957984D01*
X18700182Y-12957984D02*
X18719229Y-12967508D01*
X18719229Y-12967508D02*
X18728753Y-12977031D01*
X18728753Y-12977031D02*
X18738277Y-12996079D01*
X18738277Y-12996079D02*
X18747801Y-13034174D01*
X18747801Y-13034174D02*
X18747801Y-13081793D01*
X18747801Y-13081793D02*
X18738277Y-13119888D01*
X18738277Y-13119888D02*
X18728753Y-13138936D01*
X18728753Y-13138936D02*
X18719229Y-13148460D01*
X18719229Y-13148460D02*
X18700182Y-13157984D01*
X18700182Y-13157984D02*
X18681134Y-13157984D01*
X18681134Y-13157984D02*
X18662087Y-13148460D01*
X18662087Y-13148460D02*
X18652563Y-13138936D01*
X18652563Y-13138936D02*
X18643039Y-13119888D01*
X18643039Y-13119888D02*
X18633515Y-13081793D01*
X18633515Y-13081793D02*
X18633515Y-13034174D01*
X18633515Y-13034174D02*
X18643039Y-12996079D01*
X18643039Y-12996079D02*
X18652563Y-12977031D01*
X18652563Y-12977031D02*
X18662087Y-12967508D01*
X18662087Y-12967508D02*
X18681134Y-12957984D01*
X18833515Y-13138936D02*
X18843039Y-13148460D01*
X18843039Y-13148460D02*
X18833515Y-13157984D01*
X18833515Y-13157984D02*
X18823991Y-13148460D01*
X18823991Y-13148460D02*
X18833515Y-13138936D01*
X18833515Y-13138936D02*
X18833515Y-13157984D01*
X19033515Y-13157984D02*
X18919229Y-13157984D01*
X18976372Y-13157984D02*
X18976372Y-12957984D01*
X18976372Y-12957984D02*
X18957325Y-12986555D01*
X18957325Y-12986555D02*
X18938277Y-13005603D01*
X18938277Y-13005603D02*
X18919229Y-13015127D01*
X19109706Y-12977031D02*
X19119229Y-12967508D01*
X19119229Y-12967508D02*
X19138277Y-12957984D01*
X19138277Y-12957984D02*
X19185896Y-12957984D01*
X19185896Y-12957984D02*
X19204944Y-12967508D01*
X19204944Y-12967508D02*
X19214468Y-12977031D01*
X19214468Y-12977031D02*
X19223991Y-12996079D01*
X19223991Y-12996079D02*
X19223991Y-13015127D01*
X19223991Y-13015127D02*
X19214468Y-13043698D01*
X19214468Y-13043698D02*
X19100182Y-13157984D01*
X19100182Y-13157984D02*
X19223991Y-13157984D01*
X19338277Y-13043698D02*
X19319229Y-13034174D01*
X19319229Y-13034174D02*
X19309706Y-13024650D01*
X19309706Y-13024650D02*
X19300182Y-13005603D01*
X19300182Y-13005603D02*
X19300182Y-12996079D01*
X19300182Y-12996079D02*
X19309706Y-12977031D01*
X19309706Y-12977031D02*
X19319229Y-12967508D01*
X19319229Y-12967508D02*
X19338277Y-12957984D01*
X19338277Y-12957984D02*
X19376372Y-12957984D01*
X19376372Y-12957984D02*
X19395420Y-12967508D01*
X19395420Y-12967508D02*
X19404944Y-12977031D01*
X19404944Y-12977031D02*
X19414468Y-12996079D01*
X19414468Y-12996079D02*
X19414468Y-13005603D01*
X19414468Y-13005603D02*
X19404944Y-13024650D01*
X19404944Y-13024650D02*
X19395420Y-13034174D01*
X19395420Y-13034174D02*
X19376372Y-13043698D01*
X19376372Y-13043698D02*
X19338277Y-13043698D01*
X19338277Y-13043698D02*
X19319229Y-13053222D01*
X19319229Y-13053222D02*
X19309706Y-13062746D01*
X19309706Y-13062746D02*
X19300182Y-13081793D01*
X19300182Y-13081793D02*
X19300182Y-13119888D01*
X19300182Y-13119888D02*
X19309706Y-13138936D01*
X19309706Y-13138936D02*
X19319229Y-13148460D01*
X19319229Y-13148460D02*
X19338277Y-13157984D01*
X19338277Y-13157984D02*
X19376372Y-13157984D01*
X19376372Y-13157984D02*
X19395420Y-13148460D01*
X19395420Y-13148460D02*
X19404944Y-13138936D01*
X19404944Y-13138936D02*
X19414468Y-13119888D01*
X19414468Y-13119888D02*
X19414468Y-13081793D01*
X19414468Y-13081793D02*
X19404944Y-13062746D01*
X19404944Y-13062746D02*
X19395420Y-13053222D01*
X19395420Y-13053222D02*
X19376372Y-13043698D01*
X19538277Y-12957984D02*
X19557325Y-12957984D01*
X19557325Y-12957984D02*
X19576372Y-12967508D01*
X19576372Y-12967508D02*
X19585896Y-12977031D01*
X19585896Y-12977031D02*
X19595420Y-12996079D01*
X19595420Y-12996079D02*
X19604944Y-13034174D01*
X19604944Y-13034174D02*
X19604944Y-13081793D01*
X19604944Y-13081793D02*
X19595420Y-13119888D01*
X19595420Y-13119888D02*
X19585896Y-13138936D01*
X19585896Y-13138936D02*
X19576372Y-13148460D01*
X19576372Y-13148460D02*
X19557325Y-13157984D01*
X19557325Y-13157984D02*
X19538277Y-13157984D01*
X19538277Y-13157984D02*
X19519229Y-13148460D01*
X19519229Y-13148460D02*
X19509706Y-13138936D01*
X19509706Y-13138936D02*
X19500182Y-13119888D01*
X19500182Y-13119888D02*
X19490658Y-13081793D01*
X19490658Y-13081793D02*
X19490658Y-13034174D01*
X19490658Y-13034174D02*
X19500182Y-12996079D01*
X19500182Y-12996079D02*
X19509706Y-12977031D01*
X19509706Y-12977031D02*
X19519229Y-12967508D01*
X19519229Y-12967508D02*
X19538277Y-12957984D01*
X19681134Y-12957984D02*
X19681134Y-12996079D01*
X19757325Y-12957984D02*
X19757325Y-12996079D01*
X20052563Y-13234174D02*
X20043039Y-13224650D01*
X20043039Y-13224650D02*
X20023991Y-13196079D01*
X20023991Y-13196079D02*
X20014468Y-13177031D01*
X20014468Y-13177031D02*
X20004944Y-13148460D01*
X20004944Y-13148460D02*
X19995420Y-13100841D01*
X19995420Y-13100841D02*
X19995420Y-13062746D01*
X19995420Y-13062746D02*
X20004944Y-13015127D01*
X20004944Y-13015127D02*
X20014468Y-12986555D01*
X20014468Y-12986555D02*
X20023991Y-12967508D01*
X20023991Y-12967508D02*
X20043039Y-12938936D01*
X20043039Y-12938936D02*
X20052563Y-12929412D01*
X20119230Y-12977031D02*
X20128753Y-12967508D01*
X20128753Y-12967508D02*
X20147801Y-12957984D01*
X20147801Y-12957984D02*
X20195420Y-12957984D01*
X20195420Y-12957984D02*
X20214468Y-12967508D01*
X20214468Y-12967508D02*
X20223991Y-12977031D01*
X20223991Y-12977031D02*
X20233515Y-12996079D01*
X20233515Y-12996079D02*
X20233515Y-13015127D01*
X20233515Y-13015127D02*
X20223991Y-13043698D01*
X20223991Y-13043698D02*
X20109706Y-13157984D01*
X20109706Y-13157984D02*
X20233515Y-13157984D01*
X20471611Y-13157984D02*
X20471611Y-12957984D01*
X20557325Y-13157984D02*
X20557325Y-13053222D01*
X20557325Y-13053222D02*
X20547801Y-13034174D01*
X20547801Y-13034174D02*
X20528753Y-13024650D01*
X20528753Y-13024650D02*
X20500182Y-13024650D01*
X20500182Y-13024650D02*
X20481134Y-13034174D01*
X20481134Y-13034174D02*
X20471611Y-13043698D01*
X20681134Y-13157984D02*
X20662087Y-13148460D01*
X20662087Y-13148460D02*
X20652563Y-13138936D01*
X20652563Y-13138936D02*
X20643039Y-13119888D01*
X20643039Y-13119888D02*
X20643039Y-13062746D01*
X20643039Y-13062746D02*
X20652563Y-13043698D01*
X20652563Y-13043698D02*
X20662087Y-13034174D01*
X20662087Y-13034174D02*
X20681134Y-13024650D01*
X20681134Y-13024650D02*
X20709706Y-13024650D01*
X20709706Y-13024650D02*
X20728753Y-13034174D01*
X20728753Y-13034174D02*
X20738277Y-13043698D01*
X20738277Y-13043698D02*
X20747801Y-13062746D01*
X20747801Y-13062746D02*
X20747801Y-13119888D01*
X20747801Y-13119888D02*
X20738277Y-13138936D01*
X20738277Y-13138936D02*
X20728753Y-13148460D01*
X20728753Y-13148460D02*
X20709706Y-13157984D01*
X20709706Y-13157984D02*
X20681134Y-13157984D01*
X20862087Y-13157984D02*
X20843039Y-13148460D01*
X20843039Y-13148460D02*
X20833515Y-13129412D01*
X20833515Y-13129412D02*
X20833515Y-12957984D01*
X21014468Y-13148460D02*
X20995420Y-13157984D01*
X20995420Y-13157984D02*
X20957325Y-13157984D01*
X20957325Y-13157984D02*
X20938277Y-13148460D01*
X20938277Y-13148460D02*
X20928753Y-13129412D01*
X20928753Y-13129412D02*
X20928753Y-13053222D01*
X20928753Y-13053222D02*
X20938277Y-13034174D01*
X20938277Y-13034174D02*
X20957325Y-13024650D01*
X20957325Y-13024650D02*
X20995420Y-13024650D01*
X20995420Y-13024650D02*
X21014468Y-13034174D01*
X21014468Y-13034174D02*
X21023992Y-13053222D01*
X21023992Y-13053222D02*
X21023992Y-13072269D01*
X21023992Y-13072269D02*
X20928753Y-13091317D01*
X21100182Y-13148460D02*
X21119230Y-13157984D01*
X21119230Y-13157984D02*
X21157325Y-13157984D01*
X21157325Y-13157984D02*
X21176373Y-13148460D01*
X21176373Y-13148460D02*
X21185896Y-13129412D01*
X21185896Y-13129412D02*
X21185896Y-13119888D01*
X21185896Y-13119888D02*
X21176373Y-13100841D01*
X21176373Y-13100841D02*
X21157325Y-13091317D01*
X21157325Y-13091317D02*
X21128753Y-13091317D01*
X21128753Y-13091317D02*
X21109706Y-13081793D01*
X21109706Y-13081793D02*
X21100182Y-13062746D01*
X21100182Y-13062746D02*
X21100182Y-13053222D01*
X21100182Y-13053222D02*
X21109706Y-13034174D01*
X21109706Y-13034174D02*
X21128753Y-13024650D01*
X21128753Y-13024650D02*
X21157325Y-13024650D01*
X21157325Y-13024650D02*
X21176373Y-13034174D01*
X21252563Y-13234174D02*
X21262087Y-13224650D01*
X21262087Y-13224650D02*
X21281134Y-13196079D01*
X21281134Y-13196079D02*
X21290658Y-13177031D01*
X21290658Y-13177031D02*
X21300182Y-13148460D01*
X21300182Y-13148460D02*
X21309706Y-13100841D01*
X21309706Y-13100841D02*
X21309706Y-13062746D01*
X21309706Y-13062746D02*
X21300182Y-13015127D01*
X21300182Y-13015127D02*
X21290658Y-12986555D01*
X21290658Y-12986555D02*
X21281134Y-12967508D01*
X21281134Y-12967508D02*
X21262087Y-12938936D01*
X21262087Y-12938936D02*
X21252563Y-12929412D01*
X21614468Y-13234174D02*
X21604944Y-13224650D01*
X21604944Y-13224650D02*
X21585896Y-13196079D01*
X21585896Y-13196079D02*
X21576373Y-13177031D01*
X21576373Y-13177031D02*
X21566849Y-13148460D01*
X21566849Y-13148460D02*
X21557325Y-13100841D01*
X21557325Y-13100841D02*
X21557325Y-13062746D01*
X21557325Y-13062746D02*
X21566849Y-13015127D01*
X21566849Y-13015127D02*
X21576373Y-12986555D01*
X21576373Y-12986555D02*
X21585896Y-12967508D01*
X21585896Y-12967508D02*
X21604944Y-12938936D01*
X21604944Y-12938936D02*
X21614468Y-12929412D01*
X21690658Y-13024650D02*
X21690658Y-13157984D01*
X21690658Y-13043698D02*
X21700182Y-13034174D01*
X21700182Y-13034174D02*
X21719230Y-13024650D01*
X21719230Y-13024650D02*
X21747801Y-13024650D01*
X21747801Y-13024650D02*
X21766849Y-13034174D01*
X21766849Y-13034174D02*
X21776373Y-13053222D01*
X21776373Y-13053222D02*
X21776373Y-13157984D01*
X21900182Y-13157984D02*
X21881134Y-13148460D01*
X21881134Y-13148460D02*
X21871611Y-13138936D01*
X21871611Y-13138936D02*
X21862087Y-13119888D01*
X21862087Y-13119888D02*
X21862087Y-13062746D01*
X21862087Y-13062746D02*
X21871611Y-13043698D01*
X21871611Y-13043698D02*
X21881134Y-13034174D01*
X21881134Y-13034174D02*
X21900182Y-13024650D01*
X21900182Y-13024650D02*
X21928754Y-13024650D01*
X21928754Y-13024650D02*
X21947801Y-13034174D01*
X21947801Y-13034174D02*
X21957325Y-13043698D01*
X21957325Y-13043698D02*
X21966849Y-13062746D01*
X21966849Y-13062746D02*
X21966849Y-13119888D01*
X21966849Y-13119888D02*
X21957325Y-13138936D01*
X21957325Y-13138936D02*
X21947801Y-13148460D01*
X21947801Y-13148460D02*
X21928754Y-13157984D01*
X21928754Y-13157984D02*
X21900182Y-13157984D01*
X22023992Y-13024650D02*
X22100182Y-13024650D01*
X22052563Y-12957984D02*
X22052563Y-13129412D01*
X22052563Y-13129412D02*
X22062087Y-13148460D01*
X22062087Y-13148460D02*
X22081134Y-13157984D01*
X22081134Y-13157984D02*
X22100182Y-13157984D01*
X22319230Y-13024650D02*
X22319230Y-13224650D01*
X22319230Y-13034174D02*
X22338277Y-13024650D01*
X22338277Y-13024650D02*
X22376373Y-13024650D01*
X22376373Y-13024650D02*
X22395420Y-13034174D01*
X22395420Y-13034174D02*
X22404944Y-13043698D01*
X22404944Y-13043698D02*
X22414468Y-13062746D01*
X22414468Y-13062746D02*
X22414468Y-13119888D01*
X22414468Y-13119888D02*
X22404944Y-13138936D01*
X22404944Y-13138936D02*
X22395420Y-13148460D01*
X22395420Y-13148460D02*
X22376373Y-13157984D01*
X22376373Y-13157984D02*
X22338277Y-13157984D01*
X22338277Y-13157984D02*
X22319230Y-13148460D01*
X22528753Y-13157984D02*
X22509706Y-13148460D01*
X22509706Y-13148460D02*
X22500182Y-13129412D01*
X22500182Y-13129412D02*
X22500182Y-12957984D01*
X22690658Y-13157984D02*
X22690658Y-13053222D01*
X22690658Y-13053222D02*
X22681134Y-13034174D01*
X22681134Y-13034174D02*
X22662087Y-13024650D01*
X22662087Y-13024650D02*
X22623992Y-13024650D01*
X22623992Y-13024650D02*
X22604944Y-13034174D01*
X22690658Y-13148460D02*
X22671611Y-13157984D01*
X22671611Y-13157984D02*
X22623992Y-13157984D01*
X22623992Y-13157984D02*
X22604944Y-13148460D01*
X22604944Y-13148460D02*
X22595420Y-13129412D01*
X22595420Y-13129412D02*
X22595420Y-13110365D01*
X22595420Y-13110365D02*
X22604944Y-13091317D01*
X22604944Y-13091317D02*
X22623992Y-13081793D01*
X22623992Y-13081793D02*
X22671611Y-13081793D01*
X22671611Y-13081793D02*
X22690658Y-13072269D01*
X22757325Y-13024650D02*
X22833515Y-13024650D01*
X22785896Y-12957984D02*
X22785896Y-13129412D01*
X22785896Y-13129412D02*
X22795420Y-13148460D01*
X22795420Y-13148460D02*
X22814468Y-13157984D01*
X22814468Y-13157984D02*
X22833515Y-13157984D01*
X22976373Y-13148460D02*
X22957325Y-13157984D01*
X22957325Y-13157984D02*
X22919230Y-13157984D01*
X22919230Y-13157984D02*
X22900182Y-13148460D01*
X22900182Y-13148460D02*
X22890658Y-13129412D01*
X22890658Y-13129412D02*
X22890658Y-13053222D01*
X22890658Y-13053222D02*
X22900182Y-13034174D01*
X22900182Y-13034174D02*
X22919230Y-13024650D01*
X22919230Y-13024650D02*
X22957325Y-13024650D01*
X22957325Y-13024650D02*
X22976373Y-13034174D01*
X22976373Y-13034174D02*
X22985896Y-13053222D01*
X22985896Y-13053222D02*
X22985896Y-13072269D01*
X22985896Y-13072269D02*
X22890658Y-13091317D01*
X23157325Y-13157984D02*
X23157325Y-12957984D01*
X23157325Y-13148460D02*
X23138277Y-13157984D01*
X23138277Y-13157984D02*
X23100182Y-13157984D01*
X23100182Y-13157984D02*
X23081134Y-13148460D01*
X23081134Y-13148460D02*
X23071611Y-13138936D01*
X23071611Y-13138936D02*
X23062087Y-13119888D01*
X23062087Y-13119888D02*
X23062087Y-13062746D01*
X23062087Y-13062746D02*
X23071611Y-13043698D01*
X23071611Y-13043698D02*
X23081134Y-13034174D01*
X23081134Y-13034174D02*
X23100182Y-13024650D01*
X23100182Y-13024650D02*
X23138277Y-13024650D01*
X23138277Y-13024650D02*
X23157325Y-13034174D01*
X23233515Y-13234174D02*
X23243039Y-13224650D01*
X23243039Y-13224650D02*
X23262087Y-13196079D01*
X23262087Y-13196079D02*
X23271611Y-13177031D01*
X23271611Y-13177031D02*
X23281134Y-13148460D01*
X23281134Y-13148460D02*
X23290658Y-13100841D01*
X23290658Y-13100841D02*
X23290658Y-13062746D01*
X23290658Y-13062746D02*
X23281134Y-13015127D01*
X23281134Y-13015127D02*
X23271611Y-12986555D01*
X23271611Y-12986555D02*
X23262087Y-12967508D01*
X23262087Y-12967508D02*
X23243039Y-12938936D01*
X23243039Y-12938936D02*
X23233515Y-12929412D01*
M02*
