G04 #@! TF.GenerationSoftware,KiCad,Pcbnew,8.0.4*
G04 #@! TF.CreationDate,2024-09-14T16:47:45+09:00*
G04 #@! TF.ProjectId,100base-t1-converter,31303062-6173-4652-9d74-312d636f6e76,rev?*
G04 #@! TF.SameCoordinates,Original*
G04 #@! TF.FileFunction,Soldermask,Bot*
G04 #@! TF.FilePolarity,Negative*
%FSLAX46Y46*%
G04 Gerber Fmt 4.6, Leading zero omitted, Abs format (unit mm)*
G04 Created by KiCad (PCBNEW 8.0.4) date 2024-09-14 16:47:45*
%MOMM*%
%LPD*%
G01*
G04 APERTURE LIST*
G04 Aperture macros list*
%AMRoundRect*
0 Rectangle with rounded corners*
0 $1 Rounding radius*
0 $2 $3 $4 $5 $6 $7 $8 $9 X,Y pos of 4 corners*
0 Add a 4 corners polygon primitive as box body*
4,1,4,$2,$3,$4,$5,$6,$7,$8,$9,$2,$3,0*
0 Add four circle primitives for the rounded corners*
1,1,$1+$1,$2,$3*
1,1,$1+$1,$4,$5*
1,1,$1+$1,$6,$7*
1,1,$1+$1,$8,$9*
0 Add four rect primitives between the rounded corners*
20,1,$1+$1,$2,$3,$4,$5,0*
20,1,$1+$1,$4,$5,$6,$7,0*
20,1,$1+$1,$6,$7,$8,$9,0*
20,1,$1+$1,$8,$9,$2,$3,0*%
G04 Aperture macros list end*
%ADD10C,1.602000*%
%ADD11C,2.602000*%
%ADD12RoundRect,0.267534X0.533466X-0.533466X0.533466X0.533466X-0.533466X0.533466X-0.533466X-0.533466X0*%
%ADD13C,3.352000*%
%ADD14C,2.102000*%
%ADD15O,1.802000X1.802000*%
%ADD16RoundRect,0.051000X0.850000X-0.850000X0.850000X0.850000X-0.850000X0.850000X-0.850000X-0.850000X0*%
%ADD17C,0.602000*%
%ADD18RoundRect,0.051000X0.800000X-0.800000X0.800000X0.800000X-0.800000X0.800000X-0.800000X-0.800000X0*%
%ADD19O,1.702000X1.702000*%
G04 APERTURE END LIST*
D10*
G04 #@! TO.C,J5*
X246210000Y-98155000D03*
X246210000Y-95615000D03*
X246210000Y-106325000D03*
X246210000Y-108865000D03*
D11*
X238260000Y-94495000D03*
D10*
X232410000Y-97800000D03*
D11*
X238260000Y-109985000D03*
D10*
X234950000Y-99060000D03*
X232410000Y-100340000D03*
X234950000Y-101600000D03*
X232410000Y-102880000D03*
X234950000Y-104140000D03*
X232410000Y-105420000D03*
D12*
X234950000Y-106680000D03*
D13*
X241310000Y-107955000D03*
X241310000Y-96525000D03*
G04 #@! TD*
D14*
G04 #@! TO.C,J1*
X171600000Y-111100000D03*
X171600000Y-116100000D03*
G04 #@! TD*
D15*
G04 #@! TO.C,J2*
X209540000Y-118800000D03*
X207000000Y-118800000D03*
D16*
X204460000Y-118800000D03*
G04 #@! TD*
G04 #@! TO.C,J3*
X204460000Y-115000000D03*
D15*
X207000000Y-115000000D03*
X209540000Y-115000000D03*
G04 #@! TD*
D16*
G04 #@! TO.C,J4*
X228600000Y-79200000D03*
D15*
X231140000Y-79200000D03*
G04 #@! TD*
D17*
G04 #@! TO.C,J6*
X248120000Y-83420000D03*
X248120000Y-87420000D03*
G04 #@! TD*
D18*
G04 #@! TO.C,U3*
X168400000Y-88800000D03*
D19*
X216660000Y-73560000D03*
X170940000Y-88800000D03*
X214120000Y-73560000D03*
X173480000Y-88800000D03*
X211580000Y-73560000D03*
X176020000Y-88800000D03*
X209040000Y-73560000D03*
X178560000Y-88800000D03*
X206500000Y-73560000D03*
X181100000Y-88800000D03*
X203960000Y-73560000D03*
X183640000Y-88800000D03*
X201420000Y-73560000D03*
X186180000Y-88800000D03*
X198880000Y-73560000D03*
X188720000Y-88800000D03*
X196340000Y-73560000D03*
X191260000Y-88800000D03*
X193800000Y-73560000D03*
X193800000Y-88800000D03*
X191260000Y-73560000D03*
X196340000Y-88800000D03*
X188720000Y-73560000D03*
X198880000Y-88800000D03*
X186180000Y-73560000D03*
X201420000Y-88800000D03*
X183640000Y-73560000D03*
X203960000Y-88800000D03*
X181100000Y-73560000D03*
X206500000Y-88800000D03*
X178560000Y-73560000D03*
X209040000Y-88800000D03*
X176020000Y-73560000D03*
X211580000Y-88800000D03*
X173480000Y-73560000D03*
X214120000Y-88800000D03*
X170940000Y-73560000D03*
X216660000Y-88800000D03*
X168400000Y-73560000D03*
G04 #@! TD*
M02*
