%TF.GenerationSoftware,KiCad,Pcbnew,8.0.4*%
%TF.CreationDate,2024-09-14T16:47:45+09:00*%
%TF.ProjectId,100base-t1-converter,31303062-6173-4652-9d74-312d636f6e76,rev?*%
%TF.SameCoordinates,Original*%
%TF.FileFunction,Drillmap*%
%TF.FilePolarity,Positive*%
%FSLAX45Y45*%
G04 Gerber Fmt 4.5, Leading zero omitted, Abs format (unit mm)*
G04 Created by KiCad (PCBNEW 8.0.4) date 2024-09-14 16:47:45*
%MOMM*%
%LPD*%
G01*
G04 APERTURE LIST*
%ADD10C,0.050000*%
%ADD11C,0.200000*%
%ADD12C,0.100000*%
%ADD13C,0.102000*%
%ADD14C,0.120000*%
%ADD15C,0.163000*%
G04 APERTURE END LIST*
D10*
X16480000Y-12160000D02*
X25240000Y-12160000D01*
X16480000Y-7080000D02*
X16480000Y-12160000D01*
X25240000Y-7080000D02*
X16480000Y-7080000D01*
X25240000Y-12160000D02*
X25240000Y-7080000D01*
D11*
D12*
X17305000Y-10365000D02*
X17335000Y-10395000D01*
X17335000Y-10365000D02*
X17305000Y-10395000D01*
X17305000Y-10545000D02*
X17335000Y-10575000D01*
X17335000Y-10545000D02*
X17305000Y-10575000D01*
X18165000Y-10045000D02*
X18195000Y-10075000D01*
X18195000Y-10045000D02*
X18165000Y-10075000D01*
X18945000Y-10205000D02*
X18975000Y-10235000D01*
X18975000Y-10205000D02*
X18945000Y-10235000D01*
X19085000Y-9645000D02*
X19115000Y-9675000D01*
X19115000Y-9645000D02*
X19085000Y-9675000D01*
X19205000Y-10425000D02*
X19235000Y-10455000D01*
X19235000Y-10425000D02*
X19205000Y-10455000D01*
X19245000Y-9645000D02*
X19275000Y-9675000D01*
X19275000Y-9645000D02*
X19245000Y-9675000D01*
X19425000Y-10285000D02*
X19455000Y-10315000D01*
X19455000Y-10285000D02*
X19425000Y-10315000D01*
X19465000Y-10365000D02*
X19495000Y-10395000D01*
X19495000Y-10365000D02*
X19465000Y-10395000D01*
X19482621Y-9594256D02*
X19512621Y-9624256D01*
X19512621Y-9594256D02*
X19482621Y-9624256D01*
X19485000Y-10205000D02*
X19515000Y-10235000D01*
X19515000Y-10205000D02*
X19485000Y-10235000D01*
X19525000Y-11045000D02*
X19555000Y-11075000D01*
X19555000Y-11045000D02*
X19525000Y-11075000D01*
X19645000Y-9305000D02*
X19675000Y-9335000D01*
X19675000Y-9305000D02*
X19645000Y-9335000D01*
X19685000Y-10565000D02*
X19715000Y-10595000D01*
X19715000Y-10565000D02*
X19685000Y-10595000D01*
X19765000Y-9065000D02*
X19795000Y-9095000D01*
X19795000Y-9065000D02*
X19765000Y-9095000D01*
X19785000Y-9665000D02*
X19815000Y-9695000D01*
X19815000Y-9665000D02*
X19785000Y-9695000D01*
X19865000Y-10965000D02*
X19895000Y-10995000D01*
X19895000Y-10965000D02*
X19865000Y-10995000D01*
X19925000Y-10385000D02*
X19955000Y-10415000D01*
X19955000Y-10385000D02*
X19925000Y-10415000D01*
X19945000Y-9525000D02*
X19975000Y-9555000D01*
X19975000Y-9525000D02*
X19945000Y-9555000D01*
X19965000Y-11165000D02*
X19995000Y-11195000D01*
X19995000Y-11165000D02*
X19965000Y-11195000D01*
X19985000Y-10625000D02*
X20015000Y-10655000D01*
X20015000Y-10625000D02*
X19985000Y-10655000D01*
X20025000Y-9585000D02*
X20055000Y-9615000D01*
X20055000Y-9585000D02*
X20025000Y-9615000D01*
X20085000Y-10505000D02*
X20115000Y-10535000D01*
X20115000Y-10505000D02*
X20085000Y-10535000D01*
X20152621Y-9644256D02*
X20182621Y-9674256D01*
X20182621Y-9644256D02*
X20152621Y-9674256D01*
X20165000Y-11165000D02*
X20195000Y-11195000D01*
X20195000Y-11165000D02*
X20165000Y-11195000D01*
X20185000Y-10765000D02*
X20215000Y-10795000D01*
X20215000Y-10765000D02*
X20185000Y-10795000D01*
X20225000Y-9265000D02*
X20255000Y-9295000D01*
X20255000Y-9265000D02*
X20225000Y-9295000D01*
X20285000Y-10585000D02*
X20315000Y-10615000D01*
X20315000Y-10585000D02*
X20285000Y-10615000D01*
X20505000Y-9285000D02*
X20535000Y-9315000D01*
X20535000Y-9285000D02*
X20505000Y-9315000D01*
X20531994Y-9631994D02*
X20561994Y-9661994D01*
X20561994Y-9631994D02*
X20531994Y-9661994D01*
X20585000Y-10425000D02*
X20615000Y-10455000D01*
X20615000Y-10425000D02*
X20585000Y-10455000D01*
X20652057Y-9927379D02*
X20682057Y-9957379D01*
X20682057Y-9927379D02*
X20652057Y-9957379D01*
X20703083Y-10427379D02*
X20733083Y-10457379D01*
X20733083Y-10427379D02*
X20703083Y-10457379D01*
X20746898Y-9866898D02*
X20776898Y-9896898D01*
X20776898Y-9866898D02*
X20746898Y-9896898D01*
X20783085Y-10427379D02*
X20813085Y-10457379D01*
X20813085Y-10427379D02*
X20783085Y-10457379D01*
X20805000Y-11045000D02*
X20835000Y-11075000D01*
X20835000Y-11045000D02*
X20805000Y-11075000D01*
X20885000Y-10885000D02*
X20915000Y-10915000D01*
X20915000Y-10885000D02*
X20885000Y-10915000D01*
X20905000Y-9665000D02*
X20935000Y-9695000D01*
X20935000Y-9665000D02*
X20905000Y-9695000D01*
X21005000Y-10325000D02*
X21035000Y-10355000D01*
X21035000Y-10325000D02*
X21005000Y-10355000D01*
X21005000Y-10545000D02*
X21035000Y-10575000D01*
X21035000Y-10545000D02*
X21005000Y-10575000D01*
X21065000Y-10825000D02*
X21095000Y-10855000D01*
X21095000Y-10825000D02*
X21065000Y-10855000D01*
X21205000Y-9625000D02*
X21235000Y-9655000D01*
X21235000Y-9625000D02*
X21205000Y-9655000D01*
X21325000Y-10685000D02*
X21355000Y-10715000D01*
X21355000Y-10685000D02*
X21325000Y-10715000D01*
X21343896Y-10607262D02*
X21373896Y-10637262D01*
X21373896Y-10607262D02*
X21343896Y-10637262D01*
X21345000Y-10925000D02*
X21375000Y-10955000D01*
X21375000Y-10925000D02*
X21345000Y-10955000D01*
X21353126Y-10759894D02*
X21383126Y-10789894D01*
X21383126Y-10759894D02*
X21353126Y-10789894D01*
X21405000Y-10485000D02*
X21435000Y-10515000D01*
X21435000Y-10485000D02*
X21405000Y-10515000D01*
X21445000Y-9685000D02*
X21475000Y-9715000D01*
X21475000Y-9685000D02*
X21445000Y-9715000D01*
X21625000Y-9805000D02*
X21655000Y-9835000D01*
X21655000Y-9805000D02*
X21625000Y-9835000D01*
X21645000Y-9025000D02*
X21675000Y-9055000D01*
X21675000Y-9025000D02*
X21645000Y-9055000D01*
X21745000Y-10565000D02*
X21775000Y-10595000D01*
X21775000Y-10565000D02*
X21745000Y-10595000D01*
X21745000Y-10705000D02*
X21775000Y-10735000D01*
X21775000Y-10705000D02*
X21745000Y-10735000D01*
X21765000Y-9805000D02*
X21795000Y-9835000D01*
X21795000Y-9805000D02*
X21765000Y-9835000D01*
X21885000Y-9725000D02*
X21915000Y-9755000D01*
X21915000Y-9725000D02*
X21885000Y-9755000D01*
X21885000Y-10345000D02*
X21915000Y-10375000D01*
X21915000Y-10345000D02*
X21885000Y-10375000D01*
X21900405Y-10431453D02*
X21930405Y-10461453D01*
X21930405Y-10431453D02*
X21900405Y-10461453D01*
X21925000Y-9105000D02*
X21955000Y-9135000D01*
X21955000Y-9105000D02*
X21925000Y-9135000D01*
X21985000Y-10705000D02*
X22015000Y-10735000D01*
X22015000Y-10705000D02*
X21985000Y-10735000D01*
X21985000Y-10865000D02*
X22015000Y-10895000D01*
X22015000Y-10865000D02*
X21985000Y-10895000D01*
X21985000Y-11025000D02*
X22015000Y-11055000D01*
X22015000Y-11025000D02*
X21985000Y-11055000D01*
X21985000Y-11185000D02*
X22015000Y-11215000D01*
X22015000Y-11185000D02*
X21985000Y-11215000D01*
X21986274Y-10485673D02*
X22016274Y-10515673D01*
X22016274Y-10485673D02*
X21986274Y-10515673D01*
X22045000Y-10540000D02*
X22075000Y-10570000D01*
X22075000Y-10540000D02*
X22045000Y-10570000D01*
X22180396Y-9926751D02*
X22210396Y-9956751D01*
X22210396Y-9926751D02*
X22180396Y-9956751D01*
X22385000Y-10725000D02*
X22415000Y-10755000D01*
X22415000Y-10725000D02*
X22385000Y-10755000D01*
X22645000Y-9885000D02*
X22675000Y-9915000D01*
X22675000Y-9885000D02*
X22645000Y-9915000D01*
X22865000Y-8125000D02*
X22895000Y-8155000D01*
X22895000Y-8125000D02*
X22865000Y-8155000D01*
X24025000Y-9285000D02*
X24055000Y-9315000D01*
X24055000Y-9285000D02*
X24025000Y-9315000D01*
X24065000Y-11165000D02*
X24095000Y-11195000D01*
X24095000Y-11165000D02*
X24065000Y-11195000D01*
X20175000Y-10000000D02*
G75*
G02*
X20145000Y-10000000I-15000J0D01*
G01*
X20145000Y-10000000D02*
G75*
G02*
X20175000Y-10000000I15000J0D01*
G01*
X20175000Y-10100000D02*
G75*
G02*
X20145000Y-10100000I-15000J0D01*
G01*
X20145000Y-10100000D02*
G75*
G02*
X20175000Y-10100000I15000J0D01*
G01*
X20175000Y-10200000D02*
G75*
G02*
X20145000Y-10200000I-15000J0D01*
G01*
X20145000Y-10200000D02*
G75*
G02*
X20175000Y-10200000I15000J0D01*
G01*
X20275000Y-10000000D02*
G75*
G02*
X20245000Y-10000000I-15000J0D01*
G01*
X20245000Y-10000000D02*
G75*
G02*
X20275000Y-10000000I15000J0D01*
G01*
X20275000Y-10100000D02*
G75*
G02*
X20245000Y-10100000I-15000J0D01*
G01*
X20245000Y-10100000D02*
G75*
G02*
X20275000Y-10100000I15000J0D01*
G01*
X20275000Y-10200000D02*
G75*
G02*
X20245000Y-10200000I-15000J0D01*
G01*
X20245000Y-10200000D02*
G75*
G02*
X20275000Y-10200000I15000J0D01*
G01*
X20375000Y-10000000D02*
G75*
G02*
X20345000Y-10000000I-15000J0D01*
G01*
X20345000Y-10000000D02*
G75*
G02*
X20375000Y-10000000I15000J0D01*
G01*
X20375000Y-10100000D02*
G75*
G02*
X20345000Y-10100000I-15000J0D01*
G01*
X20345000Y-10100000D02*
G75*
G02*
X20375000Y-10100000I15000J0D01*
G01*
X20375000Y-10200000D02*
G75*
G02*
X20345000Y-10200000I-15000J0D01*
G01*
X20345000Y-10200000D02*
G75*
G02*
X20375000Y-10200000I15000J0D01*
G01*
X22215000Y-10200000D02*
G75*
G02*
X22185000Y-10200000I-15000J0D01*
G01*
X22185000Y-10200000D02*
G75*
G02*
X22215000Y-10200000I15000J0D01*
G01*
X22215000Y-10300000D02*
G75*
G02*
X22185000Y-10300000I-15000J0D01*
G01*
X22185000Y-10300000D02*
G75*
G02*
X22215000Y-10300000I15000J0D01*
G01*
X22215000Y-10400000D02*
G75*
G02*
X22185000Y-10400000I-15000J0D01*
G01*
X22185000Y-10400000D02*
G75*
G02*
X22215000Y-10400000I15000J0D01*
G01*
X22315000Y-10200000D02*
G75*
G02*
X22285000Y-10200000I-15000J0D01*
G01*
X22285000Y-10200000D02*
G75*
G02*
X22315000Y-10200000I15000J0D01*
G01*
X22315000Y-10300000D02*
G75*
G02*
X22285000Y-10300000I-15000J0D01*
G01*
X22285000Y-10300000D02*
G75*
G02*
X22315000Y-10300000I15000J0D01*
G01*
X22315000Y-10400000D02*
G75*
G02*
X22285000Y-10400000I-15000J0D01*
G01*
X22285000Y-10400000D02*
G75*
G02*
X22315000Y-10400000I15000J0D01*
G01*
X22415000Y-10200000D02*
G75*
G02*
X22385000Y-10200000I-15000J0D01*
G01*
X22385000Y-10200000D02*
G75*
G02*
X22415000Y-10200000I15000J0D01*
G01*
X22415000Y-10300000D02*
G75*
G02*
X22385000Y-10300000I-15000J0D01*
G01*
X22385000Y-10300000D02*
G75*
G02*
X22415000Y-10300000I15000J0D01*
G01*
X22415000Y-10400000D02*
G75*
G02*
X22385000Y-10400000I-15000J0D01*
G01*
X22385000Y-10400000D02*
G75*
G02*
X22415000Y-10400000I15000J0D01*
G01*
X22100000Y-8780000D02*
X22100000Y-8820000D01*
X22080000Y-8800000D02*
X22120000Y-8800000D01*
X22420000Y-11880000D02*
X22420000Y-11920000D01*
X22400000Y-11900000D02*
X22440000Y-11900000D01*
X22675000Y-10137500D02*
X22675000Y-10177500D01*
X22655000Y-10157500D02*
X22695000Y-10157500D01*
X22851500Y-9878500D02*
X22851500Y-9918500D01*
X22831500Y-9898500D02*
X22871500Y-9898500D01*
X22875000Y-11380000D02*
X22875000Y-11420000D01*
X22855000Y-11400000D02*
X22895000Y-11400000D01*
X22880000Y-8640000D02*
X22880000Y-8680000D01*
X22860000Y-8660000D02*
X22900000Y-8660000D01*
X23000000Y-10980000D02*
X23000000Y-11020000D01*
X22980000Y-11000000D02*
X23020000Y-11000000D01*
X23100000Y-8680000D02*
X23100000Y-8720000D01*
X23080000Y-8700000D02*
X23120000Y-8700000D01*
X23550000Y-8180000D02*
X23550000Y-8220000D01*
X23530000Y-8200000D02*
X23570000Y-8200000D01*
X23550000Y-8830000D02*
X23550000Y-8870000D01*
X23530000Y-8850000D02*
X23570000Y-8850000D01*
X23550000Y-9130000D02*
X23550000Y-9170000D01*
X23530000Y-9150000D02*
X23570000Y-9150000D01*
X23700000Y-8430000D02*
X23700000Y-8470000D01*
X23680000Y-8450000D02*
X23720000Y-8450000D01*
X23800000Y-8180000D02*
X23800000Y-8220000D01*
X23780000Y-8200000D02*
X23820000Y-8200000D01*
X23800000Y-9130000D02*
X23800000Y-9170000D01*
X23780000Y-9150000D02*
X23820000Y-9150000D01*
X24050000Y-8180000D02*
X24050000Y-8220000D01*
X24030000Y-8200000D02*
X24070000Y-8200000D01*
X24050000Y-8480000D02*
X24050000Y-8520000D01*
X24030000Y-8500000D02*
X24070000Y-8500000D01*
X24050000Y-9130000D02*
X24050000Y-9170000D01*
X24030000Y-9150000D02*
X24070000Y-9150000D01*
X24300000Y-8180000D02*
X24300000Y-8220000D01*
X24280000Y-8200000D02*
X24320000Y-8200000D01*
X24300000Y-8580000D02*
X24300000Y-8620000D01*
X24280000Y-8600000D02*
X24320000Y-8600000D01*
X24300000Y-9130000D02*
X24300000Y-9170000D01*
X24280000Y-9150000D02*
X24320000Y-9150000D01*
X24550000Y-8180000D02*
X24550000Y-8220000D01*
X24530000Y-8200000D02*
X24570000Y-8200000D01*
X24550000Y-8630000D02*
X24550000Y-8670000D01*
X24530000Y-8650000D02*
X24570000Y-8650000D01*
X24550000Y-9130000D02*
X24550000Y-9170000D01*
X24530000Y-9150000D02*
X24570000Y-9150000D01*
X16868285Y-7384284D02*
X16868285Y-7327715D01*
X16811716Y-7327715D01*
X16811716Y-7384284D01*
X16868285Y-7384284D01*
X16868285Y-8908285D02*
X16868285Y-8851716D01*
X16811716Y-8851716D01*
X16811716Y-8908285D01*
X16868285Y-8908285D01*
X17122285Y-7384284D02*
X17122285Y-7327715D01*
X17065716Y-7327715D01*
X17065716Y-7384284D01*
X17122285Y-7384284D01*
X17122285Y-8908285D02*
X17122285Y-8851716D01*
X17065716Y-8851716D01*
X17065716Y-8908285D01*
X17122285Y-8908285D01*
X17376285Y-7384284D02*
X17376285Y-7327715D01*
X17319716Y-7327715D01*
X17319716Y-7384284D01*
X17376285Y-7384284D01*
X17376285Y-8908285D02*
X17376285Y-8851716D01*
X17319716Y-8851716D01*
X17319716Y-8908285D01*
X17376285Y-8908285D01*
X17630285Y-7384284D02*
X17630285Y-7327715D01*
X17573716Y-7327715D01*
X17573716Y-7384284D01*
X17630285Y-7384284D01*
X17630285Y-8908285D02*
X17630285Y-8851716D01*
X17573716Y-8851716D01*
X17573716Y-8908285D01*
X17630285Y-8908285D01*
X17884285Y-7384284D02*
X17884285Y-7327715D01*
X17827716Y-7327715D01*
X17827716Y-7384284D01*
X17884285Y-7384284D01*
X17884285Y-8908285D02*
X17884285Y-8851716D01*
X17827716Y-8851716D01*
X17827716Y-8908285D01*
X17884285Y-8908285D01*
X18138285Y-7384284D02*
X18138285Y-7327715D01*
X18081716Y-7327715D01*
X18081716Y-7384284D01*
X18138285Y-7384284D01*
X18138285Y-8908285D02*
X18138285Y-8851716D01*
X18081716Y-8851716D01*
X18081716Y-8908285D01*
X18138285Y-8908285D01*
X18392285Y-7384284D02*
X18392285Y-7327715D01*
X18335716Y-7327715D01*
X18335716Y-7384284D01*
X18392285Y-7384284D01*
X18392285Y-8908285D02*
X18392285Y-8851716D01*
X18335716Y-8851716D01*
X18335716Y-8908285D01*
X18392285Y-8908285D01*
X18646285Y-7384284D02*
X18646285Y-7327715D01*
X18589716Y-7327715D01*
X18589716Y-7384284D01*
X18646285Y-7384284D01*
X18646285Y-8908285D02*
X18646285Y-8851716D01*
X18589716Y-8851716D01*
X18589716Y-8908285D01*
X18646285Y-8908285D01*
X18900285Y-7384284D02*
X18900285Y-7327715D01*
X18843716Y-7327715D01*
X18843716Y-7384284D01*
X18900285Y-7384284D01*
X18900285Y-8908285D02*
X18900285Y-8851716D01*
X18843716Y-8851716D01*
X18843716Y-8908285D01*
X18900285Y-8908285D01*
X19154285Y-7384284D02*
X19154285Y-7327715D01*
X19097716Y-7327715D01*
X19097716Y-7384284D01*
X19154285Y-7384284D01*
X19154285Y-8908285D02*
X19154285Y-8851716D01*
X19097716Y-8851716D01*
X19097716Y-8908285D01*
X19154285Y-8908285D01*
X19408285Y-7384284D02*
X19408285Y-7327715D01*
X19351716Y-7327715D01*
X19351716Y-7384284D01*
X19408285Y-7384284D01*
X19408285Y-8908285D02*
X19408285Y-8851716D01*
X19351716Y-8851716D01*
X19351716Y-8908285D01*
X19408285Y-8908285D01*
X19662285Y-7384284D02*
X19662285Y-7327715D01*
X19605716Y-7327715D01*
X19605716Y-7384284D01*
X19662285Y-7384284D01*
X19662285Y-8908285D02*
X19662285Y-8851716D01*
X19605716Y-8851716D01*
X19605716Y-8908285D01*
X19662285Y-8908285D01*
X19916285Y-7384284D02*
X19916285Y-7327715D01*
X19859716Y-7327715D01*
X19859716Y-7384284D01*
X19916285Y-7384284D01*
X19916285Y-8908285D02*
X19916285Y-8851716D01*
X19859716Y-8851716D01*
X19859716Y-8908285D01*
X19916285Y-8908285D01*
X20170285Y-7384284D02*
X20170285Y-7327715D01*
X20113716Y-7327715D01*
X20113716Y-7384284D01*
X20170285Y-7384284D01*
X20170285Y-8908285D02*
X20170285Y-8851716D01*
X20113716Y-8851716D01*
X20113716Y-8908285D01*
X20170285Y-8908285D01*
X20424285Y-7384284D02*
X20424285Y-7327715D01*
X20367716Y-7327715D01*
X20367716Y-7384284D01*
X20424285Y-7384284D01*
X20424285Y-8908285D02*
X20424285Y-8851716D01*
X20367716Y-8851716D01*
X20367716Y-8908285D01*
X20424285Y-8908285D01*
X20678285Y-7384284D02*
X20678285Y-7327715D01*
X20621716Y-7327715D01*
X20621716Y-7384284D01*
X20678285Y-7384284D01*
X20678285Y-8908285D02*
X20678285Y-8851716D01*
X20621716Y-8851716D01*
X20621716Y-8908285D01*
X20678285Y-8908285D01*
X20932285Y-7384284D02*
X20932285Y-7327715D01*
X20875716Y-7327715D01*
X20875716Y-7384284D01*
X20932285Y-7384284D01*
X20932285Y-8908285D02*
X20932285Y-8851716D01*
X20875716Y-8851716D01*
X20875716Y-8908285D01*
X20932285Y-8908285D01*
X21186285Y-7384284D02*
X21186285Y-7327715D01*
X21129716Y-7327715D01*
X21129716Y-7384284D01*
X21186285Y-7384284D01*
X21186285Y-8908285D02*
X21186285Y-8851716D01*
X21129716Y-8851716D01*
X21129716Y-8908285D01*
X21186285Y-8908285D01*
X21440285Y-7384284D02*
X21440285Y-7327715D01*
X21383716Y-7327715D01*
X21383716Y-7384284D01*
X21440285Y-7384284D01*
X21440285Y-8908285D02*
X21440285Y-8851716D01*
X21383716Y-8851716D01*
X21383716Y-8908285D01*
X21440285Y-8908285D01*
X21694285Y-7384284D02*
X21694285Y-7327715D01*
X21637716Y-7327715D01*
X21637716Y-7384284D01*
X21694285Y-7384284D01*
X21694285Y-8908285D02*
X21694285Y-8851716D01*
X21637716Y-8851716D01*
X21637716Y-8908285D01*
X21694285Y-8908285D01*
X23241000Y-9825000D02*
X23286000Y-9780000D01*
X23241000Y-9735000D01*
X23196000Y-9780000D01*
X23241000Y-9825000D01*
X23241000Y-10079000D02*
X23286000Y-10034000D01*
X23241000Y-9989000D01*
X23196000Y-10034000D01*
X23241000Y-10079000D01*
X23241000Y-10333000D02*
X23286000Y-10288000D01*
X23241000Y-10243000D01*
X23196000Y-10288000D01*
X23241000Y-10333000D01*
X23241000Y-10587000D02*
X23286000Y-10542000D01*
X23241000Y-10497000D01*
X23196000Y-10542000D01*
X23241000Y-10587000D01*
X23495000Y-9951000D02*
X23540000Y-9906000D01*
X23495000Y-9861000D01*
X23450000Y-9906000D01*
X23495000Y-9951000D01*
X23495000Y-10205000D02*
X23540000Y-10160000D01*
X23495000Y-10115000D01*
X23450000Y-10160000D01*
X23495000Y-10205000D01*
X23495000Y-10459000D02*
X23540000Y-10414000D01*
X23495000Y-10369000D01*
X23450000Y-10414000D01*
X23495000Y-10459000D01*
X23495000Y-10713000D02*
X23540000Y-10668000D01*
X23495000Y-10623000D01*
X23450000Y-10668000D01*
X23495000Y-10713000D01*
X20396000Y-11450000D02*
X20496000Y-11550000D01*
X20496000Y-11450000D02*
X20396000Y-11550000D01*
X20496000Y-11500000D02*
G75*
G02*
X20396000Y-11500000I-50000J0D01*
G01*
X20396000Y-11500000D02*
G75*
G02*
X20496000Y-11500000I50000J0D01*
G01*
X20396000Y-11830000D02*
X20496000Y-11930000D01*
X20496000Y-11830000D02*
X20396000Y-11930000D01*
X20496000Y-11880000D02*
G75*
G02*
X20396000Y-11880000I-50000J0D01*
G01*
X20396000Y-11880000D02*
G75*
G02*
X20496000Y-11880000I50000J0D01*
G01*
X20650000Y-11450000D02*
X20750000Y-11550000D01*
X20750000Y-11450000D02*
X20650000Y-11550000D01*
X20750000Y-11500000D02*
G75*
G02*
X20650000Y-11500000I-50000J0D01*
G01*
X20650000Y-11500000D02*
G75*
G02*
X20750000Y-11500000I50000J0D01*
G01*
X20650000Y-11830000D02*
X20750000Y-11930000D01*
X20750000Y-11830000D02*
X20650000Y-11930000D01*
X20750000Y-11880000D02*
G75*
G02*
X20650000Y-11880000I-50000J0D01*
G01*
X20650000Y-11880000D02*
G75*
G02*
X20750000Y-11880000I50000J0D01*
G01*
X20904000Y-11450000D02*
X21004000Y-11550000D01*
X21004000Y-11450000D02*
X20904000Y-11550000D01*
X21004000Y-11500000D02*
G75*
G02*
X20904000Y-11500000I-50000J0D01*
G01*
X20904000Y-11500000D02*
G75*
G02*
X21004000Y-11500000I50000J0D01*
G01*
X20904000Y-11830000D02*
X21004000Y-11930000D01*
X21004000Y-11830000D02*
X20904000Y-11930000D01*
X21004000Y-11880000D02*
G75*
G02*
X20904000Y-11880000I-50000J0D01*
G01*
X20904000Y-11880000D02*
G75*
G02*
X21004000Y-11880000I50000J0D01*
G01*
X22810000Y-7870000D02*
X22910000Y-7970000D01*
X22910000Y-7870000D02*
X22810000Y-7970000D01*
X22910000Y-7920000D02*
G75*
G02*
X22810000Y-7920000I-50000J0D01*
G01*
X22810000Y-7920000D02*
G75*
G02*
X22910000Y-7920000I50000J0D01*
G01*
X23064000Y-7870000D02*
X23164000Y-7970000D01*
X23164000Y-7870000D02*
X23064000Y-7970000D01*
X23164000Y-7920000D02*
G75*
G02*
X23064000Y-7920000I-50000J0D01*
G01*
X23064000Y-7920000D02*
G75*
G02*
X23164000Y-7920000I50000J0D01*
G01*
D13*
X24570000Y-9510500D02*
X24672000Y-9612500D01*
X24672000Y-9510500D02*
X24570000Y-9612500D01*
X24621000Y-9510500D02*
X24621000Y-9612500D01*
X24570000Y-9561500D02*
X24672000Y-9561500D01*
X24570000Y-9764500D02*
X24672000Y-9866500D01*
X24672000Y-9764500D02*
X24570000Y-9866500D01*
X24621000Y-9764500D02*
X24621000Y-9866500D01*
X24570000Y-9815500D02*
X24672000Y-9815500D01*
X24570000Y-10581500D02*
X24672000Y-10683500D01*
X24672000Y-10581500D02*
X24570000Y-10683500D01*
X24621000Y-10581500D02*
X24621000Y-10683500D01*
X24570000Y-10632500D02*
X24672000Y-10632500D01*
X24570000Y-10835500D02*
X24672000Y-10937500D01*
X24672000Y-10835500D02*
X24570000Y-10937500D01*
X24621000Y-10835500D02*
X24621000Y-10937500D01*
X24570000Y-10886500D02*
X24672000Y-10886500D01*
D14*
X17100000Y-11050000D02*
X17220000Y-11170000D01*
X17220000Y-11050000D02*
X17100000Y-11170000D01*
X17202427Y-11152427D02*
X17202427Y-11067573D01*
X17117573Y-11067573D01*
X17117573Y-11152427D01*
X17202427Y-11152427D01*
X17100000Y-11550000D02*
X17220000Y-11670000D01*
X17220000Y-11550000D02*
X17100000Y-11670000D01*
X17202427Y-11652427D02*
X17202427Y-11567573D01*
X17117573Y-11567573D01*
X17117573Y-11652427D01*
X17202427Y-11652427D01*
D15*
X23744500Y-9368000D02*
X23907500Y-9531000D01*
X23907500Y-9368000D02*
X23744500Y-9531000D01*
X23826000Y-9531000D02*
X23907500Y-9449500D01*
X23826000Y-9368000D01*
X23744500Y-9449500D01*
X23826000Y-9531000D01*
X23744500Y-10917000D02*
X23907500Y-11080000D01*
X23907500Y-10917000D02*
X23744500Y-11080000D01*
X23826000Y-11080000D02*
X23907500Y-10998500D01*
X23826000Y-10917000D01*
X23744500Y-10998500D01*
X23826000Y-11080000D01*
D11*
X16738277Y-12473984D02*
X16738277Y-12273984D01*
X16738277Y-12273984D02*
X16785896Y-12273984D01*
X16785896Y-12273984D02*
X16814467Y-12283508D01*
X16814467Y-12283508D02*
X16833515Y-12302555D01*
X16833515Y-12302555D02*
X16843039Y-12321603D01*
X16843039Y-12321603D02*
X16852563Y-12359698D01*
X16852563Y-12359698D02*
X16852563Y-12388269D01*
X16852563Y-12388269D02*
X16843039Y-12426365D01*
X16843039Y-12426365D02*
X16833515Y-12445412D01*
X16833515Y-12445412D02*
X16814467Y-12464460D01*
X16814467Y-12464460D02*
X16785896Y-12473984D01*
X16785896Y-12473984D02*
X16738277Y-12473984D01*
X16938277Y-12473984D02*
X16938277Y-12340650D01*
X16938277Y-12378746D02*
X16947801Y-12359698D01*
X16947801Y-12359698D02*
X16957324Y-12350174D01*
X16957324Y-12350174D02*
X16976372Y-12340650D01*
X16976372Y-12340650D02*
X16995420Y-12340650D01*
X17062086Y-12473984D02*
X17062086Y-12340650D01*
X17062086Y-12273984D02*
X17052563Y-12283508D01*
X17052563Y-12283508D02*
X17062086Y-12293031D01*
X17062086Y-12293031D02*
X17071610Y-12283508D01*
X17071610Y-12283508D02*
X17062086Y-12273984D01*
X17062086Y-12273984D02*
X17062086Y-12293031D01*
X17185896Y-12473984D02*
X17166848Y-12464460D01*
X17166848Y-12464460D02*
X17157324Y-12445412D01*
X17157324Y-12445412D02*
X17157324Y-12273984D01*
X17290658Y-12473984D02*
X17271610Y-12464460D01*
X17271610Y-12464460D02*
X17262086Y-12445412D01*
X17262086Y-12445412D02*
X17262086Y-12273984D01*
X17519229Y-12473984D02*
X17519229Y-12273984D01*
X17519229Y-12273984D02*
X17585896Y-12416841D01*
X17585896Y-12416841D02*
X17652563Y-12273984D01*
X17652563Y-12273984D02*
X17652563Y-12473984D01*
X17833515Y-12473984D02*
X17833515Y-12369222D01*
X17833515Y-12369222D02*
X17823991Y-12350174D01*
X17823991Y-12350174D02*
X17804944Y-12340650D01*
X17804944Y-12340650D02*
X17766848Y-12340650D01*
X17766848Y-12340650D02*
X17747801Y-12350174D01*
X17833515Y-12464460D02*
X17814467Y-12473984D01*
X17814467Y-12473984D02*
X17766848Y-12473984D01*
X17766848Y-12473984D02*
X17747801Y-12464460D01*
X17747801Y-12464460D02*
X17738277Y-12445412D01*
X17738277Y-12445412D02*
X17738277Y-12426365D01*
X17738277Y-12426365D02*
X17747801Y-12407317D01*
X17747801Y-12407317D02*
X17766848Y-12397793D01*
X17766848Y-12397793D02*
X17814467Y-12397793D01*
X17814467Y-12397793D02*
X17833515Y-12388269D01*
X17928753Y-12340650D02*
X17928753Y-12540650D01*
X17928753Y-12350174D02*
X17947801Y-12340650D01*
X17947801Y-12340650D02*
X17985896Y-12340650D01*
X17985896Y-12340650D02*
X18004944Y-12350174D01*
X18004944Y-12350174D02*
X18014467Y-12359698D01*
X18014467Y-12359698D02*
X18023991Y-12378746D01*
X18023991Y-12378746D02*
X18023991Y-12435888D01*
X18023991Y-12435888D02*
X18014467Y-12454936D01*
X18014467Y-12454936D02*
X18004944Y-12464460D01*
X18004944Y-12464460D02*
X17985896Y-12473984D01*
X17985896Y-12473984D02*
X17947801Y-12473984D01*
X17947801Y-12473984D02*
X17928753Y-12464460D01*
X18109705Y-12454936D02*
X18119229Y-12464460D01*
X18119229Y-12464460D02*
X18109705Y-12473984D01*
X18109705Y-12473984D02*
X18100182Y-12464460D01*
X18100182Y-12464460D02*
X18109705Y-12454936D01*
X18109705Y-12454936D02*
X18109705Y-12473984D01*
X18109705Y-12350174D02*
X18119229Y-12359698D01*
X18119229Y-12359698D02*
X18109705Y-12369222D01*
X18109705Y-12369222D02*
X18100182Y-12359698D01*
X18100182Y-12359698D02*
X18109705Y-12350174D01*
X18109705Y-12350174D02*
X18109705Y-12369222D01*
D12*
X16447500Y-12787500D02*
X16477500Y-12817500D01*
X16477500Y-12787500D02*
X16447500Y-12817500D01*
D11*
X16776372Y-12693984D02*
X16795420Y-12693984D01*
X16795420Y-12693984D02*
X16814467Y-12703508D01*
X16814467Y-12703508D02*
X16823991Y-12713031D01*
X16823991Y-12713031D02*
X16833515Y-12732079D01*
X16833515Y-12732079D02*
X16843039Y-12770174D01*
X16843039Y-12770174D02*
X16843039Y-12817793D01*
X16843039Y-12817793D02*
X16833515Y-12855888D01*
X16833515Y-12855888D02*
X16823991Y-12874936D01*
X16823991Y-12874936D02*
X16814467Y-12884460D01*
X16814467Y-12884460D02*
X16795420Y-12893984D01*
X16795420Y-12893984D02*
X16776372Y-12893984D01*
X16776372Y-12893984D02*
X16757324Y-12884460D01*
X16757324Y-12884460D02*
X16747801Y-12874936D01*
X16747801Y-12874936D02*
X16738277Y-12855888D01*
X16738277Y-12855888D02*
X16728753Y-12817793D01*
X16728753Y-12817793D02*
X16728753Y-12770174D01*
X16728753Y-12770174D02*
X16738277Y-12732079D01*
X16738277Y-12732079D02*
X16747801Y-12713031D01*
X16747801Y-12713031D02*
X16757324Y-12703508D01*
X16757324Y-12703508D02*
X16776372Y-12693984D01*
X16928753Y-12874936D02*
X16938277Y-12884460D01*
X16938277Y-12884460D02*
X16928753Y-12893984D01*
X16928753Y-12893984D02*
X16919229Y-12884460D01*
X16919229Y-12884460D02*
X16928753Y-12874936D01*
X16928753Y-12874936D02*
X16928753Y-12893984D01*
X17004944Y-12693984D02*
X17128753Y-12693984D01*
X17128753Y-12693984D02*
X17062086Y-12770174D01*
X17062086Y-12770174D02*
X17090658Y-12770174D01*
X17090658Y-12770174D02*
X17109705Y-12779698D01*
X17109705Y-12779698D02*
X17119229Y-12789222D01*
X17119229Y-12789222D02*
X17128753Y-12808269D01*
X17128753Y-12808269D02*
X17128753Y-12855888D01*
X17128753Y-12855888D02*
X17119229Y-12874936D01*
X17119229Y-12874936D02*
X17109705Y-12884460D01*
X17109705Y-12884460D02*
X17090658Y-12893984D01*
X17090658Y-12893984D02*
X17033515Y-12893984D01*
X17033515Y-12893984D02*
X17014467Y-12884460D01*
X17014467Y-12884460D02*
X17004944Y-12874936D01*
X17252563Y-12693984D02*
X17271610Y-12693984D01*
X17271610Y-12693984D02*
X17290658Y-12703508D01*
X17290658Y-12703508D02*
X17300182Y-12713031D01*
X17300182Y-12713031D02*
X17309705Y-12732079D01*
X17309705Y-12732079D02*
X17319229Y-12770174D01*
X17319229Y-12770174D02*
X17319229Y-12817793D01*
X17319229Y-12817793D02*
X17309705Y-12855888D01*
X17309705Y-12855888D02*
X17300182Y-12874936D01*
X17300182Y-12874936D02*
X17290658Y-12884460D01*
X17290658Y-12884460D02*
X17271610Y-12893984D01*
X17271610Y-12893984D02*
X17252563Y-12893984D01*
X17252563Y-12893984D02*
X17233515Y-12884460D01*
X17233515Y-12884460D02*
X17223991Y-12874936D01*
X17223991Y-12874936D02*
X17214467Y-12855888D01*
X17214467Y-12855888D02*
X17204944Y-12817793D01*
X17204944Y-12817793D02*
X17204944Y-12770174D01*
X17204944Y-12770174D02*
X17214467Y-12732079D01*
X17214467Y-12732079D02*
X17223991Y-12713031D01*
X17223991Y-12713031D02*
X17233515Y-12703508D01*
X17233515Y-12703508D02*
X17252563Y-12693984D01*
X17443039Y-12693984D02*
X17462086Y-12693984D01*
X17462086Y-12693984D02*
X17481134Y-12703508D01*
X17481134Y-12703508D02*
X17490658Y-12713031D01*
X17490658Y-12713031D02*
X17500182Y-12732079D01*
X17500182Y-12732079D02*
X17509705Y-12770174D01*
X17509705Y-12770174D02*
X17509705Y-12817793D01*
X17509705Y-12817793D02*
X17500182Y-12855888D01*
X17500182Y-12855888D02*
X17490658Y-12874936D01*
X17490658Y-12874936D02*
X17481134Y-12884460D01*
X17481134Y-12884460D02*
X17462086Y-12893984D01*
X17462086Y-12893984D02*
X17443039Y-12893984D01*
X17443039Y-12893984D02*
X17423991Y-12884460D01*
X17423991Y-12884460D02*
X17414467Y-12874936D01*
X17414467Y-12874936D02*
X17404944Y-12855888D01*
X17404944Y-12855888D02*
X17395420Y-12817793D01*
X17395420Y-12817793D02*
X17395420Y-12770174D01*
X17395420Y-12770174D02*
X17404944Y-12732079D01*
X17404944Y-12732079D02*
X17414467Y-12713031D01*
X17414467Y-12713031D02*
X17423991Y-12703508D01*
X17423991Y-12703508D02*
X17443039Y-12693984D01*
X17595420Y-12893984D02*
X17595420Y-12760650D01*
X17595420Y-12779698D02*
X17604944Y-12770174D01*
X17604944Y-12770174D02*
X17623991Y-12760650D01*
X17623991Y-12760650D02*
X17652563Y-12760650D01*
X17652563Y-12760650D02*
X17671610Y-12770174D01*
X17671610Y-12770174D02*
X17681134Y-12789222D01*
X17681134Y-12789222D02*
X17681134Y-12893984D01*
X17681134Y-12789222D02*
X17690658Y-12770174D01*
X17690658Y-12770174D02*
X17709705Y-12760650D01*
X17709705Y-12760650D02*
X17738277Y-12760650D01*
X17738277Y-12760650D02*
X17757325Y-12770174D01*
X17757325Y-12770174D02*
X17766848Y-12789222D01*
X17766848Y-12789222D02*
X17766848Y-12893984D01*
X17862086Y-12893984D02*
X17862086Y-12760650D01*
X17862086Y-12779698D02*
X17871610Y-12770174D01*
X17871610Y-12770174D02*
X17890658Y-12760650D01*
X17890658Y-12760650D02*
X17919229Y-12760650D01*
X17919229Y-12760650D02*
X17938277Y-12770174D01*
X17938277Y-12770174D02*
X17947801Y-12789222D01*
X17947801Y-12789222D02*
X17947801Y-12893984D01*
X17947801Y-12789222D02*
X17957325Y-12770174D01*
X17957325Y-12770174D02*
X17976372Y-12760650D01*
X17976372Y-12760650D02*
X18004944Y-12760650D01*
X18004944Y-12760650D02*
X18023991Y-12770174D01*
X18023991Y-12770174D02*
X18033515Y-12789222D01*
X18033515Y-12789222D02*
X18033515Y-12893984D01*
X18423991Y-12684460D02*
X18252563Y-12941603D01*
X18681134Y-12693984D02*
X18700182Y-12693984D01*
X18700182Y-12693984D02*
X18719229Y-12703508D01*
X18719229Y-12703508D02*
X18728753Y-12713031D01*
X18728753Y-12713031D02*
X18738277Y-12732079D01*
X18738277Y-12732079D02*
X18747801Y-12770174D01*
X18747801Y-12770174D02*
X18747801Y-12817793D01*
X18747801Y-12817793D02*
X18738277Y-12855888D01*
X18738277Y-12855888D02*
X18728753Y-12874936D01*
X18728753Y-12874936D02*
X18719229Y-12884460D01*
X18719229Y-12884460D02*
X18700182Y-12893984D01*
X18700182Y-12893984D02*
X18681134Y-12893984D01*
X18681134Y-12893984D02*
X18662087Y-12884460D01*
X18662087Y-12884460D02*
X18652563Y-12874936D01*
X18652563Y-12874936D02*
X18643039Y-12855888D01*
X18643039Y-12855888D02*
X18633515Y-12817793D01*
X18633515Y-12817793D02*
X18633515Y-12770174D01*
X18633515Y-12770174D02*
X18643039Y-12732079D01*
X18643039Y-12732079D02*
X18652563Y-12713031D01*
X18652563Y-12713031D02*
X18662087Y-12703508D01*
X18662087Y-12703508D02*
X18681134Y-12693984D01*
X18833515Y-12874936D02*
X18843039Y-12884460D01*
X18843039Y-12884460D02*
X18833515Y-12893984D01*
X18833515Y-12893984D02*
X18823991Y-12884460D01*
X18823991Y-12884460D02*
X18833515Y-12874936D01*
X18833515Y-12874936D02*
X18833515Y-12893984D01*
X18966848Y-12693984D02*
X18985896Y-12693984D01*
X18985896Y-12693984D02*
X19004944Y-12703508D01*
X19004944Y-12703508D02*
X19014468Y-12713031D01*
X19014468Y-12713031D02*
X19023991Y-12732079D01*
X19023991Y-12732079D02*
X19033515Y-12770174D01*
X19033515Y-12770174D02*
X19033515Y-12817793D01*
X19033515Y-12817793D02*
X19023991Y-12855888D01*
X19023991Y-12855888D02*
X19014468Y-12874936D01*
X19014468Y-12874936D02*
X19004944Y-12884460D01*
X19004944Y-12884460D02*
X18985896Y-12893984D01*
X18985896Y-12893984D02*
X18966848Y-12893984D01*
X18966848Y-12893984D02*
X18947801Y-12884460D01*
X18947801Y-12884460D02*
X18938277Y-12874936D01*
X18938277Y-12874936D02*
X18928753Y-12855888D01*
X18928753Y-12855888D02*
X18919229Y-12817793D01*
X18919229Y-12817793D02*
X18919229Y-12770174D01*
X18919229Y-12770174D02*
X18928753Y-12732079D01*
X18928753Y-12732079D02*
X18938277Y-12713031D01*
X18938277Y-12713031D02*
X18947801Y-12703508D01*
X18947801Y-12703508D02*
X18966848Y-12693984D01*
X19223991Y-12893984D02*
X19109706Y-12893984D01*
X19166848Y-12893984D02*
X19166848Y-12693984D01*
X19166848Y-12693984D02*
X19147801Y-12722555D01*
X19147801Y-12722555D02*
X19128753Y-12741603D01*
X19128753Y-12741603D02*
X19109706Y-12751127D01*
X19414468Y-12893984D02*
X19300182Y-12893984D01*
X19357325Y-12893984D02*
X19357325Y-12693984D01*
X19357325Y-12693984D02*
X19338277Y-12722555D01*
X19338277Y-12722555D02*
X19319229Y-12741603D01*
X19319229Y-12741603D02*
X19300182Y-12751127D01*
X19528753Y-12779698D02*
X19509706Y-12770174D01*
X19509706Y-12770174D02*
X19500182Y-12760650D01*
X19500182Y-12760650D02*
X19490658Y-12741603D01*
X19490658Y-12741603D02*
X19490658Y-12732079D01*
X19490658Y-12732079D02*
X19500182Y-12713031D01*
X19500182Y-12713031D02*
X19509706Y-12703508D01*
X19509706Y-12703508D02*
X19528753Y-12693984D01*
X19528753Y-12693984D02*
X19566849Y-12693984D01*
X19566849Y-12693984D02*
X19585896Y-12703508D01*
X19585896Y-12703508D02*
X19595420Y-12713031D01*
X19595420Y-12713031D02*
X19604944Y-12732079D01*
X19604944Y-12732079D02*
X19604944Y-12741603D01*
X19604944Y-12741603D02*
X19595420Y-12760650D01*
X19595420Y-12760650D02*
X19585896Y-12770174D01*
X19585896Y-12770174D02*
X19566849Y-12779698D01*
X19566849Y-12779698D02*
X19528753Y-12779698D01*
X19528753Y-12779698D02*
X19509706Y-12789222D01*
X19509706Y-12789222D02*
X19500182Y-12798746D01*
X19500182Y-12798746D02*
X19490658Y-12817793D01*
X19490658Y-12817793D02*
X19490658Y-12855888D01*
X19490658Y-12855888D02*
X19500182Y-12874936D01*
X19500182Y-12874936D02*
X19509706Y-12884460D01*
X19509706Y-12884460D02*
X19528753Y-12893984D01*
X19528753Y-12893984D02*
X19566849Y-12893984D01*
X19566849Y-12893984D02*
X19585896Y-12884460D01*
X19585896Y-12884460D02*
X19595420Y-12874936D01*
X19595420Y-12874936D02*
X19604944Y-12855888D01*
X19604944Y-12855888D02*
X19604944Y-12817793D01*
X19604944Y-12817793D02*
X19595420Y-12798746D01*
X19595420Y-12798746D02*
X19585896Y-12789222D01*
X19585896Y-12789222D02*
X19566849Y-12779698D01*
X19681134Y-12693984D02*
X19681134Y-12732079D01*
X19757325Y-12693984D02*
X19757325Y-12732079D01*
X20052563Y-12970174D02*
X20043039Y-12960650D01*
X20043039Y-12960650D02*
X20023991Y-12932079D01*
X20023991Y-12932079D02*
X20014468Y-12913031D01*
X20014468Y-12913031D02*
X20004944Y-12884460D01*
X20004944Y-12884460D02*
X19995420Y-12836841D01*
X19995420Y-12836841D02*
X19995420Y-12798746D01*
X19995420Y-12798746D02*
X20004944Y-12751127D01*
X20004944Y-12751127D02*
X20014468Y-12722555D01*
X20014468Y-12722555D02*
X20023991Y-12703508D01*
X20023991Y-12703508D02*
X20043039Y-12674936D01*
X20043039Y-12674936D02*
X20052563Y-12665412D01*
X20214468Y-12693984D02*
X20176372Y-12693984D01*
X20176372Y-12693984D02*
X20157325Y-12703508D01*
X20157325Y-12703508D02*
X20147801Y-12713031D01*
X20147801Y-12713031D02*
X20128753Y-12741603D01*
X20128753Y-12741603D02*
X20119230Y-12779698D01*
X20119230Y-12779698D02*
X20119230Y-12855888D01*
X20119230Y-12855888D02*
X20128753Y-12874936D01*
X20128753Y-12874936D02*
X20138277Y-12884460D01*
X20138277Y-12884460D02*
X20157325Y-12893984D01*
X20157325Y-12893984D02*
X20195420Y-12893984D01*
X20195420Y-12893984D02*
X20214468Y-12884460D01*
X20214468Y-12884460D02*
X20223991Y-12874936D01*
X20223991Y-12874936D02*
X20233515Y-12855888D01*
X20233515Y-12855888D02*
X20233515Y-12808269D01*
X20233515Y-12808269D02*
X20223991Y-12789222D01*
X20223991Y-12789222D02*
X20214468Y-12779698D01*
X20214468Y-12779698D02*
X20195420Y-12770174D01*
X20195420Y-12770174D02*
X20157325Y-12770174D01*
X20157325Y-12770174D02*
X20138277Y-12779698D01*
X20138277Y-12779698D02*
X20128753Y-12789222D01*
X20128753Y-12789222D02*
X20119230Y-12808269D01*
X20328753Y-12893984D02*
X20366849Y-12893984D01*
X20366849Y-12893984D02*
X20385896Y-12884460D01*
X20385896Y-12884460D02*
X20395420Y-12874936D01*
X20395420Y-12874936D02*
X20414468Y-12846365D01*
X20414468Y-12846365D02*
X20423991Y-12808269D01*
X20423991Y-12808269D02*
X20423991Y-12732079D01*
X20423991Y-12732079D02*
X20414468Y-12713031D01*
X20414468Y-12713031D02*
X20404944Y-12703508D01*
X20404944Y-12703508D02*
X20385896Y-12693984D01*
X20385896Y-12693984D02*
X20347801Y-12693984D01*
X20347801Y-12693984D02*
X20328753Y-12703508D01*
X20328753Y-12703508D02*
X20319230Y-12713031D01*
X20319230Y-12713031D02*
X20309706Y-12732079D01*
X20309706Y-12732079D02*
X20309706Y-12779698D01*
X20309706Y-12779698D02*
X20319230Y-12798746D01*
X20319230Y-12798746D02*
X20328753Y-12808269D01*
X20328753Y-12808269D02*
X20347801Y-12817793D01*
X20347801Y-12817793D02*
X20385896Y-12817793D01*
X20385896Y-12817793D02*
X20404944Y-12808269D01*
X20404944Y-12808269D02*
X20414468Y-12798746D01*
X20414468Y-12798746D02*
X20423991Y-12779698D01*
X20662087Y-12893984D02*
X20662087Y-12693984D01*
X20747801Y-12893984D02*
X20747801Y-12789222D01*
X20747801Y-12789222D02*
X20738277Y-12770174D01*
X20738277Y-12770174D02*
X20719230Y-12760650D01*
X20719230Y-12760650D02*
X20690658Y-12760650D01*
X20690658Y-12760650D02*
X20671611Y-12770174D01*
X20671611Y-12770174D02*
X20662087Y-12779698D01*
X20871611Y-12893984D02*
X20852563Y-12884460D01*
X20852563Y-12884460D02*
X20843039Y-12874936D01*
X20843039Y-12874936D02*
X20833515Y-12855888D01*
X20833515Y-12855888D02*
X20833515Y-12798746D01*
X20833515Y-12798746D02*
X20843039Y-12779698D01*
X20843039Y-12779698D02*
X20852563Y-12770174D01*
X20852563Y-12770174D02*
X20871611Y-12760650D01*
X20871611Y-12760650D02*
X20900182Y-12760650D01*
X20900182Y-12760650D02*
X20919230Y-12770174D01*
X20919230Y-12770174D02*
X20928753Y-12779698D01*
X20928753Y-12779698D02*
X20938277Y-12798746D01*
X20938277Y-12798746D02*
X20938277Y-12855888D01*
X20938277Y-12855888D02*
X20928753Y-12874936D01*
X20928753Y-12874936D02*
X20919230Y-12884460D01*
X20919230Y-12884460D02*
X20900182Y-12893984D01*
X20900182Y-12893984D02*
X20871611Y-12893984D01*
X21052563Y-12893984D02*
X21033515Y-12884460D01*
X21033515Y-12884460D02*
X21023992Y-12865412D01*
X21023992Y-12865412D02*
X21023992Y-12693984D01*
X21204944Y-12884460D02*
X21185896Y-12893984D01*
X21185896Y-12893984D02*
X21147801Y-12893984D01*
X21147801Y-12893984D02*
X21128753Y-12884460D01*
X21128753Y-12884460D02*
X21119230Y-12865412D01*
X21119230Y-12865412D02*
X21119230Y-12789222D01*
X21119230Y-12789222D02*
X21128753Y-12770174D01*
X21128753Y-12770174D02*
X21147801Y-12760650D01*
X21147801Y-12760650D02*
X21185896Y-12760650D01*
X21185896Y-12760650D02*
X21204944Y-12770174D01*
X21204944Y-12770174D02*
X21214468Y-12789222D01*
X21214468Y-12789222D02*
X21214468Y-12808269D01*
X21214468Y-12808269D02*
X21119230Y-12827317D01*
X21290658Y-12884460D02*
X21309706Y-12893984D01*
X21309706Y-12893984D02*
X21347801Y-12893984D01*
X21347801Y-12893984D02*
X21366849Y-12884460D01*
X21366849Y-12884460D02*
X21376373Y-12865412D01*
X21376373Y-12865412D02*
X21376373Y-12855888D01*
X21376373Y-12855888D02*
X21366849Y-12836841D01*
X21366849Y-12836841D02*
X21347801Y-12827317D01*
X21347801Y-12827317D02*
X21319230Y-12827317D01*
X21319230Y-12827317D02*
X21300182Y-12817793D01*
X21300182Y-12817793D02*
X21290658Y-12798746D01*
X21290658Y-12798746D02*
X21290658Y-12789222D01*
X21290658Y-12789222D02*
X21300182Y-12770174D01*
X21300182Y-12770174D02*
X21319230Y-12760650D01*
X21319230Y-12760650D02*
X21347801Y-12760650D01*
X21347801Y-12760650D02*
X21366849Y-12770174D01*
X21443039Y-12970174D02*
X21452563Y-12960650D01*
X21452563Y-12960650D02*
X21471611Y-12932079D01*
X21471611Y-12932079D02*
X21481134Y-12913031D01*
X21481134Y-12913031D02*
X21490658Y-12884460D01*
X21490658Y-12884460D02*
X21500182Y-12836841D01*
X21500182Y-12836841D02*
X21500182Y-12798746D01*
X21500182Y-12798746D02*
X21490658Y-12751127D01*
X21490658Y-12751127D02*
X21481134Y-12722555D01*
X21481134Y-12722555D02*
X21471611Y-12703508D01*
X21471611Y-12703508D02*
X21452563Y-12674936D01*
X21452563Y-12674936D02*
X21443039Y-12665412D01*
D12*
X16477500Y-13066500D02*
G75*
G02*
X16447500Y-13066500I-15000J0D01*
G01*
X16447500Y-13066500D02*
G75*
G02*
X16477500Y-13066500I15000J0D01*
G01*
D11*
X16776372Y-12957984D02*
X16795420Y-12957984D01*
X16795420Y-12957984D02*
X16814467Y-12967508D01*
X16814467Y-12967508D02*
X16823991Y-12977031D01*
X16823991Y-12977031D02*
X16833515Y-12996079D01*
X16833515Y-12996079D02*
X16843039Y-13034174D01*
X16843039Y-13034174D02*
X16843039Y-13081793D01*
X16843039Y-13081793D02*
X16833515Y-13119888D01*
X16833515Y-13119888D02*
X16823991Y-13138936D01*
X16823991Y-13138936D02*
X16814467Y-13148460D01*
X16814467Y-13148460D02*
X16795420Y-13157984D01*
X16795420Y-13157984D02*
X16776372Y-13157984D01*
X16776372Y-13157984D02*
X16757324Y-13148460D01*
X16757324Y-13148460D02*
X16747801Y-13138936D01*
X16747801Y-13138936D02*
X16738277Y-13119888D01*
X16738277Y-13119888D02*
X16728753Y-13081793D01*
X16728753Y-13081793D02*
X16728753Y-13034174D01*
X16728753Y-13034174D02*
X16738277Y-12996079D01*
X16738277Y-12996079D02*
X16747801Y-12977031D01*
X16747801Y-12977031D02*
X16757324Y-12967508D01*
X16757324Y-12967508D02*
X16776372Y-12957984D01*
X16928753Y-13138936D02*
X16938277Y-13148460D01*
X16938277Y-13148460D02*
X16928753Y-13157984D01*
X16928753Y-13157984D02*
X16919229Y-13148460D01*
X16919229Y-13148460D02*
X16928753Y-13138936D01*
X16928753Y-13138936D02*
X16928753Y-13157984D01*
X17004944Y-12957984D02*
X17128753Y-12957984D01*
X17128753Y-12957984D02*
X17062086Y-13034174D01*
X17062086Y-13034174D02*
X17090658Y-13034174D01*
X17090658Y-13034174D02*
X17109705Y-13043698D01*
X17109705Y-13043698D02*
X17119229Y-13053222D01*
X17119229Y-13053222D02*
X17128753Y-13072269D01*
X17128753Y-13072269D02*
X17128753Y-13119888D01*
X17128753Y-13119888D02*
X17119229Y-13138936D01*
X17119229Y-13138936D02*
X17109705Y-13148460D01*
X17109705Y-13148460D02*
X17090658Y-13157984D01*
X17090658Y-13157984D02*
X17033515Y-13157984D01*
X17033515Y-13157984D02*
X17014467Y-13148460D01*
X17014467Y-13148460D02*
X17004944Y-13138936D01*
X17252563Y-12957984D02*
X17271610Y-12957984D01*
X17271610Y-12957984D02*
X17290658Y-12967508D01*
X17290658Y-12967508D02*
X17300182Y-12977031D01*
X17300182Y-12977031D02*
X17309705Y-12996079D01*
X17309705Y-12996079D02*
X17319229Y-13034174D01*
X17319229Y-13034174D02*
X17319229Y-13081793D01*
X17319229Y-13081793D02*
X17309705Y-13119888D01*
X17309705Y-13119888D02*
X17300182Y-13138936D01*
X17300182Y-13138936D02*
X17290658Y-13148460D01*
X17290658Y-13148460D02*
X17271610Y-13157984D01*
X17271610Y-13157984D02*
X17252563Y-13157984D01*
X17252563Y-13157984D02*
X17233515Y-13148460D01*
X17233515Y-13148460D02*
X17223991Y-13138936D01*
X17223991Y-13138936D02*
X17214467Y-13119888D01*
X17214467Y-13119888D02*
X17204944Y-13081793D01*
X17204944Y-13081793D02*
X17204944Y-13034174D01*
X17204944Y-13034174D02*
X17214467Y-12996079D01*
X17214467Y-12996079D02*
X17223991Y-12977031D01*
X17223991Y-12977031D02*
X17233515Y-12967508D01*
X17233515Y-12967508D02*
X17252563Y-12957984D01*
X17443039Y-12957984D02*
X17462086Y-12957984D01*
X17462086Y-12957984D02*
X17481134Y-12967508D01*
X17481134Y-12967508D02*
X17490658Y-12977031D01*
X17490658Y-12977031D02*
X17500182Y-12996079D01*
X17500182Y-12996079D02*
X17509705Y-13034174D01*
X17509705Y-13034174D02*
X17509705Y-13081793D01*
X17509705Y-13081793D02*
X17500182Y-13119888D01*
X17500182Y-13119888D02*
X17490658Y-13138936D01*
X17490658Y-13138936D02*
X17481134Y-13148460D01*
X17481134Y-13148460D02*
X17462086Y-13157984D01*
X17462086Y-13157984D02*
X17443039Y-13157984D01*
X17443039Y-13157984D02*
X17423991Y-13148460D01*
X17423991Y-13148460D02*
X17414467Y-13138936D01*
X17414467Y-13138936D02*
X17404944Y-13119888D01*
X17404944Y-13119888D02*
X17395420Y-13081793D01*
X17395420Y-13081793D02*
X17395420Y-13034174D01*
X17395420Y-13034174D02*
X17404944Y-12996079D01*
X17404944Y-12996079D02*
X17414467Y-12977031D01*
X17414467Y-12977031D02*
X17423991Y-12967508D01*
X17423991Y-12967508D02*
X17443039Y-12957984D01*
X17595420Y-13157984D02*
X17595420Y-13024650D01*
X17595420Y-13043698D02*
X17604944Y-13034174D01*
X17604944Y-13034174D02*
X17623991Y-13024650D01*
X17623991Y-13024650D02*
X17652563Y-13024650D01*
X17652563Y-13024650D02*
X17671610Y-13034174D01*
X17671610Y-13034174D02*
X17681134Y-13053222D01*
X17681134Y-13053222D02*
X17681134Y-13157984D01*
X17681134Y-13053222D02*
X17690658Y-13034174D01*
X17690658Y-13034174D02*
X17709705Y-13024650D01*
X17709705Y-13024650D02*
X17738277Y-13024650D01*
X17738277Y-13024650D02*
X17757325Y-13034174D01*
X17757325Y-13034174D02*
X17766848Y-13053222D01*
X17766848Y-13053222D02*
X17766848Y-13157984D01*
X17862086Y-13157984D02*
X17862086Y-13024650D01*
X17862086Y-13043698D02*
X17871610Y-13034174D01*
X17871610Y-13034174D02*
X17890658Y-13024650D01*
X17890658Y-13024650D02*
X17919229Y-13024650D01*
X17919229Y-13024650D02*
X17938277Y-13034174D01*
X17938277Y-13034174D02*
X17947801Y-13053222D01*
X17947801Y-13053222D02*
X17947801Y-13157984D01*
X17947801Y-13053222D02*
X17957325Y-13034174D01*
X17957325Y-13034174D02*
X17976372Y-13024650D01*
X17976372Y-13024650D02*
X18004944Y-13024650D01*
X18004944Y-13024650D02*
X18023991Y-13034174D01*
X18023991Y-13034174D02*
X18033515Y-13053222D01*
X18033515Y-13053222D02*
X18033515Y-13157984D01*
X18423991Y-12948460D02*
X18252563Y-13205603D01*
X18681134Y-12957984D02*
X18700182Y-12957984D01*
X18700182Y-12957984D02*
X18719229Y-12967508D01*
X18719229Y-12967508D02*
X18728753Y-12977031D01*
X18728753Y-12977031D02*
X18738277Y-12996079D01*
X18738277Y-12996079D02*
X18747801Y-13034174D01*
X18747801Y-13034174D02*
X18747801Y-13081793D01*
X18747801Y-13081793D02*
X18738277Y-13119888D01*
X18738277Y-13119888D02*
X18728753Y-13138936D01*
X18728753Y-13138936D02*
X18719229Y-13148460D01*
X18719229Y-13148460D02*
X18700182Y-13157984D01*
X18700182Y-13157984D02*
X18681134Y-13157984D01*
X18681134Y-13157984D02*
X18662087Y-13148460D01*
X18662087Y-13148460D02*
X18652563Y-13138936D01*
X18652563Y-13138936D02*
X18643039Y-13119888D01*
X18643039Y-13119888D02*
X18633515Y-13081793D01*
X18633515Y-13081793D02*
X18633515Y-13034174D01*
X18633515Y-13034174D02*
X18643039Y-12996079D01*
X18643039Y-12996079D02*
X18652563Y-12977031D01*
X18652563Y-12977031D02*
X18662087Y-12967508D01*
X18662087Y-12967508D02*
X18681134Y-12957984D01*
X18833515Y-13138936D02*
X18843039Y-13148460D01*
X18843039Y-13148460D02*
X18833515Y-13157984D01*
X18833515Y-13157984D02*
X18823991Y-13148460D01*
X18823991Y-13148460D02*
X18833515Y-13138936D01*
X18833515Y-13138936D02*
X18833515Y-13157984D01*
X18966848Y-12957984D02*
X18985896Y-12957984D01*
X18985896Y-12957984D02*
X19004944Y-12967508D01*
X19004944Y-12967508D02*
X19014468Y-12977031D01*
X19014468Y-12977031D02*
X19023991Y-12996079D01*
X19023991Y-12996079D02*
X19033515Y-13034174D01*
X19033515Y-13034174D02*
X19033515Y-13081793D01*
X19033515Y-13081793D02*
X19023991Y-13119888D01*
X19023991Y-13119888D02*
X19014468Y-13138936D01*
X19014468Y-13138936D02*
X19004944Y-13148460D01*
X19004944Y-13148460D02*
X18985896Y-13157984D01*
X18985896Y-13157984D02*
X18966848Y-13157984D01*
X18966848Y-13157984D02*
X18947801Y-13148460D01*
X18947801Y-13148460D02*
X18938277Y-13138936D01*
X18938277Y-13138936D02*
X18928753Y-13119888D01*
X18928753Y-13119888D02*
X18919229Y-13081793D01*
X18919229Y-13081793D02*
X18919229Y-13034174D01*
X18919229Y-13034174D02*
X18928753Y-12996079D01*
X18928753Y-12996079D02*
X18938277Y-12977031D01*
X18938277Y-12977031D02*
X18947801Y-12967508D01*
X18947801Y-12967508D02*
X18966848Y-12957984D01*
X19223991Y-13157984D02*
X19109706Y-13157984D01*
X19166848Y-13157984D02*
X19166848Y-12957984D01*
X19166848Y-12957984D02*
X19147801Y-12986555D01*
X19147801Y-12986555D02*
X19128753Y-13005603D01*
X19128753Y-13005603D02*
X19109706Y-13015127D01*
X19414468Y-13157984D02*
X19300182Y-13157984D01*
X19357325Y-13157984D02*
X19357325Y-12957984D01*
X19357325Y-12957984D02*
X19338277Y-12986555D01*
X19338277Y-12986555D02*
X19319229Y-13005603D01*
X19319229Y-13005603D02*
X19300182Y-13015127D01*
X19528753Y-13043698D02*
X19509706Y-13034174D01*
X19509706Y-13034174D02*
X19500182Y-13024650D01*
X19500182Y-13024650D02*
X19490658Y-13005603D01*
X19490658Y-13005603D02*
X19490658Y-12996079D01*
X19490658Y-12996079D02*
X19500182Y-12977031D01*
X19500182Y-12977031D02*
X19509706Y-12967508D01*
X19509706Y-12967508D02*
X19528753Y-12957984D01*
X19528753Y-12957984D02*
X19566849Y-12957984D01*
X19566849Y-12957984D02*
X19585896Y-12967508D01*
X19585896Y-12967508D02*
X19595420Y-12977031D01*
X19595420Y-12977031D02*
X19604944Y-12996079D01*
X19604944Y-12996079D02*
X19604944Y-13005603D01*
X19604944Y-13005603D02*
X19595420Y-13024650D01*
X19595420Y-13024650D02*
X19585896Y-13034174D01*
X19585896Y-13034174D02*
X19566849Y-13043698D01*
X19566849Y-13043698D02*
X19528753Y-13043698D01*
X19528753Y-13043698D02*
X19509706Y-13053222D01*
X19509706Y-13053222D02*
X19500182Y-13062746D01*
X19500182Y-13062746D02*
X19490658Y-13081793D01*
X19490658Y-13081793D02*
X19490658Y-13119888D01*
X19490658Y-13119888D02*
X19500182Y-13138936D01*
X19500182Y-13138936D02*
X19509706Y-13148460D01*
X19509706Y-13148460D02*
X19528753Y-13157984D01*
X19528753Y-13157984D02*
X19566849Y-13157984D01*
X19566849Y-13157984D02*
X19585896Y-13148460D01*
X19585896Y-13148460D02*
X19595420Y-13138936D01*
X19595420Y-13138936D02*
X19604944Y-13119888D01*
X19604944Y-13119888D02*
X19604944Y-13081793D01*
X19604944Y-13081793D02*
X19595420Y-13062746D01*
X19595420Y-13062746D02*
X19585896Y-13053222D01*
X19585896Y-13053222D02*
X19566849Y-13043698D01*
X19681134Y-12957984D02*
X19681134Y-12996079D01*
X19757325Y-12957984D02*
X19757325Y-12996079D01*
X20052563Y-13234174D02*
X20043039Y-13224650D01*
X20043039Y-13224650D02*
X20023991Y-13196079D01*
X20023991Y-13196079D02*
X20014468Y-13177031D01*
X20014468Y-13177031D02*
X20004944Y-13148460D01*
X20004944Y-13148460D02*
X19995420Y-13100841D01*
X19995420Y-13100841D02*
X19995420Y-13062746D01*
X19995420Y-13062746D02*
X20004944Y-13015127D01*
X20004944Y-13015127D02*
X20014468Y-12986555D01*
X20014468Y-12986555D02*
X20023991Y-12967508D01*
X20023991Y-12967508D02*
X20043039Y-12938936D01*
X20043039Y-12938936D02*
X20052563Y-12929412D01*
X20233515Y-13157984D02*
X20119230Y-13157984D01*
X20176372Y-13157984D02*
X20176372Y-12957984D01*
X20176372Y-12957984D02*
X20157325Y-12986555D01*
X20157325Y-12986555D02*
X20138277Y-13005603D01*
X20138277Y-13005603D02*
X20119230Y-13015127D01*
X20347801Y-13043698D02*
X20328753Y-13034174D01*
X20328753Y-13034174D02*
X20319230Y-13024650D01*
X20319230Y-13024650D02*
X20309706Y-13005603D01*
X20309706Y-13005603D02*
X20309706Y-12996079D01*
X20309706Y-12996079D02*
X20319230Y-12977031D01*
X20319230Y-12977031D02*
X20328753Y-12967508D01*
X20328753Y-12967508D02*
X20347801Y-12957984D01*
X20347801Y-12957984D02*
X20385896Y-12957984D01*
X20385896Y-12957984D02*
X20404944Y-12967508D01*
X20404944Y-12967508D02*
X20414468Y-12977031D01*
X20414468Y-12977031D02*
X20423991Y-12996079D01*
X20423991Y-12996079D02*
X20423991Y-13005603D01*
X20423991Y-13005603D02*
X20414468Y-13024650D01*
X20414468Y-13024650D02*
X20404944Y-13034174D01*
X20404944Y-13034174D02*
X20385896Y-13043698D01*
X20385896Y-13043698D02*
X20347801Y-13043698D01*
X20347801Y-13043698D02*
X20328753Y-13053222D01*
X20328753Y-13053222D02*
X20319230Y-13062746D01*
X20319230Y-13062746D02*
X20309706Y-13081793D01*
X20309706Y-13081793D02*
X20309706Y-13119888D01*
X20309706Y-13119888D02*
X20319230Y-13138936D01*
X20319230Y-13138936D02*
X20328753Y-13148460D01*
X20328753Y-13148460D02*
X20347801Y-13157984D01*
X20347801Y-13157984D02*
X20385896Y-13157984D01*
X20385896Y-13157984D02*
X20404944Y-13148460D01*
X20404944Y-13148460D02*
X20414468Y-13138936D01*
X20414468Y-13138936D02*
X20423991Y-13119888D01*
X20423991Y-13119888D02*
X20423991Y-13081793D01*
X20423991Y-13081793D02*
X20414468Y-13062746D01*
X20414468Y-13062746D02*
X20404944Y-13053222D01*
X20404944Y-13053222D02*
X20385896Y-13043698D01*
X20662087Y-13157984D02*
X20662087Y-12957984D01*
X20747801Y-13157984D02*
X20747801Y-13053222D01*
X20747801Y-13053222D02*
X20738277Y-13034174D01*
X20738277Y-13034174D02*
X20719230Y-13024650D01*
X20719230Y-13024650D02*
X20690658Y-13024650D01*
X20690658Y-13024650D02*
X20671611Y-13034174D01*
X20671611Y-13034174D02*
X20662087Y-13043698D01*
X20871611Y-13157984D02*
X20852563Y-13148460D01*
X20852563Y-13148460D02*
X20843039Y-13138936D01*
X20843039Y-13138936D02*
X20833515Y-13119888D01*
X20833515Y-13119888D02*
X20833515Y-13062746D01*
X20833515Y-13062746D02*
X20843039Y-13043698D01*
X20843039Y-13043698D02*
X20852563Y-13034174D01*
X20852563Y-13034174D02*
X20871611Y-13024650D01*
X20871611Y-13024650D02*
X20900182Y-13024650D01*
X20900182Y-13024650D02*
X20919230Y-13034174D01*
X20919230Y-13034174D02*
X20928753Y-13043698D01*
X20928753Y-13043698D02*
X20938277Y-13062746D01*
X20938277Y-13062746D02*
X20938277Y-13119888D01*
X20938277Y-13119888D02*
X20928753Y-13138936D01*
X20928753Y-13138936D02*
X20919230Y-13148460D01*
X20919230Y-13148460D02*
X20900182Y-13157984D01*
X20900182Y-13157984D02*
X20871611Y-13157984D01*
X21052563Y-13157984D02*
X21033515Y-13148460D01*
X21033515Y-13148460D02*
X21023992Y-13129412D01*
X21023992Y-13129412D02*
X21023992Y-12957984D01*
X21204944Y-13148460D02*
X21185896Y-13157984D01*
X21185896Y-13157984D02*
X21147801Y-13157984D01*
X21147801Y-13157984D02*
X21128753Y-13148460D01*
X21128753Y-13148460D02*
X21119230Y-13129412D01*
X21119230Y-13129412D02*
X21119230Y-13053222D01*
X21119230Y-13053222D02*
X21128753Y-13034174D01*
X21128753Y-13034174D02*
X21147801Y-13024650D01*
X21147801Y-13024650D02*
X21185896Y-13024650D01*
X21185896Y-13024650D02*
X21204944Y-13034174D01*
X21204944Y-13034174D02*
X21214468Y-13053222D01*
X21214468Y-13053222D02*
X21214468Y-13072269D01*
X21214468Y-13072269D02*
X21119230Y-13091317D01*
X21290658Y-13148460D02*
X21309706Y-13157984D01*
X21309706Y-13157984D02*
X21347801Y-13157984D01*
X21347801Y-13157984D02*
X21366849Y-13148460D01*
X21366849Y-13148460D02*
X21376373Y-13129412D01*
X21376373Y-13129412D02*
X21376373Y-13119888D01*
X21376373Y-13119888D02*
X21366849Y-13100841D01*
X21366849Y-13100841D02*
X21347801Y-13091317D01*
X21347801Y-13091317D02*
X21319230Y-13091317D01*
X21319230Y-13091317D02*
X21300182Y-13081793D01*
X21300182Y-13081793D02*
X21290658Y-13062746D01*
X21290658Y-13062746D02*
X21290658Y-13053222D01*
X21290658Y-13053222D02*
X21300182Y-13034174D01*
X21300182Y-13034174D02*
X21319230Y-13024650D01*
X21319230Y-13024650D02*
X21347801Y-13024650D01*
X21347801Y-13024650D02*
X21366849Y-13034174D01*
X21443039Y-13234174D02*
X21452563Y-13224650D01*
X21452563Y-13224650D02*
X21471611Y-13196079D01*
X21471611Y-13196079D02*
X21481134Y-13177031D01*
X21481134Y-13177031D02*
X21490658Y-13148460D01*
X21490658Y-13148460D02*
X21500182Y-13100841D01*
X21500182Y-13100841D02*
X21500182Y-13062746D01*
X21500182Y-13062746D02*
X21490658Y-13015127D01*
X21490658Y-13015127D02*
X21481134Y-12986555D01*
X21481134Y-12986555D02*
X21471611Y-12967508D01*
X21471611Y-12967508D02*
X21452563Y-12938936D01*
X21452563Y-12938936D02*
X21443039Y-12929412D01*
D12*
X16457500Y-13310500D02*
X16457500Y-13350500D01*
X16437500Y-13330500D02*
X16477500Y-13330500D01*
D11*
X16776372Y-13221984D02*
X16795420Y-13221984D01*
X16795420Y-13221984D02*
X16814467Y-13231508D01*
X16814467Y-13231508D02*
X16823991Y-13241031D01*
X16823991Y-13241031D02*
X16833515Y-13260079D01*
X16833515Y-13260079D02*
X16843039Y-13298174D01*
X16843039Y-13298174D02*
X16843039Y-13345793D01*
X16843039Y-13345793D02*
X16833515Y-13383888D01*
X16833515Y-13383888D02*
X16823991Y-13402936D01*
X16823991Y-13402936D02*
X16814467Y-13412460D01*
X16814467Y-13412460D02*
X16795420Y-13421984D01*
X16795420Y-13421984D02*
X16776372Y-13421984D01*
X16776372Y-13421984D02*
X16757324Y-13412460D01*
X16757324Y-13412460D02*
X16747801Y-13402936D01*
X16747801Y-13402936D02*
X16738277Y-13383888D01*
X16738277Y-13383888D02*
X16728753Y-13345793D01*
X16728753Y-13345793D02*
X16728753Y-13298174D01*
X16728753Y-13298174D02*
X16738277Y-13260079D01*
X16738277Y-13260079D02*
X16747801Y-13241031D01*
X16747801Y-13241031D02*
X16757324Y-13231508D01*
X16757324Y-13231508D02*
X16776372Y-13221984D01*
X16928753Y-13402936D02*
X16938277Y-13412460D01*
X16938277Y-13412460D02*
X16928753Y-13421984D01*
X16928753Y-13421984D02*
X16919229Y-13412460D01*
X16919229Y-13412460D02*
X16928753Y-13402936D01*
X16928753Y-13402936D02*
X16928753Y-13421984D01*
X17109705Y-13288650D02*
X17109705Y-13421984D01*
X17062086Y-13212460D02*
X17014467Y-13355317D01*
X17014467Y-13355317D02*
X17138277Y-13355317D01*
X17252563Y-13221984D02*
X17271610Y-13221984D01*
X17271610Y-13221984D02*
X17290658Y-13231508D01*
X17290658Y-13231508D02*
X17300182Y-13241031D01*
X17300182Y-13241031D02*
X17309705Y-13260079D01*
X17309705Y-13260079D02*
X17319229Y-13298174D01*
X17319229Y-13298174D02*
X17319229Y-13345793D01*
X17319229Y-13345793D02*
X17309705Y-13383888D01*
X17309705Y-13383888D02*
X17300182Y-13402936D01*
X17300182Y-13402936D02*
X17290658Y-13412460D01*
X17290658Y-13412460D02*
X17271610Y-13421984D01*
X17271610Y-13421984D02*
X17252563Y-13421984D01*
X17252563Y-13421984D02*
X17233515Y-13412460D01*
X17233515Y-13412460D02*
X17223991Y-13402936D01*
X17223991Y-13402936D02*
X17214467Y-13383888D01*
X17214467Y-13383888D02*
X17204944Y-13345793D01*
X17204944Y-13345793D02*
X17204944Y-13298174D01*
X17204944Y-13298174D02*
X17214467Y-13260079D01*
X17214467Y-13260079D02*
X17223991Y-13241031D01*
X17223991Y-13241031D02*
X17233515Y-13231508D01*
X17233515Y-13231508D02*
X17252563Y-13221984D01*
X17443039Y-13221984D02*
X17462086Y-13221984D01*
X17462086Y-13221984D02*
X17481134Y-13231508D01*
X17481134Y-13231508D02*
X17490658Y-13241031D01*
X17490658Y-13241031D02*
X17500182Y-13260079D01*
X17500182Y-13260079D02*
X17509705Y-13298174D01*
X17509705Y-13298174D02*
X17509705Y-13345793D01*
X17509705Y-13345793D02*
X17500182Y-13383888D01*
X17500182Y-13383888D02*
X17490658Y-13402936D01*
X17490658Y-13402936D02*
X17481134Y-13412460D01*
X17481134Y-13412460D02*
X17462086Y-13421984D01*
X17462086Y-13421984D02*
X17443039Y-13421984D01*
X17443039Y-13421984D02*
X17423991Y-13412460D01*
X17423991Y-13412460D02*
X17414467Y-13402936D01*
X17414467Y-13402936D02*
X17404944Y-13383888D01*
X17404944Y-13383888D02*
X17395420Y-13345793D01*
X17395420Y-13345793D02*
X17395420Y-13298174D01*
X17395420Y-13298174D02*
X17404944Y-13260079D01*
X17404944Y-13260079D02*
X17414467Y-13241031D01*
X17414467Y-13241031D02*
X17423991Y-13231508D01*
X17423991Y-13231508D02*
X17443039Y-13221984D01*
X17595420Y-13421984D02*
X17595420Y-13288650D01*
X17595420Y-13307698D02*
X17604944Y-13298174D01*
X17604944Y-13298174D02*
X17623991Y-13288650D01*
X17623991Y-13288650D02*
X17652563Y-13288650D01*
X17652563Y-13288650D02*
X17671610Y-13298174D01*
X17671610Y-13298174D02*
X17681134Y-13317222D01*
X17681134Y-13317222D02*
X17681134Y-13421984D01*
X17681134Y-13317222D02*
X17690658Y-13298174D01*
X17690658Y-13298174D02*
X17709705Y-13288650D01*
X17709705Y-13288650D02*
X17738277Y-13288650D01*
X17738277Y-13288650D02*
X17757325Y-13298174D01*
X17757325Y-13298174D02*
X17766848Y-13317222D01*
X17766848Y-13317222D02*
X17766848Y-13421984D01*
X17862086Y-13421984D02*
X17862086Y-13288650D01*
X17862086Y-13307698D02*
X17871610Y-13298174D01*
X17871610Y-13298174D02*
X17890658Y-13288650D01*
X17890658Y-13288650D02*
X17919229Y-13288650D01*
X17919229Y-13288650D02*
X17938277Y-13298174D01*
X17938277Y-13298174D02*
X17947801Y-13317222D01*
X17947801Y-13317222D02*
X17947801Y-13421984D01*
X17947801Y-13317222D02*
X17957325Y-13298174D01*
X17957325Y-13298174D02*
X17976372Y-13288650D01*
X17976372Y-13288650D02*
X18004944Y-13288650D01*
X18004944Y-13288650D02*
X18023991Y-13298174D01*
X18023991Y-13298174D02*
X18033515Y-13317222D01*
X18033515Y-13317222D02*
X18033515Y-13421984D01*
X18423991Y-13212460D02*
X18252563Y-13469603D01*
X18681134Y-13221984D02*
X18700182Y-13221984D01*
X18700182Y-13221984D02*
X18719229Y-13231508D01*
X18719229Y-13231508D02*
X18728753Y-13241031D01*
X18728753Y-13241031D02*
X18738277Y-13260079D01*
X18738277Y-13260079D02*
X18747801Y-13298174D01*
X18747801Y-13298174D02*
X18747801Y-13345793D01*
X18747801Y-13345793D02*
X18738277Y-13383888D01*
X18738277Y-13383888D02*
X18728753Y-13402936D01*
X18728753Y-13402936D02*
X18719229Y-13412460D01*
X18719229Y-13412460D02*
X18700182Y-13421984D01*
X18700182Y-13421984D02*
X18681134Y-13421984D01*
X18681134Y-13421984D02*
X18662087Y-13412460D01*
X18662087Y-13412460D02*
X18652563Y-13402936D01*
X18652563Y-13402936D02*
X18643039Y-13383888D01*
X18643039Y-13383888D02*
X18633515Y-13345793D01*
X18633515Y-13345793D02*
X18633515Y-13298174D01*
X18633515Y-13298174D02*
X18643039Y-13260079D01*
X18643039Y-13260079D02*
X18652563Y-13241031D01*
X18652563Y-13241031D02*
X18662087Y-13231508D01*
X18662087Y-13231508D02*
X18681134Y-13221984D01*
X18833515Y-13402936D02*
X18843039Y-13412460D01*
X18843039Y-13412460D02*
X18833515Y-13421984D01*
X18833515Y-13421984D02*
X18823991Y-13412460D01*
X18823991Y-13412460D02*
X18833515Y-13402936D01*
X18833515Y-13402936D02*
X18833515Y-13421984D01*
X18966848Y-13221984D02*
X18985896Y-13221984D01*
X18985896Y-13221984D02*
X19004944Y-13231508D01*
X19004944Y-13231508D02*
X19014468Y-13241031D01*
X19014468Y-13241031D02*
X19023991Y-13260079D01*
X19023991Y-13260079D02*
X19033515Y-13298174D01*
X19033515Y-13298174D02*
X19033515Y-13345793D01*
X19033515Y-13345793D02*
X19023991Y-13383888D01*
X19023991Y-13383888D02*
X19014468Y-13402936D01*
X19014468Y-13402936D02*
X19004944Y-13412460D01*
X19004944Y-13412460D02*
X18985896Y-13421984D01*
X18985896Y-13421984D02*
X18966848Y-13421984D01*
X18966848Y-13421984D02*
X18947801Y-13412460D01*
X18947801Y-13412460D02*
X18938277Y-13402936D01*
X18938277Y-13402936D02*
X18928753Y-13383888D01*
X18928753Y-13383888D02*
X18919229Y-13345793D01*
X18919229Y-13345793D02*
X18919229Y-13298174D01*
X18919229Y-13298174D02*
X18928753Y-13260079D01*
X18928753Y-13260079D02*
X18938277Y-13241031D01*
X18938277Y-13241031D02*
X18947801Y-13231508D01*
X18947801Y-13231508D02*
X18966848Y-13221984D01*
X19223991Y-13421984D02*
X19109706Y-13421984D01*
X19166848Y-13421984D02*
X19166848Y-13221984D01*
X19166848Y-13221984D02*
X19147801Y-13250555D01*
X19147801Y-13250555D02*
X19128753Y-13269603D01*
X19128753Y-13269603D02*
X19109706Y-13279127D01*
X19404944Y-13221984D02*
X19309706Y-13221984D01*
X19309706Y-13221984D02*
X19300182Y-13317222D01*
X19300182Y-13317222D02*
X19309706Y-13307698D01*
X19309706Y-13307698D02*
X19328753Y-13298174D01*
X19328753Y-13298174D02*
X19376372Y-13298174D01*
X19376372Y-13298174D02*
X19395420Y-13307698D01*
X19395420Y-13307698D02*
X19404944Y-13317222D01*
X19404944Y-13317222D02*
X19414468Y-13336269D01*
X19414468Y-13336269D02*
X19414468Y-13383888D01*
X19414468Y-13383888D02*
X19404944Y-13402936D01*
X19404944Y-13402936D02*
X19395420Y-13412460D01*
X19395420Y-13412460D02*
X19376372Y-13421984D01*
X19376372Y-13421984D02*
X19328753Y-13421984D01*
X19328753Y-13421984D02*
X19309706Y-13412460D01*
X19309706Y-13412460D02*
X19300182Y-13402936D01*
X19481134Y-13221984D02*
X19614468Y-13221984D01*
X19614468Y-13221984D02*
X19528753Y-13421984D01*
X19681134Y-13221984D02*
X19681134Y-13260079D01*
X19757325Y-13221984D02*
X19757325Y-13260079D01*
X20052563Y-13498174D02*
X20043039Y-13488650D01*
X20043039Y-13488650D02*
X20023991Y-13460079D01*
X20023991Y-13460079D02*
X20014468Y-13441031D01*
X20014468Y-13441031D02*
X20004944Y-13412460D01*
X20004944Y-13412460D02*
X19995420Y-13364841D01*
X19995420Y-13364841D02*
X19995420Y-13326746D01*
X19995420Y-13326746D02*
X20004944Y-13279127D01*
X20004944Y-13279127D02*
X20014468Y-13250555D01*
X20014468Y-13250555D02*
X20023991Y-13231508D01*
X20023991Y-13231508D02*
X20043039Y-13202936D01*
X20043039Y-13202936D02*
X20052563Y-13193412D01*
X20119230Y-13241031D02*
X20128753Y-13231508D01*
X20128753Y-13231508D02*
X20147801Y-13221984D01*
X20147801Y-13221984D02*
X20195420Y-13221984D01*
X20195420Y-13221984D02*
X20214468Y-13231508D01*
X20214468Y-13231508D02*
X20223991Y-13241031D01*
X20223991Y-13241031D02*
X20233515Y-13260079D01*
X20233515Y-13260079D02*
X20233515Y-13279127D01*
X20233515Y-13279127D02*
X20223991Y-13307698D01*
X20223991Y-13307698D02*
X20109706Y-13421984D01*
X20109706Y-13421984D02*
X20233515Y-13421984D01*
X20300182Y-13221984D02*
X20423991Y-13221984D01*
X20423991Y-13221984D02*
X20357325Y-13298174D01*
X20357325Y-13298174D02*
X20385896Y-13298174D01*
X20385896Y-13298174D02*
X20404944Y-13307698D01*
X20404944Y-13307698D02*
X20414468Y-13317222D01*
X20414468Y-13317222D02*
X20423991Y-13336269D01*
X20423991Y-13336269D02*
X20423991Y-13383888D01*
X20423991Y-13383888D02*
X20414468Y-13402936D01*
X20414468Y-13402936D02*
X20404944Y-13412460D01*
X20404944Y-13412460D02*
X20385896Y-13421984D01*
X20385896Y-13421984D02*
X20328753Y-13421984D01*
X20328753Y-13421984D02*
X20309706Y-13412460D01*
X20309706Y-13412460D02*
X20300182Y-13402936D01*
X20662087Y-13421984D02*
X20662087Y-13221984D01*
X20747801Y-13421984D02*
X20747801Y-13317222D01*
X20747801Y-13317222D02*
X20738277Y-13298174D01*
X20738277Y-13298174D02*
X20719230Y-13288650D01*
X20719230Y-13288650D02*
X20690658Y-13288650D01*
X20690658Y-13288650D02*
X20671611Y-13298174D01*
X20671611Y-13298174D02*
X20662087Y-13307698D01*
X20871611Y-13421984D02*
X20852563Y-13412460D01*
X20852563Y-13412460D02*
X20843039Y-13402936D01*
X20843039Y-13402936D02*
X20833515Y-13383888D01*
X20833515Y-13383888D02*
X20833515Y-13326746D01*
X20833515Y-13326746D02*
X20843039Y-13307698D01*
X20843039Y-13307698D02*
X20852563Y-13298174D01*
X20852563Y-13298174D02*
X20871611Y-13288650D01*
X20871611Y-13288650D02*
X20900182Y-13288650D01*
X20900182Y-13288650D02*
X20919230Y-13298174D01*
X20919230Y-13298174D02*
X20928753Y-13307698D01*
X20928753Y-13307698D02*
X20938277Y-13326746D01*
X20938277Y-13326746D02*
X20938277Y-13383888D01*
X20938277Y-13383888D02*
X20928753Y-13402936D01*
X20928753Y-13402936D02*
X20919230Y-13412460D01*
X20919230Y-13412460D02*
X20900182Y-13421984D01*
X20900182Y-13421984D02*
X20871611Y-13421984D01*
X21052563Y-13421984D02*
X21033515Y-13412460D01*
X21033515Y-13412460D02*
X21023992Y-13393412D01*
X21023992Y-13393412D02*
X21023992Y-13221984D01*
X21204944Y-13412460D02*
X21185896Y-13421984D01*
X21185896Y-13421984D02*
X21147801Y-13421984D01*
X21147801Y-13421984D02*
X21128753Y-13412460D01*
X21128753Y-13412460D02*
X21119230Y-13393412D01*
X21119230Y-13393412D02*
X21119230Y-13317222D01*
X21119230Y-13317222D02*
X21128753Y-13298174D01*
X21128753Y-13298174D02*
X21147801Y-13288650D01*
X21147801Y-13288650D02*
X21185896Y-13288650D01*
X21185896Y-13288650D02*
X21204944Y-13298174D01*
X21204944Y-13298174D02*
X21214468Y-13317222D01*
X21214468Y-13317222D02*
X21214468Y-13336269D01*
X21214468Y-13336269D02*
X21119230Y-13355317D01*
X21290658Y-13412460D02*
X21309706Y-13421984D01*
X21309706Y-13421984D02*
X21347801Y-13421984D01*
X21347801Y-13421984D02*
X21366849Y-13412460D01*
X21366849Y-13412460D02*
X21376373Y-13393412D01*
X21376373Y-13393412D02*
X21376373Y-13383888D01*
X21376373Y-13383888D02*
X21366849Y-13364841D01*
X21366849Y-13364841D02*
X21347801Y-13355317D01*
X21347801Y-13355317D02*
X21319230Y-13355317D01*
X21319230Y-13355317D02*
X21300182Y-13345793D01*
X21300182Y-13345793D02*
X21290658Y-13326746D01*
X21290658Y-13326746D02*
X21290658Y-13317222D01*
X21290658Y-13317222D02*
X21300182Y-13298174D01*
X21300182Y-13298174D02*
X21319230Y-13288650D01*
X21319230Y-13288650D02*
X21347801Y-13288650D01*
X21347801Y-13288650D02*
X21366849Y-13298174D01*
X21443039Y-13498174D02*
X21452563Y-13488650D01*
X21452563Y-13488650D02*
X21471611Y-13460079D01*
X21471611Y-13460079D02*
X21481134Y-13441031D01*
X21481134Y-13441031D02*
X21490658Y-13412460D01*
X21490658Y-13412460D02*
X21500182Y-13364841D01*
X21500182Y-13364841D02*
X21500182Y-13326746D01*
X21500182Y-13326746D02*
X21490658Y-13279127D01*
X21490658Y-13279127D02*
X21481134Y-13250555D01*
X21481134Y-13250555D02*
X21471611Y-13231508D01*
X21471611Y-13231508D02*
X21452563Y-13202936D01*
X21452563Y-13202936D02*
X21443039Y-13193412D01*
D12*
X16465784Y-13622784D02*
X16465784Y-13566215D01*
X16409215Y-13566215D01*
X16409215Y-13622784D01*
X16465784Y-13622784D01*
D11*
X16776372Y-13485984D02*
X16795420Y-13485984D01*
X16795420Y-13485984D02*
X16814467Y-13495508D01*
X16814467Y-13495508D02*
X16823991Y-13505031D01*
X16823991Y-13505031D02*
X16833515Y-13524079D01*
X16833515Y-13524079D02*
X16843039Y-13562174D01*
X16843039Y-13562174D02*
X16843039Y-13609793D01*
X16843039Y-13609793D02*
X16833515Y-13647888D01*
X16833515Y-13647888D02*
X16823991Y-13666936D01*
X16823991Y-13666936D02*
X16814467Y-13676460D01*
X16814467Y-13676460D02*
X16795420Y-13685984D01*
X16795420Y-13685984D02*
X16776372Y-13685984D01*
X16776372Y-13685984D02*
X16757324Y-13676460D01*
X16757324Y-13676460D02*
X16747801Y-13666936D01*
X16747801Y-13666936D02*
X16738277Y-13647888D01*
X16738277Y-13647888D02*
X16728753Y-13609793D01*
X16728753Y-13609793D02*
X16728753Y-13562174D01*
X16728753Y-13562174D02*
X16738277Y-13524079D01*
X16738277Y-13524079D02*
X16747801Y-13505031D01*
X16747801Y-13505031D02*
X16757324Y-13495508D01*
X16757324Y-13495508D02*
X16776372Y-13485984D01*
X16928753Y-13666936D02*
X16938277Y-13676460D01*
X16938277Y-13676460D02*
X16928753Y-13685984D01*
X16928753Y-13685984D02*
X16919229Y-13676460D01*
X16919229Y-13676460D02*
X16928753Y-13666936D01*
X16928753Y-13666936D02*
X16928753Y-13685984D01*
X17052563Y-13571698D02*
X17033515Y-13562174D01*
X17033515Y-13562174D02*
X17023991Y-13552650D01*
X17023991Y-13552650D02*
X17014467Y-13533603D01*
X17014467Y-13533603D02*
X17014467Y-13524079D01*
X17014467Y-13524079D02*
X17023991Y-13505031D01*
X17023991Y-13505031D02*
X17033515Y-13495508D01*
X17033515Y-13495508D02*
X17052563Y-13485984D01*
X17052563Y-13485984D02*
X17090658Y-13485984D01*
X17090658Y-13485984D02*
X17109705Y-13495508D01*
X17109705Y-13495508D02*
X17119229Y-13505031D01*
X17119229Y-13505031D02*
X17128753Y-13524079D01*
X17128753Y-13524079D02*
X17128753Y-13533603D01*
X17128753Y-13533603D02*
X17119229Y-13552650D01*
X17119229Y-13552650D02*
X17109705Y-13562174D01*
X17109705Y-13562174D02*
X17090658Y-13571698D01*
X17090658Y-13571698D02*
X17052563Y-13571698D01*
X17052563Y-13571698D02*
X17033515Y-13581222D01*
X17033515Y-13581222D02*
X17023991Y-13590746D01*
X17023991Y-13590746D02*
X17014467Y-13609793D01*
X17014467Y-13609793D02*
X17014467Y-13647888D01*
X17014467Y-13647888D02*
X17023991Y-13666936D01*
X17023991Y-13666936D02*
X17033515Y-13676460D01*
X17033515Y-13676460D02*
X17052563Y-13685984D01*
X17052563Y-13685984D02*
X17090658Y-13685984D01*
X17090658Y-13685984D02*
X17109705Y-13676460D01*
X17109705Y-13676460D02*
X17119229Y-13666936D01*
X17119229Y-13666936D02*
X17128753Y-13647888D01*
X17128753Y-13647888D02*
X17128753Y-13609793D01*
X17128753Y-13609793D02*
X17119229Y-13590746D01*
X17119229Y-13590746D02*
X17109705Y-13581222D01*
X17109705Y-13581222D02*
X17090658Y-13571698D01*
X17252563Y-13485984D02*
X17271610Y-13485984D01*
X17271610Y-13485984D02*
X17290658Y-13495508D01*
X17290658Y-13495508D02*
X17300182Y-13505031D01*
X17300182Y-13505031D02*
X17309705Y-13524079D01*
X17309705Y-13524079D02*
X17319229Y-13562174D01*
X17319229Y-13562174D02*
X17319229Y-13609793D01*
X17319229Y-13609793D02*
X17309705Y-13647888D01*
X17309705Y-13647888D02*
X17300182Y-13666936D01*
X17300182Y-13666936D02*
X17290658Y-13676460D01*
X17290658Y-13676460D02*
X17271610Y-13685984D01*
X17271610Y-13685984D02*
X17252563Y-13685984D01*
X17252563Y-13685984D02*
X17233515Y-13676460D01*
X17233515Y-13676460D02*
X17223991Y-13666936D01*
X17223991Y-13666936D02*
X17214467Y-13647888D01*
X17214467Y-13647888D02*
X17204944Y-13609793D01*
X17204944Y-13609793D02*
X17204944Y-13562174D01*
X17204944Y-13562174D02*
X17214467Y-13524079D01*
X17214467Y-13524079D02*
X17223991Y-13505031D01*
X17223991Y-13505031D02*
X17233515Y-13495508D01*
X17233515Y-13495508D02*
X17252563Y-13485984D01*
X17443039Y-13485984D02*
X17462086Y-13485984D01*
X17462086Y-13485984D02*
X17481134Y-13495508D01*
X17481134Y-13495508D02*
X17490658Y-13505031D01*
X17490658Y-13505031D02*
X17500182Y-13524079D01*
X17500182Y-13524079D02*
X17509705Y-13562174D01*
X17509705Y-13562174D02*
X17509705Y-13609793D01*
X17509705Y-13609793D02*
X17500182Y-13647888D01*
X17500182Y-13647888D02*
X17490658Y-13666936D01*
X17490658Y-13666936D02*
X17481134Y-13676460D01*
X17481134Y-13676460D02*
X17462086Y-13685984D01*
X17462086Y-13685984D02*
X17443039Y-13685984D01*
X17443039Y-13685984D02*
X17423991Y-13676460D01*
X17423991Y-13676460D02*
X17414467Y-13666936D01*
X17414467Y-13666936D02*
X17404944Y-13647888D01*
X17404944Y-13647888D02*
X17395420Y-13609793D01*
X17395420Y-13609793D02*
X17395420Y-13562174D01*
X17395420Y-13562174D02*
X17404944Y-13524079D01*
X17404944Y-13524079D02*
X17414467Y-13505031D01*
X17414467Y-13505031D02*
X17423991Y-13495508D01*
X17423991Y-13495508D02*
X17443039Y-13485984D01*
X17595420Y-13685984D02*
X17595420Y-13552650D01*
X17595420Y-13571698D02*
X17604944Y-13562174D01*
X17604944Y-13562174D02*
X17623991Y-13552650D01*
X17623991Y-13552650D02*
X17652563Y-13552650D01*
X17652563Y-13552650D02*
X17671610Y-13562174D01*
X17671610Y-13562174D02*
X17681134Y-13581222D01*
X17681134Y-13581222D02*
X17681134Y-13685984D01*
X17681134Y-13581222D02*
X17690658Y-13562174D01*
X17690658Y-13562174D02*
X17709705Y-13552650D01*
X17709705Y-13552650D02*
X17738277Y-13552650D01*
X17738277Y-13552650D02*
X17757325Y-13562174D01*
X17757325Y-13562174D02*
X17766848Y-13581222D01*
X17766848Y-13581222D02*
X17766848Y-13685984D01*
X17862086Y-13685984D02*
X17862086Y-13552650D01*
X17862086Y-13571698D02*
X17871610Y-13562174D01*
X17871610Y-13562174D02*
X17890658Y-13552650D01*
X17890658Y-13552650D02*
X17919229Y-13552650D01*
X17919229Y-13552650D02*
X17938277Y-13562174D01*
X17938277Y-13562174D02*
X17947801Y-13581222D01*
X17947801Y-13581222D02*
X17947801Y-13685984D01*
X17947801Y-13581222D02*
X17957325Y-13562174D01*
X17957325Y-13562174D02*
X17976372Y-13552650D01*
X17976372Y-13552650D02*
X18004944Y-13552650D01*
X18004944Y-13552650D02*
X18023991Y-13562174D01*
X18023991Y-13562174D02*
X18033515Y-13581222D01*
X18033515Y-13581222D02*
X18033515Y-13685984D01*
X18423991Y-13476460D02*
X18252563Y-13733603D01*
X18681134Y-13485984D02*
X18700182Y-13485984D01*
X18700182Y-13485984D02*
X18719229Y-13495508D01*
X18719229Y-13495508D02*
X18728753Y-13505031D01*
X18728753Y-13505031D02*
X18738277Y-13524079D01*
X18738277Y-13524079D02*
X18747801Y-13562174D01*
X18747801Y-13562174D02*
X18747801Y-13609793D01*
X18747801Y-13609793D02*
X18738277Y-13647888D01*
X18738277Y-13647888D02*
X18728753Y-13666936D01*
X18728753Y-13666936D02*
X18719229Y-13676460D01*
X18719229Y-13676460D02*
X18700182Y-13685984D01*
X18700182Y-13685984D02*
X18681134Y-13685984D01*
X18681134Y-13685984D02*
X18662087Y-13676460D01*
X18662087Y-13676460D02*
X18652563Y-13666936D01*
X18652563Y-13666936D02*
X18643039Y-13647888D01*
X18643039Y-13647888D02*
X18633515Y-13609793D01*
X18633515Y-13609793D02*
X18633515Y-13562174D01*
X18633515Y-13562174D02*
X18643039Y-13524079D01*
X18643039Y-13524079D02*
X18652563Y-13505031D01*
X18652563Y-13505031D02*
X18662087Y-13495508D01*
X18662087Y-13495508D02*
X18681134Y-13485984D01*
X18833515Y-13666936D02*
X18843039Y-13676460D01*
X18843039Y-13676460D02*
X18833515Y-13685984D01*
X18833515Y-13685984D02*
X18823991Y-13676460D01*
X18823991Y-13676460D02*
X18833515Y-13666936D01*
X18833515Y-13666936D02*
X18833515Y-13685984D01*
X18966848Y-13485984D02*
X18985896Y-13485984D01*
X18985896Y-13485984D02*
X19004944Y-13495508D01*
X19004944Y-13495508D02*
X19014468Y-13505031D01*
X19014468Y-13505031D02*
X19023991Y-13524079D01*
X19023991Y-13524079D02*
X19033515Y-13562174D01*
X19033515Y-13562174D02*
X19033515Y-13609793D01*
X19033515Y-13609793D02*
X19023991Y-13647888D01*
X19023991Y-13647888D02*
X19014468Y-13666936D01*
X19014468Y-13666936D02*
X19004944Y-13676460D01*
X19004944Y-13676460D02*
X18985896Y-13685984D01*
X18985896Y-13685984D02*
X18966848Y-13685984D01*
X18966848Y-13685984D02*
X18947801Y-13676460D01*
X18947801Y-13676460D02*
X18938277Y-13666936D01*
X18938277Y-13666936D02*
X18928753Y-13647888D01*
X18928753Y-13647888D02*
X18919229Y-13609793D01*
X18919229Y-13609793D02*
X18919229Y-13562174D01*
X18919229Y-13562174D02*
X18928753Y-13524079D01*
X18928753Y-13524079D02*
X18938277Y-13505031D01*
X18938277Y-13505031D02*
X18947801Y-13495508D01*
X18947801Y-13495508D02*
X18966848Y-13485984D01*
X19100182Y-13485984D02*
X19223991Y-13485984D01*
X19223991Y-13485984D02*
X19157325Y-13562174D01*
X19157325Y-13562174D02*
X19185896Y-13562174D01*
X19185896Y-13562174D02*
X19204944Y-13571698D01*
X19204944Y-13571698D02*
X19214468Y-13581222D01*
X19214468Y-13581222D02*
X19223991Y-13600269D01*
X19223991Y-13600269D02*
X19223991Y-13647888D01*
X19223991Y-13647888D02*
X19214468Y-13666936D01*
X19214468Y-13666936D02*
X19204944Y-13676460D01*
X19204944Y-13676460D02*
X19185896Y-13685984D01*
X19185896Y-13685984D02*
X19128753Y-13685984D01*
X19128753Y-13685984D02*
X19109706Y-13676460D01*
X19109706Y-13676460D02*
X19100182Y-13666936D01*
X19414468Y-13685984D02*
X19300182Y-13685984D01*
X19357325Y-13685984D02*
X19357325Y-13485984D01*
X19357325Y-13485984D02*
X19338277Y-13514555D01*
X19338277Y-13514555D02*
X19319229Y-13533603D01*
X19319229Y-13533603D02*
X19300182Y-13543127D01*
X19595420Y-13485984D02*
X19500182Y-13485984D01*
X19500182Y-13485984D02*
X19490658Y-13581222D01*
X19490658Y-13581222D02*
X19500182Y-13571698D01*
X19500182Y-13571698D02*
X19519229Y-13562174D01*
X19519229Y-13562174D02*
X19566849Y-13562174D01*
X19566849Y-13562174D02*
X19585896Y-13571698D01*
X19585896Y-13571698D02*
X19595420Y-13581222D01*
X19595420Y-13581222D02*
X19604944Y-13600269D01*
X19604944Y-13600269D02*
X19604944Y-13647888D01*
X19604944Y-13647888D02*
X19595420Y-13666936D01*
X19595420Y-13666936D02*
X19585896Y-13676460D01*
X19585896Y-13676460D02*
X19566849Y-13685984D01*
X19566849Y-13685984D02*
X19519229Y-13685984D01*
X19519229Y-13685984D02*
X19500182Y-13676460D01*
X19500182Y-13676460D02*
X19490658Y-13666936D01*
X19681134Y-13485984D02*
X19681134Y-13524079D01*
X19757325Y-13485984D02*
X19757325Y-13524079D01*
X20052563Y-13762174D02*
X20043039Y-13752650D01*
X20043039Y-13752650D02*
X20023991Y-13724079D01*
X20023991Y-13724079D02*
X20014468Y-13705031D01*
X20014468Y-13705031D02*
X20004944Y-13676460D01*
X20004944Y-13676460D02*
X19995420Y-13628841D01*
X19995420Y-13628841D02*
X19995420Y-13590746D01*
X19995420Y-13590746D02*
X20004944Y-13543127D01*
X20004944Y-13543127D02*
X20014468Y-13514555D01*
X20014468Y-13514555D02*
X20023991Y-13495508D01*
X20023991Y-13495508D02*
X20043039Y-13466936D01*
X20043039Y-13466936D02*
X20052563Y-13457412D01*
X20214468Y-13552650D02*
X20214468Y-13685984D01*
X20166849Y-13476460D02*
X20119230Y-13619317D01*
X20119230Y-13619317D02*
X20243039Y-13619317D01*
X20357325Y-13485984D02*
X20376372Y-13485984D01*
X20376372Y-13485984D02*
X20395420Y-13495508D01*
X20395420Y-13495508D02*
X20404944Y-13505031D01*
X20404944Y-13505031D02*
X20414468Y-13524079D01*
X20414468Y-13524079D02*
X20423991Y-13562174D01*
X20423991Y-13562174D02*
X20423991Y-13609793D01*
X20423991Y-13609793D02*
X20414468Y-13647888D01*
X20414468Y-13647888D02*
X20404944Y-13666936D01*
X20404944Y-13666936D02*
X20395420Y-13676460D01*
X20395420Y-13676460D02*
X20376372Y-13685984D01*
X20376372Y-13685984D02*
X20357325Y-13685984D01*
X20357325Y-13685984D02*
X20338277Y-13676460D01*
X20338277Y-13676460D02*
X20328753Y-13666936D01*
X20328753Y-13666936D02*
X20319230Y-13647888D01*
X20319230Y-13647888D02*
X20309706Y-13609793D01*
X20309706Y-13609793D02*
X20309706Y-13562174D01*
X20309706Y-13562174D02*
X20319230Y-13524079D01*
X20319230Y-13524079D02*
X20328753Y-13505031D01*
X20328753Y-13505031D02*
X20338277Y-13495508D01*
X20338277Y-13495508D02*
X20357325Y-13485984D01*
X20662087Y-13685984D02*
X20662087Y-13485984D01*
X20747801Y-13685984D02*
X20747801Y-13581222D01*
X20747801Y-13581222D02*
X20738277Y-13562174D01*
X20738277Y-13562174D02*
X20719230Y-13552650D01*
X20719230Y-13552650D02*
X20690658Y-13552650D01*
X20690658Y-13552650D02*
X20671611Y-13562174D01*
X20671611Y-13562174D02*
X20662087Y-13571698D01*
X20871611Y-13685984D02*
X20852563Y-13676460D01*
X20852563Y-13676460D02*
X20843039Y-13666936D01*
X20843039Y-13666936D02*
X20833515Y-13647888D01*
X20833515Y-13647888D02*
X20833515Y-13590746D01*
X20833515Y-13590746D02*
X20843039Y-13571698D01*
X20843039Y-13571698D02*
X20852563Y-13562174D01*
X20852563Y-13562174D02*
X20871611Y-13552650D01*
X20871611Y-13552650D02*
X20900182Y-13552650D01*
X20900182Y-13552650D02*
X20919230Y-13562174D01*
X20919230Y-13562174D02*
X20928753Y-13571698D01*
X20928753Y-13571698D02*
X20938277Y-13590746D01*
X20938277Y-13590746D02*
X20938277Y-13647888D01*
X20938277Y-13647888D02*
X20928753Y-13666936D01*
X20928753Y-13666936D02*
X20919230Y-13676460D01*
X20919230Y-13676460D02*
X20900182Y-13685984D01*
X20900182Y-13685984D02*
X20871611Y-13685984D01*
X21052563Y-13685984D02*
X21033515Y-13676460D01*
X21033515Y-13676460D02*
X21023992Y-13657412D01*
X21023992Y-13657412D02*
X21023992Y-13485984D01*
X21204944Y-13676460D02*
X21185896Y-13685984D01*
X21185896Y-13685984D02*
X21147801Y-13685984D01*
X21147801Y-13685984D02*
X21128753Y-13676460D01*
X21128753Y-13676460D02*
X21119230Y-13657412D01*
X21119230Y-13657412D02*
X21119230Y-13581222D01*
X21119230Y-13581222D02*
X21128753Y-13562174D01*
X21128753Y-13562174D02*
X21147801Y-13552650D01*
X21147801Y-13552650D02*
X21185896Y-13552650D01*
X21185896Y-13552650D02*
X21204944Y-13562174D01*
X21204944Y-13562174D02*
X21214468Y-13581222D01*
X21214468Y-13581222D02*
X21214468Y-13600269D01*
X21214468Y-13600269D02*
X21119230Y-13619317D01*
X21290658Y-13676460D02*
X21309706Y-13685984D01*
X21309706Y-13685984D02*
X21347801Y-13685984D01*
X21347801Y-13685984D02*
X21366849Y-13676460D01*
X21366849Y-13676460D02*
X21376373Y-13657412D01*
X21376373Y-13657412D02*
X21376373Y-13647888D01*
X21376373Y-13647888D02*
X21366849Y-13628841D01*
X21366849Y-13628841D02*
X21347801Y-13619317D01*
X21347801Y-13619317D02*
X21319230Y-13619317D01*
X21319230Y-13619317D02*
X21300182Y-13609793D01*
X21300182Y-13609793D02*
X21290658Y-13590746D01*
X21290658Y-13590746D02*
X21290658Y-13581222D01*
X21290658Y-13581222D02*
X21300182Y-13562174D01*
X21300182Y-13562174D02*
X21319230Y-13552650D01*
X21319230Y-13552650D02*
X21347801Y-13552650D01*
X21347801Y-13552650D02*
X21366849Y-13562174D01*
X21443039Y-13762174D02*
X21452563Y-13752650D01*
X21452563Y-13752650D02*
X21471611Y-13724079D01*
X21471611Y-13724079D02*
X21481134Y-13705031D01*
X21481134Y-13705031D02*
X21490658Y-13676460D01*
X21490658Y-13676460D02*
X21500182Y-13628841D01*
X21500182Y-13628841D02*
X21500182Y-13590746D01*
X21500182Y-13590746D02*
X21490658Y-13543127D01*
X21490658Y-13543127D02*
X21481134Y-13514555D01*
X21481134Y-13514555D02*
X21471611Y-13495508D01*
X21471611Y-13495508D02*
X21452563Y-13466936D01*
X21452563Y-13466936D02*
X21443039Y-13457412D01*
D12*
X16432500Y-13903500D02*
X16477500Y-13858500D01*
X16432500Y-13813500D01*
X16387500Y-13858500D01*
X16432500Y-13903500D01*
D11*
X16776372Y-13749984D02*
X16795420Y-13749984D01*
X16795420Y-13749984D02*
X16814467Y-13759508D01*
X16814467Y-13759508D02*
X16823991Y-13769031D01*
X16823991Y-13769031D02*
X16833515Y-13788079D01*
X16833515Y-13788079D02*
X16843039Y-13826174D01*
X16843039Y-13826174D02*
X16843039Y-13873793D01*
X16843039Y-13873793D02*
X16833515Y-13911888D01*
X16833515Y-13911888D02*
X16823991Y-13930936D01*
X16823991Y-13930936D02*
X16814467Y-13940460D01*
X16814467Y-13940460D02*
X16795420Y-13949984D01*
X16795420Y-13949984D02*
X16776372Y-13949984D01*
X16776372Y-13949984D02*
X16757324Y-13940460D01*
X16757324Y-13940460D02*
X16747801Y-13930936D01*
X16747801Y-13930936D02*
X16738277Y-13911888D01*
X16738277Y-13911888D02*
X16728753Y-13873793D01*
X16728753Y-13873793D02*
X16728753Y-13826174D01*
X16728753Y-13826174D02*
X16738277Y-13788079D01*
X16738277Y-13788079D02*
X16747801Y-13769031D01*
X16747801Y-13769031D02*
X16757324Y-13759508D01*
X16757324Y-13759508D02*
X16776372Y-13749984D01*
X16928753Y-13930936D02*
X16938277Y-13940460D01*
X16938277Y-13940460D02*
X16928753Y-13949984D01*
X16928753Y-13949984D02*
X16919229Y-13940460D01*
X16919229Y-13940460D02*
X16928753Y-13930936D01*
X16928753Y-13930936D02*
X16928753Y-13949984D01*
X17033515Y-13949984D02*
X17071610Y-13949984D01*
X17071610Y-13949984D02*
X17090658Y-13940460D01*
X17090658Y-13940460D02*
X17100182Y-13930936D01*
X17100182Y-13930936D02*
X17119229Y-13902365D01*
X17119229Y-13902365D02*
X17128753Y-13864269D01*
X17128753Y-13864269D02*
X17128753Y-13788079D01*
X17128753Y-13788079D02*
X17119229Y-13769031D01*
X17119229Y-13769031D02*
X17109705Y-13759508D01*
X17109705Y-13759508D02*
X17090658Y-13749984D01*
X17090658Y-13749984D02*
X17052563Y-13749984D01*
X17052563Y-13749984D02*
X17033515Y-13759508D01*
X17033515Y-13759508D02*
X17023991Y-13769031D01*
X17023991Y-13769031D02*
X17014467Y-13788079D01*
X17014467Y-13788079D02*
X17014467Y-13835698D01*
X17014467Y-13835698D02*
X17023991Y-13854746D01*
X17023991Y-13854746D02*
X17033515Y-13864269D01*
X17033515Y-13864269D02*
X17052563Y-13873793D01*
X17052563Y-13873793D02*
X17090658Y-13873793D01*
X17090658Y-13873793D02*
X17109705Y-13864269D01*
X17109705Y-13864269D02*
X17119229Y-13854746D01*
X17119229Y-13854746D02*
X17128753Y-13835698D01*
X17252563Y-13749984D02*
X17271610Y-13749984D01*
X17271610Y-13749984D02*
X17290658Y-13759508D01*
X17290658Y-13759508D02*
X17300182Y-13769031D01*
X17300182Y-13769031D02*
X17309705Y-13788079D01*
X17309705Y-13788079D02*
X17319229Y-13826174D01*
X17319229Y-13826174D02*
X17319229Y-13873793D01*
X17319229Y-13873793D02*
X17309705Y-13911888D01*
X17309705Y-13911888D02*
X17300182Y-13930936D01*
X17300182Y-13930936D02*
X17290658Y-13940460D01*
X17290658Y-13940460D02*
X17271610Y-13949984D01*
X17271610Y-13949984D02*
X17252563Y-13949984D01*
X17252563Y-13949984D02*
X17233515Y-13940460D01*
X17233515Y-13940460D02*
X17223991Y-13930936D01*
X17223991Y-13930936D02*
X17214467Y-13911888D01*
X17214467Y-13911888D02*
X17204944Y-13873793D01*
X17204944Y-13873793D02*
X17204944Y-13826174D01*
X17204944Y-13826174D02*
X17214467Y-13788079D01*
X17214467Y-13788079D02*
X17223991Y-13769031D01*
X17223991Y-13769031D02*
X17233515Y-13759508D01*
X17233515Y-13759508D02*
X17252563Y-13749984D01*
X17443039Y-13749984D02*
X17462086Y-13749984D01*
X17462086Y-13749984D02*
X17481134Y-13759508D01*
X17481134Y-13759508D02*
X17490658Y-13769031D01*
X17490658Y-13769031D02*
X17500182Y-13788079D01*
X17500182Y-13788079D02*
X17509705Y-13826174D01*
X17509705Y-13826174D02*
X17509705Y-13873793D01*
X17509705Y-13873793D02*
X17500182Y-13911888D01*
X17500182Y-13911888D02*
X17490658Y-13930936D01*
X17490658Y-13930936D02*
X17481134Y-13940460D01*
X17481134Y-13940460D02*
X17462086Y-13949984D01*
X17462086Y-13949984D02*
X17443039Y-13949984D01*
X17443039Y-13949984D02*
X17423991Y-13940460D01*
X17423991Y-13940460D02*
X17414467Y-13930936D01*
X17414467Y-13930936D02*
X17404944Y-13911888D01*
X17404944Y-13911888D02*
X17395420Y-13873793D01*
X17395420Y-13873793D02*
X17395420Y-13826174D01*
X17395420Y-13826174D02*
X17404944Y-13788079D01*
X17404944Y-13788079D02*
X17414467Y-13769031D01*
X17414467Y-13769031D02*
X17423991Y-13759508D01*
X17423991Y-13759508D02*
X17443039Y-13749984D01*
X17595420Y-13949984D02*
X17595420Y-13816650D01*
X17595420Y-13835698D02*
X17604944Y-13826174D01*
X17604944Y-13826174D02*
X17623991Y-13816650D01*
X17623991Y-13816650D02*
X17652563Y-13816650D01*
X17652563Y-13816650D02*
X17671610Y-13826174D01*
X17671610Y-13826174D02*
X17681134Y-13845222D01*
X17681134Y-13845222D02*
X17681134Y-13949984D01*
X17681134Y-13845222D02*
X17690658Y-13826174D01*
X17690658Y-13826174D02*
X17709705Y-13816650D01*
X17709705Y-13816650D02*
X17738277Y-13816650D01*
X17738277Y-13816650D02*
X17757325Y-13826174D01*
X17757325Y-13826174D02*
X17766848Y-13845222D01*
X17766848Y-13845222D02*
X17766848Y-13949984D01*
X17862086Y-13949984D02*
X17862086Y-13816650D01*
X17862086Y-13835698D02*
X17871610Y-13826174D01*
X17871610Y-13826174D02*
X17890658Y-13816650D01*
X17890658Y-13816650D02*
X17919229Y-13816650D01*
X17919229Y-13816650D02*
X17938277Y-13826174D01*
X17938277Y-13826174D02*
X17947801Y-13845222D01*
X17947801Y-13845222D02*
X17947801Y-13949984D01*
X17947801Y-13845222D02*
X17957325Y-13826174D01*
X17957325Y-13826174D02*
X17976372Y-13816650D01*
X17976372Y-13816650D02*
X18004944Y-13816650D01*
X18004944Y-13816650D02*
X18023991Y-13826174D01*
X18023991Y-13826174D02*
X18033515Y-13845222D01*
X18033515Y-13845222D02*
X18033515Y-13949984D01*
X18423991Y-13740460D02*
X18252563Y-13997603D01*
X18681134Y-13749984D02*
X18700182Y-13749984D01*
X18700182Y-13749984D02*
X18719229Y-13759508D01*
X18719229Y-13759508D02*
X18728753Y-13769031D01*
X18728753Y-13769031D02*
X18738277Y-13788079D01*
X18738277Y-13788079D02*
X18747801Y-13826174D01*
X18747801Y-13826174D02*
X18747801Y-13873793D01*
X18747801Y-13873793D02*
X18738277Y-13911888D01*
X18738277Y-13911888D02*
X18728753Y-13930936D01*
X18728753Y-13930936D02*
X18719229Y-13940460D01*
X18719229Y-13940460D02*
X18700182Y-13949984D01*
X18700182Y-13949984D02*
X18681134Y-13949984D01*
X18681134Y-13949984D02*
X18662087Y-13940460D01*
X18662087Y-13940460D02*
X18652563Y-13930936D01*
X18652563Y-13930936D02*
X18643039Y-13911888D01*
X18643039Y-13911888D02*
X18633515Y-13873793D01*
X18633515Y-13873793D02*
X18633515Y-13826174D01*
X18633515Y-13826174D02*
X18643039Y-13788079D01*
X18643039Y-13788079D02*
X18652563Y-13769031D01*
X18652563Y-13769031D02*
X18662087Y-13759508D01*
X18662087Y-13759508D02*
X18681134Y-13749984D01*
X18833515Y-13930936D02*
X18843039Y-13940460D01*
X18843039Y-13940460D02*
X18833515Y-13949984D01*
X18833515Y-13949984D02*
X18823991Y-13940460D01*
X18823991Y-13940460D02*
X18833515Y-13930936D01*
X18833515Y-13930936D02*
X18833515Y-13949984D01*
X18966848Y-13749984D02*
X18985896Y-13749984D01*
X18985896Y-13749984D02*
X19004944Y-13759508D01*
X19004944Y-13759508D02*
X19014468Y-13769031D01*
X19014468Y-13769031D02*
X19023991Y-13788079D01*
X19023991Y-13788079D02*
X19033515Y-13826174D01*
X19033515Y-13826174D02*
X19033515Y-13873793D01*
X19033515Y-13873793D02*
X19023991Y-13911888D01*
X19023991Y-13911888D02*
X19014468Y-13930936D01*
X19014468Y-13930936D02*
X19004944Y-13940460D01*
X19004944Y-13940460D02*
X18985896Y-13949984D01*
X18985896Y-13949984D02*
X18966848Y-13949984D01*
X18966848Y-13949984D02*
X18947801Y-13940460D01*
X18947801Y-13940460D02*
X18938277Y-13930936D01*
X18938277Y-13930936D02*
X18928753Y-13911888D01*
X18928753Y-13911888D02*
X18919229Y-13873793D01*
X18919229Y-13873793D02*
X18919229Y-13826174D01*
X18919229Y-13826174D02*
X18928753Y-13788079D01*
X18928753Y-13788079D02*
X18938277Y-13769031D01*
X18938277Y-13769031D02*
X18947801Y-13759508D01*
X18947801Y-13759508D02*
X18966848Y-13749984D01*
X19100182Y-13749984D02*
X19223991Y-13749984D01*
X19223991Y-13749984D02*
X19157325Y-13826174D01*
X19157325Y-13826174D02*
X19185896Y-13826174D01*
X19185896Y-13826174D02*
X19204944Y-13835698D01*
X19204944Y-13835698D02*
X19214468Y-13845222D01*
X19214468Y-13845222D02*
X19223991Y-13864269D01*
X19223991Y-13864269D02*
X19223991Y-13911888D01*
X19223991Y-13911888D02*
X19214468Y-13930936D01*
X19214468Y-13930936D02*
X19204944Y-13940460D01*
X19204944Y-13940460D02*
X19185896Y-13949984D01*
X19185896Y-13949984D02*
X19128753Y-13949984D01*
X19128753Y-13949984D02*
X19109706Y-13940460D01*
X19109706Y-13940460D02*
X19100182Y-13930936D01*
X19404944Y-13749984D02*
X19309706Y-13749984D01*
X19309706Y-13749984D02*
X19300182Y-13845222D01*
X19300182Y-13845222D02*
X19309706Y-13835698D01*
X19309706Y-13835698D02*
X19328753Y-13826174D01*
X19328753Y-13826174D02*
X19376372Y-13826174D01*
X19376372Y-13826174D02*
X19395420Y-13835698D01*
X19395420Y-13835698D02*
X19404944Y-13845222D01*
X19404944Y-13845222D02*
X19414468Y-13864269D01*
X19414468Y-13864269D02*
X19414468Y-13911888D01*
X19414468Y-13911888D02*
X19404944Y-13930936D01*
X19404944Y-13930936D02*
X19395420Y-13940460D01*
X19395420Y-13940460D02*
X19376372Y-13949984D01*
X19376372Y-13949984D02*
X19328753Y-13949984D01*
X19328753Y-13949984D02*
X19309706Y-13940460D01*
X19309706Y-13940460D02*
X19300182Y-13930936D01*
X19585896Y-13816650D02*
X19585896Y-13949984D01*
X19538277Y-13740460D02*
X19490658Y-13883317D01*
X19490658Y-13883317D02*
X19614468Y-13883317D01*
X19681134Y-13749984D02*
X19681134Y-13788079D01*
X19757325Y-13749984D02*
X19757325Y-13788079D01*
X20052563Y-14026174D02*
X20043039Y-14016650D01*
X20043039Y-14016650D02*
X20023991Y-13988079D01*
X20023991Y-13988079D02*
X20014468Y-13969031D01*
X20014468Y-13969031D02*
X20004944Y-13940460D01*
X20004944Y-13940460D02*
X19995420Y-13892841D01*
X19995420Y-13892841D02*
X19995420Y-13854746D01*
X19995420Y-13854746D02*
X20004944Y-13807127D01*
X20004944Y-13807127D02*
X20014468Y-13778555D01*
X20014468Y-13778555D02*
X20023991Y-13759508D01*
X20023991Y-13759508D02*
X20043039Y-13730936D01*
X20043039Y-13730936D02*
X20052563Y-13721412D01*
X20157325Y-13835698D02*
X20138277Y-13826174D01*
X20138277Y-13826174D02*
X20128753Y-13816650D01*
X20128753Y-13816650D02*
X20119230Y-13797603D01*
X20119230Y-13797603D02*
X20119230Y-13788079D01*
X20119230Y-13788079D02*
X20128753Y-13769031D01*
X20128753Y-13769031D02*
X20138277Y-13759508D01*
X20138277Y-13759508D02*
X20157325Y-13749984D01*
X20157325Y-13749984D02*
X20195420Y-13749984D01*
X20195420Y-13749984D02*
X20214468Y-13759508D01*
X20214468Y-13759508D02*
X20223991Y-13769031D01*
X20223991Y-13769031D02*
X20233515Y-13788079D01*
X20233515Y-13788079D02*
X20233515Y-13797603D01*
X20233515Y-13797603D02*
X20223991Y-13816650D01*
X20223991Y-13816650D02*
X20214468Y-13826174D01*
X20214468Y-13826174D02*
X20195420Y-13835698D01*
X20195420Y-13835698D02*
X20157325Y-13835698D01*
X20157325Y-13835698D02*
X20138277Y-13845222D01*
X20138277Y-13845222D02*
X20128753Y-13854746D01*
X20128753Y-13854746D02*
X20119230Y-13873793D01*
X20119230Y-13873793D02*
X20119230Y-13911888D01*
X20119230Y-13911888D02*
X20128753Y-13930936D01*
X20128753Y-13930936D02*
X20138277Y-13940460D01*
X20138277Y-13940460D02*
X20157325Y-13949984D01*
X20157325Y-13949984D02*
X20195420Y-13949984D01*
X20195420Y-13949984D02*
X20214468Y-13940460D01*
X20214468Y-13940460D02*
X20223991Y-13930936D01*
X20223991Y-13930936D02*
X20233515Y-13911888D01*
X20233515Y-13911888D02*
X20233515Y-13873793D01*
X20233515Y-13873793D02*
X20223991Y-13854746D01*
X20223991Y-13854746D02*
X20214468Y-13845222D01*
X20214468Y-13845222D02*
X20195420Y-13835698D01*
X20471611Y-13949984D02*
X20471611Y-13749984D01*
X20557325Y-13949984D02*
X20557325Y-13845222D01*
X20557325Y-13845222D02*
X20547801Y-13826174D01*
X20547801Y-13826174D02*
X20528753Y-13816650D01*
X20528753Y-13816650D02*
X20500182Y-13816650D01*
X20500182Y-13816650D02*
X20481134Y-13826174D01*
X20481134Y-13826174D02*
X20471611Y-13835698D01*
X20681134Y-13949984D02*
X20662087Y-13940460D01*
X20662087Y-13940460D02*
X20652563Y-13930936D01*
X20652563Y-13930936D02*
X20643039Y-13911888D01*
X20643039Y-13911888D02*
X20643039Y-13854746D01*
X20643039Y-13854746D02*
X20652563Y-13835698D01*
X20652563Y-13835698D02*
X20662087Y-13826174D01*
X20662087Y-13826174D02*
X20681134Y-13816650D01*
X20681134Y-13816650D02*
X20709706Y-13816650D01*
X20709706Y-13816650D02*
X20728753Y-13826174D01*
X20728753Y-13826174D02*
X20738277Y-13835698D01*
X20738277Y-13835698D02*
X20747801Y-13854746D01*
X20747801Y-13854746D02*
X20747801Y-13911888D01*
X20747801Y-13911888D02*
X20738277Y-13930936D01*
X20738277Y-13930936D02*
X20728753Y-13940460D01*
X20728753Y-13940460D02*
X20709706Y-13949984D01*
X20709706Y-13949984D02*
X20681134Y-13949984D01*
X20862087Y-13949984D02*
X20843039Y-13940460D01*
X20843039Y-13940460D02*
X20833515Y-13921412D01*
X20833515Y-13921412D02*
X20833515Y-13749984D01*
X21014468Y-13940460D02*
X20995420Y-13949984D01*
X20995420Y-13949984D02*
X20957325Y-13949984D01*
X20957325Y-13949984D02*
X20938277Y-13940460D01*
X20938277Y-13940460D02*
X20928753Y-13921412D01*
X20928753Y-13921412D02*
X20928753Y-13845222D01*
X20928753Y-13845222D02*
X20938277Y-13826174D01*
X20938277Y-13826174D02*
X20957325Y-13816650D01*
X20957325Y-13816650D02*
X20995420Y-13816650D01*
X20995420Y-13816650D02*
X21014468Y-13826174D01*
X21014468Y-13826174D02*
X21023992Y-13845222D01*
X21023992Y-13845222D02*
X21023992Y-13864269D01*
X21023992Y-13864269D02*
X20928753Y-13883317D01*
X21100182Y-13940460D02*
X21119230Y-13949984D01*
X21119230Y-13949984D02*
X21157325Y-13949984D01*
X21157325Y-13949984D02*
X21176373Y-13940460D01*
X21176373Y-13940460D02*
X21185896Y-13921412D01*
X21185896Y-13921412D02*
X21185896Y-13911888D01*
X21185896Y-13911888D02*
X21176373Y-13892841D01*
X21176373Y-13892841D02*
X21157325Y-13883317D01*
X21157325Y-13883317D02*
X21128753Y-13883317D01*
X21128753Y-13883317D02*
X21109706Y-13873793D01*
X21109706Y-13873793D02*
X21100182Y-13854746D01*
X21100182Y-13854746D02*
X21100182Y-13845222D01*
X21100182Y-13845222D02*
X21109706Y-13826174D01*
X21109706Y-13826174D02*
X21128753Y-13816650D01*
X21128753Y-13816650D02*
X21157325Y-13816650D01*
X21157325Y-13816650D02*
X21176373Y-13826174D01*
X21252563Y-14026174D02*
X21262087Y-14016650D01*
X21262087Y-14016650D02*
X21281134Y-13988079D01*
X21281134Y-13988079D02*
X21290658Y-13969031D01*
X21290658Y-13969031D02*
X21300182Y-13940460D01*
X21300182Y-13940460D02*
X21309706Y-13892841D01*
X21309706Y-13892841D02*
X21309706Y-13854746D01*
X21309706Y-13854746D02*
X21300182Y-13807127D01*
X21300182Y-13807127D02*
X21290658Y-13778555D01*
X21290658Y-13778555D02*
X21281134Y-13759508D01*
X21281134Y-13759508D02*
X21262087Y-13730936D01*
X21262087Y-13730936D02*
X21252563Y-13721412D01*
D12*
X16377500Y-14072500D02*
X16477500Y-14172500D01*
X16477500Y-14072500D02*
X16377500Y-14172500D01*
X16477500Y-14122500D02*
G75*
G02*
X16377500Y-14122500I-50000J0D01*
G01*
X16377500Y-14122500D02*
G75*
G02*
X16477500Y-14122500I50000J0D01*
G01*
D11*
X16843039Y-14213984D02*
X16728753Y-14213984D01*
X16785896Y-14213984D02*
X16785896Y-14013984D01*
X16785896Y-14013984D02*
X16766848Y-14042555D01*
X16766848Y-14042555D02*
X16747801Y-14061603D01*
X16747801Y-14061603D02*
X16728753Y-14071127D01*
X16928753Y-14194936D02*
X16938277Y-14204460D01*
X16938277Y-14204460D02*
X16928753Y-14213984D01*
X16928753Y-14213984D02*
X16919229Y-14204460D01*
X16919229Y-14204460D02*
X16928753Y-14194936D01*
X16928753Y-14194936D02*
X16928753Y-14213984D01*
X17062086Y-14013984D02*
X17081134Y-14013984D01*
X17081134Y-14013984D02*
X17100182Y-14023508D01*
X17100182Y-14023508D02*
X17109705Y-14033031D01*
X17109705Y-14033031D02*
X17119229Y-14052079D01*
X17119229Y-14052079D02*
X17128753Y-14090174D01*
X17128753Y-14090174D02*
X17128753Y-14137793D01*
X17128753Y-14137793D02*
X17119229Y-14175888D01*
X17119229Y-14175888D02*
X17109705Y-14194936D01*
X17109705Y-14194936D02*
X17100182Y-14204460D01*
X17100182Y-14204460D02*
X17081134Y-14213984D01*
X17081134Y-14213984D02*
X17062086Y-14213984D01*
X17062086Y-14213984D02*
X17043039Y-14204460D01*
X17043039Y-14204460D02*
X17033515Y-14194936D01*
X17033515Y-14194936D02*
X17023991Y-14175888D01*
X17023991Y-14175888D02*
X17014467Y-14137793D01*
X17014467Y-14137793D02*
X17014467Y-14090174D01*
X17014467Y-14090174D02*
X17023991Y-14052079D01*
X17023991Y-14052079D02*
X17033515Y-14033031D01*
X17033515Y-14033031D02*
X17043039Y-14023508D01*
X17043039Y-14023508D02*
X17062086Y-14013984D01*
X17252563Y-14013984D02*
X17271610Y-14013984D01*
X17271610Y-14013984D02*
X17290658Y-14023508D01*
X17290658Y-14023508D02*
X17300182Y-14033031D01*
X17300182Y-14033031D02*
X17309705Y-14052079D01*
X17309705Y-14052079D02*
X17319229Y-14090174D01*
X17319229Y-14090174D02*
X17319229Y-14137793D01*
X17319229Y-14137793D02*
X17309705Y-14175888D01*
X17309705Y-14175888D02*
X17300182Y-14194936D01*
X17300182Y-14194936D02*
X17290658Y-14204460D01*
X17290658Y-14204460D02*
X17271610Y-14213984D01*
X17271610Y-14213984D02*
X17252563Y-14213984D01*
X17252563Y-14213984D02*
X17233515Y-14204460D01*
X17233515Y-14204460D02*
X17223991Y-14194936D01*
X17223991Y-14194936D02*
X17214467Y-14175888D01*
X17214467Y-14175888D02*
X17204944Y-14137793D01*
X17204944Y-14137793D02*
X17204944Y-14090174D01*
X17204944Y-14090174D02*
X17214467Y-14052079D01*
X17214467Y-14052079D02*
X17223991Y-14033031D01*
X17223991Y-14033031D02*
X17233515Y-14023508D01*
X17233515Y-14023508D02*
X17252563Y-14013984D01*
X17443039Y-14013984D02*
X17462086Y-14013984D01*
X17462086Y-14013984D02*
X17481134Y-14023508D01*
X17481134Y-14023508D02*
X17490658Y-14033031D01*
X17490658Y-14033031D02*
X17500182Y-14052079D01*
X17500182Y-14052079D02*
X17509705Y-14090174D01*
X17509705Y-14090174D02*
X17509705Y-14137793D01*
X17509705Y-14137793D02*
X17500182Y-14175888D01*
X17500182Y-14175888D02*
X17490658Y-14194936D01*
X17490658Y-14194936D02*
X17481134Y-14204460D01*
X17481134Y-14204460D02*
X17462086Y-14213984D01*
X17462086Y-14213984D02*
X17443039Y-14213984D01*
X17443039Y-14213984D02*
X17423991Y-14204460D01*
X17423991Y-14204460D02*
X17414467Y-14194936D01*
X17414467Y-14194936D02*
X17404944Y-14175888D01*
X17404944Y-14175888D02*
X17395420Y-14137793D01*
X17395420Y-14137793D02*
X17395420Y-14090174D01*
X17395420Y-14090174D02*
X17404944Y-14052079D01*
X17404944Y-14052079D02*
X17414467Y-14033031D01*
X17414467Y-14033031D02*
X17423991Y-14023508D01*
X17423991Y-14023508D02*
X17443039Y-14013984D01*
X17595420Y-14213984D02*
X17595420Y-14080650D01*
X17595420Y-14099698D02*
X17604944Y-14090174D01*
X17604944Y-14090174D02*
X17623991Y-14080650D01*
X17623991Y-14080650D02*
X17652563Y-14080650D01*
X17652563Y-14080650D02*
X17671610Y-14090174D01*
X17671610Y-14090174D02*
X17681134Y-14109222D01*
X17681134Y-14109222D02*
X17681134Y-14213984D01*
X17681134Y-14109222D02*
X17690658Y-14090174D01*
X17690658Y-14090174D02*
X17709705Y-14080650D01*
X17709705Y-14080650D02*
X17738277Y-14080650D01*
X17738277Y-14080650D02*
X17757325Y-14090174D01*
X17757325Y-14090174D02*
X17766848Y-14109222D01*
X17766848Y-14109222D02*
X17766848Y-14213984D01*
X17862086Y-14213984D02*
X17862086Y-14080650D01*
X17862086Y-14099698D02*
X17871610Y-14090174D01*
X17871610Y-14090174D02*
X17890658Y-14080650D01*
X17890658Y-14080650D02*
X17919229Y-14080650D01*
X17919229Y-14080650D02*
X17938277Y-14090174D01*
X17938277Y-14090174D02*
X17947801Y-14109222D01*
X17947801Y-14109222D02*
X17947801Y-14213984D01*
X17947801Y-14109222D02*
X17957325Y-14090174D01*
X17957325Y-14090174D02*
X17976372Y-14080650D01*
X17976372Y-14080650D02*
X18004944Y-14080650D01*
X18004944Y-14080650D02*
X18023991Y-14090174D01*
X18023991Y-14090174D02*
X18033515Y-14109222D01*
X18033515Y-14109222D02*
X18033515Y-14213984D01*
X18423991Y-14004460D02*
X18252563Y-14261603D01*
X18681134Y-14013984D02*
X18700182Y-14013984D01*
X18700182Y-14013984D02*
X18719229Y-14023508D01*
X18719229Y-14023508D02*
X18728753Y-14033031D01*
X18728753Y-14033031D02*
X18738277Y-14052079D01*
X18738277Y-14052079D02*
X18747801Y-14090174D01*
X18747801Y-14090174D02*
X18747801Y-14137793D01*
X18747801Y-14137793D02*
X18738277Y-14175888D01*
X18738277Y-14175888D02*
X18728753Y-14194936D01*
X18728753Y-14194936D02*
X18719229Y-14204460D01*
X18719229Y-14204460D02*
X18700182Y-14213984D01*
X18700182Y-14213984D02*
X18681134Y-14213984D01*
X18681134Y-14213984D02*
X18662087Y-14204460D01*
X18662087Y-14204460D02*
X18652563Y-14194936D01*
X18652563Y-14194936D02*
X18643039Y-14175888D01*
X18643039Y-14175888D02*
X18633515Y-14137793D01*
X18633515Y-14137793D02*
X18633515Y-14090174D01*
X18633515Y-14090174D02*
X18643039Y-14052079D01*
X18643039Y-14052079D02*
X18652563Y-14033031D01*
X18652563Y-14033031D02*
X18662087Y-14023508D01*
X18662087Y-14023508D02*
X18681134Y-14013984D01*
X18833515Y-14194936D02*
X18843039Y-14204460D01*
X18843039Y-14204460D02*
X18833515Y-14213984D01*
X18833515Y-14213984D02*
X18823991Y-14204460D01*
X18823991Y-14204460D02*
X18833515Y-14194936D01*
X18833515Y-14194936D02*
X18833515Y-14213984D01*
X18966848Y-14013984D02*
X18985896Y-14013984D01*
X18985896Y-14013984D02*
X19004944Y-14023508D01*
X19004944Y-14023508D02*
X19014468Y-14033031D01*
X19014468Y-14033031D02*
X19023991Y-14052079D01*
X19023991Y-14052079D02*
X19033515Y-14090174D01*
X19033515Y-14090174D02*
X19033515Y-14137793D01*
X19033515Y-14137793D02*
X19023991Y-14175888D01*
X19023991Y-14175888D02*
X19014468Y-14194936D01*
X19014468Y-14194936D02*
X19004944Y-14204460D01*
X19004944Y-14204460D02*
X18985896Y-14213984D01*
X18985896Y-14213984D02*
X18966848Y-14213984D01*
X18966848Y-14213984D02*
X18947801Y-14204460D01*
X18947801Y-14204460D02*
X18938277Y-14194936D01*
X18938277Y-14194936D02*
X18928753Y-14175888D01*
X18928753Y-14175888D02*
X18919229Y-14137793D01*
X18919229Y-14137793D02*
X18919229Y-14090174D01*
X18919229Y-14090174D02*
X18928753Y-14052079D01*
X18928753Y-14052079D02*
X18938277Y-14033031D01*
X18938277Y-14033031D02*
X18947801Y-14023508D01*
X18947801Y-14023508D02*
X18966848Y-14013984D01*
X19100182Y-14013984D02*
X19223991Y-14013984D01*
X19223991Y-14013984D02*
X19157325Y-14090174D01*
X19157325Y-14090174D02*
X19185896Y-14090174D01*
X19185896Y-14090174D02*
X19204944Y-14099698D01*
X19204944Y-14099698D02*
X19214468Y-14109222D01*
X19214468Y-14109222D02*
X19223991Y-14128269D01*
X19223991Y-14128269D02*
X19223991Y-14175888D01*
X19223991Y-14175888D02*
X19214468Y-14194936D01*
X19214468Y-14194936D02*
X19204944Y-14204460D01*
X19204944Y-14204460D02*
X19185896Y-14213984D01*
X19185896Y-14213984D02*
X19128753Y-14213984D01*
X19128753Y-14213984D02*
X19109706Y-14204460D01*
X19109706Y-14204460D02*
X19100182Y-14194936D01*
X19319229Y-14213984D02*
X19357325Y-14213984D01*
X19357325Y-14213984D02*
X19376372Y-14204460D01*
X19376372Y-14204460D02*
X19385896Y-14194936D01*
X19385896Y-14194936D02*
X19404944Y-14166365D01*
X19404944Y-14166365D02*
X19414468Y-14128269D01*
X19414468Y-14128269D02*
X19414468Y-14052079D01*
X19414468Y-14052079D02*
X19404944Y-14033031D01*
X19404944Y-14033031D02*
X19395420Y-14023508D01*
X19395420Y-14023508D02*
X19376372Y-14013984D01*
X19376372Y-14013984D02*
X19338277Y-14013984D01*
X19338277Y-14013984D02*
X19319229Y-14023508D01*
X19319229Y-14023508D02*
X19309706Y-14033031D01*
X19309706Y-14033031D02*
X19300182Y-14052079D01*
X19300182Y-14052079D02*
X19300182Y-14099698D01*
X19300182Y-14099698D02*
X19309706Y-14118746D01*
X19309706Y-14118746D02*
X19319229Y-14128269D01*
X19319229Y-14128269D02*
X19338277Y-14137793D01*
X19338277Y-14137793D02*
X19376372Y-14137793D01*
X19376372Y-14137793D02*
X19395420Y-14128269D01*
X19395420Y-14128269D02*
X19404944Y-14118746D01*
X19404944Y-14118746D02*
X19414468Y-14099698D01*
X19585896Y-14080650D02*
X19585896Y-14213984D01*
X19538277Y-14004460D02*
X19490658Y-14147317D01*
X19490658Y-14147317D02*
X19614468Y-14147317D01*
X19681134Y-14013984D02*
X19681134Y-14052079D01*
X19757325Y-14013984D02*
X19757325Y-14052079D01*
X20052563Y-14290174D02*
X20043039Y-14280650D01*
X20043039Y-14280650D02*
X20023991Y-14252079D01*
X20023991Y-14252079D02*
X20014468Y-14233031D01*
X20014468Y-14233031D02*
X20004944Y-14204460D01*
X20004944Y-14204460D02*
X19995420Y-14156841D01*
X19995420Y-14156841D02*
X19995420Y-14118746D01*
X19995420Y-14118746D02*
X20004944Y-14071127D01*
X20004944Y-14071127D02*
X20014468Y-14042555D01*
X20014468Y-14042555D02*
X20023991Y-14023508D01*
X20023991Y-14023508D02*
X20043039Y-13994936D01*
X20043039Y-13994936D02*
X20052563Y-13985412D01*
X20157325Y-14099698D02*
X20138277Y-14090174D01*
X20138277Y-14090174D02*
X20128753Y-14080650D01*
X20128753Y-14080650D02*
X20119230Y-14061603D01*
X20119230Y-14061603D02*
X20119230Y-14052079D01*
X20119230Y-14052079D02*
X20128753Y-14033031D01*
X20128753Y-14033031D02*
X20138277Y-14023508D01*
X20138277Y-14023508D02*
X20157325Y-14013984D01*
X20157325Y-14013984D02*
X20195420Y-14013984D01*
X20195420Y-14013984D02*
X20214468Y-14023508D01*
X20214468Y-14023508D02*
X20223991Y-14033031D01*
X20223991Y-14033031D02*
X20233515Y-14052079D01*
X20233515Y-14052079D02*
X20233515Y-14061603D01*
X20233515Y-14061603D02*
X20223991Y-14080650D01*
X20223991Y-14080650D02*
X20214468Y-14090174D01*
X20214468Y-14090174D02*
X20195420Y-14099698D01*
X20195420Y-14099698D02*
X20157325Y-14099698D01*
X20157325Y-14099698D02*
X20138277Y-14109222D01*
X20138277Y-14109222D02*
X20128753Y-14118746D01*
X20128753Y-14118746D02*
X20119230Y-14137793D01*
X20119230Y-14137793D02*
X20119230Y-14175888D01*
X20119230Y-14175888D02*
X20128753Y-14194936D01*
X20128753Y-14194936D02*
X20138277Y-14204460D01*
X20138277Y-14204460D02*
X20157325Y-14213984D01*
X20157325Y-14213984D02*
X20195420Y-14213984D01*
X20195420Y-14213984D02*
X20214468Y-14204460D01*
X20214468Y-14204460D02*
X20223991Y-14194936D01*
X20223991Y-14194936D02*
X20233515Y-14175888D01*
X20233515Y-14175888D02*
X20233515Y-14137793D01*
X20233515Y-14137793D02*
X20223991Y-14118746D01*
X20223991Y-14118746D02*
X20214468Y-14109222D01*
X20214468Y-14109222D02*
X20195420Y-14099698D01*
X20471611Y-14213984D02*
X20471611Y-14013984D01*
X20557325Y-14213984D02*
X20557325Y-14109222D01*
X20557325Y-14109222D02*
X20547801Y-14090174D01*
X20547801Y-14090174D02*
X20528753Y-14080650D01*
X20528753Y-14080650D02*
X20500182Y-14080650D01*
X20500182Y-14080650D02*
X20481134Y-14090174D01*
X20481134Y-14090174D02*
X20471611Y-14099698D01*
X20681134Y-14213984D02*
X20662087Y-14204460D01*
X20662087Y-14204460D02*
X20652563Y-14194936D01*
X20652563Y-14194936D02*
X20643039Y-14175888D01*
X20643039Y-14175888D02*
X20643039Y-14118746D01*
X20643039Y-14118746D02*
X20652563Y-14099698D01*
X20652563Y-14099698D02*
X20662087Y-14090174D01*
X20662087Y-14090174D02*
X20681134Y-14080650D01*
X20681134Y-14080650D02*
X20709706Y-14080650D01*
X20709706Y-14080650D02*
X20728753Y-14090174D01*
X20728753Y-14090174D02*
X20738277Y-14099698D01*
X20738277Y-14099698D02*
X20747801Y-14118746D01*
X20747801Y-14118746D02*
X20747801Y-14175888D01*
X20747801Y-14175888D02*
X20738277Y-14194936D01*
X20738277Y-14194936D02*
X20728753Y-14204460D01*
X20728753Y-14204460D02*
X20709706Y-14213984D01*
X20709706Y-14213984D02*
X20681134Y-14213984D01*
X20862087Y-14213984D02*
X20843039Y-14204460D01*
X20843039Y-14204460D02*
X20833515Y-14185412D01*
X20833515Y-14185412D02*
X20833515Y-14013984D01*
X21014468Y-14204460D02*
X20995420Y-14213984D01*
X20995420Y-14213984D02*
X20957325Y-14213984D01*
X20957325Y-14213984D02*
X20938277Y-14204460D01*
X20938277Y-14204460D02*
X20928753Y-14185412D01*
X20928753Y-14185412D02*
X20928753Y-14109222D01*
X20928753Y-14109222D02*
X20938277Y-14090174D01*
X20938277Y-14090174D02*
X20957325Y-14080650D01*
X20957325Y-14080650D02*
X20995420Y-14080650D01*
X20995420Y-14080650D02*
X21014468Y-14090174D01*
X21014468Y-14090174D02*
X21023992Y-14109222D01*
X21023992Y-14109222D02*
X21023992Y-14128269D01*
X21023992Y-14128269D02*
X20928753Y-14147317D01*
X21100182Y-14204460D02*
X21119230Y-14213984D01*
X21119230Y-14213984D02*
X21157325Y-14213984D01*
X21157325Y-14213984D02*
X21176373Y-14204460D01*
X21176373Y-14204460D02*
X21185896Y-14185412D01*
X21185896Y-14185412D02*
X21185896Y-14175888D01*
X21185896Y-14175888D02*
X21176373Y-14156841D01*
X21176373Y-14156841D02*
X21157325Y-14147317D01*
X21157325Y-14147317D02*
X21128753Y-14147317D01*
X21128753Y-14147317D02*
X21109706Y-14137793D01*
X21109706Y-14137793D02*
X21100182Y-14118746D01*
X21100182Y-14118746D02*
X21100182Y-14109222D01*
X21100182Y-14109222D02*
X21109706Y-14090174D01*
X21109706Y-14090174D02*
X21128753Y-14080650D01*
X21128753Y-14080650D02*
X21157325Y-14080650D01*
X21157325Y-14080650D02*
X21176373Y-14090174D01*
X21252563Y-14290174D02*
X21262087Y-14280650D01*
X21262087Y-14280650D02*
X21281134Y-14252079D01*
X21281134Y-14252079D02*
X21290658Y-14233031D01*
X21290658Y-14233031D02*
X21300182Y-14204460D01*
X21300182Y-14204460D02*
X21309706Y-14156841D01*
X21309706Y-14156841D02*
X21309706Y-14118746D01*
X21309706Y-14118746D02*
X21300182Y-14071127D01*
X21300182Y-14071127D02*
X21290658Y-14042555D01*
X21290658Y-14042555D02*
X21281134Y-14023508D01*
X21281134Y-14023508D02*
X21262087Y-13994936D01*
X21262087Y-13994936D02*
X21252563Y-13985412D01*
D13*
X16375500Y-14335500D02*
X16477500Y-14437500D01*
X16477500Y-14335500D02*
X16375500Y-14437500D01*
X16426500Y-14335500D02*
X16426500Y-14437500D01*
X16375500Y-14386500D02*
X16477500Y-14386500D01*
D11*
X16843039Y-14477984D02*
X16728753Y-14477984D01*
X16785896Y-14477984D02*
X16785896Y-14277984D01*
X16785896Y-14277984D02*
X16766848Y-14306555D01*
X16766848Y-14306555D02*
X16747801Y-14325603D01*
X16747801Y-14325603D02*
X16728753Y-14335127D01*
X16928753Y-14458936D02*
X16938277Y-14468460D01*
X16938277Y-14468460D02*
X16928753Y-14477984D01*
X16928753Y-14477984D02*
X16919229Y-14468460D01*
X16919229Y-14468460D02*
X16928753Y-14458936D01*
X16928753Y-14458936D02*
X16928753Y-14477984D01*
X17062086Y-14277984D02*
X17081134Y-14277984D01*
X17081134Y-14277984D02*
X17100182Y-14287508D01*
X17100182Y-14287508D02*
X17109705Y-14297031D01*
X17109705Y-14297031D02*
X17119229Y-14316079D01*
X17119229Y-14316079D02*
X17128753Y-14354174D01*
X17128753Y-14354174D02*
X17128753Y-14401793D01*
X17128753Y-14401793D02*
X17119229Y-14439888D01*
X17119229Y-14439888D02*
X17109705Y-14458936D01*
X17109705Y-14458936D02*
X17100182Y-14468460D01*
X17100182Y-14468460D02*
X17081134Y-14477984D01*
X17081134Y-14477984D02*
X17062086Y-14477984D01*
X17062086Y-14477984D02*
X17043039Y-14468460D01*
X17043039Y-14468460D02*
X17033515Y-14458936D01*
X17033515Y-14458936D02*
X17023991Y-14439888D01*
X17023991Y-14439888D02*
X17014467Y-14401793D01*
X17014467Y-14401793D02*
X17014467Y-14354174D01*
X17014467Y-14354174D02*
X17023991Y-14316079D01*
X17023991Y-14316079D02*
X17033515Y-14297031D01*
X17033515Y-14297031D02*
X17043039Y-14287508D01*
X17043039Y-14287508D02*
X17062086Y-14277984D01*
X17204944Y-14297031D02*
X17214467Y-14287508D01*
X17214467Y-14287508D02*
X17233515Y-14277984D01*
X17233515Y-14277984D02*
X17281134Y-14277984D01*
X17281134Y-14277984D02*
X17300182Y-14287508D01*
X17300182Y-14287508D02*
X17309705Y-14297031D01*
X17309705Y-14297031D02*
X17319229Y-14316079D01*
X17319229Y-14316079D02*
X17319229Y-14335127D01*
X17319229Y-14335127D02*
X17309705Y-14363698D01*
X17309705Y-14363698D02*
X17195420Y-14477984D01*
X17195420Y-14477984D02*
X17319229Y-14477984D01*
X17443039Y-14277984D02*
X17462086Y-14277984D01*
X17462086Y-14277984D02*
X17481134Y-14287508D01*
X17481134Y-14287508D02*
X17490658Y-14297031D01*
X17490658Y-14297031D02*
X17500182Y-14316079D01*
X17500182Y-14316079D02*
X17509705Y-14354174D01*
X17509705Y-14354174D02*
X17509705Y-14401793D01*
X17509705Y-14401793D02*
X17500182Y-14439888D01*
X17500182Y-14439888D02*
X17490658Y-14458936D01*
X17490658Y-14458936D02*
X17481134Y-14468460D01*
X17481134Y-14468460D02*
X17462086Y-14477984D01*
X17462086Y-14477984D02*
X17443039Y-14477984D01*
X17443039Y-14477984D02*
X17423991Y-14468460D01*
X17423991Y-14468460D02*
X17414467Y-14458936D01*
X17414467Y-14458936D02*
X17404944Y-14439888D01*
X17404944Y-14439888D02*
X17395420Y-14401793D01*
X17395420Y-14401793D02*
X17395420Y-14354174D01*
X17395420Y-14354174D02*
X17404944Y-14316079D01*
X17404944Y-14316079D02*
X17414467Y-14297031D01*
X17414467Y-14297031D02*
X17423991Y-14287508D01*
X17423991Y-14287508D02*
X17443039Y-14277984D01*
X17595420Y-14477984D02*
X17595420Y-14344650D01*
X17595420Y-14363698D02*
X17604944Y-14354174D01*
X17604944Y-14354174D02*
X17623991Y-14344650D01*
X17623991Y-14344650D02*
X17652563Y-14344650D01*
X17652563Y-14344650D02*
X17671610Y-14354174D01*
X17671610Y-14354174D02*
X17681134Y-14373222D01*
X17681134Y-14373222D02*
X17681134Y-14477984D01*
X17681134Y-14373222D02*
X17690658Y-14354174D01*
X17690658Y-14354174D02*
X17709705Y-14344650D01*
X17709705Y-14344650D02*
X17738277Y-14344650D01*
X17738277Y-14344650D02*
X17757325Y-14354174D01*
X17757325Y-14354174D02*
X17766848Y-14373222D01*
X17766848Y-14373222D02*
X17766848Y-14477984D01*
X17862086Y-14477984D02*
X17862086Y-14344650D01*
X17862086Y-14363698D02*
X17871610Y-14354174D01*
X17871610Y-14354174D02*
X17890658Y-14344650D01*
X17890658Y-14344650D02*
X17919229Y-14344650D01*
X17919229Y-14344650D02*
X17938277Y-14354174D01*
X17938277Y-14354174D02*
X17947801Y-14373222D01*
X17947801Y-14373222D02*
X17947801Y-14477984D01*
X17947801Y-14373222D02*
X17957325Y-14354174D01*
X17957325Y-14354174D02*
X17976372Y-14344650D01*
X17976372Y-14344650D02*
X18004944Y-14344650D01*
X18004944Y-14344650D02*
X18023991Y-14354174D01*
X18023991Y-14354174D02*
X18033515Y-14373222D01*
X18033515Y-14373222D02*
X18033515Y-14477984D01*
X18423991Y-14268460D02*
X18252563Y-14525603D01*
X18681134Y-14277984D02*
X18700182Y-14277984D01*
X18700182Y-14277984D02*
X18719229Y-14287508D01*
X18719229Y-14287508D02*
X18728753Y-14297031D01*
X18728753Y-14297031D02*
X18738277Y-14316079D01*
X18738277Y-14316079D02*
X18747801Y-14354174D01*
X18747801Y-14354174D02*
X18747801Y-14401793D01*
X18747801Y-14401793D02*
X18738277Y-14439888D01*
X18738277Y-14439888D02*
X18728753Y-14458936D01*
X18728753Y-14458936D02*
X18719229Y-14468460D01*
X18719229Y-14468460D02*
X18700182Y-14477984D01*
X18700182Y-14477984D02*
X18681134Y-14477984D01*
X18681134Y-14477984D02*
X18662087Y-14468460D01*
X18662087Y-14468460D02*
X18652563Y-14458936D01*
X18652563Y-14458936D02*
X18643039Y-14439888D01*
X18643039Y-14439888D02*
X18633515Y-14401793D01*
X18633515Y-14401793D02*
X18633515Y-14354174D01*
X18633515Y-14354174D02*
X18643039Y-14316079D01*
X18643039Y-14316079D02*
X18652563Y-14297031D01*
X18652563Y-14297031D02*
X18662087Y-14287508D01*
X18662087Y-14287508D02*
X18681134Y-14277984D01*
X18833515Y-14458936D02*
X18843039Y-14468460D01*
X18843039Y-14468460D02*
X18833515Y-14477984D01*
X18833515Y-14477984D02*
X18823991Y-14468460D01*
X18823991Y-14468460D02*
X18833515Y-14458936D01*
X18833515Y-14458936D02*
X18833515Y-14477984D01*
X18966848Y-14277984D02*
X18985896Y-14277984D01*
X18985896Y-14277984D02*
X19004944Y-14287508D01*
X19004944Y-14287508D02*
X19014468Y-14297031D01*
X19014468Y-14297031D02*
X19023991Y-14316079D01*
X19023991Y-14316079D02*
X19033515Y-14354174D01*
X19033515Y-14354174D02*
X19033515Y-14401793D01*
X19033515Y-14401793D02*
X19023991Y-14439888D01*
X19023991Y-14439888D02*
X19014468Y-14458936D01*
X19014468Y-14458936D02*
X19004944Y-14468460D01*
X19004944Y-14468460D02*
X18985896Y-14477984D01*
X18985896Y-14477984D02*
X18966848Y-14477984D01*
X18966848Y-14477984D02*
X18947801Y-14468460D01*
X18947801Y-14468460D02*
X18938277Y-14458936D01*
X18938277Y-14458936D02*
X18928753Y-14439888D01*
X18928753Y-14439888D02*
X18919229Y-14401793D01*
X18919229Y-14401793D02*
X18919229Y-14354174D01*
X18919229Y-14354174D02*
X18928753Y-14316079D01*
X18928753Y-14316079D02*
X18938277Y-14297031D01*
X18938277Y-14297031D02*
X18947801Y-14287508D01*
X18947801Y-14287508D02*
X18966848Y-14277984D01*
X19204944Y-14344650D02*
X19204944Y-14477984D01*
X19157325Y-14268460D02*
X19109706Y-14411317D01*
X19109706Y-14411317D02*
X19233515Y-14411317D01*
X19347801Y-14277984D02*
X19366849Y-14277984D01*
X19366849Y-14277984D02*
X19385896Y-14287508D01*
X19385896Y-14287508D02*
X19395420Y-14297031D01*
X19395420Y-14297031D02*
X19404944Y-14316079D01*
X19404944Y-14316079D02*
X19414468Y-14354174D01*
X19414468Y-14354174D02*
X19414468Y-14401793D01*
X19414468Y-14401793D02*
X19404944Y-14439888D01*
X19404944Y-14439888D02*
X19395420Y-14458936D01*
X19395420Y-14458936D02*
X19385896Y-14468460D01*
X19385896Y-14468460D02*
X19366849Y-14477984D01*
X19366849Y-14477984D02*
X19347801Y-14477984D01*
X19347801Y-14477984D02*
X19328753Y-14468460D01*
X19328753Y-14468460D02*
X19319229Y-14458936D01*
X19319229Y-14458936D02*
X19309706Y-14439888D01*
X19309706Y-14439888D02*
X19300182Y-14401793D01*
X19300182Y-14401793D02*
X19300182Y-14354174D01*
X19300182Y-14354174D02*
X19309706Y-14316079D01*
X19309706Y-14316079D02*
X19319229Y-14297031D01*
X19319229Y-14297031D02*
X19328753Y-14287508D01*
X19328753Y-14287508D02*
X19347801Y-14277984D01*
X19490658Y-14297031D02*
X19500182Y-14287508D01*
X19500182Y-14287508D02*
X19519229Y-14277984D01*
X19519229Y-14277984D02*
X19566849Y-14277984D01*
X19566849Y-14277984D02*
X19585896Y-14287508D01*
X19585896Y-14287508D02*
X19595420Y-14297031D01*
X19595420Y-14297031D02*
X19604944Y-14316079D01*
X19604944Y-14316079D02*
X19604944Y-14335127D01*
X19604944Y-14335127D02*
X19595420Y-14363698D01*
X19595420Y-14363698D02*
X19481134Y-14477984D01*
X19481134Y-14477984D02*
X19604944Y-14477984D01*
X19681134Y-14277984D02*
X19681134Y-14316079D01*
X19757325Y-14277984D02*
X19757325Y-14316079D01*
X20052563Y-14554174D02*
X20043039Y-14544650D01*
X20043039Y-14544650D02*
X20023991Y-14516079D01*
X20023991Y-14516079D02*
X20014468Y-14497031D01*
X20014468Y-14497031D02*
X20004944Y-14468460D01*
X20004944Y-14468460D02*
X19995420Y-14420841D01*
X19995420Y-14420841D02*
X19995420Y-14382746D01*
X19995420Y-14382746D02*
X20004944Y-14335127D01*
X20004944Y-14335127D02*
X20014468Y-14306555D01*
X20014468Y-14306555D02*
X20023991Y-14287508D01*
X20023991Y-14287508D02*
X20043039Y-14258936D01*
X20043039Y-14258936D02*
X20052563Y-14249412D01*
X20214468Y-14344650D02*
X20214468Y-14477984D01*
X20166849Y-14268460D02*
X20119230Y-14411317D01*
X20119230Y-14411317D02*
X20243039Y-14411317D01*
X20471611Y-14477984D02*
X20471611Y-14277984D01*
X20557325Y-14477984D02*
X20557325Y-14373222D01*
X20557325Y-14373222D02*
X20547801Y-14354174D01*
X20547801Y-14354174D02*
X20528753Y-14344650D01*
X20528753Y-14344650D02*
X20500182Y-14344650D01*
X20500182Y-14344650D02*
X20481134Y-14354174D01*
X20481134Y-14354174D02*
X20471611Y-14363698D01*
X20681134Y-14477984D02*
X20662087Y-14468460D01*
X20662087Y-14468460D02*
X20652563Y-14458936D01*
X20652563Y-14458936D02*
X20643039Y-14439888D01*
X20643039Y-14439888D02*
X20643039Y-14382746D01*
X20643039Y-14382746D02*
X20652563Y-14363698D01*
X20652563Y-14363698D02*
X20662087Y-14354174D01*
X20662087Y-14354174D02*
X20681134Y-14344650D01*
X20681134Y-14344650D02*
X20709706Y-14344650D01*
X20709706Y-14344650D02*
X20728753Y-14354174D01*
X20728753Y-14354174D02*
X20738277Y-14363698D01*
X20738277Y-14363698D02*
X20747801Y-14382746D01*
X20747801Y-14382746D02*
X20747801Y-14439888D01*
X20747801Y-14439888D02*
X20738277Y-14458936D01*
X20738277Y-14458936D02*
X20728753Y-14468460D01*
X20728753Y-14468460D02*
X20709706Y-14477984D01*
X20709706Y-14477984D02*
X20681134Y-14477984D01*
X20862087Y-14477984D02*
X20843039Y-14468460D01*
X20843039Y-14468460D02*
X20833515Y-14449412D01*
X20833515Y-14449412D02*
X20833515Y-14277984D01*
X21014468Y-14468460D02*
X20995420Y-14477984D01*
X20995420Y-14477984D02*
X20957325Y-14477984D01*
X20957325Y-14477984D02*
X20938277Y-14468460D01*
X20938277Y-14468460D02*
X20928753Y-14449412D01*
X20928753Y-14449412D02*
X20928753Y-14373222D01*
X20928753Y-14373222D02*
X20938277Y-14354174D01*
X20938277Y-14354174D02*
X20957325Y-14344650D01*
X20957325Y-14344650D02*
X20995420Y-14344650D01*
X20995420Y-14344650D02*
X21014468Y-14354174D01*
X21014468Y-14354174D02*
X21023992Y-14373222D01*
X21023992Y-14373222D02*
X21023992Y-14392269D01*
X21023992Y-14392269D02*
X20928753Y-14411317D01*
X21100182Y-14468460D02*
X21119230Y-14477984D01*
X21119230Y-14477984D02*
X21157325Y-14477984D01*
X21157325Y-14477984D02*
X21176373Y-14468460D01*
X21176373Y-14468460D02*
X21185896Y-14449412D01*
X21185896Y-14449412D02*
X21185896Y-14439888D01*
X21185896Y-14439888D02*
X21176373Y-14420841D01*
X21176373Y-14420841D02*
X21157325Y-14411317D01*
X21157325Y-14411317D02*
X21128753Y-14411317D01*
X21128753Y-14411317D02*
X21109706Y-14401793D01*
X21109706Y-14401793D02*
X21100182Y-14382746D01*
X21100182Y-14382746D02*
X21100182Y-14373222D01*
X21100182Y-14373222D02*
X21109706Y-14354174D01*
X21109706Y-14354174D02*
X21128753Y-14344650D01*
X21128753Y-14344650D02*
X21157325Y-14344650D01*
X21157325Y-14344650D02*
X21176373Y-14354174D01*
X21252563Y-14554174D02*
X21262087Y-14544650D01*
X21262087Y-14544650D02*
X21281134Y-14516079D01*
X21281134Y-14516079D02*
X21290658Y-14497031D01*
X21290658Y-14497031D02*
X21300182Y-14468460D01*
X21300182Y-14468460D02*
X21309706Y-14420841D01*
X21309706Y-14420841D02*
X21309706Y-14382746D01*
X21309706Y-14382746D02*
X21300182Y-14335127D01*
X21300182Y-14335127D02*
X21290658Y-14306555D01*
X21290658Y-14306555D02*
X21281134Y-14287508D01*
X21281134Y-14287508D02*
X21262087Y-14258936D01*
X21262087Y-14258936D02*
X21252563Y-14249412D01*
D14*
X16357500Y-14590500D02*
X16477500Y-14710500D01*
X16477500Y-14590500D02*
X16357500Y-14710500D01*
X16459927Y-14692927D02*
X16459927Y-14608073D01*
X16375073Y-14608073D01*
X16375073Y-14692927D01*
X16459927Y-14692927D01*
D11*
X16843039Y-14741984D02*
X16728753Y-14741984D01*
X16785896Y-14741984D02*
X16785896Y-14541984D01*
X16785896Y-14541984D02*
X16766848Y-14570555D01*
X16766848Y-14570555D02*
X16747801Y-14589603D01*
X16747801Y-14589603D02*
X16728753Y-14599127D01*
X16928753Y-14722936D02*
X16938277Y-14732460D01*
X16938277Y-14732460D02*
X16928753Y-14741984D01*
X16928753Y-14741984D02*
X16919229Y-14732460D01*
X16919229Y-14732460D02*
X16928753Y-14722936D01*
X16928753Y-14722936D02*
X16928753Y-14741984D01*
X17014467Y-14561031D02*
X17023991Y-14551508D01*
X17023991Y-14551508D02*
X17043039Y-14541984D01*
X17043039Y-14541984D02*
X17090658Y-14541984D01*
X17090658Y-14541984D02*
X17109705Y-14551508D01*
X17109705Y-14551508D02*
X17119229Y-14561031D01*
X17119229Y-14561031D02*
X17128753Y-14580079D01*
X17128753Y-14580079D02*
X17128753Y-14599127D01*
X17128753Y-14599127D02*
X17119229Y-14627698D01*
X17119229Y-14627698D02*
X17004944Y-14741984D01*
X17004944Y-14741984D02*
X17128753Y-14741984D01*
X17252563Y-14541984D02*
X17271610Y-14541984D01*
X17271610Y-14541984D02*
X17290658Y-14551508D01*
X17290658Y-14551508D02*
X17300182Y-14561031D01*
X17300182Y-14561031D02*
X17309705Y-14580079D01*
X17309705Y-14580079D02*
X17319229Y-14618174D01*
X17319229Y-14618174D02*
X17319229Y-14665793D01*
X17319229Y-14665793D02*
X17309705Y-14703888D01*
X17309705Y-14703888D02*
X17300182Y-14722936D01*
X17300182Y-14722936D02*
X17290658Y-14732460D01*
X17290658Y-14732460D02*
X17271610Y-14741984D01*
X17271610Y-14741984D02*
X17252563Y-14741984D01*
X17252563Y-14741984D02*
X17233515Y-14732460D01*
X17233515Y-14732460D02*
X17223991Y-14722936D01*
X17223991Y-14722936D02*
X17214467Y-14703888D01*
X17214467Y-14703888D02*
X17204944Y-14665793D01*
X17204944Y-14665793D02*
X17204944Y-14618174D01*
X17204944Y-14618174D02*
X17214467Y-14580079D01*
X17214467Y-14580079D02*
X17223991Y-14561031D01*
X17223991Y-14561031D02*
X17233515Y-14551508D01*
X17233515Y-14551508D02*
X17252563Y-14541984D01*
X17443039Y-14541984D02*
X17462086Y-14541984D01*
X17462086Y-14541984D02*
X17481134Y-14551508D01*
X17481134Y-14551508D02*
X17490658Y-14561031D01*
X17490658Y-14561031D02*
X17500182Y-14580079D01*
X17500182Y-14580079D02*
X17509705Y-14618174D01*
X17509705Y-14618174D02*
X17509705Y-14665793D01*
X17509705Y-14665793D02*
X17500182Y-14703888D01*
X17500182Y-14703888D02*
X17490658Y-14722936D01*
X17490658Y-14722936D02*
X17481134Y-14732460D01*
X17481134Y-14732460D02*
X17462086Y-14741984D01*
X17462086Y-14741984D02*
X17443039Y-14741984D01*
X17443039Y-14741984D02*
X17423991Y-14732460D01*
X17423991Y-14732460D02*
X17414467Y-14722936D01*
X17414467Y-14722936D02*
X17404944Y-14703888D01*
X17404944Y-14703888D02*
X17395420Y-14665793D01*
X17395420Y-14665793D02*
X17395420Y-14618174D01*
X17395420Y-14618174D02*
X17404944Y-14580079D01*
X17404944Y-14580079D02*
X17414467Y-14561031D01*
X17414467Y-14561031D02*
X17423991Y-14551508D01*
X17423991Y-14551508D02*
X17443039Y-14541984D01*
X17595420Y-14741984D02*
X17595420Y-14608650D01*
X17595420Y-14627698D02*
X17604944Y-14618174D01*
X17604944Y-14618174D02*
X17623991Y-14608650D01*
X17623991Y-14608650D02*
X17652563Y-14608650D01*
X17652563Y-14608650D02*
X17671610Y-14618174D01*
X17671610Y-14618174D02*
X17681134Y-14637222D01*
X17681134Y-14637222D02*
X17681134Y-14741984D01*
X17681134Y-14637222D02*
X17690658Y-14618174D01*
X17690658Y-14618174D02*
X17709705Y-14608650D01*
X17709705Y-14608650D02*
X17738277Y-14608650D01*
X17738277Y-14608650D02*
X17757325Y-14618174D01*
X17757325Y-14618174D02*
X17766848Y-14637222D01*
X17766848Y-14637222D02*
X17766848Y-14741984D01*
X17862086Y-14741984D02*
X17862086Y-14608650D01*
X17862086Y-14627698D02*
X17871610Y-14618174D01*
X17871610Y-14618174D02*
X17890658Y-14608650D01*
X17890658Y-14608650D02*
X17919229Y-14608650D01*
X17919229Y-14608650D02*
X17938277Y-14618174D01*
X17938277Y-14618174D02*
X17947801Y-14637222D01*
X17947801Y-14637222D02*
X17947801Y-14741984D01*
X17947801Y-14637222D02*
X17957325Y-14618174D01*
X17957325Y-14618174D02*
X17976372Y-14608650D01*
X17976372Y-14608650D02*
X18004944Y-14608650D01*
X18004944Y-14608650D02*
X18023991Y-14618174D01*
X18023991Y-14618174D02*
X18033515Y-14637222D01*
X18033515Y-14637222D02*
X18033515Y-14741984D01*
X18423991Y-14532460D02*
X18252563Y-14789603D01*
X18681134Y-14541984D02*
X18700182Y-14541984D01*
X18700182Y-14541984D02*
X18719229Y-14551508D01*
X18719229Y-14551508D02*
X18728753Y-14561031D01*
X18728753Y-14561031D02*
X18738277Y-14580079D01*
X18738277Y-14580079D02*
X18747801Y-14618174D01*
X18747801Y-14618174D02*
X18747801Y-14665793D01*
X18747801Y-14665793D02*
X18738277Y-14703888D01*
X18738277Y-14703888D02*
X18728753Y-14722936D01*
X18728753Y-14722936D02*
X18719229Y-14732460D01*
X18719229Y-14732460D02*
X18700182Y-14741984D01*
X18700182Y-14741984D02*
X18681134Y-14741984D01*
X18681134Y-14741984D02*
X18662087Y-14732460D01*
X18662087Y-14732460D02*
X18652563Y-14722936D01*
X18652563Y-14722936D02*
X18643039Y-14703888D01*
X18643039Y-14703888D02*
X18633515Y-14665793D01*
X18633515Y-14665793D02*
X18633515Y-14618174D01*
X18633515Y-14618174D02*
X18643039Y-14580079D01*
X18643039Y-14580079D02*
X18652563Y-14561031D01*
X18652563Y-14561031D02*
X18662087Y-14551508D01*
X18662087Y-14551508D02*
X18681134Y-14541984D01*
X18833515Y-14722936D02*
X18843039Y-14732460D01*
X18843039Y-14732460D02*
X18833515Y-14741984D01*
X18833515Y-14741984D02*
X18823991Y-14732460D01*
X18823991Y-14732460D02*
X18833515Y-14722936D01*
X18833515Y-14722936D02*
X18833515Y-14741984D01*
X18966848Y-14541984D02*
X18985896Y-14541984D01*
X18985896Y-14541984D02*
X19004944Y-14551508D01*
X19004944Y-14551508D02*
X19014468Y-14561031D01*
X19014468Y-14561031D02*
X19023991Y-14580079D01*
X19023991Y-14580079D02*
X19033515Y-14618174D01*
X19033515Y-14618174D02*
X19033515Y-14665793D01*
X19033515Y-14665793D02*
X19023991Y-14703888D01*
X19023991Y-14703888D02*
X19014468Y-14722936D01*
X19014468Y-14722936D02*
X19004944Y-14732460D01*
X19004944Y-14732460D02*
X18985896Y-14741984D01*
X18985896Y-14741984D02*
X18966848Y-14741984D01*
X18966848Y-14741984D02*
X18947801Y-14732460D01*
X18947801Y-14732460D02*
X18938277Y-14722936D01*
X18938277Y-14722936D02*
X18928753Y-14703888D01*
X18928753Y-14703888D02*
X18919229Y-14665793D01*
X18919229Y-14665793D02*
X18919229Y-14618174D01*
X18919229Y-14618174D02*
X18928753Y-14580079D01*
X18928753Y-14580079D02*
X18938277Y-14561031D01*
X18938277Y-14561031D02*
X18947801Y-14551508D01*
X18947801Y-14551508D02*
X18966848Y-14541984D01*
X19204944Y-14608650D02*
X19204944Y-14741984D01*
X19157325Y-14532460D02*
X19109706Y-14675317D01*
X19109706Y-14675317D02*
X19233515Y-14675317D01*
X19290658Y-14541984D02*
X19423991Y-14541984D01*
X19423991Y-14541984D02*
X19338277Y-14741984D01*
X19490658Y-14561031D02*
X19500182Y-14551508D01*
X19500182Y-14551508D02*
X19519229Y-14541984D01*
X19519229Y-14541984D02*
X19566849Y-14541984D01*
X19566849Y-14541984D02*
X19585896Y-14551508D01*
X19585896Y-14551508D02*
X19595420Y-14561031D01*
X19595420Y-14561031D02*
X19604944Y-14580079D01*
X19604944Y-14580079D02*
X19604944Y-14599127D01*
X19604944Y-14599127D02*
X19595420Y-14627698D01*
X19595420Y-14627698D02*
X19481134Y-14741984D01*
X19481134Y-14741984D02*
X19604944Y-14741984D01*
X19681134Y-14541984D02*
X19681134Y-14580079D01*
X19757325Y-14541984D02*
X19757325Y-14580079D01*
X20052563Y-14818174D02*
X20043039Y-14808650D01*
X20043039Y-14808650D02*
X20023991Y-14780079D01*
X20023991Y-14780079D02*
X20014468Y-14761031D01*
X20014468Y-14761031D02*
X20004944Y-14732460D01*
X20004944Y-14732460D02*
X19995420Y-14684841D01*
X19995420Y-14684841D02*
X19995420Y-14646746D01*
X19995420Y-14646746D02*
X20004944Y-14599127D01*
X20004944Y-14599127D02*
X20014468Y-14570555D01*
X20014468Y-14570555D02*
X20023991Y-14551508D01*
X20023991Y-14551508D02*
X20043039Y-14522936D01*
X20043039Y-14522936D02*
X20052563Y-14513412D01*
X20119230Y-14561031D02*
X20128753Y-14551508D01*
X20128753Y-14551508D02*
X20147801Y-14541984D01*
X20147801Y-14541984D02*
X20195420Y-14541984D01*
X20195420Y-14541984D02*
X20214468Y-14551508D01*
X20214468Y-14551508D02*
X20223991Y-14561031D01*
X20223991Y-14561031D02*
X20233515Y-14580079D01*
X20233515Y-14580079D02*
X20233515Y-14599127D01*
X20233515Y-14599127D02*
X20223991Y-14627698D01*
X20223991Y-14627698D02*
X20109706Y-14741984D01*
X20109706Y-14741984D02*
X20233515Y-14741984D01*
X20471611Y-14741984D02*
X20471611Y-14541984D01*
X20557325Y-14741984D02*
X20557325Y-14637222D01*
X20557325Y-14637222D02*
X20547801Y-14618174D01*
X20547801Y-14618174D02*
X20528753Y-14608650D01*
X20528753Y-14608650D02*
X20500182Y-14608650D01*
X20500182Y-14608650D02*
X20481134Y-14618174D01*
X20481134Y-14618174D02*
X20471611Y-14627698D01*
X20681134Y-14741984D02*
X20662087Y-14732460D01*
X20662087Y-14732460D02*
X20652563Y-14722936D01*
X20652563Y-14722936D02*
X20643039Y-14703888D01*
X20643039Y-14703888D02*
X20643039Y-14646746D01*
X20643039Y-14646746D02*
X20652563Y-14627698D01*
X20652563Y-14627698D02*
X20662087Y-14618174D01*
X20662087Y-14618174D02*
X20681134Y-14608650D01*
X20681134Y-14608650D02*
X20709706Y-14608650D01*
X20709706Y-14608650D02*
X20728753Y-14618174D01*
X20728753Y-14618174D02*
X20738277Y-14627698D01*
X20738277Y-14627698D02*
X20747801Y-14646746D01*
X20747801Y-14646746D02*
X20747801Y-14703888D01*
X20747801Y-14703888D02*
X20738277Y-14722936D01*
X20738277Y-14722936D02*
X20728753Y-14732460D01*
X20728753Y-14732460D02*
X20709706Y-14741984D01*
X20709706Y-14741984D02*
X20681134Y-14741984D01*
X20862087Y-14741984D02*
X20843039Y-14732460D01*
X20843039Y-14732460D02*
X20833515Y-14713412D01*
X20833515Y-14713412D02*
X20833515Y-14541984D01*
X21014468Y-14732460D02*
X20995420Y-14741984D01*
X20995420Y-14741984D02*
X20957325Y-14741984D01*
X20957325Y-14741984D02*
X20938277Y-14732460D01*
X20938277Y-14732460D02*
X20928753Y-14713412D01*
X20928753Y-14713412D02*
X20928753Y-14637222D01*
X20928753Y-14637222D02*
X20938277Y-14618174D01*
X20938277Y-14618174D02*
X20957325Y-14608650D01*
X20957325Y-14608650D02*
X20995420Y-14608650D01*
X20995420Y-14608650D02*
X21014468Y-14618174D01*
X21014468Y-14618174D02*
X21023992Y-14637222D01*
X21023992Y-14637222D02*
X21023992Y-14656269D01*
X21023992Y-14656269D02*
X20928753Y-14675317D01*
X21100182Y-14732460D02*
X21119230Y-14741984D01*
X21119230Y-14741984D02*
X21157325Y-14741984D01*
X21157325Y-14741984D02*
X21176373Y-14732460D01*
X21176373Y-14732460D02*
X21185896Y-14713412D01*
X21185896Y-14713412D02*
X21185896Y-14703888D01*
X21185896Y-14703888D02*
X21176373Y-14684841D01*
X21176373Y-14684841D02*
X21157325Y-14675317D01*
X21157325Y-14675317D02*
X21128753Y-14675317D01*
X21128753Y-14675317D02*
X21109706Y-14665793D01*
X21109706Y-14665793D02*
X21100182Y-14646746D01*
X21100182Y-14646746D02*
X21100182Y-14637222D01*
X21100182Y-14637222D02*
X21109706Y-14618174D01*
X21109706Y-14618174D02*
X21128753Y-14608650D01*
X21128753Y-14608650D02*
X21157325Y-14608650D01*
X21157325Y-14608650D02*
X21176373Y-14618174D01*
X21252563Y-14818174D02*
X21262087Y-14808650D01*
X21262087Y-14808650D02*
X21281134Y-14780079D01*
X21281134Y-14780079D02*
X21290658Y-14761031D01*
X21290658Y-14761031D02*
X21300182Y-14732460D01*
X21300182Y-14732460D02*
X21309706Y-14684841D01*
X21309706Y-14684841D02*
X21309706Y-14646746D01*
X21309706Y-14646746D02*
X21300182Y-14599127D01*
X21300182Y-14599127D02*
X21290658Y-14570555D01*
X21290658Y-14570555D02*
X21281134Y-14551508D01*
X21281134Y-14551508D02*
X21262087Y-14522936D01*
X21262087Y-14522936D02*
X21252563Y-14513412D01*
D15*
X16314500Y-14833000D02*
X16477500Y-14996000D01*
X16477500Y-14833000D02*
X16314500Y-14996000D01*
X16396000Y-14996000D02*
X16477500Y-14914500D01*
X16396000Y-14833000D01*
X16314500Y-14914500D01*
X16396000Y-14996000D01*
D11*
X16843039Y-15005984D02*
X16728753Y-15005984D01*
X16785896Y-15005984D02*
X16785896Y-14805984D01*
X16785896Y-14805984D02*
X16766848Y-14834555D01*
X16766848Y-14834555D02*
X16747801Y-14853603D01*
X16747801Y-14853603D02*
X16728753Y-14863127D01*
X16928753Y-14986936D02*
X16938277Y-14996460D01*
X16938277Y-14996460D02*
X16928753Y-15005984D01*
X16928753Y-15005984D02*
X16919229Y-14996460D01*
X16919229Y-14996460D02*
X16928753Y-14986936D01*
X16928753Y-14986936D02*
X16928753Y-15005984D01*
X17109705Y-14805984D02*
X17071610Y-14805984D01*
X17071610Y-14805984D02*
X17052563Y-14815508D01*
X17052563Y-14815508D02*
X17043039Y-14825031D01*
X17043039Y-14825031D02*
X17023991Y-14853603D01*
X17023991Y-14853603D02*
X17014467Y-14891698D01*
X17014467Y-14891698D02*
X17014467Y-14967888D01*
X17014467Y-14967888D02*
X17023991Y-14986936D01*
X17023991Y-14986936D02*
X17033515Y-14996460D01*
X17033515Y-14996460D02*
X17052563Y-15005984D01*
X17052563Y-15005984D02*
X17090658Y-15005984D01*
X17090658Y-15005984D02*
X17109705Y-14996460D01*
X17109705Y-14996460D02*
X17119229Y-14986936D01*
X17119229Y-14986936D02*
X17128753Y-14967888D01*
X17128753Y-14967888D02*
X17128753Y-14920269D01*
X17128753Y-14920269D02*
X17119229Y-14901222D01*
X17119229Y-14901222D02*
X17109705Y-14891698D01*
X17109705Y-14891698D02*
X17090658Y-14882174D01*
X17090658Y-14882174D02*
X17052563Y-14882174D01*
X17052563Y-14882174D02*
X17033515Y-14891698D01*
X17033515Y-14891698D02*
X17023991Y-14901222D01*
X17023991Y-14901222D02*
X17014467Y-14920269D01*
X17195420Y-14805984D02*
X17319229Y-14805984D01*
X17319229Y-14805984D02*
X17252563Y-14882174D01*
X17252563Y-14882174D02*
X17281134Y-14882174D01*
X17281134Y-14882174D02*
X17300182Y-14891698D01*
X17300182Y-14891698D02*
X17309705Y-14901222D01*
X17309705Y-14901222D02*
X17319229Y-14920269D01*
X17319229Y-14920269D02*
X17319229Y-14967888D01*
X17319229Y-14967888D02*
X17309705Y-14986936D01*
X17309705Y-14986936D02*
X17300182Y-14996460D01*
X17300182Y-14996460D02*
X17281134Y-15005984D01*
X17281134Y-15005984D02*
X17223991Y-15005984D01*
X17223991Y-15005984D02*
X17204944Y-14996460D01*
X17204944Y-14996460D02*
X17195420Y-14986936D01*
X17443039Y-14805984D02*
X17462086Y-14805984D01*
X17462086Y-14805984D02*
X17481134Y-14815508D01*
X17481134Y-14815508D02*
X17490658Y-14825031D01*
X17490658Y-14825031D02*
X17500182Y-14844079D01*
X17500182Y-14844079D02*
X17509705Y-14882174D01*
X17509705Y-14882174D02*
X17509705Y-14929793D01*
X17509705Y-14929793D02*
X17500182Y-14967888D01*
X17500182Y-14967888D02*
X17490658Y-14986936D01*
X17490658Y-14986936D02*
X17481134Y-14996460D01*
X17481134Y-14996460D02*
X17462086Y-15005984D01*
X17462086Y-15005984D02*
X17443039Y-15005984D01*
X17443039Y-15005984D02*
X17423991Y-14996460D01*
X17423991Y-14996460D02*
X17414467Y-14986936D01*
X17414467Y-14986936D02*
X17404944Y-14967888D01*
X17404944Y-14967888D02*
X17395420Y-14929793D01*
X17395420Y-14929793D02*
X17395420Y-14882174D01*
X17395420Y-14882174D02*
X17404944Y-14844079D01*
X17404944Y-14844079D02*
X17414467Y-14825031D01*
X17414467Y-14825031D02*
X17423991Y-14815508D01*
X17423991Y-14815508D02*
X17443039Y-14805984D01*
X17595420Y-15005984D02*
X17595420Y-14872650D01*
X17595420Y-14891698D02*
X17604944Y-14882174D01*
X17604944Y-14882174D02*
X17623991Y-14872650D01*
X17623991Y-14872650D02*
X17652563Y-14872650D01*
X17652563Y-14872650D02*
X17671610Y-14882174D01*
X17671610Y-14882174D02*
X17681134Y-14901222D01*
X17681134Y-14901222D02*
X17681134Y-15005984D01*
X17681134Y-14901222D02*
X17690658Y-14882174D01*
X17690658Y-14882174D02*
X17709705Y-14872650D01*
X17709705Y-14872650D02*
X17738277Y-14872650D01*
X17738277Y-14872650D02*
X17757325Y-14882174D01*
X17757325Y-14882174D02*
X17766848Y-14901222D01*
X17766848Y-14901222D02*
X17766848Y-15005984D01*
X17862086Y-15005984D02*
X17862086Y-14872650D01*
X17862086Y-14891698D02*
X17871610Y-14882174D01*
X17871610Y-14882174D02*
X17890658Y-14872650D01*
X17890658Y-14872650D02*
X17919229Y-14872650D01*
X17919229Y-14872650D02*
X17938277Y-14882174D01*
X17938277Y-14882174D02*
X17947801Y-14901222D01*
X17947801Y-14901222D02*
X17947801Y-15005984D01*
X17947801Y-14901222D02*
X17957325Y-14882174D01*
X17957325Y-14882174D02*
X17976372Y-14872650D01*
X17976372Y-14872650D02*
X18004944Y-14872650D01*
X18004944Y-14872650D02*
X18023991Y-14882174D01*
X18023991Y-14882174D02*
X18033515Y-14901222D01*
X18033515Y-14901222D02*
X18033515Y-15005984D01*
X18423991Y-14796460D02*
X18252563Y-15053603D01*
X18681134Y-14805984D02*
X18700182Y-14805984D01*
X18700182Y-14805984D02*
X18719229Y-14815508D01*
X18719229Y-14815508D02*
X18728753Y-14825031D01*
X18728753Y-14825031D02*
X18738277Y-14844079D01*
X18738277Y-14844079D02*
X18747801Y-14882174D01*
X18747801Y-14882174D02*
X18747801Y-14929793D01*
X18747801Y-14929793D02*
X18738277Y-14967888D01*
X18738277Y-14967888D02*
X18728753Y-14986936D01*
X18728753Y-14986936D02*
X18719229Y-14996460D01*
X18719229Y-14996460D02*
X18700182Y-15005984D01*
X18700182Y-15005984D02*
X18681134Y-15005984D01*
X18681134Y-15005984D02*
X18662087Y-14996460D01*
X18662087Y-14996460D02*
X18652563Y-14986936D01*
X18652563Y-14986936D02*
X18643039Y-14967888D01*
X18643039Y-14967888D02*
X18633515Y-14929793D01*
X18633515Y-14929793D02*
X18633515Y-14882174D01*
X18633515Y-14882174D02*
X18643039Y-14844079D01*
X18643039Y-14844079D02*
X18652563Y-14825031D01*
X18652563Y-14825031D02*
X18662087Y-14815508D01*
X18662087Y-14815508D02*
X18681134Y-14805984D01*
X18833515Y-14986936D02*
X18843039Y-14996460D01*
X18843039Y-14996460D02*
X18833515Y-15005984D01*
X18833515Y-15005984D02*
X18823991Y-14996460D01*
X18823991Y-14996460D02*
X18833515Y-14986936D01*
X18833515Y-14986936D02*
X18833515Y-15005984D01*
X18966848Y-14805984D02*
X18985896Y-14805984D01*
X18985896Y-14805984D02*
X19004944Y-14815508D01*
X19004944Y-14815508D02*
X19014468Y-14825031D01*
X19014468Y-14825031D02*
X19023991Y-14844079D01*
X19023991Y-14844079D02*
X19033515Y-14882174D01*
X19033515Y-14882174D02*
X19033515Y-14929793D01*
X19033515Y-14929793D02*
X19023991Y-14967888D01*
X19023991Y-14967888D02*
X19014468Y-14986936D01*
X19014468Y-14986936D02*
X19004944Y-14996460D01*
X19004944Y-14996460D02*
X18985896Y-15005984D01*
X18985896Y-15005984D02*
X18966848Y-15005984D01*
X18966848Y-15005984D02*
X18947801Y-14996460D01*
X18947801Y-14996460D02*
X18938277Y-14986936D01*
X18938277Y-14986936D02*
X18928753Y-14967888D01*
X18928753Y-14967888D02*
X18919229Y-14929793D01*
X18919229Y-14929793D02*
X18919229Y-14882174D01*
X18919229Y-14882174D02*
X18928753Y-14844079D01*
X18928753Y-14844079D02*
X18938277Y-14825031D01*
X18938277Y-14825031D02*
X18947801Y-14815508D01*
X18947801Y-14815508D02*
X18966848Y-14805984D01*
X19204944Y-14805984D02*
X19166848Y-14805984D01*
X19166848Y-14805984D02*
X19147801Y-14815508D01*
X19147801Y-14815508D02*
X19138277Y-14825031D01*
X19138277Y-14825031D02*
X19119229Y-14853603D01*
X19119229Y-14853603D02*
X19109706Y-14891698D01*
X19109706Y-14891698D02*
X19109706Y-14967888D01*
X19109706Y-14967888D02*
X19119229Y-14986936D01*
X19119229Y-14986936D02*
X19128753Y-14996460D01*
X19128753Y-14996460D02*
X19147801Y-15005984D01*
X19147801Y-15005984D02*
X19185896Y-15005984D01*
X19185896Y-15005984D02*
X19204944Y-14996460D01*
X19204944Y-14996460D02*
X19214468Y-14986936D01*
X19214468Y-14986936D02*
X19223991Y-14967888D01*
X19223991Y-14967888D02*
X19223991Y-14920269D01*
X19223991Y-14920269D02*
X19214468Y-14901222D01*
X19214468Y-14901222D02*
X19204944Y-14891698D01*
X19204944Y-14891698D02*
X19185896Y-14882174D01*
X19185896Y-14882174D02*
X19147801Y-14882174D01*
X19147801Y-14882174D02*
X19128753Y-14891698D01*
X19128753Y-14891698D02*
X19119229Y-14901222D01*
X19119229Y-14901222D02*
X19109706Y-14920269D01*
X19395420Y-14872650D02*
X19395420Y-15005984D01*
X19347801Y-14796460D02*
X19300182Y-14939317D01*
X19300182Y-14939317D02*
X19423991Y-14939317D01*
X19490658Y-14825031D02*
X19500182Y-14815508D01*
X19500182Y-14815508D02*
X19519229Y-14805984D01*
X19519229Y-14805984D02*
X19566849Y-14805984D01*
X19566849Y-14805984D02*
X19585896Y-14815508D01*
X19585896Y-14815508D02*
X19595420Y-14825031D01*
X19595420Y-14825031D02*
X19604944Y-14844079D01*
X19604944Y-14844079D02*
X19604944Y-14863127D01*
X19604944Y-14863127D02*
X19595420Y-14891698D01*
X19595420Y-14891698D02*
X19481134Y-15005984D01*
X19481134Y-15005984D02*
X19604944Y-15005984D01*
X19681134Y-14805984D02*
X19681134Y-14844079D01*
X19757325Y-14805984D02*
X19757325Y-14844079D01*
X20052563Y-15082174D02*
X20043039Y-15072650D01*
X20043039Y-15072650D02*
X20023991Y-15044079D01*
X20023991Y-15044079D02*
X20014468Y-15025031D01*
X20014468Y-15025031D02*
X20004944Y-14996460D01*
X20004944Y-14996460D02*
X19995420Y-14948841D01*
X19995420Y-14948841D02*
X19995420Y-14910746D01*
X19995420Y-14910746D02*
X20004944Y-14863127D01*
X20004944Y-14863127D02*
X20014468Y-14834555D01*
X20014468Y-14834555D02*
X20023991Y-14815508D01*
X20023991Y-14815508D02*
X20043039Y-14786936D01*
X20043039Y-14786936D02*
X20052563Y-14777412D01*
X20119230Y-14825031D02*
X20128753Y-14815508D01*
X20128753Y-14815508D02*
X20147801Y-14805984D01*
X20147801Y-14805984D02*
X20195420Y-14805984D01*
X20195420Y-14805984D02*
X20214468Y-14815508D01*
X20214468Y-14815508D02*
X20223991Y-14825031D01*
X20223991Y-14825031D02*
X20233515Y-14844079D01*
X20233515Y-14844079D02*
X20233515Y-14863127D01*
X20233515Y-14863127D02*
X20223991Y-14891698D01*
X20223991Y-14891698D02*
X20109706Y-15005984D01*
X20109706Y-15005984D02*
X20233515Y-15005984D01*
X20471611Y-15005984D02*
X20471611Y-14805984D01*
X20557325Y-15005984D02*
X20557325Y-14901222D01*
X20557325Y-14901222D02*
X20547801Y-14882174D01*
X20547801Y-14882174D02*
X20528753Y-14872650D01*
X20528753Y-14872650D02*
X20500182Y-14872650D01*
X20500182Y-14872650D02*
X20481134Y-14882174D01*
X20481134Y-14882174D02*
X20471611Y-14891698D01*
X20681134Y-15005984D02*
X20662087Y-14996460D01*
X20662087Y-14996460D02*
X20652563Y-14986936D01*
X20652563Y-14986936D02*
X20643039Y-14967888D01*
X20643039Y-14967888D02*
X20643039Y-14910746D01*
X20643039Y-14910746D02*
X20652563Y-14891698D01*
X20652563Y-14891698D02*
X20662087Y-14882174D01*
X20662087Y-14882174D02*
X20681134Y-14872650D01*
X20681134Y-14872650D02*
X20709706Y-14872650D01*
X20709706Y-14872650D02*
X20728753Y-14882174D01*
X20728753Y-14882174D02*
X20738277Y-14891698D01*
X20738277Y-14891698D02*
X20747801Y-14910746D01*
X20747801Y-14910746D02*
X20747801Y-14967888D01*
X20747801Y-14967888D02*
X20738277Y-14986936D01*
X20738277Y-14986936D02*
X20728753Y-14996460D01*
X20728753Y-14996460D02*
X20709706Y-15005984D01*
X20709706Y-15005984D02*
X20681134Y-15005984D01*
X20862087Y-15005984D02*
X20843039Y-14996460D01*
X20843039Y-14996460D02*
X20833515Y-14977412D01*
X20833515Y-14977412D02*
X20833515Y-14805984D01*
X21014468Y-14996460D02*
X20995420Y-15005984D01*
X20995420Y-15005984D02*
X20957325Y-15005984D01*
X20957325Y-15005984D02*
X20938277Y-14996460D01*
X20938277Y-14996460D02*
X20928753Y-14977412D01*
X20928753Y-14977412D02*
X20928753Y-14901222D01*
X20928753Y-14901222D02*
X20938277Y-14882174D01*
X20938277Y-14882174D02*
X20957325Y-14872650D01*
X20957325Y-14872650D02*
X20995420Y-14872650D01*
X20995420Y-14872650D02*
X21014468Y-14882174D01*
X21014468Y-14882174D02*
X21023992Y-14901222D01*
X21023992Y-14901222D02*
X21023992Y-14920269D01*
X21023992Y-14920269D02*
X20928753Y-14939317D01*
X21100182Y-14996460D02*
X21119230Y-15005984D01*
X21119230Y-15005984D02*
X21157325Y-15005984D01*
X21157325Y-15005984D02*
X21176373Y-14996460D01*
X21176373Y-14996460D02*
X21185896Y-14977412D01*
X21185896Y-14977412D02*
X21185896Y-14967888D01*
X21185896Y-14967888D02*
X21176373Y-14948841D01*
X21176373Y-14948841D02*
X21157325Y-14939317D01*
X21157325Y-14939317D02*
X21128753Y-14939317D01*
X21128753Y-14939317D02*
X21109706Y-14929793D01*
X21109706Y-14929793D02*
X21100182Y-14910746D01*
X21100182Y-14910746D02*
X21100182Y-14901222D01*
X21100182Y-14901222D02*
X21109706Y-14882174D01*
X21109706Y-14882174D02*
X21128753Y-14872650D01*
X21128753Y-14872650D02*
X21157325Y-14872650D01*
X21157325Y-14872650D02*
X21176373Y-14882174D01*
X21252563Y-15082174D02*
X21262087Y-15072650D01*
X21262087Y-15072650D02*
X21281134Y-15044079D01*
X21281134Y-15044079D02*
X21290658Y-15025031D01*
X21290658Y-15025031D02*
X21300182Y-14996460D01*
X21300182Y-14996460D02*
X21309706Y-14948841D01*
X21309706Y-14948841D02*
X21309706Y-14910746D01*
X21309706Y-14910746D02*
X21300182Y-14863127D01*
X21300182Y-14863127D02*
X21290658Y-14834555D01*
X21290658Y-14834555D02*
X21281134Y-14815508D01*
X21281134Y-14815508D02*
X21262087Y-14786936D01*
X21262087Y-14786936D02*
X21252563Y-14777412D01*
M02*
