G04 #@! TF.GenerationSoftware,KiCad,Pcbnew,8.0.4*
G04 #@! TF.CreationDate,2024-09-14T16:47:45+09:00*
G04 #@! TF.ProjectId,100base-t1-converter,31303062-6173-4652-9d74-312d636f6e76,rev?*
G04 #@! TF.SameCoordinates,Original*
G04 #@! TF.FileFunction,Legend,Bot*
G04 #@! TF.FilePolarity,Positive*
%FSLAX46Y46*%
G04 Gerber Fmt 4.6, Leading zero omitted, Abs format (unit mm)*
G04 Created by KiCad (PCBNEW 8.0.4) date 2024-09-14 16:47:45*
%MOMM*%
%LPD*%
G01*
G04 APERTURE LIST*
G04 Aperture macros list*
%AMRoundRect*
0 Rectangle with rounded corners*
0 $1 Rounding radius*
0 $2 $3 $4 $5 $6 $7 $8 $9 X,Y pos of 4 corners*
0 Add a 4 corners polygon primitive as box body*
4,1,4,$2,$3,$4,$5,$6,$7,$8,$9,$2,$3,0*
0 Add four circle primitives for the rounded corners*
1,1,$1+$1,$2,$3*
1,1,$1+$1,$4,$5*
1,1,$1+$1,$6,$7*
1,1,$1+$1,$8,$9*
0 Add four rect primitives between the rounded corners*
20,1,$1+$1,$2,$3,$4,$5,0*
20,1,$1+$1,$4,$5,$6,$7,0*
20,1,$1+$1,$6,$7,$8,$9,0*
20,1,$1+$1,$8,$9,$2,$3,0*%
G04 Aperture macros list end*
%ADD10C,0.150000*%
%ADD11C,0.010000*%
%ADD12C,1.602000*%
%ADD13C,2.602000*%
%ADD14RoundRect,0.267534X0.533466X-0.533466X0.533466X0.533466X-0.533466X0.533466X-0.533466X-0.533466X0*%
%ADD15C,3.352000*%
%ADD16C,2.102000*%
%ADD17O,1.802000X1.802000*%
%ADD18RoundRect,0.051000X0.850000X-0.850000X0.850000X0.850000X-0.850000X0.850000X-0.850000X-0.850000X0*%
%ADD19C,0.602000*%
%ADD20RoundRect,0.051000X0.800000X-0.800000X0.800000X0.800000X-0.800000X0.800000X-0.800000X-0.800000X0*%
%ADD21O,1.702000X1.702000*%
G04 APERTURE END LIST*
D10*
X216539411Y-78434931D02*
X217110839Y-78434931D01*
X216825125Y-78434931D02*
X216825125Y-77434931D01*
X216825125Y-77434931D02*
X216920363Y-77577788D01*
X216920363Y-77577788D02*
X217015601Y-77673026D01*
X217015601Y-77673026D02*
X217110839Y-77720645D01*
X215920363Y-77434931D02*
X215825125Y-77434931D01*
X215825125Y-77434931D02*
X215729887Y-77482550D01*
X215729887Y-77482550D02*
X215682268Y-77530169D01*
X215682268Y-77530169D02*
X215634649Y-77625407D01*
X215634649Y-77625407D02*
X215587030Y-77815883D01*
X215587030Y-77815883D02*
X215587030Y-78053978D01*
X215587030Y-78053978D02*
X215634649Y-78244454D01*
X215634649Y-78244454D02*
X215682268Y-78339692D01*
X215682268Y-78339692D02*
X215729887Y-78387312D01*
X215729887Y-78387312D02*
X215825125Y-78434931D01*
X215825125Y-78434931D02*
X215920363Y-78434931D01*
X215920363Y-78434931D02*
X216015601Y-78387312D01*
X216015601Y-78387312D02*
X216063220Y-78339692D01*
X216063220Y-78339692D02*
X216110839Y-78244454D01*
X216110839Y-78244454D02*
X216158458Y-78053978D01*
X216158458Y-78053978D02*
X216158458Y-77815883D01*
X216158458Y-77815883D02*
X216110839Y-77625407D01*
X216110839Y-77625407D02*
X216063220Y-77530169D01*
X216063220Y-77530169D02*
X216015601Y-77482550D01*
X216015601Y-77482550D02*
X215920363Y-77434931D01*
X214967982Y-77434931D02*
X214872744Y-77434931D01*
X214872744Y-77434931D02*
X214777506Y-77482550D01*
X214777506Y-77482550D02*
X214729887Y-77530169D01*
X214729887Y-77530169D02*
X214682268Y-77625407D01*
X214682268Y-77625407D02*
X214634649Y-77815883D01*
X214634649Y-77815883D02*
X214634649Y-78053978D01*
X214634649Y-78053978D02*
X214682268Y-78244454D01*
X214682268Y-78244454D02*
X214729887Y-78339692D01*
X214729887Y-78339692D02*
X214777506Y-78387312D01*
X214777506Y-78387312D02*
X214872744Y-78434931D01*
X214872744Y-78434931D02*
X214967982Y-78434931D01*
X214967982Y-78434931D02*
X215063220Y-78387312D01*
X215063220Y-78387312D02*
X215110839Y-78339692D01*
X215110839Y-78339692D02*
X215158458Y-78244454D01*
X215158458Y-78244454D02*
X215206077Y-78053978D01*
X215206077Y-78053978D02*
X215206077Y-77815883D01*
X215206077Y-77815883D02*
X215158458Y-77625407D01*
X215158458Y-77625407D02*
X215110839Y-77530169D01*
X215110839Y-77530169D02*
X215063220Y-77482550D01*
X215063220Y-77482550D02*
X214967982Y-77434931D01*
X213872744Y-77911121D02*
X213729887Y-77958740D01*
X213729887Y-77958740D02*
X213682268Y-78006359D01*
X213682268Y-78006359D02*
X213634649Y-78101597D01*
X213634649Y-78101597D02*
X213634649Y-78244454D01*
X213634649Y-78244454D02*
X213682268Y-78339692D01*
X213682268Y-78339692D02*
X213729887Y-78387312D01*
X213729887Y-78387312D02*
X213825125Y-78434931D01*
X213825125Y-78434931D02*
X214206077Y-78434931D01*
X214206077Y-78434931D02*
X214206077Y-77434931D01*
X214206077Y-77434931D02*
X213872744Y-77434931D01*
X213872744Y-77434931D02*
X213777506Y-77482550D01*
X213777506Y-77482550D02*
X213729887Y-77530169D01*
X213729887Y-77530169D02*
X213682268Y-77625407D01*
X213682268Y-77625407D02*
X213682268Y-77720645D01*
X213682268Y-77720645D02*
X213729887Y-77815883D01*
X213729887Y-77815883D02*
X213777506Y-77863502D01*
X213777506Y-77863502D02*
X213872744Y-77911121D01*
X213872744Y-77911121D02*
X214206077Y-77911121D01*
X212777506Y-78434931D02*
X212777506Y-77911121D01*
X212777506Y-77911121D02*
X212825125Y-77815883D01*
X212825125Y-77815883D02*
X212920363Y-77768264D01*
X212920363Y-77768264D02*
X213110839Y-77768264D01*
X213110839Y-77768264D02*
X213206077Y-77815883D01*
X212777506Y-78387312D02*
X212872744Y-78434931D01*
X212872744Y-78434931D02*
X213110839Y-78434931D01*
X213110839Y-78434931D02*
X213206077Y-78387312D01*
X213206077Y-78387312D02*
X213253696Y-78292073D01*
X213253696Y-78292073D02*
X213253696Y-78196835D01*
X213253696Y-78196835D02*
X213206077Y-78101597D01*
X213206077Y-78101597D02*
X213110839Y-78053978D01*
X213110839Y-78053978D02*
X212872744Y-78053978D01*
X212872744Y-78053978D02*
X212777506Y-78006359D01*
X212348934Y-78387312D02*
X212253696Y-78434931D01*
X212253696Y-78434931D02*
X212063220Y-78434931D01*
X212063220Y-78434931D02*
X211967982Y-78387312D01*
X211967982Y-78387312D02*
X211920363Y-78292073D01*
X211920363Y-78292073D02*
X211920363Y-78244454D01*
X211920363Y-78244454D02*
X211967982Y-78149216D01*
X211967982Y-78149216D02*
X212063220Y-78101597D01*
X212063220Y-78101597D02*
X212206077Y-78101597D01*
X212206077Y-78101597D02*
X212301315Y-78053978D01*
X212301315Y-78053978D02*
X212348934Y-77958740D01*
X212348934Y-77958740D02*
X212348934Y-77911121D01*
X212348934Y-77911121D02*
X212301315Y-77815883D01*
X212301315Y-77815883D02*
X212206077Y-77768264D01*
X212206077Y-77768264D02*
X212063220Y-77768264D01*
X212063220Y-77768264D02*
X211967982Y-77815883D01*
X211110839Y-78387312D02*
X211206077Y-78434931D01*
X211206077Y-78434931D02*
X211396553Y-78434931D01*
X211396553Y-78434931D02*
X211491791Y-78387312D01*
X211491791Y-78387312D02*
X211539410Y-78292073D01*
X211539410Y-78292073D02*
X211539410Y-77911121D01*
X211539410Y-77911121D02*
X211491791Y-77815883D01*
X211491791Y-77815883D02*
X211396553Y-77768264D01*
X211396553Y-77768264D02*
X211206077Y-77768264D01*
X211206077Y-77768264D02*
X211110839Y-77815883D01*
X211110839Y-77815883D02*
X211063220Y-77911121D01*
X211063220Y-77911121D02*
X211063220Y-78006359D01*
X211063220Y-78006359D02*
X211539410Y-78101597D01*
X210634648Y-78053978D02*
X209872744Y-78053978D01*
X209539410Y-77434931D02*
X208967982Y-77434931D01*
X209253696Y-78434931D02*
X209253696Y-77434931D01*
X208729886Y-77434931D02*
X208063220Y-78434931D01*
X208063220Y-77434931D02*
X208729886Y-78434931D01*
X207063219Y-77768264D02*
X206682267Y-77768264D01*
X206920362Y-77434931D02*
X206920362Y-78292073D01*
X206920362Y-78292073D02*
X206872743Y-78387312D01*
X206872743Y-78387312D02*
X206777505Y-78434931D01*
X206777505Y-78434931D02*
X206682267Y-78434931D01*
X206206076Y-78434931D02*
X206301314Y-78387312D01*
X206301314Y-78387312D02*
X206348933Y-78339692D01*
X206348933Y-78339692D02*
X206396552Y-78244454D01*
X206396552Y-78244454D02*
X206396552Y-77958740D01*
X206396552Y-77958740D02*
X206348933Y-77863502D01*
X206348933Y-77863502D02*
X206301314Y-77815883D01*
X206301314Y-77815883D02*
X206206076Y-77768264D01*
X206206076Y-77768264D02*
X206063219Y-77768264D01*
X206063219Y-77768264D02*
X205967981Y-77815883D01*
X205967981Y-77815883D02*
X205920362Y-77863502D01*
X205920362Y-77863502D02*
X205872743Y-77958740D01*
X205872743Y-77958740D02*
X205872743Y-78244454D01*
X205872743Y-78244454D02*
X205920362Y-78339692D01*
X205920362Y-78339692D02*
X205967981Y-78387312D01*
X205967981Y-78387312D02*
X206063219Y-78434931D01*
X206063219Y-78434931D02*
X206206076Y-78434931D01*
X204158457Y-78434931D02*
X204729885Y-78434931D01*
X204444171Y-78434931D02*
X204444171Y-77434931D01*
X204444171Y-77434931D02*
X204539409Y-77577788D01*
X204539409Y-77577788D02*
X204634647Y-77673026D01*
X204634647Y-77673026D02*
X204729885Y-77720645D01*
X203539409Y-77434931D02*
X203444171Y-77434931D01*
X203444171Y-77434931D02*
X203348933Y-77482550D01*
X203348933Y-77482550D02*
X203301314Y-77530169D01*
X203301314Y-77530169D02*
X203253695Y-77625407D01*
X203253695Y-77625407D02*
X203206076Y-77815883D01*
X203206076Y-77815883D02*
X203206076Y-78053978D01*
X203206076Y-78053978D02*
X203253695Y-78244454D01*
X203253695Y-78244454D02*
X203301314Y-78339692D01*
X203301314Y-78339692D02*
X203348933Y-78387312D01*
X203348933Y-78387312D02*
X203444171Y-78434931D01*
X203444171Y-78434931D02*
X203539409Y-78434931D01*
X203539409Y-78434931D02*
X203634647Y-78387312D01*
X203634647Y-78387312D02*
X203682266Y-78339692D01*
X203682266Y-78339692D02*
X203729885Y-78244454D01*
X203729885Y-78244454D02*
X203777504Y-78053978D01*
X203777504Y-78053978D02*
X203777504Y-77815883D01*
X203777504Y-77815883D02*
X203729885Y-77625407D01*
X203729885Y-77625407D02*
X203682266Y-77530169D01*
X203682266Y-77530169D02*
X203634647Y-77482550D01*
X203634647Y-77482550D02*
X203539409Y-77434931D01*
X202587028Y-77434931D02*
X202491790Y-77434931D01*
X202491790Y-77434931D02*
X202396552Y-77482550D01*
X202396552Y-77482550D02*
X202348933Y-77530169D01*
X202348933Y-77530169D02*
X202301314Y-77625407D01*
X202301314Y-77625407D02*
X202253695Y-77815883D01*
X202253695Y-77815883D02*
X202253695Y-78053978D01*
X202253695Y-78053978D02*
X202301314Y-78244454D01*
X202301314Y-78244454D02*
X202348933Y-78339692D01*
X202348933Y-78339692D02*
X202396552Y-78387312D01*
X202396552Y-78387312D02*
X202491790Y-78434931D01*
X202491790Y-78434931D02*
X202587028Y-78434931D01*
X202587028Y-78434931D02*
X202682266Y-78387312D01*
X202682266Y-78387312D02*
X202729885Y-78339692D01*
X202729885Y-78339692D02*
X202777504Y-78244454D01*
X202777504Y-78244454D02*
X202825123Y-78053978D01*
X202825123Y-78053978D02*
X202825123Y-77815883D01*
X202825123Y-77815883D02*
X202777504Y-77625407D01*
X202777504Y-77625407D02*
X202729885Y-77530169D01*
X202729885Y-77530169D02*
X202682266Y-77482550D01*
X202682266Y-77482550D02*
X202587028Y-77434931D01*
X201491790Y-77911121D02*
X201348933Y-77958740D01*
X201348933Y-77958740D02*
X201301314Y-78006359D01*
X201301314Y-78006359D02*
X201253695Y-78101597D01*
X201253695Y-78101597D02*
X201253695Y-78244454D01*
X201253695Y-78244454D02*
X201301314Y-78339692D01*
X201301314Y-78339692D02*
X201348933Y-78387312D01*
X201348933Y-78387312D02*
X201444171Y-78434931D01*
X201444171Y-78434931D02*
X201825123Y-78434931D01*
X201825123Y-78434931D02*
X201825123Y-77434931D01*
X201825123Y-77434931D02*
X201491790Y-77434931D01*
X201491790Y-77434931D02*
X201396552Y-77482550D01*
X201396552Y-77482550D02*
X201348933Y-77530169D01*
X201348933Y-77530169D02*
X201301314Y-77625407D01*
X201301314Y-77625407D02*
X201301314Y-77720645D01*
X201301314Y-77720645D02*
X201348933Y-77815883D01*
X201348933Y-77815883D02*
X201396552Y-77863502D01*
X201396552Y-77863502D02*
X201491790Y-77911121D01*
X201491790Y-77911121D02*
X201825123Y-77911121D01*
X200396552Y-78434931D02*
X200396552Y-77911121D01*
X200396552Y-77911121D02*
X200444171Y-77815883D01*
X200444171Y-77815883D02*
X200539409Y-77768264D01*
X200539409Y-77768264D02*
X200729885Y-77768264D01*
X200729885Y-77768264D02*
X200825123Y-77815883D01*
X200396552Y-78387312D02*
X200491790Y-78434931D01*
X200491790Y-78434931D02*
X200729885Y-78434931D01*
X200729885Y-78434931D02*
X200825123Y-78387312D01*
X200825123Y-78387312D02*
X200872742Y-78292073D01*
X200872742Y-78292073D02*
X200872742Y-78196835D01*
X200872742Y-78196835D02*
X200825123Y-78101597D01*
X200825123Y-78101597D02*
X200729885Y-78053978D01*
X200729885Y-78053978D02*
X200491790Y-78053978D01*
X200491790Y-78053978D02*
X200396552Y-78006359D01*
X199967980Y-78387312D02*
X199872742Y-78434931D01*
X199872742Y-78434931D02*
X199682266Y-78434931D01*
X199682266Y-78434931D02*
X199587028Y-78387312D01*
X199587028Y-78387312D02*
X199539409Y-78292073D01*
X199539409Y-78292073D02*
X199539409Y-78244454D01*
X199539409Y-78244454D02*
X199587028Y-78149216D01*
X199587028Y-78149216D02*
X199682266Y-78101597D01*
X199682266Y-78101597D02*
X199825123Y-78101597D01*
X199825123Y-78101597D02*
X199920361Y-78053978D01*
X199920361Y-78053978D02*
X199967980Y-77958740D01*
X199967980Y-77958740D02*
X199967980Y-77911121D01*
X199967980Y-77911121D02*
X199920361Y-77815883D01*
X199920361Y-77815883D02*
X199825123Y-77768264D01*
X199825123Y-77768264D02*
X199682266Y-77768264D01*
X199682266Y-77768264D02*
X199587028Y-77815883D01*
X198729885Y-78387312D02*
X198825123Y-78434931D01*
X198825123Y-78434931D02*
X199015599Y-78434931D01*
X199015599Y-78434931D02*
X199110837Y-78387312D01*
X199110837Y-78387312D02*
X199158456Y-78292073D01*
X199158456Y-78292073D02*
X199158456Y-77911121D01*
X199158456Y-77911121D02*
X199110837Y-77815883D01*
X199110837Y-77815883D02*
X199015599Y-77768264D01*
X199015599Y-77768264D02*
X198825123Y-77768264D01*
X198825123Y-77768264D02*
X198729885Y-77815883D01*
X198729885Y-77815883D02*
X198682266Y-77911121D01*
X198682266Y-77911121D02*
X198682266Y-78006359D01*
X198682266Y-78006359D02*
X199158456Y-78101597D01*
X198253694Y-78053978D02*
X197491790Y-78053978D01*
X197158456Y-77434931D02*
X196587028Y-77434931D01*
X196872742Y-78434931D02*
X196872742Y-77434931D01*
X195729885Y-78434931D02*
X196301313Y-78434931D01*
X196015599Y-78434931D02*
X196015599Y-77434931D01*
X196015599Y-77434931D02*
X196110837Y-77577788D01*
X196110837Y-77577788D02*
X196206075Y-77673026D01*
X196206075Y-77673026D02*
X196301313Y-77720645D01*
X193967980Y-78339692D02*
X194015599Y-78387312D01*
X194015599Y-78387312D02*
X194158456Y-78434931D01*
X194158456Y-78434931D02*
X194253694Y-78434931D01*
X194253694Y-78434931D02*
X194396551Y-78387312D01*
X194396551Y-78387312D02*
X194491789Y-78292073D01*
X194491789Y-78292073D02*
X194539408Y-78196835D01*
X194539408Y-78196835D02*
X194587027Y-78006359D01*
X194587027Y-78006359D02*
X194587027Y-77863502D01*
X194587027Y-77863502D02*
X194539408Y-77673026D01*
X194539408Y-77673026D02*
X194491789Y-77577788D01*
X194491789Y-77577788D02*
X194396551Y-77482550D01*
X194396551Y-77482550D02*
X194253694Y-77434931D01*
X194253694Y-77434931D02*
X194158456Y-77434931D01*
X194158456Y-77434931D02*
X194015599Y-77482550D01*
X194015599Y-77482550D02*
X193967980Y-77530169D01*
X193396551Y-78434931D02*
X193491789Y-78387312D01*
X193491789Y-78387312D02*
X193539408Y-78339692D01*
X193539408Y-78339692D02*
X193587027Y-78244454D01*
X193587027Y-78244454D02*
X193587027Y-77958740D01*
X193587027Y-77958740D02*
X193539408Y-77863502D01*
X193539408Y-77863502D02*
X193491789Y-77815883D01*
X193491789Y-77815883D02*
X193396551Y-77768264D01*
X193396551Y-77768264D02*
X193253694Y-77768264D01*
X193253694Y-77768264D02*
X193158456Y-77815883D01*
X193158456Y-77815883D02*
X193110837Y-77863502D01*
X193110837Y-77863502D02*
X193063218Y-77958740D01*
X193063218Y-77958740D02*
X193063218Y-78244454D01*
X193063218Y-78244454D02*
X193110837Y-78339692D01*
X193110837Y-78339692D02*
X193158456Y-78387312D01*
X193158456Y-78387312D02*
X193253694Y-78434931D01*
X193253694Y-78434931D02*
X193396551Y-78434931D01*
X192634646Y-77768264D02*
X192634646Y-78434931D01*
X192634646Y-77863502D02*
X192587027Y-77815883D01*
X192587027Y-77815883D02*
X192491789Y-77768264D01*
X192491789Y-77768264D02*
X192348932Y-77768264D01*
X192348932Y-77768264D02*
X192253694Y-77815883D01*
X192253694Y-77815883D02*
X192206075Y-77911121D01*
X192206075Y-77911121D02*
X192206075Y-78434931D01*
X191825122Y-77768264D02*
X191587027Y-78434931D01*
X191587027Y-78434931D02*
X191348932Y-77768264D01*
X190587027Y-78387312D02*
X190682265Y-78434931D01*
X190682265Y-78434931D02*
X190872741Y-78434931D01*
X190872741Y-78434931D02*
X190967979Y-78387312D01*
X190967979Y-78387312D02*
X191015598Y-78292073D01*
X191015598Y-78292073D02*
X191015598Y-77911121D01*
X191015598Y-77911121D02*
X190967979Y-77815883D01*
X190967979Y-77815883D02*
X190872741Y-77768264D01*
X190872741Y-77768264D02*
X190682265Y-77768264D01*
X190682265Y-77768264D02*
X190587027Y-77815883D01*
X190587027Y-77815883D02*
X190539408Y-77911121D01*
X190539408Y-77911121D02*
X190539408Y-78006359D01*
X190539408Y-78006359D02*
X191015598Y-78101597D01*
X190110836Y-78434931D02*
X190110836Y-77768264D01*
X190110836Y-77958740D02*
X190063217Y-77863502D01*
X190063217Y-77863502D02*
X190015598Y-77815883D01*
X190015598Y-77815883D02*
X189920360Y-77768264D01*
X189920360Y-77768264D02*
X189825122Y-77768264D01*
X189634645Y-77768264D02*
X189253693Y-77768264D01*
X189491788Y-77434931D02*
X189491788Y-78292073D01*
X189491788Y-78292073D02*
X189444169Y-78387312D01*
X189444169Y-78387312D02*
X189348931Y-78434931D01*
X189348931Y-78434931D02*
X189253693Y-78434931D01*
X188539407Y-78387312D02*
X188634645Y-78434931D01*
X188634645Y-78434931D02*
X188825121Y-78434931D01*
X188825121Y-78434931D02*
X188920359Y-78387312D01*
X188920359Y-78387312D02*
X188967978Y-78292073D01*
X188967978Y-78292073D02*
X188967978Y-77911121D01*
X188967978Y-77911121D02*
X188920359Y-77815883D01*
X188920359Y-77815883D02*
X188825121Y-77768264D01*
X188825121Y-77768264D02*
X188634645Y-77768264D01*
X188634645Y-77768264D02*
X188539407Y-77815883D01*
X188539407Y-77815883D02*
X188491788Y-77911121D01*
X188491788Y-77911121D02*
X188491788Y-78006359D01*
X188491788Y-78006359D02*
X188967978Y-78101597D01*
X188063216Y-78434931D02*
X188063216Y-77768264D01*
X188063216Y-77958740D02*
X188015597Y-77863502D01*
X188015597Y-77863502D02*
X187967978Y-77815883D01*
X187967978Y-77815883D02*
X187872740Y-77768264D01*
X187872740Y-77768264D02*
X187777502Y-77768264D01*
X216491792Y-79949636D02*
X216539411Y-79997256D01*
X216539411Y-79997256D02*
X216682268Y-80044875D01*
X216682268Y-80044875D02*
X216777506Y-80044875D01*
X216777506Y-80044875D02*
X216920363Y-79997256D01*
X216920363Y-79997256D02*
X217015601Y-79902017D01*
X217015601Y-79902017D02*
X217063220Y-79806779D01*
X217063220Y-79806779D02*
X217110839Y-79616303D01*
X217110839Y-79616303D02*
X217110839Y-79473446D01*
X217110839Y-79473446D02*
X217063220Y-79282970D01*
X217063220Y-79282970D02*
X217015601Y-79187732D01*
X217015601Y-79187732D02*
X216920363Y-79092494D01*
X216920363Y-79092494D02*
X216777506Y-79044875D01*
X216777506Y-79044875D02*
X216682268Y-79044875D01*
X216682268Y-79044875D02*
X216539411Y-79092494D01*
X216539411Y-79092494D02*
X216491792Y-79140113D01*
X215920363Y-80044875D02*
X216015601Y-79997256D01*
X216015601Y-79997256D02*
X216063220Y-79949636D01*
X216063220Y-79949636D02*
X216110839Y-79854398D01*
X216110839Y-79854398D02*
X216110839Y-79568684D01*
X216110839Y-79568684D02*
X216063220Y-79473446D01*
X216063220Y-79473446D02*
X216015601Y-79425827D01*
X216015601Y-79425827D02*
X215920363Y-79378208D01*
X215920363Y-79378208D02*
X215777506Y-79378208D01*
X215777506Y-79378208D02*
X215682268Y-79425827D01*
X215682268Y-79425827D02*
X215634649Y-79473446D01*
X215634649Y-79473446D02*
X215587030Y-79568684D01*
X215587030Y-79568684D02*
X215587030Y-79854398D01*
X215587030Y-79854398D02*
X215634649Y-79949636D01*
X215634649Y-79949636D02*
X215682268Y-79997256D01*
X215682268Y-79997256D02*
X215777506Y-80044875D01*
X215777506Y-80044875D02*
X215920363Y-80044875D01*
X215158458Y-79378208D02*
X215158458Y-80378208D01*
X215158458Y-79425827D02*
X215063220Y-79378208D01*
X215063220Y-79378208D02*
X214872744Y-79378208D01*
X214872744Y-79378208D02*
X214777506Y-79425827D01*
X214777506Y-79425827D02*
X214729887Y-79473446D01*
X214729887Y-79473446D02*
X214682268Y-79568684D01*
X214682268Y-79568684D02*
X214682268Y-79854398D01*
X214682268Y-79854398D02*
X214729887Y-79949636D01*
X214729887Y-79949636D02*
X214777506Y-79997256D01*
X214777506Y-79997256D02*
X214872744Y-80044875D01*
X214872744Y-80044875D02*
X215063220Y-80044875D01*
X215063220Y-80044875D02*
X215158458Y-79997256D01*
X214348934Y-79378208D02*
X214110839Y-80044875D01*
X213872744Y-79378208D02*
X214110839Y-80044875D01*
X214110839Y-80044875D02*
X214206077Y-80282970D01*
X214206077Y-80282970D02*
X214253696Y-80330589D01*
X214253696Y-80330589D02*
X214348934Y-80378208D01*
X213491791Y-80044875D02*
X213491791Y-79378208D01*
X213491791Y-79568684D02*
X213444172Y-79473446D01*
X213444172Y-79473446D02*
X213396553Y-79425827D01*
X213396553Y-79425827D02*
X213301315Y-79378208D01*
X213301315Y-79378208D02*
X213206077Y-79378208D01*
X212872743Y-80044875D02*
X212872743Y-79378208D01*
X212872743Y-79044875D02*
X212920362Y-79092494D01*
X212920362Y-79092494D02*
X212872743Y-79140113D01*
X212872743Y-79140113D02*
X212825124Y-79092494D01*
X212825124Y-79092494D02*
X212872743Y-79044875D01*
X212872743Y-79044875D02*
X212872743Y-79140113D01*
X211967982Y-79378208D02*
X211967982Y-80187732D01*
X211967982Y-80187732D02*
X212015601Y-80282970D01*
X212015601Y-80282970D02*
X212063220Y-80330589D01*
X212063220Y-80330589D02*
X212158458Y-80378208D01*
X212158458Y-80378208D02*
X212301315Y-80378208D01*
X212301315Y-80378208D02*
X212396553Y-80330589D01*
X211967982Y-79997256D02*
X212063220Y-80044875D01*
X212063220Y-80044875D02*
X212253696Y-80044875D01*
X212253696Y-80044875D02*
X212348934Y-79997256D01*
X212348934Y-79997256D02*
X212396553Y-79949636D01*
X212396553Y-79949636D02*
X212444172Y-79854398D01*
X212444172Y-79854398D02*
X212444172Y-79568684D01*
X212444172Y-79568684D02*
X212396553Y-79473446D01*
X212396553Y-79473446D02*
X212348934Y-79425827D01*
X212348934Y-79425827D02*
X212253696Y-79378208D01*
X212253696Y-79378208D02*
X212063220Y-79378208D01*
X212063220Y-79378208D02*
X211967982Y-79425827D01*
X211491791Y-80044875D02*
X211491791Y-79044875D01*
X211063220Y-80044875D02*
X211063220Y-79521065D01*
X211063220Y-79521065D02*
X211110839Y-79425827D01*
X211110839Y-79425827D02*
X211206077Y-79378208D01*
X211206077Y-79378208D02*
X211348934Y-79378208D01*
X211348934Y-79378208D02*
X211444172Y-79425827D01*
X211444172Y-79425827D02*
X211491791Y-79473446D01*
X210729886Y-79378208D02*
X210348934Y-79378208D01*
X210587029Y-79044875D02*
X210587029Y-79902017D01*
X210587029Y-79902017D02*
X210539410Y-79997256D01*
X210539410Y-79997256D02*
X210444172Y-80044875D01*
X210444172Y-80044875D02*
X210348934Y-80044875D01*
X209253695Y-80044875D02*
X209253695Y-79044875D01*
X209253695Y-79044875D02*
X208920362Y-79759160D01*
X208920362Y-79759160D02*
X208587029Y-79044875D01*
X208587029Y-79044875D02*
X208587029Y-80044875D01*
X208110838Y-80044875D02*
X208110838Y-79378208D01*
X208110838Y-79044875D02*
X208158457Y-79092494D01*
X208158457Y-79092494D02*
X208110838Y-79140113D01*
X208110838Y-79140113D02*
X208063219Y-79092494D01*
X208063219Y-79092494D02*
X208110838Y-79044875D01*
X208110838Y-79044875D02*
X208110838Y-79140113D01*
X207777505Y-79378208D02*
X207396553Y-79378208D01*
X207634648Y-79044875D02*
X207634648Y-79902017D01*
X207634648Y-79902017D02*
X207587029Y-79997256D01*
X207587029Y-79997256D02*
X207491791Y-80044875D01*
X207491791Y-80044875D02*
X207396553Y-80044875D01*
X206634648Y-79997256D02*
X206729886Y-80044875D01*
X206729886Y-80044875D02*
X206920362Y-80044875D01*
X206920362Y-80044875D02*
X207015600Y-79997256D01*
X207015600Y-79997256D02*
X207063219Y-79949636D01*
X207063219Y-79949636D02*
X207110838Y-79854398D01*
X207110838Y-79854398D02*
X207110838Y-79568684D01*
X207110838Y-79568684D02*
X207063219Y-79473446D01*
X207063219Y-79473446D02*
X207015600Y-79425827D01*
X207015600Y-79425827D02*
X206920362Y-79378208D01*
X206920362Y-79378208D02*
X206729886Y-79378208D01*
X206729886Y-79378208D02*
X206634648Y-79425827D01*
X206206076Y-80044875D02*
X206206076Y-79044875D01*
X205777505Y-80044875D02*
X205777505Y-79521065D01*
X205777505Y-79521065D02*
X205825124Y-79425827D01*
X205825124Y-79425827D02*
X205920362Y-79378208D01*
X205920362Y-79378208D02*
X206063219Y-79378208D01*
X206063219Y-79378208D02*
X206158457Y-79425827D01*
X206158457Y-79425827D02*
X206206076Y-79473446D01*
X204920362Y-79997256D02*
X205015600Y-80044875D01*
X205015600Y-80044875D02*
X205206076Y-80044875D01*
X205206076Y-80044875D02*
X205301314Y-79997256D01*
X205301314Y-79997256D02*
X205348933Y-79902017D01*
X205348933Y-79902017D02*
X205348933Y-79521065D01*
X205348933Y-79521065D02*
X205301314Y-79425827D01*
X205301314Y-79425827D02*
X205206076Y-79378208D01*
X205206076Y-79378208D02*
X205015600Y-79378208D01*
X205015600Y-79378208D02*
X204920362Y-79425827D01*
X204920362Y-79425827D02*
X204872743Y-79521065D01*
X204872743Y-79521065D02*
X204872743Y-79616303D01*
X204872743Y-79616303D02*
X205348933Y-79711541D01*
X204301314Y-80044875D02*
X204396552Y-79997256D01*
X204396552Y-79997256D02*
X204444171Y-79902017D01*
X204444171Y-79902017D02*
X204444171Y-79044875D01*
X203777504Y-80044875D02*
X203872742Y-79997256D01*
X203872742Y-79997256D02*
X203920361Y-79902017D01*
X203920361Y-79902017D02*
X203920361Y-79044875D01*
X202348932Y-79044875D02*
X202348932Y-79759160D01*
X202348932Y-79759160D02*
X202396551Y-79902017D01*
X202396551Y-79902017D02*
X202491789Y-79997256D01*
X202491789Y-79997256D02*
X202634646Y-80044875D01*
X202634646Y-80044875D02*
X202729884Y-80044875D01*
X201729884Y-80044875D02*
X201825122Y-79997256D01*
X201825122Y-79997256D02*
X201872741Y-79949636D01*
X201872741Y-79949636D02*
X201920360Y-79854398D01*
X201920360Y-79854398D02*
X201920360Y-79568684D01*
X201920360Y-79568684D02*
X201872741Y-79473446D01*
X201872741Y-79473446D02*
X201825122Y-79425827D01*
X201825122Y-79425827D02*
X201729884Y-79378208D01*
X201729884Y-79378208D02*
X201587027Y-79378208D01*
X201587027Y-79378208D02*
X201491789Y-79425827D01*
X201491789Y-79425827D02*
X201444170Y-79473446D01*
X201444170Y-79473446D02*
X201396551Y-79568684D01*
X201396551Y-79568684D02*
X201396551Y-79854398D01*
X201396551Y-79854398D02*
X201444170Y-79949636D01*
X201444170Y-79949636D02*
X201491789Y-79997256D01*
X201491789Y-79997256D02*
X201587027Y-80044875D01*
X201587027Y-80044875D02*
X201729884Y-80044875D01*
X200967979Y-80044875D02*
X200967979Y-79044875D01*
X200539408Y-80044875D02*
X200539408Y-79521065D01*
X200539408Y-79521065D02*
X200587027Y-79425827D01*
X200587027Y-79425827D02*
X200682265Y-79378208D01*
X200682265Y-79378208D02*
X200825122Y-79378208D01*
X200825122Y-79378208D02*
X200920360Y-79425827D01*
X200920360Y-79425827D02*
X200967979Y-79473446D01*
X200063217Y-79378208D02*
X200063217Y-80044875D01*
X200063217Y-79473446D02*
X200015598Y-79425827D01*
X200015598Y-79425827D02*
X199920360Y-79378208D01*
X199920360Y-79378208D02*
X199777503Y-79378208D01*
X199777503Y-79378208D02*
X199682265Y-79425827D01*
X199682265Y-79425827D02*
X199634646Y-79521065D01*
X199634646Y-79521065D02*
X199634646Y-80044875D01*
X199206074Y-79997256D02*
X199110836Y-80044875D01*
X199110836Y-80044875D02*
X198920360Y-80044875D01*
X198920360Y-80044875D02*
X198825122Y-79997256D01*
X198825122Y-79997256D02*
X198777503Y-79902017D01*
X198777503Y-79902017D02*
X198777503Y-79854398D01*
X198777503Y-79854398D02*
X198825122Y-79759160D01*
X198825122Y-79759160D02*
X198920360Y-79711541D01*
X198920360Y-79711541D02*
X199063217Y-79711541D01*
X199063217Y-79711541D02*
X199158455Y-79663922D01*
X199158455Y-79663922D02*
X199206074Y-79568684D01*
X199206074Y-79568684D02*
X199206074Y-79521065D01*
X199206074Y-79521065D02*
X199158455Y-79425827D01*
X199158455Y-79425827D02*
X199063217Y-79378208D01*
X199063217Y-79378208D02*
X198920360Y-79378208D01*
X198920360Y-79378208D02*
X198825122Y-79425827D01*
X198206074Y-80044875D02*
X198301312Y-79997256D01*
X198301312Y-79997256D02*
X198348931Y-79949636D01*
X198348931Y-79949636D02*
X198396550Y-79854398D01*
X198396550Y-79854398D02*
X198396550Y-79568684D01*
X198396550Y-79568684D02*
X198348931Y-79473446D01*
X198348931Y-79473446D02*
X198301312Y-79425827D01*
X198301312Y-79425827D02*
X198206074Y-79378208D01*
X198206074Y-79378208D02*
X198063217Y-79378208D01*
X198063217Y-79378208D02*
X197967979Y-79425827D01*
X197967979Y-79425827D02*
X197920360Y-79473446D01*
X197920360Y-79473446D02*
X197872741Y-79568684D01*
X197872741Y-79568684D02*
X197872741Y-79854398D01*
X197872741Y-79854398D02*
X197920360Y-79949636D01*
X197920360Y-79949636D02*
X197967979Y-79997256D01*
X197967979Y-79997256D02*
X198063217Y-80044875D01*
X198063217Y-80044875D02*
X198206074Y-80044875D01*
X197444169Y-79378208D02*
X197444169Y-80044875D01*
X197444169Y-79473446D02*
X197396550Y-79425827D01*
X197396550Y-79425827D02*
X197301312Y-79378208D01*
X197301312Y-79378208D02*
X197158455Y-79378208D01*
X197158455Y-79378208D02*
X197063217Y-79425827D01*
X197063217Y-79425827D02*
X197015598Y-79521065D01*
X197015598Y-79521065D02*
X197015598Y-80044875D01*
X195825121Y-79140113D02*
X195777502Y-79092494D01*
X195777502Y-79092494D02*
X195682264Y-79044875D01*
X195682264Y-79044875D02*
X195444169Y-79044875D01*
X195444169Y-79044875D02*
X195348931Y-79092494D01*
X195348931Y-79092494D02*
X195301312Y-79140113D01*
X195301312Y-79140113D02*
X195253693Y-79235351D01*
X195253693Y-79235351D02*
X195253693Y-79330589D01*
X195253693Y-79330589D02*
X195301312Y-79473446D01*
X195301312Y-79473446D02*
X195872740Y-80044875D01*
X195872740Y-80044875D02*
X195253693Y-80044875D01*
X194634645Y-79044875D02*
X194539407Y-79044875D01*
X194539407Y-79044875D02*
X194444169Y-79092494D01*
X194444169Y-79092494D02*
X194396550Y-79140113D01*
X194396550Y-79140113D02*
X194348931Y-79235351D01*
X194348931Y-79235351D02*
X194301312Y-79425827D01*
X194301312Y-79425827D02*
X194301312Y-79663922D01*
X194301312Y-79663922D02*
X194348931Y-79854398D01*
X194348931Y-79854398D02*
X194396550Y-79949636D01*
X194396550Y-79949636D02*
X194444169Y-79997256D01*
X194444169Y-79997256D02*
X194539407Y-80044875D01*
X194539407Y-80044875D02*
X194634645Y-80044875D01*
X194634645Y-80044875D02*
X194729883Y-79997256D01*
X194729883Y-79997256D02*
X194777502Y-79949636D01*
X194777502Y-79949636D02*
X194825121Y-79854398D01*
X194825121Y-79854398D02*
X194872740Y-79663922D01*
X194872740Y-79663922D02*
X194872740Y-79425827D01*
X194872740Y-79425827D02*
X194825121Y-79235351D01*
X194825121Y-79235351D02*
X194777502Y-79140113D01*
X194777502Y-79140113D02*
X194729883Y-79092494D01*
X194729883Y-79092494D02*
X194634645Y-79044875D01*
X193348931Y-80044875D02*
X193920359Y-80044875D01*
X193634645Y-80044875D02*
X193634645Y-79044875D01*
X193634645Y-79044875D02*
X193729883Y-79187732D01*
X193729883Y-79187732D02*
X193825121Y-79282970D01*
X193825121Y-79282970D02*
X193920359Y-79330589D01*
X192872740Y-80044875D02*
X192682264Y-80044875D01*
X192682264Y-80044875D02*
X192587026Y-79997256D01*
X192587026Y-79997256D02*
X192539407Y-79949636D01*
X192539407Y-79949636D02*
X192444169Y-79806779D01*
X192444169Y-79806779D02*
X192396550Y-79616303D01*
X192396550Y-79616303D02*
X192396550Y-79235351D01*
X192396550Y-79235351D02*
X192444169Y-79140113D01*
X192444169Y-79140113D02*
X192491788Y-79092494D01*
X192491788Y-79092494D02*
X192587026Y-79044875D01*
X192587026Y-79044875D02*
X192777502Y-79044875D01*
X192777502Y-79044875D02*
X192872740Y-79092494D01*
X192872740Y-79092494D02*
X192920359Y-79140113D01*
X192920359Y-79140113D02*
X192967978Y-79235351D01*
X192967978Y-79235351D02*
X192967978Y-79473446D01*
X192967978Y-79473446D02*
X192920359Y-79568684D01*
X192920359Y-79568684D02*
X192872740Y-79616303D01*
X192872740Y-79616303D02*
X192777502Y-79663922D01*
X192777502Y-79663922D02*
X192587026Y-79663922D01*
X192587026Y-79663922D02*
X192491788Y-79616303D01*
X192491788Y-79616303D02*
X192444169Y-79568684D01*
X192444169Y-79568684D02*
X192396550Y-79473446D01*
X216587030Y-81654819D02*
X217063220Y-81654819D01*
X217063220Y-81654819D02*
X217063220Y-80654819D01*
X216253696Y-81654819D02*
X216253696Y-80988152D01*
X216253696Y-80654819D02*
X216301315Y-80702438D01*
X216301315Y-80702438D02*
X216253696Y-80750057D01*
X216253696Y-80750057D02*
X216206077Y-80702438D01*
X216206077Y-80702438D02*
X216253696Y-80654819D01*
X216253696Y-80654819D02*
X216253696Y-80750057D01*
X215348935Y-81607200D02*
X215444173Y-81654819D01*
X215444173Y-81654819D02*
X215634649Y-81654819D01*
X215634649Y-81654819D02*
X215729887Y-81607200D01*
X215729887Y-81607200D02*
X215777506Y-81559580D01*
X215777506Y-81559580D02*
X215825125Y-81464342D01*
X215825125Y-81464342D02*
X215825125Y-81178628D01*
X215825125Y-81178628D02*
X215777506Y-81083390D01*
X215777506Y-81083390D02*
X215729887Y-81035771D01*
X215729887Y-81035771D02*
X215634649Y-80988152D01*
X215634649Y-80988152D02*
X215444173Y-80988152D01*
X215444173Y-80988152D02*
X215348935Y-81035771D01*
X214539411Y-81607200D02*
X214634649Y-81654819D01*
X214634649Y-81654819D02*
X214825125Y-81654819D01*
X214825125Y-81654819D02*
X214920363Y-81607200D01*
X214920363Y-81607200D02*
X214967982Y-81511961D01*
X214967982Y-81511961D02*
X214967982Y-81131009D01*
X214967982Y-81131009D02*
X214920363Y-81035771D01*
X214920363Y-81035771D02*
X214825125Y-80988152D01*
X214825125Y-80988152D02*
X214634649Y-80988152D01*
X214634649Y-80988152D02*
X214539411Y-81035771D01*
X214539411Y-81035771D02*
X214491792Y-81131009D01*
X214491792Y-81131009D02*
X214491792Y-81226247D01*
X214491792Y-81226247D02*
X214967982Y-81321485D01*
X214063220Y-80988152D02*
X214063220Y-81654819D01*
X214063220Y-81083390D02*
X214015601Y-81035771D01*
X214015601Y-81035771D02*
X213920363Y-80988152D01*
X213920363Y-80988152D02*
X213777506Y-80988152D01*
X213777506Y-80988152D02*
X213682268Y-81035771D01*
X213682268Y-81035771D02*
X213634649Y-81131009D01*
X213634649Y-81131009D02*
X213634649Y-81654819D01*
X213206077Y-81607200D02*
X213110839Y-81654819D01*
X213110839Y-81654819D02*
X212920363Y-81654819D01*
X212920363Y-81654819D02*
X212825125Y-81607200D01*
X212825125Y-81607200D02*
X212777506Y-81511961D01*
X212777506Y-81511961D02*
X212777506Y-81464342D01*
X212777506Y-81464342D02*
X212825125Y-81369104D01*
X212825125Y-81369104D02*
X212920363Y-81321485D01*
X212920363Y-81321485D02*
X213063220Y-81321485D01*
X213063220Y-81321485D02*
X213158458Y-81273866D01*
X213158458Y-81273866D02*
X213206077Y-81178628D01*
X213206077Y-81178628D02*
X213206077Y-81131009D01*
X213206077Y-81131009D02*
X213158458Y-81035771D01*
X213158458Y-81035771D02*
X213063220Y-80988152D01*
X213063220Y-80988152D02*
X212920363Y-80988152D01*
X212920363Y-80988152D02*
X212825125Y-81035771D01*
X211967982Y-81607200D02*
X212063220Y-81654819D01*
X212063220Y-81654819D02*
X212253696Y-81654819D01*
X212253696Y-81654819D02*
X212348934Y-81607200D01*
X212348934Y-81607200D02*
X212396553Y-81511961D01*
X212396553Y-81511961D02*
X212396553Y-81131009D01*
X212396553Y-81131009D02*
X212348934Y-81035771D01*
X212348934Y-81035771D02*
X212253696Y-80988152D01*
X212253696Y-80988152D02*
X212063220Y-80988152D01*
X212063220Y-80988152D02*
X211967982Y-81035771D01*
X211967982Y-81035771D02*
X211920363Y-81131009D01*
X211920363Y-81131009D02*
X211920363Y-81226247D01*
X211920363Y-81226247D02*
X212396553Y-81321485D01*
X211063220Y-81654819D02*
X211063220Y-80654819D01*
X211063220Y-81607200D02*
X211158458Y-81654819D01*
X211158458Y-81654819D02*
X211348934Y-81654819D01*
X211348934Y-81654819D02*
X211444172Y-81607200D01*
X211444172Y-81607200D02*
X211491791Y-81559580D01*
X211491791Y-81559580D02*
X211539410Y-81464342D01*
X211539410Y-81464342D02*
X211539410Y-81178628D01*
X211539410Y-81178628D02*
X211491791Y-81083390D01*
X211491791Y-81083390D02*
X211444172Y-81035771D01*
X211444172Y-81035771D02*
X211348934Y-80988152D01*
X211348934Y-80988152D02*
X211158458Y-80988152D01*
X211158458Y-80988152D02*
X211063220Y-81035771D01*
X209253696Y-81559580D02*
X209301315Y-81607200D01*
X209301315Y-81607200D02*
X209444172Y-81654819D01*
X209444172Y-81654819D02*
X209539410Y-81654819D01*
X209539410Y-81654819D02*
X209682267Y-81607200D01*
X209682267Y-81607200D02*
X209777505Y-81511961D01*
X209777505Y-81511961D02*
X209825124Y-81416723D01*
X209825124Y-81416723D02*
X209872743Y-81226247D01*
X209872743Y-81226247D02*
X209872743Y-81083390D01*
X209872743Y-81083390D02*
X209825124Y-80892914D01*
X209825124Y-80892914D02*
X209777505Y-80797676D01*
X209777505Y-80797676D02*
X209682267Y-80702438D01*
X209682267Y-80702438D02*
X209539410Y-80654819D01*
X209539410Y-80654819D02*
X209444172Y-80654819D01*
X209444172Y-80654819D02*
X209301315Y-80702438D01*
X209301315Y-80702438D02*
X209253696Y-80750057D01*
X208253696Y-81559580D02*
X208301315Y-81607200D01*
X208301315Y-81607200D02*
X208444172Y-81654819D01*
X208444172Y-81654819D02*
X208539410Y-81654819D01*
X208539410Y-81654819D02*
X208682267Y-81607200D01*
X208682267Y-81607200D02*
X208777505Y-81511961D01*
X208777505Y-81511961D02*
X208825124Y-81416723D01*
X208825124Y-81416723D02*
X208872743Y-81226247D01*
X208872743Y-81226247D02*
X208872743Y-81083390D01*
X208872743Y-81083390D02*
X208825124Y-80892914D01*
X208825124Y-80892914D02*
X208777505Y-80797676D01*
X208777505Y-80797676D02*
X208682267Y-80702438D01*
X208682267Y-80702438D02*
X208539410Y-80654819D01*
X208539410Y-80654819D02*
X208444172Y-80654819D01*
X208444172Y-80654819D02*
X208301315Y-80702438D01*
X208301315Y-80702438D02*
X208253696Y-80750057D01*
X207825124Y-81273866D02*
X207063220Y-81273866D01*
X206253696Y-81131009D02*
X206110839Y-81178628D01*
X206110839Y-81178628D02*
X206063220Y-81226247D01*
X206063220Y-81226247D02*
X206015601Y-81321485D01*
X206015601Y-81321485D02*
X206015601Y-81464342D01*
X206015601Y-81464342D02*
X206063220Y-81559580D01*
X206063220Y-81559580D02*
X206110839Y-81607200D01*
X206110839Y-81607200D02*
X206206077Y-81654819D01*
X206206077Y-81654819D02*
X206587029Y-81654819D01*
X206587029Y-81654819D02*
X206587029Y-80654819D01*
X206587029Y-80654819D02*
X206253696Y-80654819D01*
X206253696Y-80654819D02*
X206158458Y-80702438D01*
X206158458Y-80702438D02*
X206110839Y-80750057D01*
X206110839Y-80750057D02*
X206063220Y-80845295D01*
X206063220Y-80845295D02*
X206063220Y-80940533D01*
X206063220Y-80940533D02*
X206110839Y-81035771D01*
X206110839Y-81035771D02*
X206158458Y-81083390D01*
X206158458Y-81083390D02*
X206253696Y-81131009D01*
X206253696Y-81131009D02*
X206587029Y-81131009D01*
X205396553Y-81178628D02*
X205396553Y-81654819D01*
X205729886Y-80654819D02*
X205396553Y-81178628D01*
X205396553Y-81178628D02*
X205063220Y-80654819D01*
X204729886Y-81273866D02*
X203967982Y-81273866D01*
X203539410Y-81607200D02*
X203396553Y-81654819D01*
X203396553Y-81654819D02*
X203158458Y-81654819D01*
X203158458Y-81654819D02*
X203063220Y-81607200D01*
X203063220Y-81607200D02*
X203015601Y-81559580D01*
X203015601Y-81559580D02*
X202967982Y-81464342D01*
X202967982Y-81464342D02*
X202967982Y-81369104D01*
X202967982Y-81369104D02*
X203015601Y-81273866D01*
X203015601Y-81273866D02*
X203063220Y-81226247D01*
X203063220Y-81226247D02*
X203158458Y-81178628D01*
X203158458Y-81178628D02*
X203348934Y-81131009D01*
X203348934Y-81131009D02*
X203444172Y-81083390D01*
X203444172Y-81083390D02*
X203491791Y-81035771D01*
X203491791Y-81035771D02*
X203539410Y-80940533D01*
X203539410Y-80940533D02*
X203539410Y-80845295D01*
X203539410Y-80845295D02*
X203491791Y-80750057D01*
X203491791Y-80750057D02*
X203444172Y-80702438D01*
X203444172Y-80702438D02*
X203348934Y-80654819D01*
X203348934Y-80654819D02*
X203110839Y-80654819D01*
X203110839Y-80654819D02*
X202967982Y-80702438D01*
X202587029Y-81369104D02*
X202110839Y-81369104D01*
X202682267Y-81654819D02*
X202348934Y-80654819D01*
X202348934Y-80654819D02*
X202015601Y-81654819D01*
X217063220Y-83264763D02*
X217063220Y-82264763D01*
X216634649Y-83264763D02*
X216634649Y-82740953D01*
X216634649Y-82740953D02*
X216682268Y-82645715D01*
X216682268Y-82645715D02*
X216777506Y-82598096D01*
X216777506Y-82598096D02*
X216920363Y-82598096D01*
X216920363Y-82598096D02*
X217015601Y-82645715D01*
X217015601Y-82645715D02*
X217063220Y-82693334D01*
X216301315Y-82598096D02*
X215920363Y-82598096D01*
X216158458Y-82264763D02*
X216158458Y-83121905D01*
X216158458Y-83121905D02*
X216110839Y-83217144D01*
X216110839Y-83217144D02*
X216015601Y-83264763D01*
X216015601Y-83264763D02*
X215920363Y-83264763D01*
X215729886Y-82598096D02*
X215348934Y-82598096D01*
X215587029Y-82264763D02*
X215587029Y-83121905D01*
X215587029Y-83121905D02*
X215539410Y-83217144D01*
X215539410Y-83217144D02*
X215444172Y-83264763D01*
X215444172Y-83264763D02*
X215348934Y-83264763D01*
X215015600Y-82598096D02*
X215015600Y-83598096D01*
X215015600Y-82645715D02*
X214920362Y-82598096D01*
X214920362Y-82598096D02*
X214729886Y-82598096D01*
X214729886Y-82598096D02*
X214634648Y-82645715D01*
X214634648Y-82645715D02*
X214587029Y-82693334D01*
X214587029Y-82693334D02*
X214539410Y-82788572D01*
X214539410Y-82788572D02*
X214539410Y-83074286D01*
X214539410Y-83074286D02*
X214587029Y-83169524D01*
X214587029Y-83169524D02*
X214634648Y-83217144D01*
X214634648Y-83217144D02*
X214729886Y-83264763D01*
X214729886Y-83264763D02*
X214920362Y-83264763D01*
X214920362Y-83264763D02*
X215015600Y-83217144D01*
X214158457Y-83217144D02*
X214063219Y-83264763D01*
X214063219Y-83264763D02*
X213872743Y-83264763D01*
X213872743Y-83264763D02*
X213777505Y-83217144D01*
X213777505Y-83217144D02*
X213729886Y-83121905D01*
X213729886Y-83121905D02*
X213729886Y-83074286D01*
X213729886Y-83074286D02*
X213777505Y-82979048D01*
X213777505Y-82979048D02*
X213872743Y-82931429D01*
X213872743Y-82931429D02*
X214015600Y-82931429D01*
X214015600Y-82931429D02*
X214110838Y-82883810D01*
X214110838Y-82883810D02*
X214158457Y-82788572D01*
X214158457Y-82788572D02*
X214158457Y-82740953D01*
X214158457Y-82740953D02*
X214110838Y-82645715D01*
X214110838Y-82645715D02*
X214015600Y-82598096D01*
X214015600Y-82598096D02*
X213872743Y-82598096D01*
X213872743Y-82598096D02*
X213777505Y-82645715D01*
X213301314Y-83169524D02*
X213253695Y-83217144D01*
X213253695Y-83217144D02*
X213301314Y-83264763D01*
X213301314Y-83264763D02*
X213348933Y-83217144D01*
X213348933Y-83217144D02*
X213301314Y-83169524D01*
X213301314Y-83169524D02*
X213301314Y-83264763D01*
X213301314Y-82645715D02*
X213253695Y-82693334D01*
X213253695Y-82693334D02*
X213301314Y-82740953D01*
X213301314Y-82740953D02*
X213348933Y-82693334D01*
X213348933Y-82693334D02*
X213301314Y-82645715D01*
X213301314Y-82645715D02*
X213301314Y-82740953D01*
X212110839Y-82217144D02*
X212967981Y-83502858D01*
X211063220Y-82217144D02*
X211920362Y-83502858D01*
X210301315Y-82598096D02*
X210301315Y-83407620D01*
X210301315Y-83407620D02*
X210348934Y-83502858D01*
X210348934Y-83502858D02*
X210396553Y-83550477D01*
X210396553Y-83550477D02*
X210491791Y-83598096D01*
X210491791Y-83598096D02*
X210634648Y-83598096D01*
X210634648Y-83598096D02*
X210729886Y-83550477D01*
X210301315Y-83217144D02*
X210396553Y-83264763D01*
X210396553Y-83264763D02*
X210587029Y-83264763D01*
X210587029Y-83264763D02*
X210682267Y-83217144D01*
X210682267Y-83217144D02*
X210729886Y-83169524D01*
X210729886Y-83169524D02*
X210777505Y-83074286D01*
X210777505Y-83074286D02*
X210777505Y-82788572D01*
X210777505Y-82788572D02*
X210729886Y-82693334D01*
X210729886Y-82693334D02*
X210682267Y-82645715D01*
X210682267Y-82645715D02*
X210587029Y-82598096D01*
X210587029Y-82598096D02*
X210396553Y-82598096D01*
X210396553Y-82598096D02*
X210301315Y-82645715D01*
X209825124Y-83264763D02*
X209825124Y-82598096D01*
X209825124Y-82264763D02*
X209872743Y-82312382D01*
X209872743Y-82312382D02*
X209825124Y-82360001D01*
X209825124Y-82360001D02*
X209777505Y-82312382D01*
X209777505Y-82312382D02*
X209825124Y-82264763D01*
X209825124Y-82264763D02*
X209825124Y-82360001D01*
X209491791Y-82598096D02*
X209110839Y-82598096D01*
X209348934Y-82264763D02*
X209348934Y-83121905D01*
X209348934Y-83121905D02*
X209301315Y-83217144D01*
X209301315Y-83217144D02*
X209206077Y-83264763D01*
X209206077Y-83264763D02*
X209110839Y-83264763D01*
X208777505Y-83264763D02*
X208777505Y-82264763D01*
X208348934Y-83264763D02*
X208348934Y-82740953D01*
X208348934Y-82740953D02*
X208396553Y-82645715D01*
X208396553Y-82645715D02*
X208491791Y-82598096D01*
X208491791Y-82598096D02*
X208634648Y-82598096D01*
X208634648Y-82598096D02*
X208729886Y-82645715D01*
X208729886Y-82645715D02*
X208777505Y-82693334D01*
X207444172Y-82598096D02*
X207444172Y-83264763D01*
X207872743Y-82598096D02*
X207872743Y-83121905D01*
X207872743Y-83121905D02*
X207825124Y-83217144D01*
X207825124Y-83217144D02*
X207729886Y-83264763D01*
X207729886Y-83264763D02*
X207587029Y-83264763D01*
X207587029Y-83264763D02*
X207491791Y-83217144D01*
X207491791Y-83217144D02*
X207444172Y-83169524D01*
X206967981Y-83264763D02*
X206967981Y-82264763D01*
X206967981Y-82645715D02*
X206872743Y-82598096D01*
X206872743Y-82598096D02*
X206682267Y-82598096D01*
X206682267Y-82598096D02*
X206587029Y-82645715D01*
X206587029Y-82645715D02*
X206539410Y-82693334D01*
X206539410Y-82693334D02*
X206491791Y-82788572D01*
X206491791Y-82788572D02*
X206491791Y-83074286D01*
X206491791Y-83074286D02*
X206539410Y-83169524D01*
X206539410Y-83169524D02*
X206587029Y-83217144D01*
X206587029Y-83217144D02*
X206682267Y-83264763D01*
X206682267Y-83264763D02*
X206872743Y-83264763D01*
X206872743Y-83264763D02*
X206967981Y-83217144D01*
X206063219Y-83169524D02*
X206015600Y-83217144D01*
X206015600Y-83217144D02*
X206063219Y-83264763D01*
X206063219Y-83264763D02*
X206110838Y-83217144D01*
X206110838Y-83217144D02*
X206063219Y-83169524D01*
X206063219Y-83169524D02*
X206063219Y-83264763D01*
X205158458Y-83217144D02*
X205253696Y-83264763D01*
X205253696Y-83264763D02*
X205444172Y-83264763D01*
X205444172Y-83264763D02*
X205539410Y-83217144D01*
X205539410Y-83217144D02*
X205587029Y-83169524D01*
X205587029Y-83169524D02*
X205634648Y-83074286D01*
X205634648Y-83074286D02*
X205634648Y-82788572D01*
X205634648Y-82788572D02*
X205587029Y-82693334D01*
X205587029Y-82693334D02*
X205539410Y-82645715D01*
X205539410Y-82645715D02*
X205444172Y-82598096D01*
X205444172Y-82598096D02*
X205253696Y-82598096D01*
X205253696Y-82598096D02*
X205158458Y-82645715D01*
X204587029Y-83264763D02*
X204682267Y-83217144D01*
X204682267Y-83217144D02*
X204729886Y-83169524D01*
X204729886Y-83169524D02*
X204777505Y-83074286D01*
X204777505Y-83074286D02*
X204777505Y-82788572D01*
X204777505Y-82788572D02*
X204729886Y-82693334D01*
X204729886Y-82693334D02*
X204682267Y-82645715D01*
X204682267Y-82645715D02*
X204587029Y-82598096D01*
X204587029Y-82598096D02*
X204444172Y-82598096D01*
X204444172Y-82598096D02*
X204348934Y-82645715D01*
X204348934Y-82645715D02*
X204301315Y-82693334D01*
X204301315Y-82693334D02*
X204253696Y-82788572D01*
X204253696Y-82788572D02*
X204253696Y-83074286D01*
X204253696Y-83074286D02*
X204301315Y-83169524D01*
X204301315Y-83169524D02*
X204348934Y-83217144D01*
X204348934Y-83217144D02*
X204444172Y-83264763D01*
X204444172Y-83264763D02*
X204587029Y-83264763D01*
X203825124Y-83264763D02*
X203825124Y-82598096D01*
X203825124Y-82693334D02*
X203777505Y-82645715D01*
X203777505Y-82645715D02*
X203682267Y-82598096D01*
X203682267Y-82598096D02*
X203539410Y-82598096D01*
X203539410Y-82598096D02*
X203444172Y-82645715D01*
X203444172Y-82645715D02*
X203396553Y-82740953D01*
X203396553Y-82740953D02*
X203396553Y-83264763D01*
X203396553Y-82740953D02*
X203348934Y-82645715D01*
X203348934Y-82645715D02*
X203253696Y-82598096D01*
X203253696Y-82598096D02*
X203110839Y-82598096D01*
X203110839Y-82598096D02*
X203015600Y-82645715D01*
X203015600Y-82645715D02*
X202967981Y-82740953D01*
X202967981Y-82740953D02*
X202967981Y-83264763D01*
X201777506Y-82217144D02*
X202634648Y-83502858D01*
X201063220Y-83217144D02*
X201158458Y-83264763D01*
X201158458Y-83264763D02*
X201348934Y-83264763D01*
X201348934Y-83264763D02*
X201444172Y-83217144D01*
X201444172Y-83217144D02*
X201491791Y-83121905D01*
X201491791Y-83121905D02*
X201491791Y-82740953D01*
X201491791Y-82740953D02*
X201444172Y-82645715D01*
X201444172Y-82645715D02*
X201348934Y-82598096D01*
X201348934Y-82598096D02*
X201158458Y-82598096D01*
X201158458Y-82598096D02*
X201063220Y-82645715D01*
X201063220Y-82645715D02*
X201015601Y-82740953D01*
X201015601Y-82740953D02*
X201015601Y-82836191D01*
X201015601Y-82836191D02*
X201491791Y-82931429D01*
X200587029Y-83264763D02*
X200587029Y-82264763D01*
X200158458Y-83264763D02*
X200158458Y-82740953D01*
X200158458Y-82740953D02*
X200206077Y-82645715D01*
X200206077Y-82645715D02*
X200301315Y-82598096D01*
X200301315Y-82598096D02*
X200444172Y-82598096D01*
X200444172Y-82598096D02*
X200539410Y-82645715D01*
X200539410Y-82645715D02*
X200587029Y-82693334D01*
X199682267Y-82598096D02*
X199682267Y-83264763D01*
X199682267Y-82693334D02*
X199634648Y-82645715D01*
X199634648Y-82645715D02*
X199539410Y-82598096D01*
X199539410Y-82598096D02*
X199396553Y-82598096D01*
X199396553Y-82598096D02*
X199301315Y-82645715D01*
X199301315Y-82645715D02*
X199253696Y-82740953D01*
X199253696Y-82740953D02*
X199253696Y-83264763D01*
X198920362Y-82598096D02*
X198539410Y-82598096D01*
X198777505Y-82264763D02*
X198777505Y-83121905D01*
X198777505Y-83121905D02*
X198729886Y-83217144D01*
X198729886Y-83217144D02*
X198634648Y-83264763D01*
X198634648Y-83264763D02*
X198539410Y-83264763D01*
X198063219Y-83264763D02*
X198158457Y-83217144D01*
X198158457Y-83217144D02*
X198206076Y-83169524D01*
X198206076Y-83169524D02*
X198253695Y-83074286D01*
X198253695Y-83074286D02*
X198253695Y-82788572D01*
X198253695Y-82788572D02*
X198206076Y-82693334D01*
X198206076Y-82693334D02*
X198158457Y-82645715D01*
X198158457Y-82645715D02*
X198063219Y-82598096D01*
X198063219Y-82598096D02*
X197920362Y-82598096D01*
X197920362Y-82598096D02*
X197825124Y-82645715D01*
X197825124Y-82645715D02*
X197777505Y-82693334D01*
X197777505Y-82693334D02*
X197729886Y-82788572D01*
X197729886Y-82788572D02*
X197729886Y-83074286D01*
X197729886Y-83074286D02*
X197777505Y-83169524D01*
X197777505Y-83169524D02*
X197825124Y-83217144D01*
X197825124Y-83217144D02*
X197920362Y-83264763D01*
X197920362Y-83264763D02*
X198063219Y-83264763D01*
X197158457Y-83264763D02*
X197253695Y-83217144D01*
X197253695Y-83217144D02*
X197301314Y-83169524D01*
X197301314Y-83169524D02*
X197348933Y-83074286D01*
X197348933Y-83074286D02*
X197348933Y-82788572D01*
X197348933Y-82788572D02*
X197301314Y-82693334D01*
X197301314Y-82693334D02*
X197253695Y-82645715D01*
X197253695Y-82645715D02*
X197158457Y-82598096D01*
X197158457Y-82598096D02*
X197015600Y-82598096D01*
X197015600Y-82598096D02*
X196920362Y-82645715D01*
X196920362Y-82645715D02*
X196872743Y-82693334D01*
X196872743Y-82693334D02*
X196825124Y-82788572D01*
X196825124Y-82788572D02*
X196825124Y-83074286D01*
X196825124Y-83074286D02*
X196872743Y-83169524D01*
X196872743Y-83169524D02*
X196920362Y-83217144D01*
X196920362Y-83217144D02*
X197015600Y-83264763D01*
X197015600Y-83264763D02*
X197158457Y-83264763D01*
X195682267Y-82217144D02*
X196539409Y-83502858D01*
X194825124Y-83264763D02*
X195396552Y-83264763D01*
X195110838Y-83264763D02*
X195110838Y-82264763D01*
X195110838Y-82264763D02*
X195206076Y-82407620D01*
X195206076Y-82407620D02*
X195301314Y-82502858D01*
X195301314Y-82502858D02*
X195396552Y-82550477D01*
X194206076Y-82264763D02*
X194110838Y-82264763D01*
X194110838Y-82264763D02*
X194015600Y-82312382D01*
X194015600Y-82312382D02*
X193967981Y-82360001D01*
X193967981Y-82360001D02*
X193920362Y-82455239D01*
X193920362Y-82455239D02*
X193872743Y-82645715D01*
X193872743Y-82645715D02*
X193872743Y-82883810D01*
X193872743Y-82883810D02*
X193920362Y-83074286D01*
X193920362Y-83074286D02*
X193967981Y-83169524D01*
X193967981Y-83169524D02*
X194015600Y-83217144D01*
X194015600Y-83217144D02*
X194110838Y-83264763D01*
X194110838Y-83264763D02*
X194206076Y-83264763D01*
X194206076Y-83264763D02*
X194301314Y-83217144D01*
X194301314Y-83217144D02*
X194348933Y-83169524D01*
X194348933Y-83169524D02*
X194396552Y-83074286D01*
X194396552Y-83074286D02*
X194444171Y-82883810D01*
X194444171Y-82883810D02*
X194444171Y-82645715D01*
X194444171Y-82645715D02*
X194396552Y-82455239D01*
X194396552Y-82455239D02*
X194348933Y-82360001D01*
X194348933Y-82360001D02*
X194301314Y-82312382D01*
X194301314Y-82312382D02*
X194206076Y-82264763D01*
X193253695Y-82264763D02*
X193158457Y-82264763D01*
X193158457Y-82264763D02*
X193063219Y-82312382D01*
X193063219Y-82312382D02*
X193015600Y-82360001D01*
X193015600Y-82360001D02*
X192967981Y-82455239D01*
X192967981Y-82455239D02*
X192920362Y-82645715D01*
X192920362Y-82645715D02*
X192920362Y-82883810D01*
X192920362Y-82883810D02*
X192967981Y-83074286D01*
X192967981Y-83074286D02*
X193015600Y-83169524D01*
X193015600Y-83169524D02*
X193063219Y-83217144D01*
X193063219Y-83217144D02*
X193158457Y-83264763D01*
X193158457Y-83264763D02*
X193253695Y-83264763D01*
X193253695Y-83264763D02*
X193348933Y-83217144D01*
X193348933Y-83217144D02*
X193396552Y-83169524D01*
X193396552Y-83169524D02*
X193444171Y-83074286D01*
X193444171Y-83074286D02*
X193491790Y-82883810D01*
X193491790Y-82883810D02*
X193491790Y-82645715D01*
X193491790Y-82645715D02*
X193444171Y-82455239D01*
X193444171Y-82455239D02*
X193396552Y-82360001D01*
X193396552Y-82360001D02*
X193348933Y-82312382D01*
X193348933Y-82312382D02*
X193253695Y-82264763D01*
X192491790Y-83264763D02*
X192491790Y-82264763D01*
X192491790Y-82645715D02*
X192396552Y-82598096D01*
X192396552Y-82598096D02*
X192206076Y-82598096D01*
X192206076Y-82598096D02*
X192110838Y-82645715D01*
X192110838Y-82645715D02*
X192063219Y-82693334D01*
X192063219Y-82693334D02*
X192015600Y-82788572D01*
X192015600Y-82788572D02*
X192015600Y-83074286D01*
X192015600Y-83074286D02*
X192063219Y-83169524D01*
X192063219Y-83169524D02*
X192110838Y-83217144D01*
X192110838Y-83217144D02*
X192206076Y-83264763D01*
X192206076Y-83264763D02*
X192396552Y-83264763D01*
X192396552Y-83264763D02*
X192491790Y-83217144D01*
X191158457Y-83264763D02*
X191158457Y-82740953D01*
X191158457Y-82740953D02*
X191206076Y-82645715D01*
X191206076Y-82645715D02*
X191301314Y-82598096D01*
X191301314Y-82598096D02*
X191491790Y-82598096D01*
X191491790Y-82598096D02*
X191587028Y-82645715D01*
X191158457Y-83217144D02*
X191253695Y-83264763D01*
X191253695Y-83264763D02*
X191491790Y-83264763D01*
X191491790Y-83264763D02*
X191587028Y-83217144D01*
X191587028Y-83217144D02*
X191634647Y-83121905D01*
X191634647Y-83121905D02*
X191634647Y-83026667D01*
X191634647Y-83026667D02*
X191587028Y-82931429D01*
X191587028Y-82931429D02*
X191491790Y-82883810D01*
X191491790Y-82883810D02*
X191253695Y-82883810D01*
X191253695Y-82883810D02*
X191158457Y-82836191D01*
X190729885Y-83217144D02*
X190634647Y-83264763D01*
X190634647Y-83264763D02*
X190444171Y-83264763D01*
X190444171Y-83264763D02*
X190348933Y-83217144D01*
X190348933Y-83217144D02*
X190301314Y-83121905D01*
X190301314Y-83121905D02*
X190301314Y-83074286D01*
X190301314Y-83074286D02*
X190348933Y-82979048D01*
X190348933Y-82979048D02*
X190444171Y-82931429D01*
X190444171Y-82931429D02*
X190587028Y-82931429D01*
X190587028Y-82931429D02*
X190682266Y-82883810D01*
X190682266Y-82883810D02*
X190729885Y-82788572D01*
X190729885Y-82788572D02*
X190729885Y-82740953D01*
X190729885Y-82740953D02*
X190682266Y-82645715D01*
X190682266Y-82645715D02*
X190587028Y-82598096D01*
X190587028Y-82598096D02*
X190444171Y-82598096D01*
X190444171Y-82598096D02*
X190348933Y-82645715D01*
X189491790Y-83217144D02*
X189587028Y-83264763D01*
X189587028Y-83264763D02*
X189777504Y-83264763D01*
X189777504Y-83264763D02*
X189872742Y-83217144D01*
X189872742Y-83217144D02*
X189920361Y-83121905D01*
X189920361Y-83121905D02*
X189920361Y-82740953D01*
X189920361Y-82740953D02*
X189872742Y-82645715D01*
X189872742Y-82645715D02*
X189777504Y-82598096D01*
X189777504Y-82598096D02*
X189587028Y-82598096D01*
X189587028Y-82598096D02*
X189491790Y-82645715D01*
X189491790Y-82645715D02*
X189444171Y-82740953D01*
X189444171Y-82740953D02*
X189444171Y-82836191D01*
X189444171Y-82836191D02*
X189920361Y-82931429D01*
X189015599Y-82883810D02*
X188253695Y-82883810D01*
X187920361Y-82598096D02*
X187539409Y-82598096D01*
X187777504Y-82264763D02*
X187777504Y-83121905D01*
X187777504Y-83121905D02*
X187729885Y-83217144D01*
X187729885Y-83217144D02*
X187634647Y-83264763D01*
X187634647Y-83264763D02*
X187539409Y-83264763D01*
X186682266Y-83264763D02*
X187253694Y-83264763D01*
X186967980Y-83264763D02*
X186967980Y-82264763D01*
X186967980Y-82264763D02*
X187063218Y-82407620D01*
X187063218Y-82407620D02*
X187158456Y-82502858D01*
X187158456Y-82502858D02*
X187253694Y-82550477D01*
X186253694Y-82883810D02*
X185491790Y-82883810D01*
X184587028Y-83217144D02*
X184682266Y-83264763D01*
X184682266Y-83264763D02*
X184872742Y-83264763D01*
X184872742Y-83264763D02*
X184967980Y-83217144D01*
X184967980Y-83217144D02*
X185015599Y-83169524D01*
X185015599Y-83169524D02*
X185063218Y-83074286D01*
X185063218Y-83074286D02*
X185063218Y-82788572D01*
X185063218Y-82788572D02*
X185015599Y-82693334D01*
X185015599Y-82693334D02*
X184967980Y-82645715D01*
X184967980Y-82645715D02*
X184872742Y-82598096D01*
X184872742Y-82598096D02*
X184682266Y-82598096D01*
X184682266Y-82598096D02*
X184587028Y-82645715D01*
X184015599Y-83264763D02*
X184110837Y-83217144D01*
X184110837Y-83217144D02*
X184158456Y-83169524D01*
X184158456Y-83169524D02*
X184206075Y-83074286D01*
X184206075Y-83074286D02*
X184206075Y-82788572D01*
X184206075Y-82788572D02*
X184158456Y-82693334D01*
X184158456Y-82693334D02*
X184110837Y-82645715D01*
X184110837Y-82645715D02*
X184015599Y-82598096D01*
X184015599Y-82598096D02*
X183872742Y-82598096D01*
X183872742Y-82598096D02*
X183777504Y-82645715D01*
X183777504Y-82645715D02*
X183729885Y-82693334D01*
X183729885Y-82693334D02*
X183682266Y-82788572D01*
X183682266Y-82788572D02*
X183682266Y-83074286D01*
X183682266Y-83074286D02*
X183729885Y-83169524D01*
X183729885Y-83169524D02*
X183777504Y-83217144D01*
X183777504Y-83217144D02*
X183872742Y-83264763D01*
X183872742Y-83264763D02*
X184015599Y-83264763D01*
X183253694Y-82598096D02*
X183253694Y-83264763D01*
X183253694Y-82693334D02*
X183206075Y-82645715D01*
X183206075Y-82645715D02*
X183110837Y-82598096D01*
X183110837Y-82598096D02*
X182967980Y-82598096D01*
X182967980Y-82598096D02*
X182872742Y-82645715D01*
X182872742Y-82645715D02*
X182825123Y-82740953D01*
X182825123Y-82740953D02*
X182825123Y-83264763D01*
X182444170Y-82598096D02*
X182206075Y-83264763D01*
X182206075Y-83264763D02*
X181967980Y-82598096D01*
X181206075Y-83217144D02*
X181301313Y-83264763D01*
X181301313Y-83264763D02*
X181491789Y-83264763D01*
X181491789Y-83264763D02*
X181587027Y-83217144D01*
X181587027Y-83217144D02*
X181634646Y-83121905D01*
X181634646Y-83121905D02*
X181634646Y-82740953D01*
X181634646Y-82740953D02*
X181587027Y-82645715D01*
X181587027Y-82645715D02*
X181491789Y-82598096D01*
X181491789Y-82598096D02*
X181301313Y-82598096D01*
X181301313Y-82598096D02*
X181206075Y-82645715D01*
X181206075Y-82645715D02*
X181158456Y-82740953D01*
X181158456Y-82740953D02*
X181158456Y-82836191D01*
X181158456Y-82836191D02*
X181634646Y-82931429D01*
X180729884Y-83264763D02*
X180729884Y-82598096D01*
X180729884Y-82788572D02*
X180682265Y-82693334D01*
X180682265Y-82693334D02*
X180634646Y-82645715D01*
X180634646Y-82645715D02*
X180539408Y-82598096D01*
X180539408Y-82598096D02*
X180444170Y-82598096D01*
X180253693Y-82598096D02*
X179872741Y-82598096D01*
X180110836Y-82264763D02*
X180110836Y-83121905D01*
X180110836Y-83121905D02*
X180063217Y-83217144D01*
X180063217Y-83217144D02*
X179967979Y-83264763D01*
X179967979Y-83264763D02*
X179872741Y-83264763D01*
X179158455Y-83217144D02*
X179253693Y-83264763D01*
X179253693Y-83264763D02*
X179444169Y-83264763D01*
X179444169Y-83264763D02*
X179539407Y-83217144D01*
X179539407Y-83217144D02*
X179587026Y-83121905D01*
X179587026Y-83121905D02*
X179587026Y-82740953D01*
X179587026Y-82740953D02*
X179539407Y-82645715D01*
X179539407Y-82645715D02*
X179444169Y-82598096D01*
X179444169Y-82598096D02*
X179253693Y-82598096D01*
X179253693Y-82598096D02*
X179158455Y-82645715D01*
X179158455Y-82645715D02*
X179110836Y-82740953D01*
X179110836Y-82740953D02*
X179110836Y-82836191D01*
X179110836Y-82836191D02*
X179587026Y-82931429D01*
X178682264Y-83264763D02*
X178682264Y-82598096D01*
X178682264Y-82788572D02*
X178634645Y-82693334D01*
X178634645Y-82693334D02*
X178587026Y-82645715D01*
X178587026Y-82645715D02*
X178491788Y-82598096D01*
X178491788Y-82598096D02*
X178396550Y-82598096D01*
X216491792Y-84874707D02*
X216825125Y-84398516D01*
X217063220Y-84874707D02*
X217063220Y-83874707D01*
X217063220Y-83874707D02*
X216682268Y-83874707D01*
X216682268Y-83874707D02*
X216587030Y-83922326D01*
X216587030Y-83922326D02*
X216539411Y-83969945D01*
X216539411Y-83969945D02*
X216491792Y-84065183D01*
X216491792Y-84065183D02*
X216491792Y-84208040D01*
X216491792Y-84208040D02*
X216539411Y-84303278D01*
X216539411Y-84303278D02*
X216587030Y-84350897D01*
X216587030Y-84350897D02*
X216682268Y-84398516D01*
X216682268Y-84398516D02*
X217063220Y-84398516D01*
X215682268Y-84827088D02*
X215777506Y-84874707D01*
X215777506Y-84874707D02*
X215967982Y-84874707D01*
X215967982Y-84874707D02*
X216063220Y-84827088D01*
X216063220Y-84827088D02*
X216110839Y-84731849D01*
X216110839Y-84731849D02*
X216110839Y-84350897D01*
X216110839Y-84350897D02*
X216063220Y-84255659D01*
X216063220Y-84255659D02*
X215967982Y-84208040D01*
X215967982Y-84208040D02*
X215777506Y-84208040D01*
X215777506Y-84208040D02*
X215682268Y-84255659D01*
X215682268Y-84255659D02*
X215634649Y-84350897D01*
X215634649Y-84350897D02*
X215634649Y-84446135D01*
X215634649Y-84446135D02*
X216110839Y-84541373D01*
X215301315Y-84208040D02*
X215063220Y-84874707D01*
X215063220Y-84874707D02*
X214825125Y-84208040D01*
X213491791Y-83874707D02*
X213396553Y-83874707D01*
X213396553Y-83874707D02*
X213301315Y-83922326D01*
X213301315Y-83922326D02*
X213253696Y-83969945D01*
X213253696Y-83969945D02*
X213206077Y-84065183D01*
X213206077Y-84065183D02*
X213158458Y-84255659D01*
X213158458Y-84255659D02*
X213158458Y-84493754D01*
X213158458Y-84493754D02*
X213206077Y-84684230D01*
X213206077Y-84684230D02*
X213253696Y-84779468D01*
X213253696Y-84779468D02*
X213301315Y-84827088D01*
X213301315Y-84827088D02*
X213396553Y-84874707D01*
X213396553Y-84874707D02*
X213491791Y-84874707D01*
X213491791Y-84874707D02*
X213587029Y-84827088D01*
X213587029Y-84827088D02*
X213634648Y-84779468D01*
X213634648Y-84779468D02*
X213682267Y-84684230D01*
X213682267Y-84684230D02*
X213729886Y-84493754D01*
X213729886Y-84493754D02*
X213729886Y-84255659D01*
X213729886Y-84255659D02*
X213682267Y-84065183D01*
X213682267Y-84065183D02*
X213634648Y-83969945D01*
X213634648Y-83969945D02*
X213587029Y-83922326D01*
X213587029Y-83922326D02*
X213491791Y-83874707D01*
X212729886Y-84779468D02*
X212682267Y-84827088D01*
X212682267Y-84827088D02*
X212729886Y-84874707D01*
X212729886Y-84874707D02*
X212777505Y-84827088D01*
X212777505Y-84827088D02*
X212729886Y-84779468D01*
X212729886Y-84779468D02*
X212729886Y-84874707D01*
X211729887Y-84874707D02*
X212301315Y-84874707D01*
X212015601Y-84874707D02*
X212015601Y-83874707D01*
X212015601Y-83874707D02*
X212110839Y-84017564D01*
X212110839Y-84017564D02*
X212206077Y-84112802D01*
X212206077Y-84112802D02*
X212301315Y-84160421D01*
D11*
G04 #@! TO.C,REF\u002A\u002A*
X171964389Y-78290018D02*
X172021237Y-78591570D01*
X172231001Y-78678041D01*
X172440764Y-78764512D01*
X172692410Y-78593395D01*
X172742216Y-78559661D01*
X172808244Y-78515381D01*
X172865410Y-78477561D01*
X172910744Y-78448142D01*
X172941280Y-78429067D01*
X172954046Y-78422278D01*
X172961887Y-78427106D01*
X172985325Y-78447339D01*
X173020794Y-78480543D01*
X173065289Y-78523670D01*
X173115805Y-78573670D01*
X173169336Y-78627495D01*
X173222877Y-78682095D01*
X173273423Y-78734423D01*
X173317968Y-78781428D01*
X173353507Y-78820063D01*
X173377034Y-78847278D01*
X173385544Y-78860024D01*
X173383565Y-78865500D01*
X173369857Y-78889927D01*
X173344825Y-78930129D01*
X173310499Y-78982952D01*
X173268907Y-79045247D01*
X173222079Y-79113862D01*
X173196380Y-79151283D01*
X173152173Y-79216432D01*
X173114272Y-79273289D01*
X173084698Y-79318770D01*
X173065472Y-79349793D01*
X173058614Y-79363274D01*
X173058726Y-79364021D01*
X173064776Y-79381110D01*
X173078654Y-79416006D01*
X173098427Y-79464151D01*
X173122160Y-79520986D01*
X173147918Y-79581953D01*
X173173766Y-79642492D01*
X173197771Y-79698047D01*
X173217998Y-79744057D01*
X173232511Y-79775965D01*
X173239377Y-79789212D01*
X173243439Y-79790387D01*
X173268121Y-79795687D01*
X173312111Y-79804467D01*
X173371887Y-79816040D01*
X173443929Y-79829721D01*
X173524716Y-79844823D01*
X173567294Y-79852830D01*
X173645445Y-79868107D01*
X173713775Y-79882215D01*
X173768551Y-79894345D01*
X173806037Y-79903686D01*
X173822500Y-79909427D01*
X173825457Y-79915119D01*
X173830362Y-79942930D01*
X173834216Y-79989250D01*
X173837021Y-80049720D01*
X173838781Y-80119983D01*
X173839499Y-80195680D01*
X173839177Y-80272453D01*
X173837819Y-80345944D01*
X173835428Y-80411794D01*
X173832006Y-80465645D01*
X173827556Y-80503138D01*
X173822082Y-80519916D01*
X173818760Y-80521809D01*
X173793987Y-80529926D01*
X173751011Y-80540666D01*
X173694802Y-80552853D01*
X173630325Y-80565310D01*
X173608570Y-80569277D01*
X173508093Y-80587729D01*
X173429126Y-80602559D01*
X173368934Y-80614380D01*
X173324778Y-80623809D01*
X173293920Y-80631460D01*
X173273625Y-80637948D01*
X173261154Y-80643888D01*
X173253771Y-80649894D01*
X173252913Y-80650902D01*
X173240838Y-80671919D01*
X173222971Y-80710376D01*
X173201042Y-80761761D01*
X173176784Y-80821563D01*
X173151927Y-80885270D01*
X173128205Y-80948371D01*
X173107347Y-81006355D01*
X173091087Y-81054709D01*
X173081156Y-81088922D01*
X173079285Y-81104483D01*
X173080536Y-81106502D01*
X173093486Y-81126028D01*
X173117840Y-81162042D01*
X173151340Y-81211228D01*
X173191727Y-81270267D01*
X173236745Y-81335842D01*
X173249100Y-81353884D01*
X173292545Y-81418599D01*
X173330091Y-81476476D01*
X173359594Y-81524082D01*
X173378914Y-81557985D01*
X173385905Y-81574752D01*
X173384398Y-81579161D01*
X173368695Y-81600882D01*
X173337714Y-81636354D01*
X173293673Y-81683188D01*
X173238790Y-81738996D01*
X173175286Y-81801392D01*
X173138988Y-81836317D01*
X173081595Y-81890711D01*
X173031361Y-81937302D01*
X172990984Y-81973636D01*
X172963161Y-81997261D01*
X172950590Y-82005724D01*
X172941952Y-82002587D01*
X172915360Y-81987747D01*
X172876741Y-81963477D01*
X172831134Y-81932852D01*
X172798707Y-81910503D01*
X172733970Y-81866122D01*
X172664886Y-81818987D01*
X172601787Y-81776155D01*
X172478178Y-81692547D01*
X172374417Y-81748650D01*
X172349984Y-81761599D01*
X172305552Y-81783749D01*
X172271191Y-81799041D01*
X172252828Y-81804743D01*
X172246818Y-81797421D01*
X172231895Y-81769541D01*
X172209852Y-81723575D01*
X172181917Y-81662441D01*
X172149317Y-81589055D01*
X172113276Y-81506335D01*
X172075023Y-81417197D01*
X172035783Y-81324559D01*
X171996783Y-81231337D01*
X171959249Y-81140450D01*
X171924409Y-81054814D01*
X171893488Y-80977345D01*
X171867714Y-80910962D01*
X171848311Y-80858582D01*
X171836508Y-80823121D01*
X171833531Y-80807496D01*
X171833732Y-80807039D01*
X171847601Y-80792595D01*
X171876611Y-80769974D01*
X171914772Y-80743864D01*
X171926817Y-80735892D01*
X172018469Y-80660256D01*
X172094323Y-80570169D01*
X172152581Y-80469381D01*
X172191448Y-80361640D01*
X172209128Y-80250697D01*
X172203826Y-80140303D01*
X172182347Y-80042115D01*
X172143782Y-79942966D01*
X172087562Y-79854512D01*
X172010410Y-79770487D01*
X171980095Y-79743645D01*
X171882094Y-79677510D01*
X171776227Y-79632970D01*
X171665561Y-79609625D01*
X171553164Y-79607078D01*
X171442105Y-79624929D01*
X171335451Y-79662780D01*
X171236270Y-79720232D01*
X171147631Y-79796887D01*
X171072600Y-79892345D01*
X171058175Y-79915985D01*
X171009143Y-80024034D01*
X170983103Y-80136548D01*
X170979372Y-80250614D01*
X170997268Y-80363318D01*
X171036109Y-80471745D01*
X171095214Y-80572982D01*
X171173900Y-80664114D01*
X171271485Y-80742228D01*
X171274654Y-80744333D01*
X171312411Y-80770940D01*
X171340709Y-80793561D01*
X171353634Y-80807496D01*
X171352003Y-80818421D01*
X171341864Y-80850231D01*
X171323884Y-80899534D01*
X171299292Y-80963413D01*
X171269311Y-81038948D01*
X171235170Y-81123223D01*
X171198092Y-81213320D01*
X171159306Y-81306321D01*
X171120036Y-81399308D01*
X171081509Y-81489364D01*
X171044950Y-81573571D01*
X171011586Y-81649010D01*
X170982643Y-81712765D01*
X170959346Y-81761917D01*
X170942923Y-81793549D01*
X170934598Y-81804743D01*
X170927674Y-81803227D01*
X170900477Y-81792331D01*
X170860280Y-81773228D01*
X170813009Y-81748650D01*
X170709248Y-81692547D01*
X170585639Y-81776155D01*
X170549120Y-81800913D01*
X170481194Y-81847171D01*
X170413475Y-81893503D01*
X170356291Y-81932852D01*
X170324732Y-81954297D01*
X170283714Y-81980939D01*
X170253301Y-81999178D01*
X170238446Y-82005941D01*
X170232065Y-82003070D01*
X170208996Y-81985485D01*
X170173433Y-81954523D01*
X170128471Y-81913231D01*
X170077206Y-81864653D01*
X170022733Y-81811835D01*
X169968148Y-81757823D01*
X169916547Y-81705661D01*
X169871024Y-81658396D01*
X169834675Y-81619072D01*
X169810595Y-81590736D01*
X169801881Y-81576432D01*
X169802383Y-81573711D01*
X169812755Y-81551560D01*
X169834912Y-81513235D01*
X169866712Y-81462200D01*
X169906016Y-81401914D01*
X169950681Y-81335842D01*
X169963207Y-81317617D01*
X170007193Y-81253485D01*
X170045937Y-81196789D01*
X170077182Y-81150844D01*
X170098669Y-81118970D01*
X170108140Y-81104483D01*
X170108373Y-81103862D01*
X170105578Y-81086139D01*
X170094903Y-81050235D01*
X170078081Y-81000662D01*
X170056843Y-80941932D01*
X170032921Y-80878556D01*
X170008046Y-80815046D01*
X169983950Y-80755913D01*
X169962365Y-80705669D01*
X169945023Y-80668826D01*
X169933655Y-80649894D01*
X169932516Y-80648719D01*
X169924376Y-80642773D01*
X169910629Y-80636776D01*
X169888537Y-80630114D01*
X169855363Y-80622173D01*
X169808370Y-80612337D01*
X169744820Y-80599991D01*
X169661976Y-80584520D01*
X169557100Y-80565310D01*
X169535348Y-80561267D01*
X169473036Y-80548769D01*
X169420619Y-80536927D01*
X169383066Y-80526917D01*
X169365343Y-80519916D01*
X169362378Y-80514075D01*
X169357435Y-80486016D01*
X169353518Y-80439500D01*
X169350629Y-80378886D01*
X169348773Y-80308532D01*
X169347952Y-80232796D01*
X169348168Y-80156037D01*
X169349426Y-80082612D01*
X169351728Y-80016880D01*
X169355076Y-79963200D01*
X169359474Y-79925930D01*
X169364926Y-79909427D01*
X169370491Y-79906989D01*
X169398178Y-79899305D01*
X169444979Y-79888436D01*
X169507157Y-79875192D01*
X169580979Y-79860384D01*
X169662710Y-79844823D01*
X169707336Y-79836509D01*
X169783824Y-79822092D01*
X169849660Y-79809467D01*
X169901323Y-79799321D01*
X169935293Y-79792341D01*
X169948048Y-79789212D01*
X169948528Y-79788568D01*
X169956651Y-79772181D01*
X169972137Y-79737852D01*
X169993050Y-79690136D01*
X170017455Y-79633586D01*
X170043416Y-79572758D01*
X170068997Y-79512206D01*
X170092262Y-79456485D01*
X170111277Y-79410150D01*
X170124105Y-79377755D01*
X170128812Y-79363855D01*
X170126736Y-79358965D01*
X170112920Y-79335692D01*
X170087860Y-79296519D01*
X170053568Y-79244520D01*
X170012059Y-79182768D01*
X169965346Y-79114336D01*
X169939718Y-79076860D01*
X169895490Y-79011156D01*
X169857570Y-78953492D01*
X169827980Y-78907014D01*
X169808743Y-78874865D01*
X169801881Y-78860190D01*
X169806649Y-78852230D01*
X169826593Y-78828446D01*
X169859313Y-78792451D01*
X169901805Y-78747295D01*
X169951065Y-78696028D01*
X170004091Y-78641701D01*
X170057877Y-78587364D01*
X170109421Y-78536067D01*
X170155720Y-78490859D01*
X170193769Y-78454792D01*
X170220565Y-78430914D01*
X170233105Y-78422278D01*
X170240066Y-78425636D01*
X170265627Y-78441210D01*
X170306874Y-78467715D01*
X170360837Y-78503210D01*
X170424542Y-78545750D01*
X170495016Y-78593395D01*
X170746662Y-78764512D01*
X171166188Y-78591570D01*
X171223036Y-78290018D01*
X171279885Y-77988466D01*
X171907540Y-77988466D01*
X171964389Y-78290018D01*
G36*
X171964389Y-78290018D02*
G01*
X172021237Y-78591570D01*
X172231001Y-78678041D01*
X172440764Y-78764512D01*
X172692410Y-78593395D01*
X172742216Y-78559661D01*
X172808244Y-78515381D01*
X172865410Y-78477561D01*
X172910744Y-78448142D01*
X172941280Y-78429067D01*
X172954046Y-78422278D01*
X172961887Y-78427106D01*
X172985325Y-78447339D01*
X173020794Y-78480543D01*
X173065289Y-78523670D01*
X173115805Y-78573670D01*
X173169336Y-78627495D01*
X173222877Y-78682095D01*
X173273423Y-78734423D01*
X173317968Y-78781428D01*
X173353507Y-78820063D01*
X173377034Y-78847278D01*
X173385544Y-78860024D01*
X173383565Y-78865500D01*
X173369857Y-78889927D01*
X173344825Y-78930129D01*
X173310499Y-78982952D01*
X173268907Y-79045247D01*
X173222079Y-79113862D01*
X173196380Y-79151283D01*
X173152173Y-79216432D01*
X173114272Y-79273289D01*
X173084698Y-79318770D01*
X173065472Y-79349793D01*
X173058614Y-79363274D01*
X173058726Y-79364021D01*
X173064776Y-79381110D01*
X173078654Y-79416006D01*
X173098427Y-79464151D01*
X173122160Y-79520986D01*
X173147918Y-79581953D01*
X173173766Y-79642492D01*
X173197771Y-79698047D01*
X173217998Y-79744057D01*
X173232511Y-79775965D01*
X173239377Y-79789212D01*
X173243439Y-79790387D01*
X173268121Y-79795687D01*
X173312111Y-79804467D01*
X173371887Y-79816040D01*
X173443929Y-79829721D01*
X173524716Y-79844823D01*
X173567294Y-79852830D01*
X173645445Y-79868107D01*
X173713775Y-79882215D01*
X173768551Y-79894345D01*
X173806037Y-79903686D01*
X173822500Y-79909427D01*
X173825457Y-79915119D01*
X173830362Y-79942930D01*
X173834216Y-79989250D01*
X173837021Y-80049720D01*
X173838781Y-80119983D01*
X173839499Y-80195680D01*
X173839177Y-80272453D01*
X173837819Y-80345944D01*
X173835428Y-80411794D01*
X173832006Y-80465645D01*
X173827556Y-80503138D01*
X173822082Y-80519916D01*
X173818760Y-80521809D01*
X173793987Y-80529926D01*
X173751011Y-80540666D01*
X173694802Y-80552853D01*
X173630325Y-80565310D01*
X173608570Y-80569277D01*
X173508093Y-80587729D01*
X173429126Y-80602559D01*
X173368934Y-80614380D01*
X173324778Y-80623809D01*
X173293920Y-80631460D01*
X173273625Y-80637948D01*
X173261154Y-80643888D01*
X173253771Y-80649894D01*
X173252913Y-80650902D01*
X173240838Y-80671919D01*
X173222971Y-80710376D01*
X173201042Y-80761761D01*
X173176784Y-80821563D01*
X173151927Y-80885270D01*
X173128205Y-80948371D01*
X173107347Y-81006355D01*
X173091087Y-81054709D01*
X173081156Y-81088922D01*
X173079285Y-81104483D01*
X173080536Y-81106502D01*
X173093486Y-81126028D01*
X173117840Y-81162042D01*
X173151340Y-81211228D01*
X173191727Y-81270267D01*
X173236745Y-81335842D01*
X173249100Y-81353884D01*
X173292545Y-81418599D01*
X173330091Y-81476476D01*
X173359594Y-81524082D01*
X173378914Y-81557985D01*
X173385905Y-81574752D01*
X173384398Y-81579161D01*
X173368695Y-81600882D01*
X173337714Y-81636354D01*
X173293673Y-81683188D01*
X173238790Y-81738996D01*
X173175286Y-81801392D01*
X173138988Y-81836317D01*
X173081595Y-81890711D01*
X173031361Y-81937302D01*
X172990984Y-81973636D01*
X172963161Y-81997261D01*
X172950590Y-82005724D01*
X172941952Y-82002587D01*
X172915360Y-81987747D01*
X172876741Y-81963477D01*
X172831134Y-81932852D01*
X172798707Y-81910503D01*
X172733970Y-81866122D01*
X172664886Y-81818987D01*
X172601787Y-81776155D01*
X172478178Y-81692547D01*
X172374417Y-81748650D01*
X172349984Y-81761599D01*
X172305552Y-81783749D01*
X172271191Y-81799041D01*
X172252828Y-81804743D01*
X172246818Y-81797421D01*
X172231895Y-81769541D01*
X172209852Y-81723575D01*
X172181917Y-81662441D01*
X172149317Y-81589055D01*
X172113276Y-81506335D01*
X172075023Y-81417197D01*
X172035783Y-81324559D01*
X171996783Y-81231337D01*
X171959249Y-81140450D01*
X171924409Y-81054814D01*
X171893488Y-80977345D01*
X171867714Y-80910962D01*
X171848311Y-80858582D01*
X171836508Y-80823121D01*
X171833531Y-80807496D01*
X171833732Y-80807039D01*
X171847601Y-80792595D01*
X171876611Y-80769974D01*
X171914772Y-80743864D01*
X171926817Y-80735892D01*
X172018469Y-80660256D01*
X172094323Y-80570169D01*
X172152581Y-80469381D01*
X172191448Y-80361640D01*
X172209128Y-80250697D01*
X172203826Y-80140303D01*
X172182347Y-80042115D01*
X172143782Y-79942966D01*
X172087562Y-79854512D01*
X172010410Y-79770487D01*
X171980095Y-79743645D01*
X171882094Y-79677510D01*
X171776227Y-79632970D01*
X171665561Y-79609625D01*
X171553164Y-79607078D01*
X171442105Y-79624929D01*
X171335451Y-79662780D01*
X171236270Y-79720232D01*
X171147631Y-79796887D01*
X171072600Y-79892345D01*
X171058175Y-79915985D01*
X171009143Y-80024034D01*
X170983103Y-80136548D01*
X170979372Y-80250614D01*
X170997268Y-80363318D01*
X171036109Y-80471745D01*
X171095214Y-80572982D01*
X171173900Y-80664114D01*
X171271485Y-80742228D01*
X171274654Y-80744333D01*
X171312411Y-80770940D01*
X171340709Y-80793561D01*
X171353634Y-80807496D01*
X171352003Y-80818421D01*
X171341864Y-80850231D01*
X171323884Y-80899534D01*
X171299292Y-80963413D01*
X171269311Y-81038948D01*
X171235170Y-81123223D01*
X171198092Y-81213320D01*
X171159306Y-81306321D01*
X171120036Y-81399308D01*
X171081509Y-81489364D01*
X171044950Y-81573571D01*
X171011586Y-81649010D01*
X170982643Y-81712765D01*
X170959346Y-81761917D01*
X170942923Y-81793549D01*
X170934598Y-81804743D01*
X170927674Y-81803227D01*
X170900477Y-81792331D01*
X170860280Y-81773228D01*
X170813009Y-81748650D01*
X170709248Y-81692547D01*
X170585639Y-81776155D01*
X170549120Y-81800913D01*
X170481194Y-81847171D01*
X170413475Y-81893503D01*
X170356291Y-81932852D01*
X170324732Y-81954297D01*
X170283714Y-81980939D01*
X170253301Y-81999178D01*
X170238446Y-82005941D01*
X170232065Y-82003070D01*
X170208996Y-81985485D01*
X170173433Y-81954523D01*
X170128471Y-81913231D01*
X170077206Y-81864653D01*
X170022733Y-81811835D01*
X169968148Y-81757823D01*
X169916547Y-81705661D01*
X169871024Y-81658396D01*
X169834675Y-81619072D01*
X169810595Y-81590736D01*
X169801881Y-81576432D01*
X169802383Y-81573711D01*
X169812755Y-81551560D01*
X169834912Y-81513235D01*
X169866712Y-81462200D01*
X169906016Y-81401914D01*
X169950681Y-81335842D01*
X169963207Y-81317617D01*
X170007193Y-81253485D01*
X170045937Y-81196789D01*
X170077182Y-81150844D01*
X170098669Y-81118970D01*
X170108140Y-81104483D01*
X170108373Y-81103862D01*
X170105578Y-81086139D01*
X170094903Y-81050235D01*
X170078081Y-81000662D01*
X170056843Y-80941932D01*
X170032921Y-80878556D01*
X170008046Y-80815046D01*
X169983950Y-80755913D01*
X169962365Y-80705669D01*
X169945023Y-80668826D01*
X169933655Y-80649894D01*
X169932516Y-80648719D01*
X169924376Y-80642773D01*
X169910629Y-80636776D01*
X169888537Y-80630114D01*
X169855363Y-80622173D01*
X169808370Y-80612337D01*
X169744820Y-80599991D01*
X169661976Y-80584520D01*
X169557100Y-80565310D01*
X169535348Y-80561267D01*
X169473036Y-80548769D01*
X169420619Y-80536927D01*
X169383066Y-80526917D01*
X169365343Y-80519916D01*
X169362378Y-80514075D01*
X169357435Y-80486016D01*
X169353518Y-80439500D01*
X169350629Y-80378886D01*
X169348773Y-80308532D01*
X169347952Y-80232796D01*
X169348168Y-80156037D01*
X169349426Y-80082612D01*
X169351728Y-80016880D01*
X169355076Y-79963200D01*
X169359474Y-79925930D01*
X169364926Y-79909427D01*
X169370491Y-79906989D01*
X169398178Y-79899305D01*
X169444979Y-79888436D01*
X169507157Y-79875192D01*
X169580979Y-79860384D01*
X169662710Y-79844823D01*
X169707336Y-79836509D01*
X169783824Y-79822092D01*
X169849660Y-79809467D01*
X169901323Y-79799321D01*
X169935293Y-79792341D01*
X169948048Y-79789212D01*
X169948528Y-79788568D01*
X169956651Y-79772181D01*
X169972137Y-79737852D01*
X169993050Y-79690136D01*
X170017455Y-79633586D01*
X170043416Y-79572758D01*
X170068997Y-79512206D01*
X170092262Y-79456485D01*
X170111277Y-79410150D01*
X170124105Y-79377755D01*
X170128812Y-79363855D01*
X170126736Y-79358965D01*
X170112920Y-79335692D01*
X170087860Y-79296519D01*
X170053568Y-79244520D01*
X170012059Y-79182768D01*
X169965346Y-79114336D01*
X169939718Y-79076860D01*
X169895490Y-79011156D01*
X169857570Y-78953492D01*
X169827980Y-78907014D01*
X169808743Y-78874865D01*
X169801881Y-78860190D01*
X169806649Y-78852230D01*
X169826593Y-78828446D01*
X169859313Y-78792451D01*
X169901805Y-78747295D01*
X169951065Y-78696028D01*
X170004091Y-78641701D01*
X170057877Y-78587364D01*
X170109421Y-78536067D01*
X170155720Y-78490859D01*
X170193769Y-78454792D01*
X170220565Y-78430914D01*
X170233105Y-78422278D01*
X170240066Y-78425636D01*
X170265627Y-78441210D01*
X170306874Y-78467715D01*
X170360837Y-78503210D01*
X170424542Y-78545750D01*
X170495016Y-78593395D01*
X170746662Y-78764512D01*
X171166188Y-78591570D01*
X171223036Y-78290018D01*
X171279885Y-77988466D01*
X171907540Y-77988466D01*
X171964389Y-78290018D01*
G37*
X169887128Y-82453945D02*
X169917954Y-82463568D01*
X169955916Y-82479563D01*
X169974296Y-82488159D01*
X169987561Y-82489713D01*
X169990495Y-82477798D01*
X169990498Y-82477461D01*
X169996709Y-82466087D01*
X170018131Y-82460256D01*
X170059653Y-82458614D01*
X170128812Y-82458614D01*
X170128812Y-83062179D01*
X169990495Y-83062179D01*
X169990495Y-82646027D01*
X169956110Y-82614161D01*
X169945368Y-82605104D01*
X169913370Y-82589630D01*
X169873965Y-82589010D01*
X169820312Y-82602664D01*
X169802225Y-82603529D01*
X169781008Y-82590283D01*
X169752768Y-82558800D01*
X169739069Y-82541385D01*
X169722868Y-82516797D01*
X169720371Y-82501145D01*
X169729442Y-82487941D01*
X169757289Y-82471245D01*
X169800540Y-82458030D01*
X169847464Y-82451478D01*
X169887128Y-82453945D01*
G36*
X169887128Y-82453945D02*
G01*
X169917954Y-82463568D01*
X169955916Y-82479563D01*
X169974296Y-82488159D01*
X169987561Y-82489713D01*
X169990495Y-82477798D01*
X169990498Y-82477461D01*
X169996709Y-82466087D01*
X170018131Y-82460256D01*
X170059653Y-82458614D01*
X170128812Y-82458614D01*
X170128812Y-83062179D01*
X169990495Y-83062179D01*
X169990495Y-82646027D01*
X169956110Y-82614161D01*
X169945368Y-82605104D01*
X169913370Y-82589630D01*
X169873965Y-82589010D01*
X169820312Y-82602664D01*
X169802225Y-82603529D01*
X169781008Y-82590283D01*
X169752768Y-82558800D01*
X169739069Y-82541385D01*
X169722868Y-82516797D01*
X169720371Y-82501145D01*
X169729442Y-82487941D01*
X169757289Y-82471245D01*
X169800540Y-82458030D01*
X169847464Y-82451478D01*
X169887128Y-82453945D01*
G37*
X172482605Y-82457424D02*
X172539926Y-82475434D01*
X172565199Y-82487674D01*
X172577910Y-82488938D01*
X172580792Y-82477798D01*
X172580795Y-82477461D01*
X172587006Y-82466087D01*
X172608428Y-82460256D01*
X172649950Y-82458614D01*
X172719109Y-82458614D01*
X172719109Y-83062179D01*
X172580792Y-83062179D01*
X172580792Y-82854132D01*
X172580697Y-82783879D01*
X172580051Y-82726170D01*
X172578320Y-82685787D01*
X172574974Y-82658615D01*
X172569481Y-82640540D01*
X172561310Y-82627447D01*
X172549928Y-82615221D01*
X172534424Y-82602217D01*
X172489843Y-82584745D01*
X172443047Y-82589873D01*
X172400180Y-82617507D01*
X172387927Y-82630368D01*
X172379132Y-82643384D01*
X172373233Y-82660706D01*
X172369651Y-82686501D01*
X172367809Y-82724939D01*
X172367128Y-82780189D01*
X172367030Y-82856418D01*
X172367030Y-83062179D01*
X172228713Y-83062179D01*
X172228989Y-82838985D01*
X172229008Y-82829044D01*
X172230207Y-82734106D01*
X172233891Y-82660358D01*
X172241006Y-82604214D01*
X172252500Y-82562087D01*
X172269318Y-82530391D01*
X172292409Y-82505541D01*
X172322717Y-82483950D01*
X172354012Y-82469002D01*
X172417037Y-82455421D01*
X172482605Y-82457424D01*
G36*
X172482605Y-82457424D02*
G01*
X172539926Y-82475434D01*
X172565199Y-82487674D01*
X172577910Y-82488938D01*
X172580792Y-82477798D01*
X172580795Y-82477461D01*
X172587006Y-82466087D01*
X172608428Y-82460256D01*
X172649950Y-82458614D01*
X172719109Y-82458614D01*
X172719109Y-83062179D01*
X172580792Y-83062179D01*
X172580792Y-82854132D01*
X172580697Y-82783879D01*
X172580051Y-82726170D01*
X172578320Y-82685787D01*
X172574974Y-82658615D01*
X172569481Y-82640540D01*
X172561310Y-82627447D01*
X172549928Y-82615221D01*
X172534424Y-82602217D01*
X172489843Y-82584745D01*
X172443047Y-82589873D01*
X172400180Y-82617507D01*
X172387927Y-82630368D01*
X172379132Y-82643384D01*
X172373233Y-82660706D01*
X172369651Y-82686501D01*
X172367809Y-82724939D01*
X172367128Y-82780189D01*
X172367030Y-82856418D01*
X172367030Y-83062179D01*
X172228713Y-83062179D01*
X172228989Y-82838985D01*
X172229008Y-82829044D01*
X172230207Y-82734106D01*
X172233891Y-82660358D01*
X172241006Y-82604214D01*
X172252500Y-82562087D01*
X172269318Y-82530391D01*
X172292409Y-82505541D01*
X172322717Y-82483950D01*
X172354012Y-82469002D01*
X172417037Y-82455421D01*
X172482605Y-82457424D01*
G37*
X169219444Y-82719878D02*
X169217825Y-82816121D01*
X169217615Y-82818014D01*
X169199535Y-82906325D01*
X169166870Y-82974986D01*
X169118601Y-83025506D01*
X169053713Y-83059393D01*
X169041801Y-83063268D01*
X168967971Y-83074688D01*
X168891614Y-83068320D01*
X168820626Y-83045563D01*
X168762904Y-83007819D01*
X168719667Y-82967872D01*
X168765625Y-82931532D01*
X168811583Y-82895193D01*
X168866969Y-82922101D01*
X168931056Y-82943905D01*
X168987632Y-82944558D01*
X169033920Y-82924525D01*
X169067230Y-82884315D01*
X169079171Y-82860222D01*
X169085837Y-82839630D01*
X169081980Y-82825720D01*
X169064675Y-82817181D01*
X169030997Y-82812704D01*
X168978021Y-82810978D01*
X168902822Y-82810693D01*
X168720495Y-82810693D01*
X168720495Y-82723492D01*
X168721857Y-82685210D01*
X168850234Y-82685210D01*
X168856399Y-82692251D01*
X168874654Y-82695916D01*
X168909352Y-82697306D01*
X168964846Y-82697525D01*
X168994603Y-82697176D01*
X169041562Y-82694867D01*
X169073416Y-82690822D01*
X169085148Y-82685542D01*
X169082146Y-82666062D01*
X169060988Y-82628786D01*
X169025731Y-82598164D01*
X168983699Y-82579668D01*
X168942220Y-82578773D01*
X168910997Y-82593604D01*
X168875618Y-82627355D01*
X168853122Y-82669233D01*
X168851805Y-82673690D01*
X168850234Y-82685210D01*
X168721857Y-82685210D01*
X168722136Y-82677371D01*
X168726955Y-82631740D01*
X168733840Y-82600893D01*
X168738859Y-82589117D01*
X168775390Y-82536667D01*
X168828175Y-82492921D01*
X168889904Y-82464279D01*
X168922102Y-82456457D01*
X168998820Y-82452896D01*
X169067179Y-82471009D01*
X169125299Y-82508779D01*
X169171302Y-82564191D01*
X169203310Y-82635229D01*
X169212900Y-82685542D01*
X169219444Y-82719878D01*
G36*
X169219444Y-82719878D02*
G01*
X169217825Y-82816121D01*
X169217615Y-82818014D01*
X169199535Y-82906325D01*
X169166870Y-82974986D01*
X169118601Y-83025506D01*
X169053713Y-83059393D01*
X169041801Y-83063268D01*
X168967971Y-83074688D01*
X168891614Y-83068320D01*
X168820626Y-83045563D01*
X168762904Y-83007819D01*
X168719667Y-82967872D01*
X168765625Y-82931532D01*
X168811583Y-82895193D01*
X168866969Y-82922101D01*
X168931056Y-82943905D01*
X168987632Y-82944558D01*
X169033920Y-82924525D01*
X169067230Y-82884315D01*
X169079171Y-82860222D01*
X169085837Y-82839630D01*
X169081980Y-82825720D01*
X169064675Y-82817181D01*
X169030997Y-82812704D01*
X168978021Y-82810978D01*
X168902822Y-82810693D01*
X168720495Y-82810693D01*
X168720495Y-82723492D01*
X168721857Y-82685210D01*
X168850234Y-82685210D01*
X168856399Y-82692251D01*
X168874654Y-82695916D01*
X168909352Y-82697306D01*
X168964846Y-82697525D01*
X168994603Y-82697176D01*
X169041562Y-82694867D01*
X169073416Y-82690822D01*
X169085148Y-82685542D01*
X169082146Y-82666062D01*
X169060988Y-82628786D01*
X169025731Y-82598164D01*
X168983699Y-82579668D01*
X168942220Y-82578773D01*
X168910997Y-82593604D01*
X168875618Y-82627355D01*
X168853122Y-82669233D01*
X168851805Y-82673690D01*
X168850234Y-82685210D01*
X168721857Y-82685210D01*
X168722136Y-82677371D01*
X168726955Y-82631740D01*
X168733840Y-82600893D01*
X168738859Y-82589117D01*
X168775390Y-82536667D01*
X168828175Y-82492921D01*
X168889904Y-82464279D01*
X168922102Y-82456457D01*
X168998820Y-82452896D01*
X169067179Y-82471009D01*
X169125299Y-82508779D01*
X169171302Y-82564191D01*
X169203310Y-82635229D01*
X169212900Y-82685542D01*
X169219444Y-82719878D01*
G37*
X169533409Y-82461493D02*
X169602021Y-82488224D01*
X169660048Y-82532351D01*
X169702907Y-82592958D01*
X169705801Y-82599137D01*
X169724176Y-82659409D01*
X169733357Y-82731407D01*
X169733285Y-82806369D01*
X169723901Y-82875536D01*
X169705149Y-82930149D01*
X169681995Y-82968212D01*
X169631030Y-83022135D01*
X169567306Y-83056411D01*
X169512785Y-83070272D01*
X169429767Y-83071785D01*
X169350326Y-83050882D01*
X169279879Y-83008464D01*
X169234284Y-82970880D01*
X169275351Y-82928510D01*
X169301296Y-82903409D01*
X169324764Y-82889434D01*
X169346524Y-82892511D01*
X169374356Y-82911287D01*
X169385454Y-82918638D01*
X169432337Y-82933683D01*
X169486224Y-82933673D01*
X169536675Y-82918168D01*
X169555672Y-82905716D01*
X169583537Y-82868946D01*
X169597506Y-82814939D01*
X169598405Y-82741331D01*
X169598403Y-82741289D01*
X169588009Y-82675433D01*
X169565114Y-82629772D01*
X169527439Y-82601528D01*
X169472708Y-82587920D01*
X169438241Y-82586090D01*
X169408126Y-82593584D01*
X169377240Y-82615295D01*
X169337272Y-82648926D01*
X169286656Y-82608250D01*
X169268163Y-82592667D01*
X169245065Y-82570340D01*
X169236039Y-82557183D01*
X169239236Y-82551253D01*
X169257646Y-82533048D01*
X169286973Y-82509895D01*
X169309920Y-82494830D01*
X169382774Y-82463880D01*
X169458799Y-82453073D01*
X169533409Y-82461493D01*
G36*
X169533409Y-82461493D02*
G01*
X169602021Y-82488224D01*
X169660048Y-82532351D01*
X169702907Y-82592958D01*
X169705801Y-82599137D01*
X169724176Y-82659409D01*
X169733357Y-82731407D01*
X169733285Y-82806369D01*
X169723901Y-82875536D01*
X169705149Y-82930149D01*
X169681995Y-82968212D01*
X169631030Y-83022135D01*
X169567306Y-83056411D01*
X169512785Y-83070272D01*
X169429767Y-83071785D01*
X169350326Y-83050882D01*
X169279879Y-83008464D01*
X169234284Y-82970880D01*
X169275351Y-82928510D01*
X169301296Y-82903409D01*
X169324764Y-82889434D01*
X169346524Y-82892511D01*
X169374356Y-82911287D01*
X169385454Y-82918638D01*
X169432337Y-82933683D01*
X169486224Y-82933673D01*
X169536675Y-82918168D01*
X169555672Y-82905716D01*
X169583537Y-82868946D01*
X169597506Y-82814939D01*
X169598405Y-82741331D01*
X169598403Y-82741289D01*
X169588009Y-82675433D01*
X169565114Y-82629772D01*
X169527439Y-82601528D01*
X169472708Y-82587920D01*
X169438241Y-82586090D01*
X169408126Y-82593584D01*
X169377240Y-82615295D01*
X169337272Y-82648926D01*
X169286656Y-82608250D01*
X169268163Y-82592667D01*
X169245065Y-82570340D01*
X169236039Y-82557183D01*
X169239236Y-82551253D01*
X169257646Y-82533048D01*
X169286973Y-82509895D01*
X169309920Y-82494830D01*
X169382774Y-82463880D01*
X169458799Y-82453073D01*
X169533409Y-82461493D01*
G37*
X170380297Y-82654342D02*
X170381357Y-82742394D01*
X170385509Y-82813510D01*
X170393921Y-82865199D01*
X170407757Y-82900360D01*
X170428182Y-82921889D01*
X170456364Y-82932682D01*
X170493465Y-82935636D01*
X170528890Y-82933000D01*
X170557500Y-82922679D01*
X170578296Y-82901772D01*
X170592442Y-82867381D01*
X170601103Y-82816610D01*
X170605445Y-82746563D01*
X170606633Y-82654342D01*
X170606633Y-82458614D01*
X170732376Y-82458614D01*
X170732376Y-82694578D01*
X170732160Y-82757561D01*
X170730484Y-82839007D01*
X170726277Y-82901121D01*
X170718521Y-82947458D01*
X170706196Y-82981573D01*
X170688285Y-83007022D01*
X170663767Y-83027362D01*
X170631623Y-83046147D01*
X170564125Y-83069928D01*
X170493681Y-83071480D01*
X170427264Y-83049580D01*
X170398286Y-83035383D01*
X170383909Y-83033261D01*
X170380297Y-83043293D01*
X170374299Y-83054556D01*
X170352830Y-83060489D01*
X170311138Y-83062179D01*
X170241980Y-83062179D01*
X170241980Y-82458614D01*
X170380297Y-82458614D01*
X170380297Y-82654342D01*
G36*
X170380297Y-82654342D02*
G01*
X170381357Y-82742394D01*
X170385509Y-82813510D01*
X170393921Y-82865199D01*
X170407757Y-82900360D01*
X170428182Y-82921889D01*
X170456364Y-82932682D01*
X170493465Y-82935636D01*
X170528890Y-82933000D01*
X170557500Y-82922679D01*
X170578296Y-82901772D01*
X170592442Y-82867381D01*
X170601103Y-82816610D01*
X170605445Y-82746563D01*
X170606633Y-82654342D01*
X170606633Y-82458614D01*
X170732376Y-82458614D01*
X170732376Y-82694578D01*
X170732160Y-82757561D01*
X170730484Y-82839007D01*
X170726277Y-82901121D01*
X170718521Y-82947458D01*
X170706196Y-82981573D01*
X170688285Y-83007022D01*
X170663767Y-83027362D01*
X170631623Y-83046147D01*
X170564125Y-83069928D01*
X170493681Y-83071480D01*
X170427264Y-83049580D01*
X170398286Y-83035383D01*
X170383909Y-83033261D01*
X170380297Y-83043293D01*
X170374299Y-83054556D01*
X170352830Y-83060489D01*
X170311138Y-83062179D01*
X170241980Y-83062179D01*
X170241980Y-82458614D01*
X170380297Y-82458614D01*
X170380297Y-82654342D01*
G37*
X171332857Y-82803771D02*
X171329349Y-82843565D01*
X171313844Y-82919538D01*
X171286110Y-82977511D01*
X171243898Y-83021300D01*
X171184960Y-83054722D01*
X171162076Y-83062676D01*
X171102812Y-83072601D01*
X171040447Y-83072331D01*
X170987823Y-83061430D01*
X170986789Y-83061034D01*
X170944381Y-83036087D01*
X170901537Y-82997468D01*
X170865986Y-82953306D01*
X170845459Y-82911727D01*
X170839374Y-82881334D01*
X170834164Y-82824429D01*
X170833291Y-82773705D01*
X170959976Y-82773705D01*
X170967549Y-82834545D01*
X170985341Y-82884538D01*
X171012296Y-82917204D01*
X171022513Y-82922812D01*
X171061473Y-82933007D01*
X171106536Y-82935104D01*
X171144448Y-82928020D01*
X171159244Y-82917861D01*
X171180014Y-82882334D01*
X171193083Y-82826732D01*
X171197624Y-82753766D01*
X171197551Y-82732762D01*
X171195974Y-82690203D01*
X171190728Y-82662439D01*
X171179723Y-82641925D01*
X171160868Y-82621112D01*
X171124989Y-82595887D01*
X171078280Y-82585573D01*
X171033151Y-82595396D01*
X170995680Y-82623805D01*
X170971943Y-82669253D01*
X170963675Y-82708497D01*
X170959976Y-82773705D01*
X170833291Y-82773705D01*
X170833049Y-82759621D01*
X170835844Y-82695116D01*
X170842366Y-82639121D01*
X170852432Y-82599842D01*
X170875877Y-82555372D01*
X170925637Y-82500692D01*
X170989238Y-82466055D01*
X171064790Y-82452345D01*
X171150399Y-82460448D01*
X171164644Y-82463899D01*
X171230982Y-82493664D01*
X171280971Y-82542530D01*
X171314612Y-82610501D01*
X171331906Y-82697580D01*
X171332410Y-82753766D01*
X171332857Y-82803771D01*
G36*
X171332857Y-82803771D02*
G01*
X171329349Y-82843565D01*
X171313844Y-82919538D01*
X171286110Y-82977511D01*
X171243898Y-83021300D01*
X171184960Y-83054722D01*
X171162076Y-83062676D01*
X171102812Y-83072601D01*
X171040447Y-83072331D01*
X170987823Y-83061430D01*
X170986789Y-83061034D01*
X170944381Y-83036087D01*
X170901537Y-82997468D01*
X170865986Y-82953306D01*
X170845459Y-82911727D01*
X170839374Y-82881334D01*
X170834164Y-82824429D01*
X170833291Y-82773705D01*
X170959976Y-82773705D01*
X170967549Y-82834545D01*
X170985341Y-82884538D01*
X171012296Y-82917204D01*
X171022513Y-82922812D01*
X171061473Y-82933007D01*
X171106536Y-82935104D01*
X171144448Y-82928020D01*
X171159244Y-82917861D01*
X171180014Y-82882334D01*
X171193083Y-82826732D01*
X171197624Y-82753766D01*
X171197551Y-82732762D01*
X171195974Y-82690203D01*
X171190728Y-82662439D01*
X171179723Y-82641925D01*
X171160868Y-82621112D01*
X171124989Y-82595887D01*
X171078280Y-82585573D01*
X171033151Y-82595396D01*
X170995680Y-82623805D01*
X170971943Y-82669253D01*
X170963675Y-82708497D01*
X170959976Y-82773705D01*
X170833291Y-82773705D01*
X170833049Y-82759621D01*
X170835844Y-82695116D01*
X170842366Y-82639121D01*
X170852432Y-82599842D01*
X170875877Y-82555372D01*
X170925637Y-82500692D01*
X170989238Y-82466055D01*
X171064790Y-82452345D01*
X171150399Y-82460448D01*
X171164644Y-82463899D01*
X171230982Y-82493664D01*
X171280971Y-82542530D01*
X171314612Y-82610501D01*
X171331906Y-82697580D01*
X171332410Y-82753766D01*
X171332857Y-82803771D01*
G37*
X171698874Y-82458207D02*
X171771495Y-82476408D01*
X171824546Y-82510144D01*
X171858329Y-82559642D01*
X171873147Y-82625126D01*
X171870147Y-82687820D01*
X171848493Y-82740699D01*
X171806967Y-82779796D01*
X171744736Y-82805873D01*
X171660969Y-82819695D01*
X171606540Y-82826940D01*
X171556860Y-82842615D01*
X171531211Y-82865314D01*
X171529662Y-82894998D01*
X171539984Y-82913507D01*
X171571951Y-82935443D01*
X171617395Y-82945818D01*
X171670649Y-82944399D01*
X171726048Y-82930952D01*
X171777928Y-82905243D01*
X171829653Y-82871013D01*
X171875148Y-82917049D01*
X171920643Y-82963084D01*
X171882921Y-82993876D01*
X171868253Y-83004574D01*
X171826983Y-83028880D01*
X171782327Y-83049825D01*
X171746984Y-83061845D01*
X171695234Y-83070552D01*
X171631435Y-83070667D01*
X171553200Y-83061081D01*
X171482722Y-83036783D01*
X171432836Y-82998188D01*
X171403423Y-82945198D01*
X171394365Y-82877718D01*
X171400921Y-82818354D01*
X171421970Y-82769752D01*
X171459864Y-82734946D01*
X171517004Y-82711798D01*
X171595785Y-82698170D01*
X171604834Y-82697183D01*
X171653885Y-82690892D01*
X171693675Y-82684309D01*
X171716312Y-82678708D01*
X171723866Y-82674197D01*
X171736637Y-82650941D01*
X171734563Y-82621171D01*
X171717495Y-82595327D01*
X171708533Y-82589691D01*
X171671188Y-82580660D01*
X171622950Y-82581267D01*
X171572650Y-82590878D01*
X171529115Y-82608858D01*
X171483372Y-82635847D01*
X171447890Y-82594384D01*
X171439280Y-82583850D01*
X171419883Y-82555632D01*
X171411897Y-82536508D01*
X171420283Y-82524781D01*
X171446226Y-82506476D01*
X171483688Y-82486777D01*
X171488966Y-82484370D01*
X171538366Y-82465482D01*
X171585983Y-82456452D01*
X171645072Y-82454639D01*
X171698874Y-82458207D01*
G36*
X171698874Y-82458207D02*
G01*
X171771495Y-82476408D01*
X171824546Y-82510144D01*
X171858329Y-82559642D01*
X171873147Y-82625126D01*
X171870147Y-82687820D01*
X171848493Y-82740699D01*
X171806967Y-82779796D01*
X171744736Y-82805873D01*
X171660969Y-82819695D01*
X171606540Y-82826940D01*
X171556860Y-82842615D01*
X171531211Y-82865314D01*
X171529662Y-82894998D01*
X171539984Y-82913507D01*
X171571951Y-82935443D01*
X171617395Y-82945818D01*
X171670649Y-82944399D01*
X171726048Y-82930952D01*
X171777928Y-82905243D01*
X171829653Y-82871013D01*
X171875148Y-82917049D01*
X171920643Y-82963084D01*
X171882921Y-82993876D01*
X171868253Y-83004574D01*
X171826983Y-83028880D01*
X171782327Y-83049825D01*
X171746984Y-83061845D01*
X171695234Y-83070552D01*
X171631435Y-83070667D01*
X171553200Y-83061081D01*
X171482722Y-83036783D01*
X171432836Y-82998188D01*
X171403423Y-82945198D01*
X171394365Y-82877718D01*
X171400921Y-82818354D01*
X171421970Y-82769752D01*
X171459864Y-82734946D01*
X171517004Y-82711798D01*
X171595785Y-82698170D01*
X171604834Y-82697183D01*
X171653885Y-82690892D01*
X171693675Y-82684309D01*
X171716312Y-82678708D01*
X171723866Y-82674197D01*
X171736637Y-82650941D01*
X171734563Y-82621171D01*
X171717495Y-82595327D01*
X171708533Y-82589691D01*
X171671188Y-82580660D01*
X171622950Y-82581267D01*
X171572650Y-82590878D01*
X171529115Y-82608858D01*
X171483372Y-82635847D01*
X171447890Y-82594384D01*
X171439280Y-82583850D01*
X171419883Y-82555632D01*
X171411897Y-82536508D01*
X171420283Y-82524781D01*
X171446226Y-82506476D01*
X171483688Y-82486777D01*
X171488966Y-82484370D01*
X171538366Y-82465482D01*
X171585983Y-82456452D01*
X171645072Y-82454639D01*
X171698874Y-82458207D01*
G37*
X173307022Y-82684861D02*
X173311421Y-82772936D01*
X173310322Y-82811371D01*
X173297926Y-82895367D01*
X173270608Y-82961595D01*
X173226941Y-83012784D01*
X173165495Y-83051663D01*
X173105888Y-83069812D01*
X173031110Y-83073284D01*
X172955664Y-83059930D01*
X172888366Y-83030425D01*
X172863428Y-83014012D01*
X172835951Y-82992973D01*
X172823414Y-82979129D01*
X172824124Y-82973417D01*
X172838158Y-82953955D01*
X172864533Y-82930376D01*
X172910240Y-82895513D01*
X172963799Y-82922262D01*
X172978282Y-82928882D01*
X173020916Y-82943273D01*
X173056649Y-82949010D01*
X173082998Y-82944282D01*
X173124347Y-82921514D01*
X173159104Y-82886170D01*
X173178983Y-82845273D01*
X173187083Y-82810693D01*
X172807129Y-82810693D01*
X172807199Y-82744679D01*
X172807774Y-82723757D01*
X172811972Y-82678862D01*
X172945445Y-82678862D01*
X172945690Y-82681434D01*
X172952604Y-82689443D01*
X172972141Y-82694364D01*
X173008467Y-82696843D01*
X173065748Y-82697525D01*
X173084575Y-82697517D01*
X173133470Y-82697065D01*
X173162863Y-82695113D01*
X173177115Y-82690558D01*
X173180582Y-82682299D01*
X173177625Y-82669233D01*
X173177173Y-82667752D01*
X173151699Y-82622285D01*
X173111539Y-82590981D01*
X173063651Y-82579327D01*
X173045949Y-82580259D01*
X173013094Y-82591408D01*
X172981575Y-82619763D01*
X172973085Y-82629789D01*
X172953336Y-82658423D01*
X172945445Y-82678862D01*
X172811972Y-82678862D01*
X172812512Y-82673091D01*
X172820459Y-82631166D01*
X172829168Y-82607696D01*
X172859790Y-82556646D01*
X172900799Y-82510283D01*
X172944168Y-82478514D01*
X172956699Y-82472614D01*
X173029661Y-82453046D01*
X173104168Y-82455109D01*
X173174217Y-82477931D01*
X173233807Y-82520639D01*
X173266038Y-82560025D01*
X173292392Y-82615510D01*
X173306482Y-82682299D01*
X173307022Y-82684861D01*
G36*
X173307022Y-82684861D02*
G01*
X173311421Y-82772936D01*
X173310322Y-82811371D01*
X173297926Y-82895367D01*
X173270608Y-82961595D01*
X173226941Y-83012784D01*
X173165495Y-83051663D01*
X173105888Y-83069812D01*
X173031110Y-83073284D01*
X172955664Y-83059930D01*
X172888366Y-83030425D01*
X172863428Y-83014012D01*
X172835951Y-82992973D01*
X172823414Y-82979129D01*
X172824124Y-82973417D01*
X172838158Y-82953955D01*
X172864533Y-82930376D01*
X172910240Y-82895513D01*
X172963799Y-82922262D01*
X172978282Y-82928882D01*
X173020916Y-82943273D01*
X173056649Y-82949010D01*
X173082998Y-82944282D01*
X173124347Y-82921514D01*
X173159104Y-82886170D01*
X173178983Y-82845273D01*
X173187083Y-82810693D01*
X172807129Y-82810693D01*
X172807199Y-82744679D01*
X172807774Y-82723757D01*
X172811972Y-82678862D01*
X172945445Y-82678862D01*
X172945690Y-82681434D01*
X172952604Y-82689443D01*
X172972141Y-82694364D01*
X173008467Y-82696843D01*
X173065748Y-82697525D01*
X173084575Y-82697517D01*
X173133470Y-82697065D01*
X173162863Y-82695113D01*
X173177115Y-82690558D01*
X173180582Y-82682299D01*
X173177625Y-82669233D01*
X173177173Y-82667752D01*
X173151699Y-82622285D01*
X173111539Y-82590981D01*
X173063651Y-82579327D01*
X173045949Y-82580259D01*
X173013094Y-82591408D01*
X172981575Y-82619763D01*
X172973085Y-82629789D01*
X172953336Y-82658423D01*
X172945445Y-82678862D01*
X172811972Y-82678862D01*
X172812512Y-82673091D01*
X172820459Y-82631166D01*
X172829168Y-82607696D01*
X172859790Y-82556646D01*
X172900799Y-82510283D01*
X172944168Y-82478514D01*
X172956699Y-82472614D01*
X173029661Y-82453046D01*
X173104168Y-82455109D01*
X173174217Y-82477931D01*
X173233807Y-82520639D01*
X173266038Y-82560025D01*
X173292392Y-82615510D01*
X173306482Y-82682299D01*
X173307022Y-82684861D01*
G37*
X174464997Y-82794931D02*
X174463373Y-82834310D01*
X174459688Y-82882332D01*
X174453410Y-82916368D01*
X174443044Y-82943338D01*
X174427092Y-82970158D01*
X174426412Y-82971175D01*
X174387132Y-83014629D01*
X174339072Y-83047772D01*
X174283185Y-83067439D01*
X174209666Y-83073824D01*
X174137609Y-83061268D01*
X174073201Y-83031011D01*
X174022627Y-82984294D01*
X174008108Y-82962221D01*
X173980993Y-82893602D01*
X173967546Y-82808939D01*
X173967776Y-82787523D01*
X174102920Y-82787523D01*
X174103174Y-82827574D01*
X174107421Y-82854313D01*
X174117096Y-82874859D01*
X174133638Y-82896331D01*
X174156593Y-82917639D01*
X174202505Y-82936653D01*
X174251802Y-82933122D01*
X174298917Y-82906694D01*
X174312207Y-82894072D01*
X174326397Y-82872465D01*
X174334266Y-82842094D01*
X174338726Y-82794770D01*
X174339955Y-82759219D01*
X174333224Y-82686620D01*
X174312567Y-82634642D01*
X174277894Y-82602999D01*
X174237249Y-82587847D01*
X174188777Y-82589123D01*
X174143845Y-82614703D01*
X174133103Y-82624442D01*
X174119548Y-82641480D01*
X174111505Y-82663772D01*
X174107043Y-82697947D01*
X174104228Y-82750638D01*
X174102920Y-82787523D01*
X173967776Y-82787523D01*
X173968583Y-82712351D01*
X173969907Y-82698651D01*
X173988374Y-82610908D01*
X174022540Y-82542793D01*
X174072479Y-82494231D01*
X174138261Y-82465148D01*
X174219961Y-82455471D01*
X174250828Y-82456379D01*
X174314128Y-82467493D01*
X174365889Y-82494021D01*
X174414147Y-82539436D01*
X174421865Y-82548551D01*
X174442681Y-82579248D01*
X174456362Y-82614007D01*
X174463948Y-82658056D01*
X174466479Y-82716621D01*
X174465672Y-82759219D01*
X174464997Y-82794931D01*
G36*
X174464997Y-82794931D02*
G01*
X174463373Y-82834310D01*
X174459688Y-82882332D01*
X174453410Y-82916368D01*
X174443044Y-82943338D01*
X174427092Y-82970158D01*
X174426412Y-82971175D01*
X174387132Y-83014629D01*
X174339072Y-83047772D01*
X174283185Y-83067439D01*
X174209666Y-83073824D01*
X174137609Y-83061268D01*
X174073201Y-83031011D01*
X174022627Y-82984294D01*
X174008108Y-82962221D01*
X173980993Y-82893602D01*
X173967546Y-82808939D01*
X173967776Y-82787523D01*
X174102920Y-82787523D01*
X174103174Y-82827574D01*
X174107421Y-82854313D01*
X174117096Y-82874859D01*
X174133638Y-82896331D01*
X174156593Y-82917639D01*
X174202505Y-82936653D01*
X174251802Y-82933122D01*
X174298917Y-82906694D01*
X174312207Y-82894072D01*
X174326397Y-82872465D01*
X174334266Y-82842094D01*
X174338726Y-82794770D01*
X174339955Y-82759219D01*
X174333224Y-82686620D01*
X174312567Y-82634642D01*
X174277894Y-82602999D01*
X174237249Y-82587847D01*
X174188777Y-82589123D01*
X174143845Y-82614703D01*
X174133103Y-82624442D01*
X174119548Y-82641480D01*
X174111505Y-82663772D01*
X174107043Y-82697947D01*
X174104228Y-82750638D01*
X174102920Y-82787523D01*
X173967776Y-82787523D01*
X173968583Y-82712351D01*
X173969907Y-82698651D01*
X173988374Y-82610908D01*
X174022540Y-82542793D01*
X174072479Y-82494231D01*
X174138261Y-82465148D01*
X174219961Y-82455471D01*
X174250828Y-82456379D01*
X174314128Y-82467493D01*
X174365889Y-82494021D01*
X174414147Y-82539436D01*
X174421865Y-82548551D01*
X174442681Y-82579248D01*
X174456362Y-82614007D01*
X174463948Y-82658056D01*
X174466479Y-82716621D01*
X174465672Y-82759219D01*
X174464997Y-82794931D01*
G37*
X169864353Y-83709753D02*
X169862718Y-83756692D01*
X169847827Y-83846459D01*
X169817185Y-83917045D01*
X169770524Y-83968952D01*
X169707574Y-84002686D01*
X169687235Y-84008647D01*
X169614612Y-84016971D01*
X169537928Y-84009946D01*
X169468663Y-83988265D01*
X169444262Y-83975959D01*
X169409275Y-83954879D01*
X169388072Y-83937534D01*
X169384942Y-83933571D01*
X169379085Y-83919077D01*
X169387524Y-83903321D01*
X169413221Y-83879460D01*
X169425622Y-83869072D01*
X169450052Y-83850063D01*
X169462861Y-83842293D01*
X169466530Y-83843094D01*
X169487561Y-83851745D01*
X169518960Y-83866931D01*
X169529197Y-83871926D01*
X169589590Y-83890475D01*
X169642057Y-83885694D01*
X169688065Y-83857500D01*
X169693419Y-83852291D01*
X169719013Y-83819659D01*
X169733637Y-83788342D01*
X169741736Y-83753763D01*
X169361782Y-83753763D01*
X169361852Y-83687748D01*
X169361892Y-83681182D01*
X169367022Y-83628218D01*
X169500099Y-83628218D01*
X169501670Y-83639203D01*
X169509738Y-83646773D01*
X169528967Y-83650975D01*
X169564019Y-83652783D01*
X169619554Y-83653169D01*
X169650429Y-83652768D01*
X169696002Y-83650429D01*
X169727348Y-83646465D01*
X169739010Y-83641413D01*
X169729064Y-83599827D01*
X169699947Y-83561013D01*
X169657952Y-83534086D01*
X169609440Y-83524772D01*
X169573723Y-83535272D01*
X169538020Y-83560940D01*
X169510879Y-83594381D01*
X169500099Y-83628218D01*
X169367022Y-83628218D01*
X169369758Y-83599965D01*
X169392655Y-83533895D01*
X169432607Y-83476940D01*
X169456979Y-83452848D01*
X169507315Y-83420597D01*
X169567419Y-83404970D01*
X169643338Y-83403871D01*
X169680010Y-83408179D01*
X169747703Y-83430549D01*
X169799530Y-83471263D01*
X169835945Y-83530949D01*
X169857401Y-83610236D01*
X169859579Y-83641413D01*
X169864353Y-83709753D01*
G36*
X169864353Y-83709753D02*
G01*
X169862718Y-83756692D01*
X169847827Y-83846459D01*
X169817185Y-83917045D01*
X169770524Y-83968952D01*
X169707574Y-84002686D01*
X169687235Y-84008647D01*
X169614612Y-84016971D01*
X169537928Y-84009946D01*
X169468663Y-83988265D01*
X169444262Y-83975959D01*
X169409275Y-83954879D01*
X169388072Y-83937534D01*
X169384942Y-83933571D01*
X169379085Y-83919077D01*
X169387524Y-83903321D01*
X169413221Y-83879460D01*
X169425622Y-83869072D01*
X169450052Y-83850063D01*
X169462861Y-83842293D01*
X169466530Y-83843094D01*
X169487561Y-83851745D01*
X169518960Y-83866931D01*
X169529197Y-83871926D01*
X169589590Y-83890475D01*
X169642057Y-83885694D01*
X169688065Y-83857500D01*
X169693419Y-83852291D01*
X169719013Y-83819659D01*
X169733637Y-83788342D01*
X169741736Y-83753763D01*
X169361782Y-83753763D01*
X169361852Y-83687748D01*
X169361892Y-83681182D01*
X169367022Y-83628218D01*
X169500099Y-83628218D01*
X169501670Y-83639203D01*
X169509738Y-83646773D01*
X169528967Y-83650975D01*
X169564019Y-83652783D01*
X169619554Y-83653169D01*
X169650429Y-83652768D01*
X169696002Y-83650429D01*
X169727348Y-83646465D01*
X169739010Y-83641413D01*
X169729064Y-83599827D01*
X169699947Y-83561013D01*
X169657952Y-83534086D01*
X169609440Y-83524772D01*
X169573723Y-83535272D01*
X169538020Y-83560940D01*
X169510879Y-83594381D01*
X169500099Y-83628218D01*
X169367022Y-83628218D01*
X169369758Y-83599965D01*
X169392655Y-83533895D01*
X169432607Y-83476940D01*
X169456979Y-83452848D01*
X169507315Y-83420597D01*
X169567419Y-83404970D01*
X169643338Y-83403871D01*
X169680010Y-83408179D01*
X169747703Y-83430549D01*
X169799530Y-83471263D01*
X169835945Y-83530949D01*
X169857401Y-83610236D01*
X169859579Y-83641413D01*
X169864353Y-83709753D01*
G37*
X170070265Y-83409965D02*
X170108255Y-83427745D01*
X170141386Y-83453806D01*
X170141386Y-83427745D01*
X170142211Y-83417849D01*
X170149893Y-83407358D01*
X170170667Y-83402725D01*
X170210544Y-83401683D01*
X170279703Y-83401683D01*
X170279703Y-84017822D01*
X170141386Y-84017822D01*
X170141386Y-83817226D01*
X170141369Y-83805710D01*
X170140189Y-83724758D01*
X170137294Y-83658817D01*
X170132888Y-83611258D01*
X170127181Y-83585452D01*
X170121940Y-83575710D01*
X170089676Y-83545156D01*
X170045730Y-83531631D01*
X169997743Y-83537941D01*
X169985973Y-83542217D01*
X169960898Y-83549776D01*
X169943762Y-83547428D01*
X169926518Y-83532064D01*
X169901124Y-83500571D01*
X169859936Y-83448568D01*
X169888886Y-83425125D01*
X169916405Y-83411015D01*
X169964745Y-83401486D01*
X170019230Y-83401174D01*
X170070265Y-83409965D01*
G36*
X170070265Y-83409965D02*
G01*
X170108255Y-83427745D01*
X170141386Y-83453806D01*
X170141386Y-83427745D01*
X170142211Y-83417849D01*
X170149893Y-83407358D01*
X170170667Y-83402725D01*
X170210544Y-83401683D01*
X170279703Y-83401683D01*
X170279703Y-84017822D01*
X170141386Y-84017822D01*
X170141386Y-83817226D01*
X170141369Y-83805710D01*
X170140189Y-83724758D01*
X170137294Y-83658817D01*
X170132888Y-83611258D01*
X170127181Y-83585452D01*
X170121940Y-83575710D01*
X170089676Y-83545156D01*
X170045730Y-83531631D01*
X169997743Y-83537941D01*
X169985973Y-83542217D01*
X169960898Y-83549776D01*
X169943762Y-83547428D01*
X169926518Y-83532064D01*
X169901124Y-83500571D01*
X169859936Y-83448568D01*
X169888886Y-83425125D01*
X169916405Y-83411015D01*
X169964745Y-83401486D01*
X170019230Y-83401174D01*
X170070265Y-83409965D01*
G37*
X170889413Y-83852333D02*
X170874244Y-83909419D01*
X170841277Y-83958255D01*
X170791270Y-83993386D01*
X170786362Y-83995521D01*
X170731646Y-84010903D01*
X170669993Y-84016899D01*
X170611376Y-84013233D01*
X170565767Y-83999629D01*
X170547549Y-83990754D01*
X170534179Y-83988637D01*
X170531188Y-83999706D01*
X170525524Y-84009942D01*
X170503607Y-84016038D01*
X170461068Y-84017822D01*
X170390948Y-84017822D01*
X170395053Y-83775768D01*
X170395492Y-83753763D01*
X170531188Y-83753763D01*
X170531188Y-83797773D01*
X170535924Y-83830666D01*
X170556336Y-83866931D01*
X170563871Y-83873597D01*
X170594753Y-83887620D01*
X170641213Y-83891228D01*
X170669090Y-83889819D01*
X170721255Y-83879204D01*
X170753587Y-83859425D01*
X170764492Y-83831824D01*
X170752374Y-83797743D01*
X170745304Y-83788824D01*
X170713724Y-83768818D01*
X170663744Y-83757395D01*
X170592487Y-83753763D01*
X170531188Y-83753763D01*
X170395492Y-83753763D01*
X170396169Y-83719794D01*
X170399106Y-83635996D01*
X170404058Y-83571920D01*
X170412002Y-83524073D01*
X170423917Y-83488962D01*
X170440780Y-83463093D01*
X170463572Y-83442974D01*
X170493269Y-83425110D01*
X170508589Y-83418290D01*
X170561589Y-83405417D01*
X170625513Y-83400095D01*
X170691602Y-83402227D01*
X170751099Y-83411714D01*
X170795247Y-83428461D01*
X170810604Y-83438185D01*
X170845960Y-83467005D01*
X170857926Y-83491137D01*
X170855020Y-83495800D01*
X170836909Y-83512088D01*
X170807672Y-83533817D01*
X170792725Y-83543987D01*
X170767270Y-83558397D01*
X170750728Y-83559773D01*
X170735370Y-83549827D01*
X170697094Y-83529684D01*
X170645590Y-83521400D01*
X170592957Y-83527742D01*
X170591961Y-83528030D01*
X170554838Y-83544158D01*
X170536463Y-83569405D01*
X170531380Y-83611158D01*
X170531188Y-83650879D01*
X170662423Y-83655168D01*
X170683331Y-83655873D01*
X170736043Y-83658326D01*
X170771381Y-83662180D01*
X170795267Y-83668878D01*
X170813624Y-83679864D01*
X170832376Y-83696580D01*
X170863337Y-83735244D01*
X170886029Y-83792456D01*
X170888254Y-83831824D01*
X170889413Y-83852333D01*
G36*
X170889413Y-83852333D02*
G01*
X170874244Y-83909419D01*
X170841277Y-83958255D01*
X170791270Y-83993386D01*
X170786362Y-83995521D01*
X170731646Y-84010903D01*
X170669993Y-84016899D01*
X170611376Y-84013233D01*
X170565767Y-83999629D01*
X170547549Y-83990754D01*
X170534179Y-83988637D01*
X170531188Y-83999706D01*
X170525524Y-84009942D01*
X170503607Y-84016038D01*
X170461068Y-84017822D01*
X170390948Y-84017822D01*
X170395053Y-83775768D01*
X170395492Y-83753763D01*
X170531188Y-83753763D01*
X170531188Y-83797773D01*
X170535924Y-83830666D01*
X170556336Y-83866931D01*
X170563871Y-83873597D01*
X170594753Y-83887620D01*
X170641213Y-83891228D01*
X170669090Y-83889819D01*
X170721255Y-83879204D01*
X170753587Y-83859425D01*
X170764492Y-83831824D01*
X170752374Y-83797743D01*
X170745304Y-83788824D01*
X170713724Y-83768818D01*
X170663744Y-83757395D01*
X170592487Y-83753763D01*
X170531188Y-83753763D01*
X170395492Y-83753763D01*
X170396169Y-83719794D01*
X170399106Y-83635996D01*
X170404058Y-83571920D01*
X170412002Y-83524073D01*
X170423917Y-83488962D01*
X170440780Y-83463093D01*
X170463572Y-83442974D01*
X170493269Y-83425110D01*
X170508589Y-83418290D01*
X170561589Y-83405417D01*
X170625513Y-83400095D01*
X170691602Y-83402227D01*
X170751099Y-83411714D01*
X170795247Y-83428461D01*
X170810604Y-83438185D01*
X170845960Y-83467005D01*
X170857926Y-83491137D01*
X170855020Y-83495800D01*
X170836909Y-83512088D01*
X170807672Y-83533817D01*
X170792725Y-83543987D01*
X170767270Y-83558397D01*
X170750728Y-83559773D01*
X170735370Y-83549827D01*
X170697094Y-83529684D01*
X170645590Y-83521400D01*
X170592957Y-83527742D01*
X170591961Y-83528030D01*
X170554838Y-83544158D01*
X170536463Y-83569405D01*
X170531380Y-83611158D01*
X170531188Y-83650879D01*
X170662423Y-83655168D01*
X170683331Y-83655873D01*
X170736043Y-83658326D01*
X170771381Y-83662180D01*
X170795267Y-83668878D01*
X170813624Y-83679864D01*
X170832376Y-83696580D01*
X170863337Y-83735244D01*
X170886029Y-83792456D01*
X170888254Y-83831824D01*
X170889413Y-83852333D01*
G37*
X171432997Y-83599130D02*
X171449997Y-83649850D01*
X171470107Y-83705997D01*
X171486899Y-83748532D01*
X171498986Y-83773990D01*
X171504980Y-83778903D01*
X171506426Y-83774630D01*
X171514254Y-83748422D01*
X171526723Y-83704649D01*
X171542447Y-83648211D01*
X171560043Y-83584010D01*
X171607914Y-83407971D01*
X171681007Y-83404152D01*
X171687177Y-83403846D01*
X171726592Y-83403441D01*
X171745533Y-83407487D01*
X171747945Y-83416726D01*
X171744898Y-83425749D01*
X171734874Y-83456632D01*
X171719180Y-83505544D01*
X171698934Y-83568987D01*
X171675256Y-83643462D01*
X171649263Y-83725471D01*
X171556736Y-84017822D01*
X171440993Y-84017822D01*
X171386457Y-83832352D01*
X171376386Y-83798294D01*
X171357775Y-83736378D01*
X171341872Y-83684787D01*
X171330109Y-83648130D01*
X171323918Y-83631018D01*
X171322154Y-83629741D01*
X171313571Y-83640779D01*
X171301316Y-83669969D01*
X171287426Y-83712750D01*
X171286692Y-83715263D01*
X171268096Y-83778400D01*
X171246818Y-83849889D01*
X171227321Y-83914734D01*
X171195705Y-84019122D01*
X171137402Y-84015328D01*
X171079098Y-84011535D01*
X171025098Y-83841782D01*
X171001390Y-83767193D01*
X170974833Y-83683539D01*
X170949404Y-83603342D01*
X170928354Y-83536857D01*
X170885609Y-83401683D01*
X171028612Y-83401683D01*
X171063274Y-83530570D01*
X171072488Y-83564625D01*
X171089915Y-83628115D01*
X171106054Y-83685874D01*
X171118322Y-83728614D01*
X171138709Y-83797773D01*
X171268745Y-83407971D01*
X171318476Y-83404237D01*
X171368206Y-83400504D01*
X171432997Y-83599130D01*
G36*
X171432997Y-83599130D02*
G01*
X171449997Y-83649850D01*
X171470107Y-83705997D01*
X171486899Y-83748532D01*
X171498986Y-83773990D01*
X171504980Y-83778903D01*
X171506426Y-83774630D01*
X171514254Y-83748422D01*
X171526723Y-83704649D01*
X171542447Y-83648211D01*
X171560043Y-83584010D01*
X171607914Y-83407971D01*
X171681007Y-83404152D01*
X171687177Y-83403846D01*
X171726592Y-83403441D01*
X171745533Y-83407487D01*
X171747945Y-83416726D01*
X171744898Y-83425749D01*
X171734874Y-83456632D01*
X171719180Y-83505544D01*
X171698934Y-83568987D01*
X171675256Y-83643462D01*
X171649263Y-83725471D01*
X171556736Y-84017822D01*
X171440993Y-84017822D01*
X171386457Y-83832352D01*
X171376386Y-83798294D01*
X171357775Y-83736378D01*
X171341872Y-83684787D01*
X171330109Y-83648130D01*
X171323918Y-83631018D01*
X171322154Y-83629741D01*
X171313571Y-83640779D01*
X171301316Y-83669969D01*
X171287426Y-83712750D01*
X171286692Y-83715263D01*
X171268096Y-83778400D01*
X171246818Y-83849889D01*
X171227321Y-83914734D01*
X171195705Y-84019122D01*
X171137402Y-84015328D01*
X171079098Y-84011535D01*
X171025098Y-83841782D01*
X171001390Y-83767193D01*
X170974833Y-83683539D01*
X170949404Y-83603342D01*
X170928354Y-83536857D01*
X170885609Y-83401683D01*
X171028612Y-83401683D01*
X171063274Y-83530570D01*
X171072488Y-83564625D01*
X171089915Y-83628115D01*
X171106054Y-83685874D01*
X171118322Y-83728614D01*
X171138709Y-83797773D01*
X171268745Y-83407971D01*
X171318476Y-83404237D01*
X171368206Y-83400504D01*
X171432997Y-83599130D01*
G37*
X172290761Y-83756813D02*
X172289167Y-83810571D01*
X172285962Y-83848018D01*
X172285413Y-83851450D01*
X172263838Y-83912835D01*
X172224438Y-83964877D01*
X172172752Y-84000135D01*
X172117248Y-84014729D01*
X172048977Y-84013597D01*
X171986173Y-83994029D01*
X171969815Y-83985771D01*
X171948779Y-83976923D01*
X171940774Y-83979676D01*
X171939505Y-83994029D01*
X171938922Y-84001186D01*
X171931394Y-84011772D01*
X171910488Y-84016645D01*
X171870346Y-84017822D01*
X171801188Y-84017822D01*
X171801188Y-83715930D01*
X171939505Y-83715930D01*
X171940496Y-83768230D01*
X171944519Y-83803050D01*
X171953108Y-83826905D01*
X171967797Y-83846895D01*
X172006584Y-83876618D01*
X172051974Y-83886582D01*
X172095989Y-83874260D01*
X172133060Y-83839888D01*
X172142859Y-83814735D01*
X172150097Y-83770194D01*
X172153279Y-83716155D01*
X172152277Y-83660728D01*
X172146961Y-83612022D01*
X172137204Y-83578148D01*
X172134087Y-83572593D01*
X172104038Y-83544674D01*
X172063315Y-83532306D01*
X172019579Y-83535183D01*
X171980491Y-83553000D01*
X171953710Y-83585452D01*
X171952603Y-83588181D01*
X171945963Y-83618634D01*
X171941278Y-83664139D01*
X171939505Y-83715930D01*
X171801188Y-83715930D01*
X171801188Y-83162773D01*
X171939505Y-83162773D01*
X171939505Y-83455878D01*
X171965124Y-83432693D01*
X171989792Y-83418282D01*
X172036480Y-83406236D01*
X172091056Y-83402354D01*
X172144354Y-83407120D01*
X172187207Y-83421014D01*
X172217878Y-83440779D01*
X172249471Y-83474449D01*
X172270733Y-83519730D01*
X172283514Y-83580981D01*
X172289664Y-83662563D01*
X172290568Y-83695540D01*
X172290633Y-83716155D01*
X172290761Y-83756813D01*
G36*
X172290761Y-83756813D02*
G01*
X172289167Y-83810571D01*
X172285962Y-83848018D01*
X172285413Y-83851450D01*
X172263838Y-83912835D01*
X172224438Y-83964877D01*
X172172752Y-84000135D01*
X172117248Y-84014729D01*
X172048977Y-84013597D01*
X171986173Y-83994029D01*
X171969815Y-83985771D01*
X171948779Y-83976923D01*
X171940774Y-83979676D01*
X171939505Y-83994029D01*
X171938922Y-84001186D01*
X171931394Y-84011772D01*
X171910488Y-84016645D01*
X171870346Y-84017822D01*
X171801188Y-84017822D01*
X171801188Y-83715930D01*
X171939505Y-83715930D01*
X171940496Y-83768230D01*
X171944519Y-83803050D01*
X171953108Y-83826905D01*
X171967797Y-83846895D01*
X172006584Y-83876618D01*
X172051974Y-83886582D01*
X172095989Y-83874260D01*
X172133060Y-83839888D01*
X172142859Y-83814735D01*
X172150097Y-83770194D01*
X172153279Y-83716155D01*
X172152277Y-83660728D01*
X172146961Y-83612022D01*
X172137204Y-83578148D01*
X172134087Y-83572593D01*
X172104038Y-83544674D01*
X172063315Y-83532306D01*
X172019579Y-83535183D01*
X171980491Y-83553000D01*
X171953710Y-83585452D01*
X171952603Y-83588181D01*
X171945963Y-83618634D01*
X171941278Y-83664139D01*
X171939505Y-83715930D01*
X171801188Y-83715930D01*
X171801188Y-83162773D01*
X171939505Y-83162773D01*
X171939505Y-83455878D01*
X171965124Y-83432693D01*
X171989792Y-83418282D01*
X172036480Y-83406236D01*
X172091056Y-83402354D01*
X172144354Y-83407120D01*
X172187207Y-83421014D01*
X172217878Y-83440779D01*
X172249471Y-83474449D01*
X172270733Y-83519730D01*
X172283514Y-83580981D01*
X172289664Y-83662563D01*
X172290568Y-83695540D01*
X172290633Y-83716155D01*
X172290761Y-83756813D01*
G37*
X172693960Y-84017822D02*
X172568218Y-84017822D01*
X172568218Y-83823740D01*
X172568078Y-83778594D01*
X172566649Y-83703823D01*
X172563029Y-83648467D01*
X172556434Y-83608702D01*
X172546079Y-83580700D01*
X172531178Y-83560635D01*
X172510946Y-83544681D01*
X172488859Y-83532792D01*
X172462705Y-83529421D01*
X172425508Y-83536917D01*
X172413555Y-83540038D01*
X172383718Y-83544735D01*
X172362383Y-83538005D01*
X172337655Y-83517177D01*
X172332963Y-83512647D01*
X172307020Y-83484626D01*
X172290291Y-83461843D01*
X172287996Y-83456355D01*
X172292543Y-83436088D01*
X172315602Y-83419884D01*
X172351995Y-83408513D01*
X172396544Y-83402740D01*
X172444072Y-83403334D01*
X172489400Y-83411063D01*
X172527351Y-83426694D01*
X172539381Y-83433993D01*
X172559632Y-83444676D01*
X172567129Y-83442230D01*
X172568218Y-83426647D01*
X172568473Y-83421053D01*
X172574539Y-83408660D01*
X172593356Y-83403020D01*
X172631089Y-83401683D01*
X172693960Y-83401683D01*
X172693960Y-84017822D01*
G36*
X172693960Y-84017822D02*
G01*
X172568218Y-84017822D01*
X172568218Y-83823740D01*
X172568078Y-83778594D01*
X172566649Y-83703823D01*
X172563029Y-83648467D01*
X172556434Y-83608702D01*
X172546079Y-83580700D01*
X172531178Y-83560635D01*
X172510946Y-83544681D01*
X172488859Y-83532792D01*
X172462705Y-83529421D01*
X172425508Y-83536917D01*
X172413555Y-83540038D01*
X172383718Y-83544735D01*
X172362383Y-83538005D01*
X172337655Y-83517177D01*
X172332963Y-83512647D01*
X172307020Y-83484626D01*
X172290291Y-83461843D01*
X172287996Y-83456355D01*
X172292543Y-83436088D01*
X172315602Y-83419884D01*
X172351995Y-83408513D01*
X172396544Y-83402740D01*
X172444072Y-83403334D01*
X172489400Y-83411063D01*
X172527351Y-83426694D01*
X172539381Y-83433993D01*
X172559632Y-83444676D01*
X172567129Y-83442230D01*
X172568218Y-83426647D01*
X172568473Y-83421053D01*
X172574539Y-83408660D01*
X172593356Y-83403020D01*
X172631089Y-83401683D01*
X172693960Y-83401683D01*
X172693960Y-84017822D01*
G37*
X173307299Y-83850223D02*
X173307157Y-83851882D01*
X173291835Y-83916479D01*
X173257753Y-83965063D01*
X173203218Y-84000072D01*
X173175036Y-84008589D01*
X173126764Y-84015228D01*
X173073978Y-84016813D01*
X173026353Y-84013160D01*
X172993566Y-84004083D01*
X172973652Y-83996813D01*
X172954155Y-84004083D01*
X172947023Y-84008295D01*
X172918557Y-84015126D01*
X172880059Y-84017822D01*
X172819703Y-84017822D01*
X172819703Y-83774484D01*
X172819707Y-83753763D01*
X172958020Y-83753763D01*
X172958020Y-83802111D01*
X172962668Y-83838904D01*
X172981015Y-83871269D01*
X172991514Y-83878274D01*
X173028988Y-83889191D01*
X173075773Y-83891917D01*
X173121652Y-83886379D01*
X173156410Y-83872505D01*
X173173726Y-83854161D01*
X173184356Y-83821566D01*
X173174929Y-83795729D01*
X173143764Y-83773263D01*
X173093667Y-83758850D01*
X173027582Y-83753763D01*
X172958020Y-83753763D01*
X172819707Y-83753763D01*
X172819707Y-83753440D01*
X172819937Y-83674122D01*
X172820797Y-83615154D01*
X172822679Y-83572616D01*
X172825974Y-83542592D01*
X172831073Y-83521163D01*
X172838366Y-83504411D01*
X172848246Y-83488419D01*
X172880023Y-83450948D01*
X172925055Y-83422339D01*
X172984210Y-83406555D01*
X173062161Y-83401703D01*
X173064695Y-83401708D01*
X173118880Y-83404155D01*
X173167380Y-83410256D01*
X173200478Y-83418809D01*
X173209552Y-83423096D01*
X173238433Y-83441248D01*
X173264568Y-83462822D01*
X173281764Y-83482236D01*
X173283825Y-83493909D01*
X173279803Y-83497063D01*
X173235976Y-83530739D01*
X173206671Y-83550600D01*
X173187294Y-83558613D01*
X173173253Y-83556746D01*
X173159957Y-83546965D01*
X173135418Y-83534756D01*
X173094064Y-83526615D01*
X173047326Y-83524503D01*
X173005034Y-83528800D01*
X172977017Y-83539887D01*
X172975543Y-83541236D01*
X172962953Y-83566581D01*
X172958020Y-83604411D01*
X172958020Y-83653169D01*
X173074331Y-83653216D01*
X173127760Y-83654061D01*
X173172735Y-83657740D01*
X173204907Y-83665309D01*
X173230899Y-83677808D01*
X173236948Y-83681647D01*
X173280710Y-83723845D01*
X173303987Y-83779647D01*
X173305955Y-83821566D01*
X173307299Y-83850223D01*
G36*
X173307299Y-83850223D02*
G01*
X173307157Y-83851882D01*
X173291835Y-83916479D01*
X173257753Y-83965063D01*
X173203218Y-84000072D01*
X173175036Y-84008589D01*
X173126764Y-84015228D01*
X173073978Y-84016813D01*
X173026353Y-84013160D01*
X172993566Y-84004083D01*
X172973652Y-83996813D01*
X172954155Y-84004083D01*
X172947023Y-84008295D01*
X172918557Y-84015126D01*
X172880059Y-84017822D01*
X172819703Y-84017822D01*
X172819703Y-83774484D01*
X172819707Y-83753763D01*
X172958020Y-83753763D01*
X172958020Y-83802111D01*
X172962668Y-83838904D01*
X172981015Y-83871269D01*
X172991514Y-83878274D01*
X173028988Y-83889191D01*
X173075773Y-83891917D01*
X173121652Y-83886379D01*
X173156410Y-83872505D01*
X173173726Y-83854161D01*
X173184356Y-83821566D01*
X173174929Y-83795729D01*
X173143764Y-83773263D01*
X173093667Y-83758850D01*
X173027582Y-83753763D01*
X172958020Y-83753763D01*
X172819707Y-83753763D01*
X172819707Y-83753440D01*
X172819937Y-83674122D01*
X172820797Y-83615154D01*
X172822679Y-83572616D01*
X172825974Y-83542592D01*
X172831073Y-83521163D01*
X172838366Y-83504411D01*
X172848246Y-83488419D01*
X172880023Y-83450948D01*
X172925055Y-83422339D01*
X172984210Y-83406555D01*
X173062161Y-83401703D01*
X173064695Y-83401708D01*
X173118880Y-83404155D01*
X173167380Y-83410256D01*
X173200478Y-83418809D01*
X173209552Y-83423096D01*
X173238433Y-83441248D01*
X173264568Y-83462822D01*
X173281764Y-83482236D01*
X173283825Y-83493909D01*
X173279803Y-83497063D01*
X173235976Y-83530739D01*
X173206671Y-83550600D01*
X173187294Y-83558613D01*
X173173253Y-83556746D01*
X173159957Y-83546965D01*
X173135418Y-83534756D01*
X173094064Y-83526615D01*
X173047326Y-83524503D01*
X173005034Y-83528800D01*
X172977017Y-83539887D01*
X172975543Y-83541236D01*
X172962953Y-83566581D01*
X172958020Y-83604411D01*
X172958020Y-83653169D01*
X173074331Y-83653216D01*
X173127760Y-83654061D01*
X173172735Y-83657740D01*
X173204907Y-83665309D01*
X173230899Y-83677808D01*
X173236948Y-83681647D01*
X173280710Y-83723845D01*
X173303987Y-83779647D01*
X173305955Y-83821566D01*
X173307299Y-83850223D01*
G37*
X173875940Y-84019136D02*
X173809926Y-84015336D01*
X173743911Y-84011535D01*
X173740772Y-83810347D01*
X173739844Y-83761425D01*
X173737208Y-83687926D01*
X173732683Y-83633991D01*
X173725438Y-83595995D01*
X173714642Y-83570313D01*
X173699462Y-83553320D01*
X173679066Y-83541389D01*
X173640797Y-83529205D01*
X173602738Y-83533940D01*
X173562549Y-83559979D01*
X173523861Y-83592533D01*
X173523861Y-84017822D01*
X173385544Y-84017822D01*
X173385544Y-83787176D01*
X173385677Y-83714882D01*
X173386413Y-83650641D01*
X173388181Y-83603618D01*
X173391411Y-83569548D01*
X173396530Y-83544170D01*
X173403967Y-83523221D01*
X173414150Y-83502436D01*
X173416564Y-83498024D01*
X173448675Y-83455047D01*
X173486256Y-83425013D01*
X173531564Y-83409243D01*
X173591561Y-83402222D01*
X173651643Y-83406025D01*
X173700525Y-83420868D01*
X173737624Y-83440052D01*
X173737624Y-83024859D01*
X173686792Y-83051354D01*
X173665558Y-83060980D01*
X173598536Y-83074592D01*
X173531930Y-83065184D01*
X173470187Y-83033905D01*
X173417757Y-82981902D01*
X173409543Y-82969680D01*
X173401649Y-82951763D01*
X173396500Y-82927404D01*
X173393527Y-82891927D01*
X173392161Y-82840656D01*
X173391915Y-82787236D01*
X173524749Y-82787236D01*
X173524861Y-82831849D01*
X173528272Y-82861601D01*
X173535937Y-82882835D01*
X173548814Y-82901896D01*
X173565171Y-82919617D01*
X173591329Y-82933028D01*
X173630742Y-82936436D01*
X173665559Y-82933471D01*
X173700020Y-82918631D01*
X173722215Y-82888569D01*
X173734097Y-82840254D01*
X173737624Y-82770650D01*
X173736712Y-82733624D01*
X173727609Y-82663728D01*
X173708828Y-82616464D01*
X173680476Y-82592168D01*
X173651840Y-82585332D01*
X173601970Y-82588537D01*
X173559833Y-82608380D01*
X173549749Y-82617480D01*
X173539063Y-82633223D01*
X173532456Y-82656658D01*
X173528532Y-82693604D01*
X173525897Y-82749880D01*
X173524749Y-82787236D01*
X173391915Y-82787236D01*
X173391831Y-82768917D01*
X173391944Y-82736184D01*
X173393872Y-82660044D01*
X173399240Y-82603166D01*
X173409406Y-82561249D01*
X173425725Y-82529996D01*
X173449553Y-82505106D01*
X173482247Y-82482282D01*
X173508759Y-82469184D01*
X173571615Y-82454739D01*
X173637869Y-82456707D01*
X173696757Y-82475433D01*
X173722030Y-82487673D01*
X173734742Y-82488938D01*
X173737624Y-82477798D01*
X173737626Y-82477461D01*
X173743838Y-82466087D01*
X173765260Y-82460256D01*
X173806782Y-82458614D01*
X173875940Y-82458614D01*
X173875940Y-82770650D01*
X173875940Y-84019136D01*
G36*
X173875940Y-84019136D02*
G01*
X173809926Y-84015336D01*
X173743911Y-84011535D01*
X173740772Y-83810347D01*
X173739844Y-83761425D01*
X173737208Y-83687926D01*
X173732683Y-83633991D01*
X173725438Y-83595995D01*
X173714642Y-83570313D01*
X173699462Y-83553320D01*
X173679066Y-83541389D01*
X173640797Y-83529205D01*
X173602738Y-83533940D01*
X173562549Y-83559979D01*
X173523861Y-83592533D01*
X173523861Y-84017822D01*
X173385544Y-84017822D01*
X173385544Y-83787176D01*
X173385677Y-83714882D01*
X173386413Y-83650641D01*
X173388181Y-83603618D01*
X173391411Y-83569548D01*
X173396530Y-83544170D01*
X173403967Y-83523221D01*
X173414150Y-83502436D01*
X173416564Y-83498024D01*
X173448675Y-83455047D01*
X173486256Y-83425013D01*
X173531564Y-83409243D01*
X173591561Y-83402222D01*
X173651643Y-83406025D01*
X173700525Y-83420868D01*
X173737624Y-83440052D01*
X173737624Y-83024859D01*
X173686792Y-83051354D01*
X173665558Y-83060980D01*
X173598536Y-83074592D01*
X173531930Y-83065184D01*
X173470187Y-83033905D01*
X173417757Y-82981902D01*
X173409543Y-82969680D01*
X173401649Y-82951763D01*
X173396500Y-82927404D01*
X173393527Y-82891927D01*
X173392161Y-82840656D01*
X173391915Y-82787236D01*
X173524749Y-82787236D01*
X173524861Y-82831849D01*
X173528272Y-82861601D01*
X173535937Y-82882835D01*
X173548814Y-82901896D01*
X173565171Y-82919617D01*
X173591329Y-82933028D01*
X173630742Y-82936436D01*
X173665559Y-82933471D01*
X173700020Y-82918631D01*
X173722215Y-82888569D01*
X173734097Y-82840254D01*
X173737624Y-82770650D01*
X173736712Y-82733624D01*
X173727609Y-82663728D01*
X173708828Y-82616464D01*
X173680476Y-82592168D01*
X173651840Y-82585332D01*
X173601970Y-82588537D01*
X173559833Y-82608380D01*
X173549749Y-82617480D01*
X173539063Y-82633223D01*
X173532456Y-82656658D01*
X173528532Y-82693604D01*
X173525897Y-82749880D01*
X173524749Y-82787236D01*
X173391915Y-82787236D01*
X173391831Y-82768917D01*
X173391944Y-82736184D01*
X173393872Y-82660044D01*
X173399240Y-82603166D01*
X173409406Y-82561249D01*
X173425725Y-82529996D01*
X173449553Y-82505106D01*
X173482247Y-82482282D01*
X173508759Y-82469184D01*
X173571615Y-82454739D01*
X173637869Y-82456707D01*
X173696757Y-82475433D01*
X173722030Y-82487673D01*
X173734742Y-82488938D01*
X173737624Y-82477798D01*
X173737626Y-82477461D01*
X173743838Y-82466087D01*
X173765260Y-82460256D01*
X173806782Y-82458614D01*
X173875940Y-82458614D01*
X173875940Y-82770650D01*
X173875940Y-84019136D01*
G37*
G04 #@! TD*
%LPC*%
D12*
G04 #@! TO.C,J5*
X246210000Y-98155000D03*
X246210000Y-95615000D03*
X246210000Y-106325000D03*
X246210000Y-108865000D03*
D13*
X238260000Y-94495000D03*
D12*
X232410000Y-97800000D03*
D13*
X238260000Y-109985000D03*
D12*
X234950000Y-99060000D03*
X232410000Y-100340000D03*
X234950000Y-101600000D03*
X232410000Y-102880000D03*
X234950000Y-104140000D03*
X232410000Y-105420000D03*
D14*
X234950000Y-106680000D03*
D15*
X241310000Y-107955000D03*
X241310000Y-96525000D03*
G04 #@! TD*
D16*
G04 #@! TO.C,J1*
X171600000Y-111100000D03*
X171600000Y-116100000D03*
G04 #@! TD*
D17*
G04 #@! TO.C,J2*
X209540000Y-118800000D03*
X207000000Y-118800000D03*
D18*
X204460000Y-118800000D03*
G04 #@! TD*
G04 #@! TO.C,J3*
X204460000Y-115000000D03*
D17*
X207000000Y-115000000D03*
X209540000Y-115000000D03*
G04 #@! TD*
D18*
G04 #@! TO.C,J4*
X228600000Y-79200000D03*
D17*
X231140000Y-79200000D03*
G04 #@! TD*
D19*
G04 #@! TO.C,J6*
X248120000Y-83420000D03*
X248120000Y-87420000D03*
G04 #@! TD*
D20*
G04 #@! TO.C,U3*
X168400000Y-88800000D03*
D21*
X216660000Y-73560000D03*
X170940000Y-88800000D03*
X214120000Y-73560000D03*
X173480000Y-88800000D03*
X211580000Y-73560000D03*
X176020000Y-88800000D03*
X209040000Y-73560000D03*
X178560000Y-88800000D03*
X206500000Y-73560000D03*
X181100000Y-88800000D03*
X203960000Y-73560000D03*
X183640000Y-88800000D03*
X201420000Y-73560000D03*
X186180000Y-88800000D03*
X198880000Y-73560000D03*
X188720000Y-88800000D03*
X196340000Y-73560000D03*
X191260000Y-88800000D03*
X193800000Y-73560000D03*
X193800000Y-88800000D03*
X191260000Y-73560000D03*
X196340000Y-88800000D03*
X188720000Y-73560000D03*
X198880000Y-88800000D03*
X186180000Y-73560000D03*
X201420000Y-88800000D03*
X183640000Y-73560000D03*
X203960000Y-88800000D03*
X181100000Y-73560000D03*
X206500000Y-88800000D03*
X178560000Y-73560000D03*
X209040000Y-88800000D03*
X176020000Y-73560000D03*
X211580000Y-88800000D03*
X173480000Y-73560000D03*
X214120000Y-88800000D03*
X170940000Y-73560000D03*
X216660000Y-88800000D03*
X168400000Y-73560000D03*
G04 #@! TD*
%LPD*%
M02*
