G04 #@! TF.GenerationSoftware,KiCad,Pcbnew,8.0.4*
G04 #@! TF.CreationDate,2024-09-14T16:47:45+09:00*
G04 #@! TF.ProjectId,100base-t1-converter,31303062-6173-4652-9d74-312d636f6e76,rev?*
G04 #@! TF.SameCoordinates,Original*
G04 #@! TF.FileFunction,Other,User*
%FSLAX46Y46*%
G04 Gerber Fmt 4.6, Leading zero omitted, Abs format (unit mm)*
G04 Created by KiCad (PCBNEW 8.0.4) date 2024-09-14 16:47:45*
%MOMM*%
%LPD*%
G01*
G04 APERTURE LIST*
%ADD10C,0.050000*%
G04 APERTURE END LIST*
D10*
G04 #@! TO.C,J5*
X236600000Y-93990000D02*
X237600000Y-92990000D01*
X239880000Y-93990000D02*
X252460000Y-93990000D01*
X236600000Y-93990000D02*
X230560000Y-93990000D01*
X238880000Y-92990000D02*
X237600000Y-92990000D01*
X238880000Y-92990000D02*
X239880000Y-93990000D01*
X252460000Y-110490000D02*
X252460000Y-93990000D01*
X230550000Y-110490000D02*
X230550000Y-93990000D01*
X236600000Y-110490000D02*
X230550000Y-110490000D01*
X238880000Y-111490000D02*
X239880000Y-110490000D01*
X236600000Y-110490000D02*
X237600000Y-111490000D01*
X238880000Y-111490000D02*
X237600000Y-111490000D01*
X239880000Y-110490000D02*
X252460000Y-110490000D01*
G04 #@! TO.C,R4*
X214330000Y-99925000D02*
X212870000Y-99925000D01*
X212870000Y-99925000D02*
X212870000Y-96625000D01*
X212870000Y-96625000D02*
X214330000Y-96625000D01*
X214330000Y-96625000D02*
X214330000Y-99925000D01*
G04 #@! TO.C,C21*
X219475000Y-99330000D02*
X219475000Y-97870000D01*
X219475000Y-97870000D02*
X222775000Y-97870000D01*
X222775000Y-97870000D02*
X222775000Y-99330000D01*
X222775000Y-99330000D02*
X219475000Y-99330000D01*
G04 #@! TO.C,C19*
X226270000Y-97775000D02*
X226270000Y-94475000D01*
X227730000Y-97775000D02*
X226270000Y-97775000D01*
X227730000Y-94475000D02*
X227730000Y-97775000D01*
X226270000Y-94475000D02*
X227730000Y-94475000D01*
G04 #@! TO.C,C1*
X239490000Y-88885000D02*
X238030000Y-88885000D01*
X238030000Y-88885000D02*
X238030000Y-85585000D01*
X238030000Y-85585000D02*
X239490000Y-85585000D01*
X239490000Y-85585000D02*
X239490000Y-88885000D01*
G04 #@! TO.C,C2*
X228615000Y-92170000D02*
X228615000Y-90710000D01*
X228615000Y-90710000D02*
X231915000Y-90710000D01*
X231915000Y-90710000D02*
X231915000Y-92170000D01*
X231915000Y-92170000D02*
X228615000Y-92170000D01*
G04 #@! TO.C,C3*
X198730000Y-97075000D02*
X198730000Y-100375000D01*
X197270000Y-97075000D02*
X198730000Y-97075000D01*
X197270000Y-100375000D02*
X197270000Y-97075000D01*
X198730000Y-100375000D02*
X197270000Y-100375000D01*
G04 #@! TO.C,C4*
X209725000Y-105470000D02*
X209725000Y-106930000D01*
X209725000Y-106930000D02*
X206425000Y-106930000D01*
X206425000Y-106930000D02*
X206425000Y-105470000D01*
X206425000Y-105470000D02*
X209725000Y-105470000D01*
G04 #@! TO.C,C5*
X195350000Y-104530000D02*
X195350000Y-103070000D01*
X195350000Y-103070000D02*
X198650000Y-103070000D01*
X198650000Y-103070000D02*
X198650000Y-104530000D01*
X198650000Y-104530000D02*
X195350000Y-104530000D01*
G04 #@! TO.C,C6*
X198725000Y-102930000D02*
X195425000Y-102930000D01*
X198725000Y-101470000D02*
X198725000Y-102930000D01*
X195425000Y-101470000D02*
X198725000Y-101470000D01*
X195425000Y-102930000D02*
X195425000Y-101470000D01*
G04 #@! TO.C,C7*
X206425000Y-102670000D02*
X209725000Y-102670000D01*
X206425000Y-104130000D02*
X206425000Y-102670000D01*
X209725000Y-104130000D02*
X206425000Y-104130000D01*
X209725000Y-102670000D02*
X209725000Y-104130000D01*
G04 #@! TO.C,C8*
X206275000Y-98730000D02*
X206275000Y-97270000D01*
X206275000Y-97270000D02*
X209575000Y-97270000D01*
X209575000Y-97270000D02*
X209575000Y-98730000D01*
X209575000Y-98730000D02*
X206275000Y-98730000D01*
G04 #@! TO.C,C9*
X204325000Y-109730000D02*
X201025000Y-109730000D01*
X204325000Y-108270000D02*
X204325000Y-109730000D01*
X201025000Y-108270000D02*
X204325000Y-108270000D01*
X201025000Y-109730000D02*
X201025000Y-108270000D01*
G04 #@! TO.C,C10*
X201025000Y-111330000D02*
X201025000Y-109870000D01*
X201025000Y-109870000D02*
X204325000Y-109870000D01*
X204325000Y-109870000D02*
X204325000Y-111330000D01*
X204325000Y-111330000D02*
X201025000Y-111330000D01*
G04 #@! TO.C,C11*
X203730000Y-107925000D02*
X202270000Y-107925000D01*
X202270000Y-107925000D02*
X202270000Y-104625000D01*
X202270000Y-104625000D02*
X203730000Y-104625000D01*
X203730000Y-104625000D02*
X203730000Y-107925000D01*
G04 #@! TO.C,C12*
X200925000Y-104670000D02*
X200925000Y-106130000D01*
X200925000Y-106130000D02*
X197625000Y-106130000D01*
X197625000Y-106130000D02*
X197625000Y-104670000D01*
X197625000Y-104670000D02*
X200925000Y-104670000D01*
G04 #@! TO.C,C13*
X179470000Y-100675000D02*
X180930000Y-100675000D01*
X180930000Y-100675000D02*
X180930000Y-103975000D01*
X180930000Y-103975000D02*
X179470000Y-103975000D01*
X179470000Y-103975000D02*
X179470000Y-100675000D01*
G04 #@! TO.C,C14*
X180930000Y-97225000D02*
X180930000Y-100525000D01*
X179470000Y-97225000D02*
X180930000Y-97225000D01*
X179470000Y-100525000D02*
X179470000Y-97225000D01*
X180930000Y-100525000D02*
X179470000Y-100525000D01*
G04 #@! TO.C,C15*
X187575000Y-113730000D02*
X184275000Y-113730000D01*
X187575000Y-112270000D02*
X187575000Y-113730000D01*
X184275000Y-112270000D02*
X187575000Y-112270000D01*
X184275000Y-113730000D02*
X184275000Y-112270000D01*
G04 #@! TO.C,C16*
X187575000Y-113870000D02*
X187575000Y-115330000D01*
X187575000Y-115330000D02*
X184275000Y-115330000D01*
X184275000Y-115330000D02*
X184275000Y-113870000D01*
X184275000Y-113870000D02*
X187575000Y-113870000D01*
G04 #@! TO.C,C17*
X169075000Y-104530000D02*
X169075000Y-103070000D01*
X169075000Y-103070000D02*
X172375000Y-103070000D01*
X172375000Y-103070000D02*
X172375000Y-104530000D01*
X172375000Y-104530000D02*
X169075000Y-104530000D01*
G04 #@! TO.C,C18*
X223575000Y-111130000D02*
X220275000Y-111130000D01*
X223575000Y-109670000D02*
X223575000Y-111130000D01*
X220275000Y-109670000D02*
X223575000Y-109670000D01*
X220275000Y-111130000D02*
X220275000Y-109670000D01*
G04 #@! TO.C,C20*
X227770000Y-94475000D02*
X229230000Y-94475000D01*
X229230000Y-94475000D02*
X229230000Y-97775000D01*
X229230000Y-97775000D02*
X227770000Y-97775000D01*
X227770000Y-97775000D02*
X227770000Y-94475000D01*
G04 #@! TO.C,C22*
X217175000Y-107070000D02*
X217175000Y-108530000D01*
X217175000Y-108530000D02*
X213875000Y-108530000D01*
X213875000Y-108530000D02*
X213875000Y-107070000D01*
X213875000Y-107070000D02*
X217175000Y-107070000D01*
G04 #@! TO.C,C23*
X220275000Y-109530000D02*
X220275000Y-108070000D01*
X220275000Y-108070000D02*
X223575000Y-108070000D01*
X223575000Y-108070000D02*
X223575000Y-109530000D01*
X223575000Y-109530000D02*
X220275000Y-109530000D01*
G04 #@! TO.C,C24*
X220275000Y-107930000D02*
X220275000Y-106470000D01*
X220275000Y-106470000D02*
X223575000Y-106470000D01*
X223575000Y-106470000D02*
X223575000Y-107930000D01*
X223575000Y-107930000D02*
X220275000Y-107930000D01*
G04 #@! TO.C,C25*
X228020000Y-106475000D02*
X229480000Y-106475000D01*
X229480000Y-106475000D02*
X229480000Y-109775000D01*
X229480000Y-109775000D02*
X228020000Y-109775000D01*
X228020000Y-109775000D02*
X228020000Y-106475000D01*
G04 #@! TO.C,C26*
X220625000Y-119270000D02*
X223925000Y-119270000D01*
X220625000Y-120730000D02*
X220625000Y-119270000D01*
X223925000Y-120730000D02*
X220625000Y-120730000D01*
X223925000Y-119270000D02*
X223925000Y-120730000D01*
G04 #@! TO.C,C27*
X224275000Y-120730000D02*
X224275000Y-119270000D01*
X224275000Y-119270000D02*
X227575000Y-119270000D01*
X227575000Y-119270000D02*
X227575000Y-120730000D01*
X227575000Y-120730000D02*
X224275000Y-120730000D01*
G04 #@! TO.C,F1*
X240720000Y-89850000D02*
X240720000Y-87950000D01*
X240720000Y-87950000D02*
X244420000Y-87950000D01*
X244420000Y-87950000D02*
X244420000Y-89850000D01*
X244420000Y-89850000D02*
X240720000Y-89850000D01*
G04 #@! TO.C,FB1*
X193275000Y-104670000D02*
X196575000Y-104670000D01*
X193275000Y-106130000D02*
X193275000Y-104670000D01*
X196575000Y-106130000D02*
X193275000Y-106130000D01*
X196575000Y-104670000D02*
X196575000Y-106130000D01*
G04 #@! TO.C,FB2*
X193375000Y-101470000D02*
X193375000Y-102930000D01*
X193375000Y-102930000D02*
X190075000Y-102930000D01*
X190075000Y-102930000D02*
X190075000Y-101470000D01*
X190075000Y-101470000D02*
X193375000Y-101470000D01*
G04 #@! TO.C,FB3*
X206425000Y-108530000D02*
X206425000Y-107070000D01*
X206425000Y-107070000D02*
X209725000Y-107070000D01*
X209725000Y-107070000D02*
X209725000Y-108530000D01*
X209725000Y-108530000D02*
X206425000Y-108530000D01*
G04 #@! TO.C,FB4*
X200530000Y-111325000D02*
X199070000Y-111325000D01*
X199070000Y-111325000D02*
X199070000Y-108025000D01*
X199070000Y-108025000D02*
X200530000Y-108025000D01*
X200530000Y-108025000D02*
X200530000Y-111325000D01*
G04 #@! TO.C,FB5*
X220275000Y-111270000D02*
X223575000Y-111270000D01*
X220275000Y-112730000D02*
X220275000Y-111270000D01*
X223575000Y-112730000D02*
X220275000Y-112730000D01*
X223575000Y-111270000D02*
X223575000Y-112730000D01*
G04 #@! TO.C,FL1*
X188300000Y-114850000D02*
X188300000Y-112750000D01*
X188300000Y-112750000D02*
X192900000Y-112750000D01*
X192900000Y-112750000D02*
X192900000Y-114850000D01*
X192900000Y-114850000D02*
X188300000Y-114850000D01*
G04 #@! TO.C,J1*
X172850000Y-109850000D02*
X172850000Y-117350000D01*
X172850000Y-117350000D02*
X170350000Y-117350000D01*
X170350000Y-117350000D02*
X170350000Y-109850000D01*
X170350000Y-109850000D02*
X172850000Y-109850000D01*
G04 #@! TO.C,J2*
X211310000Y-120600000D02*
X202660000Y-120600000D01*
X211310000Y-117050000D02*
X211310000Y-120600000D01*
X202660000Y-117050000D02*
X211310000Y-117050000D01*
X202660000Y-120600000D02*
X202660000Y-117050000D01*
G04 #@! TO.C,J3*
X202660000Y-116800000D02*
X202660000Y-113250000D01*
X202660000Y-113250000D02*
X211310000Y-113250000D01*
X211310000Y-113250000D02*
X211310000Y-116800000D01*
X211310000Y-116800000D02*
X202660000Y-116800000D01*
G04 #@! TO.C,J4*
X226800000Y-81000000D02*
X226800000Y-77450000D01*
X226800000Y-77450000D02*
X232900000Y-77450000D01*
X232900000Y-77450000D02*
X232900000Y-81000000D01*
X232900000Y-81000000D02*
X226800000Y-81000000D01*
G04 #@! TO.C,R1*
X203270000Y-93575000D02*
X203270000Y-90275000D01*
X204730000Y-93575000D02*
X203270000Y-93575000D01*
X204730000Y-90275000D02*
X204730000Y-93575000D01*
X203270000Y-90275000D02*
X204730000Y-90275000D01*
G04 #@! TO.C,R2*
X198275000Y-91530000D02*
X198275000Y-90070000D01*
X198275000Y-90070000D02*
X201575000Y-90070000D01*
X201575000Y-90070000D02*
X201575000Y-91530000D01*
X201575000Y-91530000D02*
X198275000Y-91530000D01*
G04 #@! TO.C,R3*
X215930000Y-103525000D02*
X214470000Y-103525000D01*
X214470000Y-103525000D02*
X214470000Y-100225000D01*
X214470000Y-100225000D02*
X215930000Y-100225000D01*
X215930000Y-100225000D02*
X215930000Y-103525000D01*
G04 #@! TO.C,R5*
X212730000Y-96625000D02*
X212730000Y-99925000D01*
X211270000Y-96625000D02*
X212730000Y-96625000D01*
X211270000Y-99925000D02*
X211270000Y-96625000D01*
X212730000Y-99925000D02*
X211270000Y-99925000D01*
G04 #@! TO.C,R6*
X214330000Y-104325000D02*
X212870000Y-104325000D01*
X212870000Y-104325000D02*
X212870000Y-101025000D01*
X212870000Y-101025000D02*
X214330000Y-101025000D01*
X214330000Y-101025000D02*
X214330000Y-104325000D01*
G04 #@! TO.C,R7*
X219330000Y-101725000D02*
X217870000Y-101725000D01*
X217870000Y-101725000D02*
X217870000Y-98425000D01*
X217870000Y-98425000D02*
X219330000Y-98425000D01*
X219330000Y-98425000D02*
X219330000Y-101725000D01*
G04 #@! TO.C,R8*
X217730000Y-98425000D02*
X217730000Y-101725000D01*
X216270000Y-98425000D02*
X217730000Y-98425000D01*
X216270000Y-101725000D02*
X216270000Y-98425000D01*
X217730000Y-101725000D02*
X216270000Y-101725000D01*
G04 #@! TO.C,R9*
X201930000Y-92075000D02*
X201930000Y-95375000D01*
X200470000Y-92075000D02*
X201930000Y-92075000D01*
X200470000Y-95375000D02*
X200470000Y-92075000D01*
X201930000Y-95375000D02*
X200470000Y-95375000D01*
G04 #@! TO.C,R10*
X213875000Y-106930000D02*
X213875000Y-105470000D01*
X213875000Y-105470000D02*
X217175000Y-105470000D01*
X217175000Y-105470000D02*
X217175000Y-106930000D01*
X217175000Y-106930000D02*
X213875000Y-106930000D01*
G04 #@! TO.C,R11*
X207775000Y-109870000D02*
X207775000Y-111330000D01*
X207775000Y-111330000D02*
X204475000Y-111330000D01*
X204475000Y-111330000D02*
X204475000Y-109870000D01*
X204475000Y-109870000D02*
X207775000Y-109870000D01*
G04 #@! TO.C,R12*
X197130000Y-99375000D02*
X195670000Y-99375000D01*
X195670000Y-99375000D02*
X195670000Y-96075000D01*
X195670000Y-96075000D02*
X197130000Y-96075000D01*
X197130000Y-96075000D02*
X197130000Y-99375000D01*
G04 #@! TO.C,R13*
X214475000Y-105130000D02*
X214475000Y-103670000D01*
X214475000Y-103670000D02*
X217775000Y-103670000D01*
X217775000Y-103670000D02*
X217775000Y-105130000D01*
X217775000Y-105130000D02*
X214475000Y-105130000D01*
G04 #@! TO.C,R14*
X204470000Y-104825000D02*
X205930000Y-104825000D01*
X205930000Y-104825000D02*
X205930000Y-108125000D01*
X205930000Y-108125000D02*
X204470000Y-108125000D01*
X204470000Y-108125000D02*
X204470000Y-104825000D01*
G04 #@! TO.C,R15*
X191730000Y-97075000D02*
X191730000Y-100375000D01*
X190270000Y-97075000D02*
X191730000Y-97075000D01*
X190270000Y-100375000D02*
X190270000Y-97075000D01*
X191730000Y-100375000D02*
X190270000Y-100375000D01*
G04 #@! TO.C,R16*
X191870000Y-97075000D02*
X193330000Y-97075000D01*
X193330000Y-97075000D02*
X193330000Y-100375000D01*
X193330000Y-100375000D02*
X191870000Y-100375000D01*
X191870000Y-100375000D02*
X191870000Y-97075000D01*
G04 #@! TO.C,R17*
X195870000Y-111375000D02*
X195870000Y-108075000D01*
X197330000Y-111375000D02*
X195870000Y-111375000D01*
X197330000Y-108075000D02*
X197330000Y-111375000D01*
X195870000Y-108075000D02*
X197330000Y-108075000D01*
G04 #@! TO.C,R18*
X172375000Y-104870000D02*
X172375000Y-106330000D01*
X172375000Y-106330000D02*
X169075000Y-106330000D01*
X169075000Y-106330000D02*
X169075000Y-104870000D01*
X169075000Y-104870000D02*
X172375000Y-104870000D01*
G04 #@! TO.C,R19*
X169025000Y-120330000D02*
X169025000Y-118870000D01*
X169025000Y-118870000D02*
X172325000Y-118870000D01*
X172325000Y-118870000D02*
X172325000Y-120330000D01*
X172325000Y-120330000D02*
X169025000Y-120330000D01*
G04 #@! TO.C,R20*
X172375000Y-108130000D02*
X169075000Y-108130000D01*
X172375000Y-106670000D02*
X172375000Y-108130000D01*
X169075000Y-106670000D02*
X172375000Y-106670000D01*
X169075000Y-108130000D02*
X169075000Y-106670000D01*
G04 #@! TO.C,R21*
X250175000Y-91980000D02*
X250175000Y-93440000D01*
X250175000Y-93440000D02*
X246875000Y-93440000D01*
X246875000Y-93440000D02*
X246875000Y-91980000D01*
X246875000Y-91980000D02*
X250175000Y-91980000D01*
G04 #@! TO.C,R22*
X242730000Y-90475000D02*
X242730000Y-93775000D01*
X241270000Y-90475000D02*
X242730000Y-90475000D01*
X241270000Y-93775000D02*
X241270000Y-90475000D01*
X242730000Y-93775000D02*
X241270000Y-93775000D01*
G04 #@! TO.C,R23*
X244775000Y-112490000D02*
X241475000Y-112490000D01*
X244775000Y-111030000D02*
X244775000Y-112490000D01*
X241475000Y-111030000D02*
X244775000Y-111030000D01*
X241475000Y-112490000D02*
X241475000Y-111030000D01*
G04 #@! TO.C,R24*
X229480000Y-109975000D02*
X229480000Y-113275000D01*
X228020000Y-109975000D02*
X229480000Y-109975000D01*
X228020000Y-113275000D02*
X228020000Y-109975000D01*
X229480000Y-113275000D02*
X228020000Y-113275000D01*
G04 #@! TO.C,R25*
X244725000Y-112870000D02*
X244725000Y-114330000D01*
X244725000Y-114330000D02*
X241425000Y-114330000D01*
X241425000Y-114330000D02*
X241425000Y-112870000D01*
X241425000Y-112870000D02*
X244725000Y-112870000D01*
G04 #@! TO.C,R26*
X217175000Y-108670000D02*
X217175000Y-110130000D01*
X217175000Y-110130000D02*
X213875000Y-110130000D01*
X213875000Y-110130000D02*
X213875000Y-108670000D01*
X213875000Y-108670000D02*
X217175000Y-108670000D01*
G04 #@! TO.C,R27*
X219425000Y-97730000D02*
X219425000Y-96270000D01*
X219425000Y-96270000D02*
X222725000Y-96270000D01*
X222725000Y-96270000D02*
X222725000Y-97730000D01*
X222725000Y-97730000D02*
X219425000Y-97730000D01*
G04 #@! TO.C,R28*
X218375000Y-97530000D02*
X215075000Y-97530000D01*
X218375000Y-96070000D02*
X218375000Y-97530000D01*
X215075000Y-96070000D02*
X218375000Y-96070000D01*
X215075000Y-97530000D02*
X215075000Y-96070000D01*
G04 #@! TO.C,R29*
X212330000Y-104825000D02*
X212330000Y-108125000D01*
X210870000Y-104825000D02*
X212330000Y-104825000D01*
X210870000Y-108125000D02*
X210870000Y-104825000D01*
X212330000Y-108125000D02*
X210870000Y-108125000D01*
G04 #@! TO.C,R30*
X215870000Y-90875000D02*
X217330000Y-90875000D01*
X217330000Y-90875000D02*
X217330000Y-94175000D01*
X217330000Y-94175000D02*
X215870000Y-94175000D01*
X215870000Y-94175000D02*
X215870000Y-90875000D01*
G04 #@! TO.C,R31*
X220270000Y-91975000D02*
X220270000Y-88675000D01*
X221730000Y-91975000D02*
X220270000Y-91975000D01*
X221730000Y-88675000D02*
X221730000Y-91975000D01*
X220270000Y-88675000D02*
X221730000Y-88675000D01*
G04 #@! TO.C,R32*
X211130000Y-94425000D02*
X211130000Y-97725000D01*
X209670000Y-94425000D02*
X211130000Y-94425000D01*
X209670000Y-97725000D02*
X209670000Y-94425000D01*
X211130000Y-97725000D02*
X209670000Y-97725000D01*
G04 #@! TO.C,R33*
X225775000Y-91930000D02*
X222475000Y-91930000D01*
X225775000Y-90470000D02*
X225775000Y-91930000D01*
X222475000Y-90470000D02*
X225775000Y-90470000D01*
X222475000Y-91930000D02*
X222475000Y-90470000D01*
G04 #@! TO.C,U1*
X225470000Y-89960000D02*
X234270000Y-89960000D01*
X225470000Y-82760000D02*
X225470000Y-89960000D01*
X234270000Y-82760000D02*
X225470000Y-82760000D01*
X234270000Y-89960000D02*
X234270000Y-82760000D01*
G04 #@! TO.C,U2*
X198980000Y-97380000D02*
X198980000Y-104620000D01*
X198980000Y-104620000D02*
X206220000Y-104620000D01*
X206220000Y-104620000D02*
X206220000Y-97380000D01*
X206220000Y-97380000D02*
X198980000Y-97380000D01*
G04 #@! TO.C,U3*
X166850000Y-89850000D02*
X218200000Y-89850000D01*
X218200000Y-89850000D02*
X218200000Y-72500000D01*
X218200000Y-72500000D02*
X166850000Y-72500000D01*
X166850000Y-72500000D02*
X166850000Y-89850000D01*
G04 #@! TO.C,U4*
X226100000Y-106100000D02*
X226100000Y-99900000D01*
X226100000Y-99900000D02*
X219900000Y-99900000D01*
X219900000Y-99900000D02*
X219900000Y-106100000D01*
X219900000Y-106100000D02*
X226100000Y-106100000D01*
G04 #@! TO.C,Y1*
X186400000Y-111137500D02*
X186400000Y-90737500D01*
X181200000Y-111137500D02*
X186400000Y-111137500D01*
X181200000Y-90737500D02*
X181200000Y-111137500D01*
X186400000Y-90737500D02*
X181200000Y-90737500D01*
G04 #@! TO.C,Y2*
X213662500Y-113600000D02*
X213662500Y-118800000D01*
X213662500Y-118800000D02*
X234062500Y-118800000D01*
X234062500Y-118800000D02*
X234062500Y-113600000D01*
X234062500Y-113600000D02*
X213662500Y-113600000D01*
G04 #@! TO.C,C28*
X226475000Y-100980000D02*
X226475000Y-99520000D01*
X226475000Y-99520000D02*
X229775000Y-99520000D01*
X229775000Y-99520000D02*
X229775000Y-100980000D01*
X229775000Y-100980000D02*
X226475000Y-100980000D01*
G04 #@! TO.C,RN1*
X208150000Y-98950000D02*
X211250000Y-98950000D01*
X208150000Y-98950000D02*
X208150000Y-102650000D01*
X211250000Y-102650000D02*
X211250000Y-98950000D01*
X211250000Y-102650000D02*
X208150000Y-102650000D01*
G04 #@! TO.C,RN2*
X219950000Y-92150000D02*
X223050000Y-92150000D01*
X219950000Y-92150000D02*
X219950000Y-95850000D01*
X223050000Y-95850000D02*
X223050000Y-92150000D01*
X223050000Y-95850000D02*
X219950000Y-95850000D01*
G04 #@! TD*
M02*
