M48
; DRILL file {KiCad 8.0.4} date 2024-09-14T16:47:45+0900
; FORMAT={-:-/ absolute / metric / decimal}
; #@! TF.CreationDate,2024-09-14T16:47:45+09:00
; #@! TF.GenerationSoftware,Kicad,Pcbnew,8.0.4
; #@! TF.FileFunction,Plated,1,4,PTH
FMAT,2
METRIC
; #@! TA.AperFunction,Plated,PTH,ViaDrill
T1C0.300
; #@! TA.AperFunction,Plated,PTH,ComponentDrill
T2C0.300
; #@! TA.AperFunction,Plated,PTH,ViaDrill
T3C0.400
; #@! TA.AperFunction,Plated,PTH,ComponentDrill
T4C0.800
; #@! TA.AperFunction,Plated,PTH,ComponentDrill
T5C0.900
; #@! TA.AperFunction,Plated,PTH,ComponentDrill
T6C1.000
; #@! TA.AperFunction,Plated,PTH,ComponentDrill
T7C1.020
; #@! TA.AperFunction,Plated,PTH,ComponentDrill
T8C1.200
; #@! TA.AperFunction,Plated,PTH,ComponentDrill
T9C1.630
%
G90
G05
T1
X173.2Y-103.8
X173.2Y-105.6
X181.8Y-100.6
X189.6Y-102.2
X191.0Y-96.6
X192.2Y-104.4
X192.6Y-96.6
X194.4Y-103.0
X194.8Y-103.8
X194.976Y-96.093
X195.0Y-102.2
X195.4Y-110.6
X196.6Y-93.2
X197.0Y-105.8
X197.8Y-90.8
X198.0Y-96.8
X198.8Y-109.8
X199.4Y-104.0
X199.6Y-95.4
X199.8Y-111.8
X200.0Y-106.4
X200.4Y-96.0
X201.0Y-105.2
X201.676Y-96.593
X201.8Y-111.8
X202.0Y-107.8
X202.4Y-92.8
X203.0Y-106.0
X205.2Y-93.0
X205.47Y-96.47
X206.0Y-104.4
X206.671Y-99.424
X207.181Y-104.424
X207.619Y-98.819
X207.981Y-104.424
X208.2Y-110.6
X209.0Y-109.0
X209.2Y-96.8
X210.2Y-103.4
X210.2Y-105.6
X210.8Y-108.4
X212.2Y-96.4
X213.4Y-107.0
X213.589Y-106.223
X213.6Y-109.4
X213.681Y-107.749
X214.2Y-105.0
X214.6Y-97.0
X216.4Y-98.2
X216.6Y-90.4
X217.6Y-105.8
X217.6Y-107.2
X217.8Y-98.2
X219.0Y-97.4
X219.0Y-103.6
X219.154Y-104.465
X219.4Y-91.2
X220.0Y-107.2
X220.0Y-108.8
X220.0Y-110.4
X220.0Y-112.0
X220.013Y-105.007
X220.6Y-105.55
X221.954Y-99.418
X224.0Y-107.4
X226.6Y-99.0
X228.8Y-81.4
X240.4Y-93.0
X240.8Y-111.8
T2
X201.6Y-100.0
X201.6Y-101.0
X201.6Y-102.0
X202.6Y-100.0
X202.6Y-101.0
X202.6Y-102.0
X203.6Y-100.0
X203.6Y-101.0
X203.6Y-102.0
X222.0Y-102.0
X222.0Y-103.0
X222.0Y-104.0
X223.0Y-102.0
X223.0Y-103.0
X223.0Y-104.0
X224.0Y-102.0
X224.0Y-103.0
X224.0Y-104.0
T3
X221.0Y-88.0
X224.2Y-119.0
X226.75Y-101.575
X228.515Y-98.985
X228.75Y-114.0
X228.8Y-86.6
X230.0Y-110.0
X231.0Y-87.0
X235.5Y-82.0
X235.5Y-88.5
X235.5Y-91.5
X237.0Y-84.5
X238.0Y-82.0
X238.0Y-91.5
X240.5Y-82.0
X240.5Y-85.0
X240.5Y-91.5
X243.0Y-82.0
X243.0Y-86.0
X243.0Y-91.5
X245.5Y-82.0
X245.5Y-86.5
X245.5Y-91.5
T4
X168.4Y-73.56
X168.4Y-88.8
X170.94Y-73.56
X170.94Y-88.8
X173.48Y-73.56
X173.48Y-88.8
X176.02Y-73.56
X176.02Y-88.8
X178.56Y-73.56
X178.56Y-88.8
X181.1Y-73.56
X181.1Y-88.8
X183.64Y-73.56
X183.64Y-88.8
X186.18Y-73.56
X186.18Y-88.8
X188.72Y-73.56
X188.72Y-88.8
X191.26Y-73.56
X191.26Y-88.8
X193.8Y-73.56
X193.8Y-88.8
X196.34Y-73.56
X196.34Y-88.8
X198.88Y-73.56
X198.88Y-88.8
X201.42Y-73.56
X201.42Y-88.8
X203.96Y-73.56
X203.96Y-88.8
X206.5Y-73.56
X206.5Y-88.8
X209.04Y-73.56
X209.04Y-88.8
X211.58Y-73.56
X211.58Y-88.8
X214.12Y-73.56
X214.12Y-88.8
X216.66Y-73.56
X216.66Y-88.8
T5
X232.41Y-97.8
X232.41Y-100.34
X232.41Y-102.88
X232.41Y-105.42
X234.95Y-99.06
X234.95Y-101.6
X234.95Y-104.14
X234.95Y-106.68
T6
X204.46Y-115.0
X204.46Y-118.8
X207.0Y-115.0
X207.0Y-118.8
X209.54Y-115.0
X209.54Y-118.8
X228.6Y-79.2
X231.14Y-79.2
T7
X246.21Y-95.615
X246.21Y-98.155
X246.21Y-106.325
X246.21Y-108.865
T8
X171.6Y-111.1
X171.6Y-116.1
T9
X238.26Y-94.495
X238.26Y-109.985
M30
